%TF.GenerationSoftware,KiCad,Pcbnew,9.0.5*%
%TF.CreationDate,2025-11-15T02:09:42-05:00*%
%TF.ProjectId,CreditCard,43726564-6974-4436-9172-642e6b696361,rev?*%
%TF.SameCoordinates,Original*%
%TF.FileFunction,Copper,L1,Top*%
%TF.FilePolarity,Positive*%
%FSLAX46Y46*%
G04 Gerber Fmt 4.6, Leading zero omitted, Abs format (unit mm)*
G04 Created by KiCad (PCBNEW 9.0.5) date 2025-11-15 02:09:42*
%MOMM*%
%LPD*%
G01*
G04 APERTURE LIST*
G04 Aperture macros list*
%AMRoundRect*
0 Rectangle with rounded corners*
0 $1 Rounding radius*
0 $2 $3 $4 $5 $6 $7 $8 $9 X,Y pos of 4 corners*
0 Add a 4 corners polygon primitive as box body*
4,1,4,$2,$3,$4,$5,$6,$7,$8,$9,$2,$3,0*
0 Add four circle primitives for the rounded corners*
1,1,$1+$1,$2,$3*
1,1,$1+$1,$4,$5*
1,1,$1+$1,$6,$7*
1,1,$1+$1,$8,$9*
0 Add four rect primitives between the rounded corners*
20,1,$1+$1,$2,$3,$4,$5,0*
20,1,$1+$1,$4,$5,$6,$7,0*
20,1,$1+$1,$6,$7,$8,$9,0*
20,1,$1+$1,$8,$9,$2,$3,0*%
%AMFreePoly0*
4,1,18,-1.500000,0.437500,-1.485727,0.509253,-1.445083,0.570083,-1.384253,0.610727,-1.312500,0.625000,1.187500,0.625000,1.500000,0.312500,1.500000,-0.437500,1.485727,-0.509253,1.445083,-0.570083,1.384253,-0.610727,1.312500,-0.625000,-1.312500,-0.625000,-1.384253,-0.610727,-1.445083,-0.570083,-1.485727,-0.509253,-1.500000,-0.437500,-1.500000,0.437500,-1.500000,0.437500,$1*%
G04 Aperture macros list end*
%TA.AperFunction,ComponentPad*%
%ADD10R,1.854200X1.854200*%
%TD*%
%TA.AperFunction,ComponentPad*%
%ADD11C,1.854200*%
%TD*%
%TA.AperFunction,SMDPad,CuDef*%
%ADD12R,2.209800X0.863600*%
%TD*%
%TA.AperFunction,ComponentPad*%
%ADD13R,1.308000X1.308000*%
%TD*%
%TA.AperFunction,ComponentPad*%
%ADD14C,1.308000*%
%TD*%
%TA.AperFunction,SMDPad,CuDef*%
%ADD15RoundRect,0.200000X0.275000X-0.200000X0.275000X0.200000X-0.275000X0.200000X-0.275000X-0.200000X0*%
%TD*%
%TA.AperFunction,SMDPad,CuDef*%
%ADD16RoundRect,0.200000X-0.275000X0.200000X-0.275000X-0.200000X0.275000X-0.200000X0.275000X0.200000X0*%
%TD*%
%TA.AperFunction,SMDPad,CuDef*%
%ADD17RoundRect,0.225000X0.250000X-0.225000X0.250000X0.225000X-0.250000X0.225000X-0.250000X-0.225000X0*%
%TD*%
%TA.AperFunction,ComponentPad*%
%ADD18R,1.650000X1.650000*%
%TD*%
%TA.AperFunction,ComponentPad*%
%ADD19C,1.650000*%
%TD*%
%TA.AperFunction,BGAPad,CuDef*%
%ADD20FreePoly0,180.000000*%
%TD*%
%TA.AperFunction,SMDPad,CuDef*%
%ADD21RoundRect,0.225000X-0.225000X-0.250000X0.225000X-0.250000X0.225000X0.250000X-0.225000X0.250000X0*%
%TD*%
%TA.AperFunction,SMDPad,CuDef*%
%ADD22RoundRect,0.243750X-0.456250X0.243750X-0.456250X-0.243750X0.456250X-0.243750X0.456250X0.243750X0*%
%TD*%
%TA.AperFunction,ComponentPad*%
%ADD23O,2.100000X1.050000*%
%TD*%
%TA.AperFunction,ComponentPad*%
%ADD24O,1.800000X0.900000*%
%TD*%
%TA.AperFunction,SMDPad,CuDef*%
%ADD25C,0.500000*%
%TD*%
%TA.AperFunction,ViaPad*%
%ADD26C,0.600000*%
%TD*%
%TA.AperFunction,Conductor*%
%ADD27C,0.200000*%
%TD*%
G04 APERTURE END LIST*
D10*
%TO.P,SW1,1,1*%
%TO.N,GPIO2*%
X109000000Y-122914250D03*
D11*
%TO.P,SW1,2,2*%
%TO.N,GND*%
X114000000Y-122914250D03*
%TO.P,SW1,3,3*%
X114000000Y-110414250D03*
%TO.P,SW1,4,4*%
%TO.N,GPIO2*%
X109000000Y-110414250D03*
%TD*%
D12*
%TO.P,U6,1,1*%
%TO.N,GPIO6*%
X121753500Y-39749999D03*
%TO.P,U6,2,2*%
X129246500Y-39749999D03*
%TO.P,U6,3,3*%
%TO.N,GND*%
X121753500Y-44250001D03*
%TO.P,U6,4,4*%
X129246500Y-44250001D03*
%TD*%
D13*
%TO.P,S1,1*%
%TO.N,Vsys*%
X145525000Y-48725000D03*
D14*
%TO.P,S1,2*%
%TO.N,/PWR/POWER_EN*%
X145525000Y-46225000D03*
%TO.P,S1,3*%
%TO.N,GND*%
X145525000Y-43725000D03*
%TO.P,S1,4*%
%TO.N,Vsys*%
X148725000Y-48725000D03*
%TO.P,S1,5*%
%TO.N,/PWR/POWER_EN*%
X148725000Y-46225000D03*
%TO.P,S1,6*%
%TO.N,GND*%
X148725000Y-43725000D03*
%TD*%
D15*
%TO.P,R3,1*%
%TO.N,3V3*%
X148600000Y-60425000D03*
%TO.P,R3,2*%
%TO.N,Net-(D1-A)*%
X148600000Y-58775000D03*
%TD*%
D16*
%TO.P,R21,1*%
%TO.N,GND*%
X136600000Y-99575000D03*
%TO.P,R21,2*%
%TO.N,Net-(J2-Pad11)*%
X136600000Y-101225000D03*
%TD*%
D12*
%TO.P,U7,1,1*%
%TO.N,GPIO7*%
X132753500Y-39749999D03*
%TO.P,U7,2,2*%
X140246500Y-39749999D03*
%TO.P,U7,3,3*%
%TO.N,GND*%
X132753500Y-44250001D03*
%TO.P,U7,4,4*%
X140246500Y-44250001D03*
%TD*%
D17*
%TO.P,C2,1*%
%TO.N,MCU_EN*%
X131200000Y-77575000D03*
%TO.P,C2,2*%
%TO.N,GND*%
X131200000Y-76025000D03*
%TD*%
D10*
%TO.P,SW2,1,1*%
%TO.N,GPIO3*%
X122649200Y-122914250D03*
D11*
%TO.P,SW2,2,2*%
%TO.N,GND*%
X127649200Y-122914250D03*
%TO.P,SW2,3,3*%
X127649200Y-110414250D03*
%TO.P,SW2,4,4*%
%TO.N,GPIO3*%
X122649200Y-110414250D03*
%TD*%
D18*
%TO.P,J2,1,1*%
%TO.N,3V3*%
X112600000Y-104400000D03*
D19*
%TO.P,J2,2,2*%
%TO.N,unconnected-(J2-Pad2)*%
X115140000Y-104400000D03*
%TO.P,J2,3,3*%
%TO.N,GND*%
X117680000Y-104400000D03*
%TO.P,J2,4,4*%
%TO.N,SCK*%
X120220000Y-104400000D03*
%TO.P,J2,5,5*%
%TO.N,MISO*%
X122760000Y-104400000D03*
%TO.P,J2,6,6*%
%TO.N,MOSI*%
X125300000Y-104400000D03*
%TO.P,J2,7,7*%
%TO.N,LCD_CS*%
X127840000Y-104400000D03*
%TO.P,J2,8,8*%
%TO.N,LCD_RESET*%
X130380000Y-104400000D03*
%TO.P,J2,9,9*%
%TO.N,LCD_D{slash}C*%
X132920000Y-104400000D03*
%TO.P,J2,10,10*%
%TO.N,CS_SD*%
X135460000Y-104400000D03*
%TO.P,J2,11,11*%
%TO.N,Net-(J2-Pad11)*%
X138000000Y-104400000D03*
%TD*%
D12*
%TO.P,U5,1,1*%
%TO.N,GPIO5*%
X110753500Y-39749999D03*
%TO.P,U5,2,2*%
X118246500Y-39749999D03*
%TO.P,U5,3,3*%
%TO.N,GND*%
X110753500Y-44250001D03*
%TO.P,U5,4,4*%
X118246500Y-44250001D03*
%TD*%
D20*
%TO.P,F5,1,GOLDFINGER*%
%TO.N,Net-(F5-GOLDFINGER)*%
X103575000Y-59800000D03*
%TD*%
D21*
%TO.P,C19,1*%
%TO.N,GPIO5*%
X117225000Y-37600000D03*
%TO.P,C19,2*%
%TO.N,GND*%
X118775000Y-37600000D03*
%TD*%
D16*
%TO.P,R1,1*%
%TO.N,MCU_EN*%
X130600000Y-80575000D03*
%TO.P,R1,2*%
%TO.N,3V3*%
X130600000Y-82225000D03*
%TD*%
D21*
%TO.P,C21,1*%
%TO.N,GPIO7*%
X139225000Y-37600000D03*
%TO.P,C21,2*%
%TO.N,GND*%
X140775000Y-37600000D03*
%TD*%
D22*
%TO.P,D1,1,K*%
%TO.N,GND*%
X148600000Y-54862500D03*
%TO.P,D1,2,A*%
%TO.N,Net-(D1-A)*%
X148600000Y-56737500D03*
%TD*%
D15*
%TO.P,R19,1*%
%TO.N,Net-(J2-Pad11)*%
X139400000Y-101225000D03*
%TO.P,R19,2*%
%TO.N,3V3*%
X139400000Y-99575000D03*
%TD*%
D21*
%TO.P,C20,1*%
%TO.N,GPIO6*%
X128225000Y-37600000D03*
%TO.P,C20,2*%
%TO.N,GND*%
X129775000Y-37600000D03*
%TD*%
D10*
%TO.P,SW3,1,1*%
%TO.N,GPIO4*%
X136298400Y-122914250D03*
D11*
%TO.P,SW3,2,2*%
%TO.N,GND*%
X141298400Y-122914250D03*
%TO.P,SW3,3,3*%
X141298400Y-110414250D03*
%TO.P,SW3,4,4*%
%TO.N,GPIO4*%
X136298400Y-110414250D03*
%TD*%
D20*
%TO.P,F6,1,GOLDFINGER*%
%TO.N,Net-(F6-GOLDFINGER)*%
X103575000Y-56800000D03*
%TD*%
D15*
%TO.P,R2,1*%
%TO.N,Net-(U8-IO8)*%
X132400000Y-82225000D03*
%TO.P,R2,2*%
%TO.N,3V3*%
X132400000Y-80575000D03*
%TD*%
D23*
%TO.P,J3,SH1,SHIELD*%
%TO.N,GND*%
X107395000Y-62320000D03*
%TO.P,J3,SH2,SHIELD__1*%
X107395000Y-53680000D03*
D24*
%TO.P,J3,SH3,SHIELD__2*%
X103215000Y-62320000D03*
%TO.P,J3,SH4,SHIELD__3*%
X103215000Y-53680000D03*
%TD*%
D25*
%TO.P,FID1,*%
%TO.N,*%
X102500000Y-119900000D03*
%TD*%
%TO.P,FID5,*%
%TO.N,*%
X105500000Y-40650000D03*
%TD*%
%TO.P,FID4,*%
%TO.N,*%
X147750000Y-119900000D03*
%TD*%
D26*
%TO.N,Vbat*%
X147000000Y-37900000D03*
%TO.N,Vsys*%
X132500000Y-51400000D03*
%TO.N,Vbus*%
X105000000Y-44400000D03*
%TO.N,GND*%
X147000000Y-114400000D03*
%TO.N,3V3*%
X147000000Y-108900000D03*
X103275000Y-69900000D03*
X104437500Y-68837500D03*
X113000000Y-68460000D03*
X115412500Y-67812500D03*
X114500000Y-71000000D03*
X119000000Y-68900000D03*
%TO.N,Vsys*%
X140250000Y-48400000D03*
X136500000Y-60650000D03*
X138000000Y-58650000D03*
X131750000Y-55900000D03*
X132000000Y-61900000D03*
X126204664Y-62000783D03*
X123750000Y-60150000D03*
X122250000Y-60900000D03*
X124000000Y-59400000D03*
X123250000Y-59400000D03*
%TO.N,Vbat*%
X123977479Y-40650000D03*
X123977479Y-41650000D03*
X123977479Y-42400000D03*
X123977479Y-43400000D03*
X123977479Y-49400000D03*
X124000000Y-52650000D03*
X123250000Y-52650000D03*
%TO.N,3V3*%
X141850000Y-65600000D03*
X148600000Y-61800000D03*
X140500000Y-66800000D03*
X132600000Y-76800000D03*
X142025000Y-68000000D03*
X139400000Y-98200000D03*
X131462500Y-81362500D03*
X139150001Y-65300000D03*
%TO.N,MCU_EN*%
X132600000Y-78000000D03*
%TO.N,GND*%
X118000000Y-100000001D03*
X121100000Y-50200000D03*
X125300000Y-58300000D03*
X126422500Y-81977500D03*
X130700000Y-37600000D03*
X109100000Y-54800000D03*
X109100000Y-61200000D03*
X126949999Y-51650001D03*
X126100000Y-57600000D03*
X143600000Y-68000000D03*
X131000000Y-44250001D03*
X126977478Y-43400000D03*
X118200000Y-75600000D03*
X100800000Y-69000000D03*
X126397500Y-80702500D03*
X125325000Y-57600000D03*
X121000000Y-58800003D03*
X123800000Y-63900000D03*
X118900000Y-67000000D03*
X127607500Y-80707500D03*
X126800000Y-58300000D03*
X121800000Y-100000000D03*
X110300000Y-65900000D03*
X120000000Y-44250001D03*
X138200000Y-60400000D03*
X132600000Y-75600000D03*
X100800000Y-70800000D03*
X143800000Y-65300000D03*
X119700000Y-37600000D03*
X128250000Y-52400000D03*
X126100000Y-58300000D03*
X136600000Y-98200000D03*
X107500000Y-71000000D03*
X142600000Y-44600000D03*
X148600000Y-53300000D03*
X134300000Y-44300000D03*
X135100000Y-57400000D03*
X110100000Y-74500000D03*
X135100001Y-68699999D03*
X118200000Y-70500000D03*
X140700000Y-45300000D03*
X142000000Y-37500000D03*
X128200000Y-67700000D03*
X119400000Y-52000000D03*
X127582500Y-81982500D03*
X143400000Y-80700000D03*
X112600000Y-44200000D03*
X143425000Y-89500000D03*
X107400000Y-66000000D03*
X126977478Y-40650000D03*
X126800000Y-57600000D03*
%TO.N,GPIO2*%
X102500000Y-86200000D03*
X113400000Y-76800000D03*
%TO.N,GPIO3*%
X113500000Y-78100000D03*
X107800000Y-91900000D03*
%TO.N,Vbus*%
X109100000Y-60400000D03*
X120750000Y-57650000D03*
%TO.N,GPIO5*%
X137200000Y-80700000D03*
%TO.N,GPIO6*%
X137800000Y-81900000D03*
%TO.N,GPIO7*%
X137800000Y-83200000D03*
%TO.N,IO_CHG*%
X118350000Y-84450000D03*
X126900000Y-59600000D03*
%TO.N,LCD_D{slash}C*%
X113300000Y-80900000D03*
X119600000Y-80800000D03*
%TO.N,CS_SD*%
X118100000Y-85700000D03*
%TO.N,MISO*%
X113200000Y-90900000D03*
X110100000Y-93500000D03*
%TO.N,MOSI*%
X113700000Y-89600000D03*
X110900000Y-94500000D03*
%TO.N,SCK*%
X109000000Y-92300000D03*
X113800000Y-81900000D03*
%TO.N,D_P*%
X106650000Y-58250000D03*
X106600473Y-57049000D03*
%TO.N,Net-(U8-IO8)*%
X132600000Y-87000000D03*
%TO.N,AudioL*%
X132600000Y-88300000D03*
X127800000Y-91700000D03*
%TO.N,AudioR*%
X132700000Y-89600000D03*
X127900000Y-94800000D03*
%TO.N,Net-(F5-GOLDFINGER)*%
X106175000Y-59750000D03*
%TO.N,Net-(F6-GOLDFINGER)*%
X105800000Y-56000000D03*
%TD*%
D27*
%TO.N,3V3*%
X130600000Y-82225000D02*
X131462500Y-81362500D01*
X148600000Y-60425000D02*
X148600000Y-61800000D01*
X131462500Y-81362500D02*
X132250000Y-80575000D01*
X139400000Y-99575000D02*
X139400000Y-98200000D01*
X130600000Y-82025000D02*
X130950000Y-82025000D01*
X132250000Y-80575000D02*
X132400000Y-80575000D01*
%TO.N,MCU_EN*%
X130600000Y-79600000D02*
X131200000Y-79000000D01*
X132400000Y-78000000D02*
X131975000Y-77575000D01*
X130600000Y-80375000D02*
X130600000Y-79600000D01*
X131600000Y-79000000D02*
X132600000Y-78000000D01*
X131975000Y-77575000D02*
X131200000Y-77575000D01*
X132600000Y-78000000D02*
X132400000Y-78000000D01*
X131200000Y-79000000D02*
X131600000Y-79000000D01*
%TO.N,GND*%
X148600000Y-54862500D02*
X148600000Y-53300000D01*
X121753500Y-44250001D02*
X121753500Y-44253500D01*
X140800000Y-37600000D02*
X141900000Y-37600000D01*
X140200000Y-44300000D02*
X140700000Y-44800000D01*
X118300000Y-44200000D02*
X118350001Y-44250001D01*
X118775000Y-37600000D02*
X118775000Y-37525000D01*
X136600000Y-99575000D02*
X136600000Y-98200000D01*
X141900000Y-37600000D02*
X142000000Y-37500000D01*
X134250001Y-44250001D02*
X134300000Y-44300000D01*
X118350001Y-44250001D02*
X120000000Y-44250001D01*
X132175000Y-76025000D02*
X132600000Y-75600000D01*
X120000000Y-44250001D02*
X121753500Y-44250001D01*
X121753500Y-44253500D02*
X121800000Y-44300000D01*
X131200000Y-76025000D02*
X132175000Y-76025000D01*
X118249999Y-44250001D02*
X118300000Y-44200000D01*
X129775000Y-37600000D02*
X130700000Y-37600000D01*
X132753500Y-44250001D02*
X134100000Y-44250001D01*
X118800000Y-37500000D02*
X118900000Y-37600000D01*
X140775000Y-37600000D02*
X140800000Y-37600000D01*
X118900000Y-37600000D02*
X119700000Y-37600000D01*
X140246500Y-44250001D02*
X140246500Y-44253500D01*
X129246500Y-44250001D02*
X131000000Y-44250001D01*
X118246500Y-44250001D02*
X118249999Y-44250001D01*
X118775000Y-37525000D02*
X118800000Y-37500000D01*
X140700000Y-44800000D02*
X140700000Y-45300000D01*
X131000000Y-44250001D02*
X132753500Y-44250001D01*
X110753500Y-44250001D02*
X112549999Y-44250001D01*
X140246500Y-44253500D02*
X140200000Y-44300000D01*
%TO.N,GPIO2*%
X102500000Y-84700000D02*
X110350000Y-76850000D01*
X102500000Y-86200000D02*
X102500000Y-84700000D01*
X110350000Y-76850000D02*
X113350000Y-76850000D01*
X113350000Y-76850000D02*
X113400000Y-76800000D01*
%TO.N,GPIO3*%
X107800000Y-83800000D02*
X113500000Y-78100000D01*
X107800000Y-91900000D02*
X107800000Y-83800000D01*
%TO.N,GPIO5*%
X137200000Y-57700000D02*
X137200000Y-80700000D01*
X117225000Y-38728499D02*
X118246500Y-39749999D01*
X119249999Y-39749999D02*
X137200000Y-57700000D01*
X117225000Y-37600000D02*
X117225000Y-38728499D01*
X118246500Y-39749999D02*
X110753500Y-39749999D01*
X118246500Y-39749999D02*
X119249999Y-39749999D01*
%TO.N,GPIO6*%
X127840600Y-44982801D02*
X127840600Y-41155899D01*
X128225000Y-38728499D02*
X129246500Y-39749999D01*
X139800000Y-79900000D02*
X139800000Y-56942201D01*
X139800000Y-56942201D02*
X127840600Y-44982801D01*
X121753500Y-39749999D02*
X129246500Y-39749999D01*
X137800000Y-81900000D02*
X139800000Y-79900000D01*
X128225000Y-37600000D02*
X128225000Y-38728499D01*
X127840600Y-41155899D02*
X129246500Y-39749999D01*
%TO.N,GPIO7*%
X139225000Y-37600000D02*
X139225000Y-38728499D01*
X142700000Y-80600000D02*
X140100000Y-83200000D01*
X142700000Y-49696499D02*
X142700000Y-80600000D01*
X139225000Y-38728499D02*
X140246500Y-39749999D01*
X140246500Y-39749999D02*
X132753500Y-39749999D01*
X140100000Y-83200000D02*
X137800000Y-83200000D01*
X132753500Y-39749999D02*
X142700000Y-49696499D01*
%TO.N,Net-(D1-A)*%
X148600000Y-56737500D02*
X148600000Y-58775000D01*
%TO.N,IO_CHG*%
X126900000Y-59600000D02*
X126900000Y-75900000D01*
X126900000Y-75900000D02*
X118350000Y-84450000D01*
%TO.N,LCD_D{slash}C*%
X113300000Y-80900000D02*
X119500000Y-80900000D01*
X119500000Y-80900000D02*
X119600000Y-80800000D01*
X119600000Y-80800000D02*
X119600000Y-80900000D01*
%TO.N,CS_SD*%
X118100000Y-87040000D02*
X118100000Y-85700000D01*
X135460000Y-104400000D02*
X118100000Y-87040000D01*
%TO.N,MISO*%
X110100000Y-93400000D02*
X110100000Y-93500000D01*
X112600000Y-90900000D02*
X110100000Y-93400000D01*
X113200000Y-90900000D02*
X112600000Y-90900000D01*
%TO.N,MOSI*%
X110900000Y-94500000D02*
X111049943Y-94500000D01*
X114400000Y-91149943D02*
X114400000Y-90300000D01*
X111049943Y-94500000D02*
X114400000Y-91149943D01*
X114400000Y-90300000D02*
X113700000Y-89600000D01*
%TO.N,SCK*%
X109000000Y-92300000D02*
X112200000Y-89100000D01*
X112200000Y-83500000D02*
X113800000Y-81900000D01*
X112200000Y-89100000D02*
X112200000Y-83500000D01*
%TO.N,D_P*%
X106600473Y-57049000D02*
X106551000Y-57049000D01*
X106200000Y-57800000D02*
X106650000Y-58250000D01*
X106551000Y-57049000D02*
X106200000Y-57400000D01*
X106200000Y-57400000D02*
X106200000Y-57800000D01*
%TO.N,Net-(U8-IO8)*%
X132400000Y-82225000D02*
X132400000Y-86800000D01*
X132400000Y-86800000D02*
X132600000Y-87000000D01*
%TO.N,AudioL*%
X127800000Y-91700000D02*
X131200000Y-88300000D01*
X131200000Y-88300000D02*
X132600000Y-88300000D01*
%TO.N,AudioR*%
X132700000Y-90100000D02*
X132700000Y-89600000D01*
X127900000Y-94800000D02*
X128000000Y-94800000D01*
X128000000Y-94800000D02*
X132700000Y-90100000D01*
%TO.N,Net-(F5-GOLDFINGER)*%
X106175000Y-59750000D02*
X106125000Y-59800000D01*
X106125000Y-59800000D02*
X103575000Y-59800000D01*
%TO.N,Net-(F6-GOLDFINGER)*%
X105800000Y-56000000D02*
X105000000Y-56800000D01*
X105000000Y-56800000D02*
X103575000Y-56800000D01*
%TO.N,Net-(J2-Pad11)*%
X136600000Y-101225000D02*
X138000000Y-102625000D01*
X139400000Y-101225000D02*
X138000000Y-102625000D01*
X138000000Y-104500000D02*
X138000000Y-102625000D01*
%TD*%
M02*
