%TF.GenerationSoftware,KiCad,Pcbnew,9.0.5*%
%TF.CreationDate,2025-11-15T02:09:42-05:00*%
%TF.ProjectId,CreditCard,43726564-6974-4436-9172-642e6b696361,rev?*%
%TF.SameCoordinates,Original*%
%TF.FileFunction,Soldermask,Top*%
%TF.FilePolarity,Negative*%
%FSLAX46Y46*%
G04 Gerber Fmt 4.6, Leading zero omitted, Abs format (unit mm)*
G04 Created by KiCad (PCBNEW 9.0.5) date 2025-11-15 02:09:42*
%MOMM*%
%LPD*%
G01*
G04 APERTURE LIST*
G04 Aperture macros list*
%AMRoundRect*
0 Rectangle with rounded corners*
0 $1 Rounding radius*
0 $2 $3 $4 $5 $6 $7 $8 $9 X,Y pos of 4 corners*
0 Add a 4 corners polygon primitive as box body*
4,1,4,$2,$3,$4,$5,$6,$7,$8,$9,$2,$3,0*
0 Add four circle primitives for the rounded corners*
1,1,$1+$1,$2,$3*
1,1,$1+$1,$4,$5*
1,1,$1+$1,$6,$7*
1,1,$1+$1,$8,$9*
0 Add four rect primitives between the rounded corners*
20,1,$1+$1,$2,$3,$4,$5,0*
20,1,$1+$1,$4,$5,$6,$7,0*
20,1,$1+$1,$6,$7,$8,$9,0*
20,1,$1+$1,$8,$9,$2,$3,0*%
%AMFreePoly0*
4,1,18,-1.500000,0.437500,-1.485727,0.509253,-1.445083,0.570083,-1.384253,0.610727,-1.312500,0.625000,1.187500,0.625000,1.500000,0.312500,1.500000,-0.437500,1.485727,-0.509253,1.445083,-0.570083,1.384253,-0.610727,1.312500,-0.625000,-1.312500,-0.625000,-1.384253,-0.610727,-1.445083,-0.570083,-1.485727,-0.509253,-1.500000,-0.437500,-1.500000,0.437500,-1.500000,0.437500,$1*%
G04 Aperture macros list end*
%ADD10R,1.854200X1.854200*%
%ADD11C,1.854200*%
%ADD12R,2.209800X0.863600*%
%ADD13RoundRect,0.102000X0.654000X-0.654000X0.654000X0.654000X-0.654000X0.654000X-0.654000X-0.654000X0*%
%ADD14C,1.512000*%
%ADD15RoundRect,0.200000X0.275000X-0.200000X0.275000X0.200000X-0.275000X0.200000X-0.275000X-0.200000X0*%
%ADD16RoundRect,0.200000X-0.275000X0.200000X-0.275000X-0.200000X0.275000X-0.200000X0.275000X0.200000X0*%
%ADD17RoundRect,0.225000X0.250000X-0.225000X0.250000X0.225000X-0.250000X0.225000X-0.250000X-0.225000X0*%
%ADD18C,2.200000*%
%ADD19R,1.650000X1.650000*%
%ADD20C,1.650000*%
%ADD21FreePoly0,180.000000*%
%ADD22RoundRect,0.225000X-0.225000X-0.250000X0.225000X-0.250000X0.225000X0.250000X-0.225000X0.250000X0*%
%ADD23RoundRect,0.243750X-0.456250X0.243750X-0.456250X-0.243750X0.456250X-0.243750X0.456250X0.243750X0*%
%ADD24C,0.650000*%
%ADD25O,2.304000X1.254000*%
%ADD26O,2.004000X1.104000*%
%ADD27C,1.500000*%
G04 APERTURE END LIST*
D10*
%TO.C,SW1*%
X109000000Y-122914250D03*
D11*
X114000000Y-122914250D03*
X114000000Y-110414250D03*
X109000000Y-110414250D03*
%TD*%
D12*
%TO.C,U6*%
X121753500Y-39749999D03*
X129246500Y-39749999D03*
X121753500Y-44250001D03*
X129246500Y-44250001D03*
%TD*%
D13*
%TO.C,S1*%
X145525000Y-48725000D03*
D14*
X145525000Y-46225000D03*
X145525000Y-43725000D03*
X148725000Y-48725000D03*
X148725000Y-46225000D03*
X148725000Y-43725000D03*
%TD*%
D15*
%TO.C,R3*%
X148600000Y-60425000D03*
X148600000Y-58775000D03*
%TD*%
D16*
%TO.C,R21*%
X136600000Y-99575000D03*
X136600000Y-101225000D03*
%TD*%
D12*
%TO.C,U7*%
X132753500Y-39749999D03*
X140246500Y-39749999D03*
X132753500Y-44250001D03*
X140246500Y-44250001D03*
%TD*%
D17*
%TO.C,C2*%
X131200000Y-77575000D03*
X131200000Y-76025000D03*
%TD*%
D10*
%TO.C,SW2*%
X122649200Y-122914250D03*
D11*
X127649200Y-122914250D03*
X127649200Y-110414250D03*
X122649200Y-110414250D03*
%TD*%
D18*
%TO.C,J2*%
X109551000Y-50949500D03*
X141051000Y-50949500D03*
D19*
X112600000Y-104400000D03*
D20*
X115140000Y-104400000D03*
X117680000Y-104400000D03*
X120220000Y-104400000D03*
X122760000Y-104400000D03*
X125300000Y-104400000D03*
X127840000Y-104400000D03*
X130380000Y-104400000D03*
X132920000Y-104400000D03*
X135460000Y-104400000D03*
X138000000Y-104400000D03*
%TD*%
D12*
%TO.C,U5*%
X110753500Y-39749999D03*
X118246500Y-39749999D03*
X110753500Y-44250001D03*
X118246500Y-44250001D03*
%TD*%
D21*
%TO.C,F5*%
X103575000Y-59800000D03*
%TD*%
D22*
%TO.C,C19*%
X117225000Y-37600000D03*
X118775000Y-37600000D03*
%TD*%
D16*
%TO.C,R1*%
X130600000Y-80575000D03*
X130600000Y-82225000D03*
%TD*%
D22*
%TO.C,C21*%
X139225000Y-37600000D03*
X140775000Y-37600000D03*
%TD*%
D23*
%TO.C,D1*%
X148600000Y-54862500D03*
X148600000Y-56737500D03*
%TD*%
D18*
%TO.C,MEC3*%
X149000000Y-123400000D03*
%TD*%
%TO.C,MEC1*%
X149000000Y-38400000D03*
%TD*%
D15*
%TO.C,R19*%
X139400000Y-101225000D03*
X139400000Y-99575000D03*
%TD*%
D22*
%TO.C,C20*%
X128225000Y-37600000D03*
X129775000Y-37600000D03*
%TD*%
D18*
%TO.C,MEC4*%
X102000000Y-123400000D03*
%TD*%
D10*
%TO.C,SW3*%
X136298400Y-122914250D03*
D11*
X141298400Y-122914250D03*
X141298400Y-110414250D03*
X136298400Y-110414250D03*
%TD*%
D21*
%TO.C,F6*%
X103575000Y-56800000D03*
%TD*%
D15*
%TO.C,R2*%
X132400000Y-82225000D03*
X132400000Y-80575000D03*
%TD*%
D18*
%TO.C,MEC2*%
X102000000Y-38400000D03*
%TD*%
D24*
%TO.C,J3*%
X106895000Y-60890000D03*
X106895000Y-55110000D03*
D25*
X107395000Y-62320000D03*
X107395000Y-53680000D03*
D26*
X103215000Y-62320000D03*
X103215000Y-53680000D03*
%TD*%
D27*
%TO.C,FID1*%
X102500000Y-119900000D03*
%TD*%
%TO.C,FID5*%
X105500000Y-40650000D03*
%TD*%
%TO.C,FID4*%
X147750000Y-119900000D03*
%TD*%
M02*
