%TF.GenerationSoftware,KiCad,Pcbnew,9.0.5*%
%TF.CreationDate,2025-11-15T02:55:35-05:00*%
%TF.ProjectId,CreditCard,43726564-6974-4436-9172-642e6b696361,rev?*%
%TF.SameCoordinates,Original*%
%TF.FileFunction,Legend,Top*%
%TF.FilePolarity,Positive*%
%FSLAX46Y46*%
G04 Gerber Fmt 4.6, Leading zero omitted, Abs format (unit mm)*
G04 Created by KiCad (PCBNEW 9.0.5) date 2025-11-15 02:55:35*
%MOMM*%
%LPD*%
G01*
G04 APERTURE LIST*
%ADD10C,0.300000*%
%ADD11C,0.150000*%
%ADD12C,0.254000*%
%ADD13C,0.100000*%
%ADD14C,0.120000*%
%ADD15C,0.152400*%
%ADD16C,0.127000*%
%ADD17C,0.200000*%
%ADD18C,0.508000*%
G04 APERTURE END LIST*
D10*
X144399171Y-51868796D02*
X144399171Y-51154510D01*
X144399171Y-51154510D02*
X145899171Y-51154510D01*
X145184885Y-52368796D02*
X145184885Y-52868796D01*
X144399171Y-53083082D02*
X144399171Y-52368796D01*
X144399171Y-52368796D02*
X145899171Y-52368796D01*
X145899171Y-52368796D02*
X145899171Y-53083082D01*
X144399171Y-53725939D02*
X145899171Y-53725939D01*
X145899171Y-53725939D02*
X145899171Y-54083082D01*
X145899171Y-54083082D02*
X145827742Y-54297368D01*
X145827742Y-54297368D02*
X145684885Y-54440225D01*
X145684885Y-54440225D02*
X145542028Y-54511654D01*
X145542028Y-54511654D02*
X145256314Y-54583082D01*
X145256314Y-54583082D02*
X145042028Y-54583082D01*
X145042028Y-54583082D02*
X144756314Y-54511654D01*
X144756314Y-54511654D02*
X144613457Y-54440225D01*
X144613457Y-54440225D02*
X144470600Y-54297368D01*
X144470600Y-54297368D02*
X144399171Y-54083082D01*
X144399171Y-54083082D02*
X144399171Y-53725939D01*
X144970600Y-55225939D02*
X144970600Y-56368797D01*
X145899171Y-56940225D02*
X145899171Y-57868797D01*
X145899171Y-57868797D02*
X145327742Y-57368797D01*
X145327742Y-57368797D02*
X145327742Y-57583082D01*
X145327742Y-57583082D02*
X145256314Y-57725940D01*
X145256314Y-57725940D02*
X145184885Y-57797368D01*
X145184885Y-57797368D02*
X145042028Y-57868797D01*
X145042028Y-57868797D02*
X144684885Y-57868797D01*
X144684885Y-57868797D02*
X144542028Y-57797368D01*
X144542028Y-57797368D02*
X144470600Y-57725940D01*
X144470600Y-57725940D02*
X144399171Y-57583082D01*
X144399171Y-57583082D02*
X144399171Y-57154511D01*
X144399171Y-57154511D02*
X144470600Y-57011654D01*
X144470600Y-57011654D02*
X144542028Y-56940225D01*
X145899171Y-58297368D02*
X144399171Y-58797368D01*
X144399171Y-58797368D02*
X145899171Y-59297368D01*
X145899171Y-59654510D02*
X145899171Y-60583082D01*
X145899171Y-60583082D02*
X145327742Y-60083082D01*
X145327742Y-60083082D02*
X145327742Y-60297367D01*
X145327742Y-60297367D02*
X145256314Y-60440225D01*
X145256314Y-60440225D02*
X145184885Y-60511653D01*
X145184885Y-60511653D02*
X145042028Y-60583082D01*
X145042028Y-60583082D02*
X144684885Y-60583082D01*
X144684885Y-60583082D02*
X144542028Y-60511653D01*
X144542028Y-60511653D02*
X144470600Y-60440225D01*
X144470600Y-60440225D02*
X144399171Y-60297367D01*
X144399171Y-60297367D02*
X144399171Y-59868796D01*
X144399171Y-59868796D02*
X144470600Y-59725939D01*
X144470600Y-59725939D02*
X144542028Y-59654510D01*
D11*
X105109580Y-74542857D02*
X105157200Y-74590476D01*
X105157200Y-74590476D02*
X105204819Y-74733333D01*
X105204819Y-74733333D02*
X105204819Y-74828571D01*
X105204819Y-74828571D02*
X105157200Y-74971428D01*
X105157200Y-74971428D02*
X105061961Y-75066666D01*
X105061961Y-75066666D02*
X104966723Y-75114285D01*
X104966723Y-75114285D02*
X104776247Y-75161904D01*
X104776247Y-75161904D02*
X104633390Y-75161904D01*
X104633390Y-75161904D02*
X104442914Y-75114285D01*
X104442914Y-75114285D02*
X104347676Y-75066666D01*
X104347676Y-75066666D02*
X104252438Y-74971428D01*
X104252438Y-74971428D02*
X104204819Y-74828571D01*
X104204819Y-74828571D02*
X104204819Y-74733333D01*
X104204819Y-74733333D02*
X104252438Y-74590476D01*
X104252438Y-74590476D02*
X104300057Y-74542857D01*
X104204819Y-74209523D02*
X104204819Y-73590476D01*
X104204819Y-73590476D02*
X104585771Y-73923809D01*
X104585771Y-73923809D02*
X104585771Y-73780952D01*
X104585771Y-73780952D02*
X104633390Y-73685714D01*
X104633390Y-73685714D02*
X104681009Y-73638095D01*
X104681009Y-73638095D02*
X104776247Y-73590476D01*
X104776247Y-73590476D02*
X105014342Y-73590476D01*
X105014342Y-73590476D02*
X105109580Y-73638095D01*
X105109580Y-73638095D02*
X105157200Y-73685714D01*
X105157200Y-73685714D02*
X105204819Y-73780952D01*
X105204819Y-73780952D02*
X105204819Y-74066666D01*
X105204819Y-74066666D02*
X105157200Y-74161904D01*
X105157200Y-74161904D02*
X105109580Y-74209523D01*
X104204819Y-72733333D02*
X104204819Y-72923809D01*
X104204819Y-72923809D02*
X104252438Y-73019047D01*
X104252438Y-73019047D02*
X104300057Y-73066666D01*
X104300057Y-73066666D02*
X104442914Y-73161904D01*
X104442914Y-73161904D02*
X104633390Y-73209523D01*
X104633390Y-73209523D02*
X105014342Y-73209523D01*
X105014342Y-73209523D02*
X105109580Y-73161904D01*
X105109580Y-73161904D02*
X105157200Y-73114285D01*
X105157200Y-73114285D02*
X105204819Y-73019047D01*
X105204819Y-73019047D02*
X105204819Y-72828571D01*
X105204819Y-72828571D02*
X105157200Y-72733333D01*
X105157200Y-72733333D02*
X105109580Y-72685714D01*
X105109580Y-72685714D02*
X105014342Y-72638095D01*
X105014342Y-72638095D02*
X104776247Y-72638095D01*
X104776247Y-72638095D02*
X104681009Y-72685714D01*
X104681009Y-72685714D02*
X104633390Y-72733333D01*
X104633390Y-72733333D02*
X104585771Y-72828571D01*
X104585771Y-72828571D02*
X104585771Y-73019047D01*
X104585771Y-73019047D02*
X104633390Y-73114285D01*
X104633390Y-73114285D02*
X104681009Y-73161904D01*
X104681009Y-73161904D02*
X104776247Y-73209523D01*
X116857142Y-70259580D02*
X116809523Y-70307200D01*
X116809523Y-70307200D02*
X116666666Y-70354819D01*
X116666666Y-70354819D02*
X116571428Y-70354819D01*
X116571428Y-70354819D02*
X116428571Y-70307200D01*
X116428571Y-70307200D02*
X116333333Y-70211961D01*
X116333333Y-70211961D02*
X116285714Y-70116723D01*
X116285714Y-70116723D02*
X116238095Y-69926247D01*
X116238095Y-69926247D02*
X116238095Y-69783390D01*
X116238095Y-69783390D02*
X116285714Y-69592914D01*
X116285714Y-69592914D02*
X116333333Y-69497676D01*
X116333333Y-69497676D02*
X116428571Y-69402438D01*
X116428571Y-69402438D02*
X116571428Y-69354819D01*
X116571428Y-69354819D02*
X116666666Y-69354819D01*
X116666666Y-69354819D02*
X116809523Y-69402438D01*
X116809523Y-69402438D02*
X116857142Y-69450057D01*
X117190476Y-69354819D02*
X117809523Y-69354819D01*
X117809523Y-69354819D02*
X117476190Y-69735771D01*
X117476190Y-69735771D02*
X117619047Y-69735771D01*
X117619047Y-69735771D02*
X117714285Y-69783390D01*
X117714285Y-69783390D02*
X117761904Y-69831009D01*
X117761904Y-69831009D02*
X117809523Y-69926247D01*
X117809523Y-69926247D02*
X117809523Y-70164342D01*
X117809523Y-70164342D02*
X117761904Y-70259580D01*
X117761904Y-70259580D02*
X117714285Y-70307200D01*
X117714285Y-70307200D02*
X117619047Y-70354819D01*
X117619047Y-70354819D02*
X117333333Y-70354819D01*
X117333333Y-70354819D02*
X117238095Y-70307200D01*
X117238095Y-70307200D02*
X117190476Y-70259580D01*
X118714285Y-69354819D02*
X118238095Y-69354819D01*
X118238095Y-69354819D02*
X118190476Y-69831009D01*
X118190476Y-69831009D02*
X118238095Y-69783390D01*
X118238095Y-69783390D02*
X118333333Y-69735771D01*
X118333333Y-69735771D02*
X118571428Y-69735771D01*
X118571428Y-69735771D02*
X118666666Y-69783390D01*
X118666666Y-69783390D02*
X118714285Y-69831009D01*
X118714285Y-69831009D02*
X118761904Y-69926247D01*
X118761904Y-69926247D02*
X118761904Y-70164342D01*
X118761904Y-70164342D02*
X118714285Y-70259580D01*
X118714285Y-70259580D02*
X118666666Y-70307200D01*
X118666666Y-70307200D02*
X118571428Y-70354819D01*
X118571428Y-70354819D02*
X118333333Y-70354819D01*
X118333333Y-70354819D02*
X118238095Y-70307200D01*
X118238095Y-70307200D02*
X118190476Y-70259580D01*
X106107142Y-67329580D02*
X106059523Y-67377200D01*
X106059523Y-67377200D02*
X105916666Y-67424819D01*
X105916666Y-67424819D02*
X105821428Y-67424819D01*
X105821428Y-67424819D02*
X105678571Y-67377200D01*
X105678571Y-67377200D02*
X105583333Y-67281961D01*
X105583333Y-67281961D02*
X105535714Y-67186723D01*
X105535714Y-67186723D02*
X105488095Y-66996247D01*
X105488095Y-66996247D02*
X105488095Y-66853390D01*
X105488095Y-66853390D02*
X105535714Y-66662914D01*
X105535714Y-66662914D02*
X105583333Y-66567676D01*
X105583333Y-66567676D02*
X105678571Y-66472438D01*
X105678571Y-66472438D02*
X105821428Y-66424819D01*
X105821428Y-66424819D02*
X105916666Y-66424819D01*
X105916666Y-66424819D02*
X106059523Y-66472438D01*
X106059523Y-66472438D02*
X106107142Y-66520057D01*
X106440476Y-66424819D02*
X107059523Y-66424819D01*
X107059523Y-66424819D02*
X106726190Y-66805771D01*
X106726190Y-66805771D02*
X106869047Y-66805771D01*
X106869047Y-66805771D02*
X106964285Y-66853390D01*
X106964285Y-66853390D02*
X107011904Y-66901009D01*
X107011904Y-66901009D02*
X107059523Y-66996247D01*
X107059523Y-66996247D02*
X107059523Y-67234342D01*
X107059523Y-67234342D02*
X107011904Y-67329580D01*
X107011904Y-67329580D02*
X106964285Y-67377200D01*
X106964285Y-67377200D02*
X106869047Y-67424819D01*
X106869047Y-67424819D02*
X106583333Y-67424819D01*
X106583333Y-67424819D02*
X106488095Y-67377200D01*
X106488095Y-67377200D02*
X106440476Y-67329580D01*
X107916666Y-66758152D02*
X107916666Y-67424819D01*
X107678571Y-66377200D02*
X107440476Y-67091485D01*
X107440476Y-67091485D02*
X108059523Y-67091485D01*
X102107142Y-70189580D02*
X102059523Y-70237200D01*
X102059523Y-70237200D02*
X101916666Y-70284819D01*
X101916666Y-70284819D02*
X101821428Y-70284819D01*
X101821428Y-70284819D02*
X101678571Y-70237200D01*
X101678571Y-70237200D02*
X101583333Y-70141961D01*
X101583333Y-70141961D02*
X101535714Y-70046723D01*
X101535714Y-70046723D02*
X101488095Y-69856247D01*
X101488095Y-69856247D02*
X101488095Y-69713390D01*
X101488095Y-69713390D02*
X101535714Y-69522914D01*
X101535714Y-69522914D02*
X101583333Y-69427676D01*
X101583333Y-69427676D02*
X101678571Y-69332438D01*
X101678571Y-69332438D02*
X101821428Y-69284819D01*
X101821428Y-69284819D02*
X101916666Y-69284819D01*
X101916666Y-69284819D02*
X102059523Y-69332438D01*
X102059523Y-69332438D02*
X102107142Y-69380057D01*
X102440476Y-69284819D02*
X103059523Y-69284819D01*
X103059523Y-69284819D02*
X102726190Y-69665771D01*
X102726190Y-69665771D02*
X102869047Y-69665771D01*
X102869047Y-69665771D02*
X102964285Y-69713390D01*
X102964285Y-69713390D02*
X103011904Y-69761009D01*
X103011904Y-69761009D02*
X103059523Y-69856247D01*
X103059523Y-69856247D02*
X103059523Y-70094342D01*
X103059523Y-70094342D02*
X103011904Y-70189580D01*
X103011904Y-70189580D02*
X102964285Y-70237200D01*
X102964285Y-70237200D02*
X102869047Y-70284819D01*
X102869047Y-70284819D02*
X102583333Y-70284819D01*
X102583333Y-70284819D02*
X102488095Y-70237200D01*
X102488095Y-70237200D02*
X102440476Y-70189580D01*
X103392857Y-69284819D02*
X104011904Y-69284819D01*
X104011904Y-69284819D02*
X103678571Y-69665771D01*
X103678571Y-69665771D02*
X103821428Y-69665771D01*
X103821428Y-69665771D02*
X103916666Y-69713390D01*
X103916666Y-69713390D02*
X103964285Y-69761009D01*
X103964285Y-69761009D02*
X104011904Y-69856247D01*
X104011904Y-69856247D02*
X104011904Y-70094342D01*
X104011904Y-70094342D02*
X103964285Y-70189580D01*
X103964285Y-70189580D02*
X103916666Y-70237200D01*
X103916666Y-70237200D02*
X103821428Y-70284819D01*
X103821428Y-70284819D02*
X103535714Y-70284819D01*
X103535714Y-70284819D02*
X103440476Y-70237200D01*
X103440476Y-70237200D02*
X103392857Y-70189580D01*
X102107142Y-65509580D02*
X102059523Y-65557200D01*
X102059523Y-65557200D02*
X101916666Y-65604819D01*
X101916666Y-65604819D02*
X101821428Y-65604819D01*
X101821428Y-65604819D02*
X101678571Y-65557200D01*
X101678571Y-65557200D02*
X101583333Y-65461961D01*
X101583333Y-65461961D02*
X101535714Y-65366723D01*
X101535714Y-65366723D02*
X101488095Y-65176247D01*
X101488095Y-65176247D02*
X101488095Y-65033390D01*
X101488095Y-65033390D02*
X101535714Y-64842914D01*
X101535714Y-64842914D02*
X101583333Y-64747676D01*
X101583333Y-64747676D02*
X101678571Y-64652438D01*
X101678571Y-64652438D02*
X101821428Y-64604819D01*
X101821428Y-64604819D02*
X101916666Y-64604819D01*
X101916666Y-64604819D02*
X102059523Y-64652438D01*
X102059523Y-64652438D02*
X102107142Y-64700057D01*
X102440476Y-64604819D02*
X103059523Y-64604819D01*
X103059523Y-64604819D02*
X102726190Y-64985771D01*
X102726190Y-64985771D02*
X102869047Y-64985771D01*
X102869047Y-64985771D02*
X102964285Y-65033390D01*
X102964285Y-65033390D02*
X103011904Y-65081009D01*
X103011904Y-65081009D02*
X103059523Y-65176247D01*
X103059523Y-65176247D02*
X103059523Y-65414342D01*
X103059523Y-65414342D02*
X103011904Y-65509580D01*
X103011904Y-65509580D02*
X102964285Y-65557200D01*
X102964285Y-65557200D02*
X102869047Y-65604819D01*
X102869047Y-65604819D02*
X102583333Y-65604819D01*
X102583333Y-65604819D02*
X102488095Y-65557200D01*
X102488095Y-65557200D02*
X102440476Y-65509580D01*
X103440476Y-64700057D02*
X103488095Y-64652438D01*
X103488095Y-64652438D02*
X103583333Y-64604819D01*
X103583333Y-64604819D02*
X103821428Y-64604819D01*
X103821428Y-64604819D02*
X103916666Y-64652438D01*
X103916666Y-64652438D02*
X103964285Y-64700057D01*
X103964285Y-64700057D02*
X104011904Y-64795295D01*
X104011904Y-64795295D02*
X104011904Y-64890533D01*
X104011904Y-64890533D02*
X103964285Y-65033390D01*
X103964285Y-65033390D02*
X103392857Y-65604819D01*
X103392857Y-65604819D02*
X104011904Y-65604819D01*
X113539580Y-73792857D02*
X113587200Y-73840476D01*
X113587200Y-73840476D02*
X113634819Y-73983333D01*
X113634819Y-73983333D02*
X113634819Y-74078571D01*
X113634819Y-74078571D02*
X113587200Y-74221428D01*
X113587200Y-74221428D02*
X113491961Y-74316666D01*
X113491961Y-74316666D02*
X113396723Y-74364285D01*
X113396723Y-74364285D02*
X113206247Y-74411904D01*
X113206247Y-74411904D02*
X113063390Y-74411904D01*
X113063390Y-74411904D02*
X112872914Y-74364285D01*
X112872914Y-74364285D02*
X112777676Y-74316666D01*
X112777676Y-74316666D02*
X112682438Y-74221428D01*
X112682438Y-74221428D02*
X112634819Y-74078571D01*
X112634819Y-74078571D02*
X112634819Y-73983333D01*
X112634819Y-73983333D02*
X112682438Y-73840476D01*
X112682438Y-73840476D02*
X112730057Y-73792857D01*
X112634819Y-73459523D02*
X112634819Y-72840476D01*
X112634819Y-72840476D02*
X113015771Y-73173809D01*
X113015771Y-73173809D02*
X113015771Y-73030952D01*
X113015771Y-73030952D02*
X113063390Y-72935714D01*
X113063390Y-72935714D02*
X113111009Y-72888095D01*
X113111009Y-72888095D02*
X113206247Y-72840476D01*
X113206247Y-72840476D02*
X113444342Y-72840476D01*
X113444342Y-72840476D02*
X113539580Y-72888095D01*
X113539580Y-72888095D02*
X113587200Y-72935714D01*
X113587200Y-72935714D02*
X113634819Y-73030952D01*
X113634819Y-73030952D02*
X113634819Y-73316666D01*
X113634819Y-73316666D02*
X113587200Y-73411904D01*
X113587200Y-73411904D02*
X113539580Y-73459523D01*
X113634819Y-71888095D02*
X113634819Y-72459523D01*
X113634819Y-72173809D02*
X112634819Y-72173809D01*
X112634819Y-72173809D02*
X112777676Y-72269047D01*
X112777676Y-72269047D02*
X112872914Y-72364285D01*
X112872914Y-72364285D02*
X112920533Y-72459523D01*
X109857142Y-65009580D02*
X109809523Y-65057200D01*
X109809523Y-65057200D02*
X109666666Y-65104819D01*
X109666666Y-65104819D02*
X109571428Y-65104819D01*
X109571428Y-65104819D02*
X109428571Y-65057200D01*
X109428571Y-65057200D02*
X109333333Y-64961961D01*
X109333333Y-64961961D02*
X109285714Y-64866723D01*
X109285714Y-64866723D02*
X109238095Y-64676247D01*
X109238095Y-64676247D02*
X109238095Y-64533390D01*
X109238095Y-64533390D02*
X109285714Y-64342914D01*
X109285714Y-64342914D02*
X109333333Y-64247676D01*
X109333333Y-64247676D02*
X109428571Y-64152438D01*
X109428571Y-64152438D02*
X109571428Y-64104819D01*
X109571428Y-64104819D02*
X109666666Y-64104819D01*
X109666666Y-64104819D02*
X109809523Y-64152438D01*
X109809523Y-64152438D02*
X109857142Y-64200057D01*
X110190476Y-64104819D02*
X110809523Y-64104819D01*
X110809523Y-64104819D02*
X110476190Y-64485771D01*
X110476190Y-64485771D02*
X110619047Y-64485771D01*
X110619047Y-64485771D02*
X110714285Y-64533390D01*
X110714285Y-64533390D02*
X110761904Y-64581009D01*
X110761904Y-64581009D02*
X110809523Y-64676247D01*
X110809523Y-64676247D02*
X110809523Y-64914342D01*
X110809523Y-64914342D02*
X110761904Y-65009580D01*
X110761904Y-65009580D02*
X110714285Y-65057200D01*
X110714285Y-65057200D02*
X110619047Y-65104819D01*
X110619047Y-65104819D02*
X110333333Y-65104819D01*
X110333333Y-65104819D02*
X110238095Y-65057200D01*
X110238095Y-65057200D02*
X110190476Y-65009580D01*
X111428571Y-64104819D02*
X111523809Y-64104819D01*
X111523809Y-64104819D02*
X111619047Y-64152438D01*
X111619047Y-64152438D02*
X111666666Y-64200057D01*
X111666666Y-64200057D02*
X111714285Y-64295295D01*
X111714285Y-64295295D02*
X111761904Y-64485771D01*
X111761904Y-64485771D02*
X111761904Y-64723866D01*
X111761904Y-64723866D02*
X111714285Y-64914342D01*
X111714285Y-64914342D02*
X111666666Y-65009580D01*
X111666666Y-65009580D02*
X111619047Y-65057200D01*
X111619047Y-65057200D02*
X111523809Y-65104819D01*
X111523809Y-65104819D02*
X111428571Y-65104819D01*
X111428571Y-65104819D02*
X111333333Y-65057200D01*
X111333333Y-65057200D02*
X111285714Y-65009580D01*
X111285714Y-65009580D02*
X111238095Y-64914342D01*
X111238095Y-64914342D02*
X111190476Y-64723866D01*
X111190476Y-64723866D02*
X111190476Y-64485771D01*
X111190476Y-64485771D02*
X111238095Y-64295295D01*
X111238095Y-64295295D02*
X111285714Y-64200057D01*
X111285714Y-64200057D02*
X111333333Y-64152438D01*
X111333333Y-64152438D02*
X111428571Y-64104819D01*
X106857142Y-71009580D02*
X106809523Y-71057200D01*
X106809523Y-71057200D02*
X106666666Y-71104819D01*
X106666666Y-71104819D02*
X106571428Y-71104819D01*
X106571428Y-71104819D02*
X106428571Y-71057200D01*
X106428571Y-71057200D02*
X106333333Y-70961961D01*
X106333333Y-70961961D02*
X106285714Y-70866723D01*
X106285714Y-70866723D02*
X106238095Y-70676247D01*
X106238095Y-70676247D02*
X106238095Y-70533390D01*
X106238095Y-70533390D02*
X106285714Y-70342914D01*
X106285714Y-70342914D02*
X106333333Y-70247676D01*
X106333333Y-70247676D02*
X106428571Y-70152438D01*
X106428571Y-70152438D02*
X106571428Y-70104819D01*
X106571428Y-70104819D02*
X106666666Y-70104819D01*
X106666666Y-70104819D02*
X106809523Y-70152438D01*
X106809523Y-70152438D02*
X106857142Y-70200057D01*
X107238095Y-70200057D02*
X107285714Y-70152438D01*
X107285714Y-70152438D02*
X107380952Y-70104819D01*
X107380952Y-70104819D02*
X107619047Y-70104819D01*
X107619047Y-70104819D02*
X107714285Y-70152438D01*
X107714285Y-70152438D02*
X107761904Y-70200057D01*
X107761904Y-70200057D02*
X107809523Y-70295295D01*
X107809523Y-70295295D02*
X107809523Y-70390533D01*
X107809523Y-70390533D02*
X107761904Y-70533390D01*
X107761904Y-70533390D02*
X107190476Y-71104819D01*
X107190476Y-71104819D02*
X107809523Y-71104819D01*
X108285714Y-71104819D02*
X108476190Y-71104819D01*
X108476190Y-71104819D02*
X108571428Y-71057200D01*
X108571428Y-71057200D02*
X108619047Y-71009580D01*
X108619047Y-71009580D02*
X108714285Y-70866723D01*
X108714285Y-70866723D02*
X108761904Y-70676247D01*
X108761904Y-70676247D02*
X108761904Y-70295295D01*
X108761904Y-70295295D02*
X108714285Y-70200057D01*
X108714285Y-70200057D02*
X108666666Y-70152438D01*
X108666666Y-70152438D02*
X108571428Y-70104819D01*
X108571428Y-70104819D02*
X108380952Y-70104819D01*
X108380952Y-70104819D02*
X108285714Y-70152438D01*
X108285714Y-70152438D02*
X108238095Y-70200057D01*
X108238095Y-70200057D02*
X108190476Y-70295295D01*
X108190476Y-70295295D02*
X108190476Y-70533390D01*
X108190476Y-70533390D02*
X108238095Y-70628628D01*
X108238095Y-70628628D02*
X108285714Y-70676247D01*
X108285714Y-70676247D02*
X108380952Y-70723866D01*
X108380952Y-70723866D02*
X108571428Y-70723866D01*
X108571428Y-70723866D02*
X108666666Y-70676247D01*
X108666666Y-70676247D02*
X108714285Y-70628628D01*
X108714285Y-70628628D02*
X108761904Y-70533390D01*
X106107142Y-65579580D02*
X106059523Y-65627200D01*
X106059523Y-65627200D02*
X105916666Y-65674819D01*
X105916666Y-65674819D02*
X105821428Y-65674819D01*
X105821428Y-65674819D02*
X105678571Y-65627200D01*
X105678571Y-65627200D02*
X105583333Y-65531961D01*
X105583333Y-65531961D02*
X105535714Y-65436723D01*
X105535714Y-65436723D02*
X105488095Y-65246247D01*
X105488095Y-65246247D02*
X105488095Y-65103390D01*
X105488095Y-65103390D02*
X105535714Y-64912914D01*
X105535714Y-64912914D02*
X105583333Y-64817676D01*
X105583333Y-64817676D02*
X105678571Y-64722438D01*
X105678571Y-64722438D02*
X105821428Y-64674819D01*
X105821428Y-64674819D02*
X105916666Y-64674819D01*
X105916666Y-64674819D02*
X106059523Y-64722438D01*
X106059523Y-64722438D02*
X106107142Y-64770057D01*
X106488095Y-64770057D02*
X106535714Y-64722438D01*
X106535714Y-64722438D02*
X106630952Y-64674819D01*
X106630952Y-64674819D02*
X106869047Y-64674819D01*
X106869047Y-64674819D02*
X106964285Y-64722438D01*
X106964285Y-64722438D02*
X107011904Y-64770057D01*
X107011904Y-64770057D02*
X107059523Y-64865295D01*
X107059523Y-64865295D02*
X107059523Y-64960533D01*
X107059523Y-64960533D02*
X107011904Y-65103390D01*
X107011904Y-65103390D02*
X106440476Y-65674819D01*
X106440476Y-65674819D02*
X107059523Y-65674819D01*
X107630952Y-65103390D02*
X107535714Y-65055771D01*
X107535714Y-65055771D02*
X107488095Y-65008152D01*
X107488095Y-65008152D02*
X107440476Y-64912914D01*
X107440476Y-64912914D02*
X107440476Y-64865295D01*
X107440476Y-64865295D02*
X107488095Y-64770057D01*
X107488095Y-64770057D02*
X107535714Y-64722438D01*
X107535714Y-64722438D02*
X107630952Y-64674819D01*
X107630952Y-64674819D02*
X107821428Y-64674819D01*
X107821428Y-64674819D02*
X107916666Y-64722438D01*
X107916666Y-64722438D02*
X107964285Y-64770057D01*
X107964285Y-64770057D02*
X108011904Y-64865295D01*
X108011904Y-64865295D02*
X108011904Y-64912914D01*
X108011904Y-64912914D02*
X107964285Y-65008152D01*
X107964285Y-65008152D02*
X107916666Y-65055771D01*
X107916666Y-65055771D02*
X107821428Y-65103390D01*
X107821428Y-65103390D02*
X107630952Y-65103390D01*
X107630952Y-65103390D02*
X107535714Y-65151009D01*
X107535714Y-65151009D02*
X107488095Y-65198628D01*
X107488095Y-65198628D02*
X107440476Y-65293866D01*
X107440476Y-65293866D02*
X107440476Y-65484342D01*
X107440476Y-65484342D02*
X107488095Y-65579580D01*
X107488095Y-65579580D02*
X107535714Y-65627200D01*
X107535714Y-65627200D02*
X107630952Y-65674819D01*
X107630952Y-65674819D02*
X107821428Y-65674819D01*
X107821428Y-65674819D02*
X107916666Y-65627200D01*
X107916666Y-65627200D02*
X107964285Y-65579580D01*
X107964285Y-65579580D02*
X108011904Y-65484342D01*
X108011904Y-65484342D02*
X108011904Y-65293866D01*
X108011904Y-65293866D02*
X107964285Y-65198628D01*
X107964285Y-65198628D02*
X107916666Y-65151009D01*
X107916666Y-65151009D02*
X107821428Y-65103390D01*
X112857142Y-68759580D02*
X112809523Y-68807200D01*
X112809523Y-68807200D02*
X112666666Y-68854819D01*
X112666666Y-68854819D02*
X112571428Y-68854819D01*
X112571428Y-68854819D02*
X112428571Y-68807200D01*
X112428571Y-68807200D02*
X112333333Y-68711961D01*
X112333333Y-68711961D02*
X112285714Y-68616723D01*
X112285714Y-68616723D02*
X112238095Y-68426247D01*
X112238095Y-68426247D02*
X112238095Y-68283390D01*
X112238095Y-68283390D02*
X112285714Y-68092914D01*
X112285714Y-68092914D02*
X112333333Y-67997676D01*
X112333333Y-67997676D02*
X112428571Y-67902438D01*
X112428571Y-67902438D02*
X112571428Y-67854819D01*
X112571428Y-67854819D02*
X112666666Y-67854819D01*
X112666666Y-67854819D02*
X112809523Y-67902438D01*
X112809523Y-67902438D02*
X112857142Y-67950057D01*
X113238095Y-67950057D02*
X113285714Y-67902438D01*
X113285714Y-67902438D02*
X113380952Y-67854819D01*
X113380952Y-67854819D02*
X113619047Y-67854819D01*
X113619047Y-67854819D02*
X113714285Y-67902438D01*
X113714285Y-67902438D02*
X113761904Y-67950057D01*
X113761904Y-67950057D02*
X113809523Y-68045295D01*
X113809523Y-68045295D02*
X113809523Y-68140533D01*
X113809523Y-68140533D02*
X113761904Y-68283390D01*
X113761904Y-68283390D02*
X113190476Y-68854819D01*
X113190476Y-68854819D02*
X113809523Y-68854819D01*
X114142857Y-67854819D02*
X114809523Y-67854819D01*
X114809523Y-67854819D02*
X114380952Y-68854819D01*
X111907200Y-117997582D02*
X111954819Y-117854725D01*
X111954819Y-117854725D02*
X111954819Y-117616630D01*
X111954819Y-117616630D02*
X111907200Y-117521392D01*
X111907200Y-117521392D02*
X111859580Y-117473773D01*
X111859580Y-117473773D02*
X111764342Y-117426154D01*
X111764342Y-117426154D02*
X111669104Y-117426154D01*
X111669104Y-117426154D02*
X111573866Y-117473773D01*
X111573866Y-117473773D02*
X111526247Y-117521392D01*
X111526247Y-117521392D02*
X111478628Y-117616630D01*
X111478628Y-117616630D02*
X111431009Y-117807106D01*
X111431009Y-117807106D02*
X111383390Y-117902344D01*
X111383390Y-117902344D02*
X111335771Y-117949963D01*
X111335771Y-117949963D02*
X111240533Y-117997582D01*
X111240533Y-117997582D02*
X111145295Y-117997582D01*
X111145295Y-117997582D02*
X111050057Y-117949963D01*
X111050057Y-117949963D02*
X111002438Y-117902344D01*
X111002438Y-117902344D02*
X110954819Y-117807106D01*
X110954819Y-117807106D02*
X110954819Y-117569011D01*
X110954819Y-117569011D02*
X111002438Y-117426154D01*
X110954819Y-117092820D02*
X111954819Y-116854725D01*
X111954819Y-116854725D02*
X111240533Y-116664249D01*
X111240533Y-116664249D02*
X111954819Y-116473773D01*
X111954819Y-116473773D02*
X110954819Y-116235678D01*
X111954819Y-115330916D02*
X111954819Y-115902344D01*
X111954819Y-115616630D02*
X110954819Y-115616630D01*
X110954819Y-115616630D02*
X111097676Y-115711868D01*
X111097676Y-115711868D02*
X111192914Y-115807106D01*
X111192914Y-115807106D02*
X111240533Y-115902344D01*
X124738095Y-41454819D02*
X124738095Y-42264342D01*
X124738095Y-42264342D02*
X124785714Y-42359580D01*
X124785714Y-42359580D02*
X124833333Y-42407200D01*
X124833333Y-42407200D02*
X124928571Y-42454819D01*
X124928571Y-42454819D02*
X125119047Y-42454819D01*
X125119047Y-42454819D02*
X125214285Y-42407200D01*
X125214285Y-42407200D02*
X125261904Y-42359580D01*
X125261904Y-42359580D02*
X125309523Y-42264342D01*
X125309523Y-42264342D02*
X125309523Y-41454819D01*
X126214285Y-41454819D02*
X126023809Y-41454819D01*
X126023809Y-41454819D02*
X125928571Y-41502438D01*
X125928571Y-41502438D02*
X125880952Y-41550057D01*
X125880952Y-41550057D02*
X125785714Y-41692914D01*
X125785714Y-41692914D02*
X125738095Y-41883390D01*
X125738095Y-41883390D02*
X125738095Y-42264342D01*
X125738095Y-42264342D02*
X125785714Y-42359580D01*
X125785714Y-42359580D02*
X125833333Y-42407200D01*
X125833333Y-42407200D02*
X125928571Y-42454819D01*
X125928571Y-42454819D02*
X126119047Y-42454819D01*
X126119047Y-42454819D02*
X126214285Y-42407200D01*
X126214285Y-42407200D02*
X126261904Y-42359580D01*
X126261904Y-42359580D02*
X126309523Y-42264342D01*
X126309523Y-42264342D02*
X126309523Y-42026247D01*
X126309523Y-42026247D02*
X126261904Y-41931009D01*
X126261904Y-41931009D02*
X126214285Y-41883390D01*
X126214285Y-41883390D02*
X126119047Y-41835771D01*
X126119047Y-41835771D02*
X125928571Y-41835771D01*
X125928571Y-41835771D02*
X125833333Y-41883390D01*
X125833333Y-41883390D02*
X125785714Y-41931009D01*
X125785714Y-41931009D02*
X125738095Y-42026247D01*
X120500000Y-37954819D02*
X120500000Y-38192914D01*
X120261905Y-38097676D02*
X120500000Y-38192914D01*
X120500000Y-38192914D02*
X120738095Y-38097676D01*
X120357143Y-38383390D02*
X120500000Y-38192914D01*
X120500000Y-38192914D02*
X120642857Y-38383390D01*
X120500000Y-37954819D02*
X120500000Y-38192914D01*
X120261905Y-38097676D02*
X120500000Y-38192914D01*
X120500000Y-38192914D02*
X120738095Y-38097676D01*
X120357143Y-38383390D02*
X120500000Y-38192914D01*
X120500000Y-38192914D02*
X120642857Y-38383390D01*
X143941200Y-48694524D02*
X143979295Y-48580238D01*
X143979295Y-48580238D02*
X143979295Y-48389762D01*
X143979295Y-48389762D02*
X143941200Y-48313571D01*
X143941200Y-48313571D02*
X143903104Y-48275476D01*
X143903104Y-48275476D02*
X143826914Y-48237381D01*
X143826914Y-48237381D02*
X143750723Y-48237381D01*
X143750723Y-48237381D02*
X143674533Y-48275476D01*
X143674533Y-48275476D02*
X143636438Y-48313571D01*
X143636438Y-48313571D02*
X143598342Y-48389762D01*
X143598342Y-48389762D02*
X143560247Y-48542143D01*
X143560247Y-48542143D02*
X143522152Y-48618333D01*
X143522152Y-48618333D02*
X143484057Y-48656428D01*
X143484057Y-48656428D02*
X143407866Y-48694524D01*
X143407866Y-48694524D02*
X143331676Y-48694524D01*
X143331676Y-48694524D02*
X143255485Y-48656428D01*
X143255485Y-48656428D02*
X143217390Y-48618333D01*
X143217390Y-48618333D02*
X143179295Y-48542143D01*
X143179295Y-48542143D02*
X143179295Y-48351666D01*
X143179295Y-48351666D02*
X143217390Y-48237381D01*
X143979295Y-47475476D02*
X143979295Y-47932619D01*
X143979295Y-47704047D02*
X143179295Y-47704047D01*
X143179295Y-47704047D02*
X143293580Y-47780238D01*
X143293580Y-47780238D02*
X143369771Y-47856428D01*
X143369771Y-47856428D02*
X143407866Y-47932619D01*
X147624819Y-59766666D02*
X147148628Y-60099999D01*
X147624819Y-60338094D02*
X146624819Y-60338094D01*
X146624819Y-60338094D02*
X146624819Y-59957142D01*
X146624819Y-59957142D02*
X146672438Y-59861904D01*
X146672438Y-59861904D02*
X146720057Y-59814285D01*
X146720057Y-59814285D02*
X146815295Y-59766666D01*
X146815295Y-59766666D02*
X146958152Y-59766666D01*
X146958152Y-59766666D02*
X147053390Y-59814285D01*
X147053390Y-59814285D02*
X147101009Y-59861904D01*
X147101009Y-59861904D02*
X147148628Y-59957142D01*
X147148628Y-59957142D02*
X147148628Y-60338094D01*
X146624819Y-59433332D02*
X146624819Y-58814285D01*
X146624819Y-58814285D02*
X147005771Y-59147618D01*
X147005771Y-59147618D02*
X147005771Y-59004761D01*
X147005771Y-59004761D02*
X147053390Y-58909523D01*
X147053390Y-58909523D02*
X147101009Y-58861904D01*
X147101009Y-58861904D02*
X147196247Y-58814285D01*
X147196247Y-58814285D02*
X147434342Y-58814285D01*
X147434342Y-58814285D02*
X147529580Y-58861904D01*
X147529580Y-58861904D02*
X147577200Y-58909523D01*
X147577200Y-58909523D02*
X147624819Y-59004761D01*
X147624819Y-59004761D02*
X147624819Y-59290475D01*
X147624819Y-59290475D02*
X147577200Y-59385713D01*
X147577200Y-59385713D02*
X147529580Y-59433332D01*
X138484819Y-101042857D02*
X138008628Y-101376190D01*
X138484819Y-101614285D02*
X137484819Y-101614285D01*
X137484819Y-101614285D02*
X137484819Y-101233333D01*
X137484819Y-101233333D02*
X137532438Y-101138095D01*
X137532438Y-101138095D02*
X137580057Y-101090476D01*
X137580057Y-101090476D02*
X137675295Y-101042857D01*
X137675295Y-101042857D02*
X137818152Y-101042857D01*
X137818152Y-101042857D02*
X137913390Y-101090476D01*
X137913390Y-101090476D02*
X137961009Y-101138095D01*
X137961009Y-101138095D02*
X138008628Y-101233333D01*
X138008628Y-101233333D02*
X138008628Y-101614285D01*
X137580057Y-100661904D02*
X137532438Y-100614285D01*
X137532438Y-100614285D02*
X137484819Y-100519047D01*
X137484819Y-100519047D02*
X137484819Y-100280952D01*
X137484819Y-100280952D02*
X137532438Y-100185714D01*
X137532438Y-100185714D02*
X137580057Y-100138095D01*
X137580057Y-100138095D02*
X137675295Y-100090476D01*
X137675295Y-100090476D02*
X137770533Y-100090476D01*
X137770533Y-100090476D02*
X137913390Y-100138095D01*
X137913390Y-100138095D02*
X138484819Y-100709523D01*
X138484819Y-100709523D02*
X138484819Y-100090476D01*
X138484819Y-99138095D02*
X138484819Y-99709523D01*
X138484819Y-99423809D02*
X137484819Y-99423809D01*
X137484819Y-99423809D02*
X137627676Y-99519047D01*
X137627676Y-99519047D02*
X137722914Y-99614285D01*
X137722914Y-99614285D02*
X137770533Y-99709523D01*
X135738095Y-41454819D02*
X135738095Y-42264342D01*
X135738095Y-42264342D02*
X135785714Y-42359580D01*
X135785714Y-42359580D02*
X135833333Y-42407200D01*
X135833333Y-42407200D02*
X135928571Y-42454819D01*
X135928571Y-42454819D02*
X136119047Y-42454819D01*
X136119047Y-42454819D02*
X136214285Y-42407200D01*
X136214285Y-42407200D02*
X136261904Y-42359580D01*
X136261904Y-42359580D02*
X136309523Y-42264342D01*
X136309523Y-42264342D02*
X136309523Y-41454819D01*
X136690476Y-41454819D02*
X137357142Y-41454819D01*
X137357142Y-41454819D02*
X136928571Y-42454819D01*
X131500000Y-37954819D02*
X131500000Y-38192914D01*
X131261905Y-38097676D02*
X131500000Y-38192914D01*
X131500000Y-38192914D02*
X131738095Y-38097676D01*
X131357143Y-38383390D02*
X131500000Y-38192914D01*
X131500000Y-38192914D02*
X131642857Y-38383390D01*
X131500000Y-37954819D02*
X131500000Y-38192914D01*
X131261905Y-38097676D02*
X131500000Y-38192914D01*
X131500000Y-38192914D02*
X131738095Y-38097676D01*
X131357143Y-38383390D02*
X131500000Y-38192914D01*
X131500000Y-38192914D02*
X131642857Y-38383390D01*
X130129580Y-76966666D02*
X130177200Y-77014285D01*
X130177200Y-77014285D02*
X130224819Y-77157142D01*
X130224819Y-77157142D02*
X130224819Y-77252380D01*
X130224819Y-77252380D02*
X130177200Y-77395237D01*
X130177200Y-77395237D02*
X130081961Y-77490475D01*
X130081961Y-77490475D02*
X129986723Y-77538094D01*
X129986723Y-77538094D02*
X129796247Y-77585713D01*
X129796247Y-77585713D02*
X129653390Y-77585713D01*
X129653390Y-77585713D02*
X129462914Y-77538094D01*
X129462914Y-77538094D02*
X129367676Y-77490475D01*
X129367676Y-77490475D02*
X129272438Y-77395237D01*
X129272438Y-77395237D02*
X129224819Y-77252380D01*
X129224819Y-77252380D02*
X129224819Y-77157142D01*
X129224819Y-77157142D02*
X129272438Y-77014285D01*
X129272438Y-77014285D02*
X129320057Y-76966666D01*
X129320057Y-76585713D02*
X129272438Y-76538094D01*
X129272438Y-76538094D02*
X129224819Y-76442856D01*
X129224819Y-76442856D02*
X129224819Y-76204761D01*
X129224819Y-76204761D02*
X129272438Y-76109523D01*
X129272438Y-76109523D02*
X129320057Y-76061904D01*
X129320057Y-76061904D02*
X129415295Y-76014285D01*
X129415295Y-76014285D02*
X129510533Y-76014285D01*
X129510533Y-76014285D02*
X129653390Y-76061904D01*
X129653390Y-76061904D02*
X130224819Y-76633332D01*
X130224819Y-76633332D02*
X130224819Y-76014285D01*
X125556400Y-117997582D02*
X125604019Y-117854725D01*
X125604019Y-117854725D02*
X125604019Y-117616630D01*
X125604019Y-117616630D02*
X125556400Y-117521392D01*
X125556400Y-117521392D02*
X125508780Y-117473773D01*
X125508780Y-117473773D02*
X125413542Y-117426154D01*
X125413542Y-117426154D02*
X125318304Y-117426154D01*
X125318304Y-117426154D02*
X125223066Y-117473773D01*
X125223066Y-117473773D02*
X125175447Y-117521392D01*
X125175447Y-117521392D02*
X125127828Y-117616630D01*
X125127828Y-117616630D02*
X125080209Y-117807106D01*
X125080209Y-117807106D02*
X125032590Y-117902344D01*
X125032590Y-117902344D02*
X124984971Y-117949963D01*
X124984971Y-117949963D02*
X124889733Y-117997582D01*
X124889733Y-117997582D02*
X124794495Y-117997582D01*
X124794495Y-117997582D02*
X124699257Y-117949963D01*
X124699257Y-117949963D02*
X124651638Y-117902344D01*
X124651638Y-117902344D02*
X124604019Y-117807106D01*
X124604019Y-117807106D02*
X124604019Y-117569011D01*
X124604019Y-117569011D02*
X124651638Y-117426154D01*
X124604019Y-117092820D02*
X125604019Y-116854725D01*
X125604019Y-116854725D02*
X124889733Y-116664249D01*
X124889733Y-116664249D02*
X125604019Y-116473773D01*
X125604019Y-116473773D02*
X124604019Y-116235678D01*
X124699257Y-115902344D02*
X124651638Y-115854725D01*
X124651638Y-115854725D02*
X124604019Y-115759487D01*
X124604019Y-115759487D02*
X124604019Y-115521392D01*
X124604019Y-115521392D02*
X124651638Y-115426154D01*
X124651638Y-115426154D02*
X124699257Y-115378535D01*
X124699257Y-115378535D02*
X124794495Y-115330916D01*
X124794495Y-115330916D02*
X124889733Y-115330916D01*
X124889733Y-115330916D02*
X125032590Y-115378535D01*
X125032590Y-115378535D02*
X125604019Y-115949963D01*
X125604019Y-115949963D02*
X125604019Y-115330916D01*
D12*
X108677667Y-102703818D02*
X108677667Y-103610961D01*
X108677667Y-103610961D02*
X108617190Y-103792389D01*
X108617190Y-103792389D02*
X108496238Y-103913342D01*
X108496238Y-103913342D02*
X108314809Y-103973818D01*
X108314809Y-103973818D02*
X108193857Y-103973818D01*
X109221952Y-102824770D02*
X109282428Y-102764294D01*
X109282428Y-102764294D02*
X109403381Y-102703818D01*
X109403381Y-102703818D02*
X109705762Y-102703818D01*
X109705762Y-102703818D02*
X109826714Y-102764294D01*
X109826714Y-102764294D02*
X109887190Y-102824770D01*
X109887190Y-102824770D02*
X109947667Y-102945722D01*
X109947667Y-102945722D02*
X109947667Y-103066675D01*
X109947667Y-103066675D02*
X109887190Y-103248103D01*
X109887190Y-103248103D02*
X109161476Y-103973818D01*
X109161476Y-103973818D02*
X109947667Y-103973818D01*
D11*
X113738095Y-41454819D02*
X113738095Y-42264342D01*
X113738095Y-42264342D02*
X113785714Y-42359580D01*
X113785714Y-42359580D02*
X113833333Y-42407200D01*
X113833333Y-42407200D02*
X113928571Y-42454819D01*
X113928571Y-42454819D02*
X114119047Y-42454819D01*
X114119047Y-42454819D02*
X114214285Y-42407200D01*
X114214285Y-42407200D02*
X114261904Y-42359580D01*
X114261904Y-42359580D02*
X114309523Y-42264342D01*
X114309523Y-42264342D02*
X114309523Y-41454819D01*
X115261904Y-41454819D02*
X114785714Y-41454819D01*
X114785714Y-41454819D02*
X114738095Y-41931009D01*
X114738095Y-41931009D02*
X114785714Y-41883390D01*
X114785714Y-41883390D02*
X114880952Y-41835771D01*
X114880952Y-41835771D02*
X115119047Y-41835771D01*
X115119047Y-41835771D02*
X115214285Y-41883390D01*
X115214285Y-41883390D02*
X115261904Y-41931009D01*
X115261904Y-41931009D02*
X115309523Y-42026247D01*
X115309523Y-42026247D02*
X115309523Y-42264342D01*
X115309523Y-42264342D02*
X115261904Y-42359580D01*
X115261904Y-42359580D02*
X115214285Y-42407200D01*
X115214285Y-42407200D02*
X115119047Y-42454819D01*
X115119047Y-42454819D02*
X114880952Y-42454819D01*
X114880952Y-42454819D02*
X114785714Y-42407200D01*
X114785714Y-42407200D02*
X114738095Y-42359580D01*
X109500000Y-37954819D02*
X109500000Y-38192914D01*
X109261905Y-38097676D02*
X109500000Y-38192914D01*
X109500000Y-38192914D02*
X109738095Y-38097676D01*
X109357143Y-38383390D02*
X109500000Y-38192914D01*
X109500000Y-38192914D02*
X109642857Y-38383390D01*
X109500000Y-37954819D02*
X109500000Y-38192914D01*
X109261905Y-38097676D02*
X109500000Y-38192914D01*
X109500000Y-38192914D02*
X109738095Y-38097676D01*
X109357143Y-38383390D02*
X109500000Y-38192914D01*
X109500000Y-38192914D02*
X109642857Y-38383390D01*
D13*
X104866666Y-61383609D02*
X104533333Y-61383609D01*
X104533333Y-61907419D02*
X104533333Y-60907419D01*
X104533333Y-60907419D02*
X105009523Y-60907419D01*
X105866666Y-60907419D02*
X105390476Y-60907419D01*
X105390476Y-60907419D02*
X105342857Y-61383609D01*
X105342857Y-61383609D02*
X105390476Y-61335990D01*
X105390476Y-61335990D02*
X105485714Y-61288371D01*
X105485714Y-61288371D02*
X105723809Y-61288371D01*
X105723809Y-61288371D02*
X105819047Y-61335990D01*
X105819047Y-61335990D02*
X105866666Y-61383609D01*
X105866666Y-61383609D02*
X105914285Y-61478847D01*
X105914285Y-61478847D02*
X105914285Y-61716942D01*
X105914285Y-61716942D02*
X105866666Y-61812180D01*
X105866666Y-61812180D02*
X105819047Y-61859800D01*
X105819047Y-61859800D02*
X105723809Y-61907419D01*
X105723809Y-61907419D02*
X105485714Y-61907419D01*
X105485714Y-61907419D02*
X105390476Y-61859800D01*
X105390476Y-61859800D02*
X105342857Y-61812180D01*
D11*
X113957142Y-37959580D02*
X113909523Y-38007200D01*
X113909523Y-38007200D02*
X113766666Y-38054819D01*
X113766666Y-38054819D02*
X113671428Y-38054819D01*
X113671428Y-38054819D02*
X113528571Y-38007200D01*
X113528571Y-38007200D02*
X113433333Y-37911961D01*
X113433333Y-37911961D02*
X113385714Y-37816723D01*
X113385714Y-37816723D02*
X113338095Y-37626247D01*
X113338095Y-37626247D02*
X113338095Y-37483390D01*
X113338095Y-37483390D02*
X113385714Y-37292914D01*
X113385714Y-37292914D02*
X113433333Y-37197676D01*
X113433333Y-37197676D02*
X113528571Y-37102438D01*
X113528571Y-37102438D02*
X113671428Y-37054819D01*
X113671428Y-37054819D02*
X113766666Y-37054819D01*
X113766666Y-37054819D02*
X113909523Y-37102438D01*
X113909523Y-37102438D02*
X113957142Y-37150057D01*
X114909523Y-38054819D02*
X114338095Y-38054819D01*
X114623809Y-38054819D02*
X114623809Y-37054819D01*
X114623809Y-37054819D02*
X114528571Y-37197676D01*
X114528571Y-37197676D02*
X114433333Y-37292914D01*
X114433333Y-37292914D02*
X114338095Y-37340533D01*
X115385714Y-38054819D02*
X115576190Y-38054819D01*
X115576190Y-38054819D02*
X115671428Y-38007200D01*
X115671428Y-38007200D02*
X115719047Y-37959580D01*
X115719047Y-37959580D02*
X115814285Y-37816723D01*
X115814285Y-37816723D02*
X115861904Y-37626247D01*
X115861904Y-37626247D02*
X115861904Y-37245295D01*
X115861904Y-37245295D02*
X115814285Y-37150057D01*
X115814285Y-37150057D02*
X115766666Y-37102438D01*
X115766666Y-37102438D02*
X115671428Y-37054819D01*
X115671428Y-37054819D02*
X115480952Y-37054819D01*
X115480952Y-37054819D02*
X115385714Y-37102438D01*
X115385714Y-37102438D02*
X115338095Y-37150057D01*
X115338095Y-37150057D02*
X115290476Y-37245295D01*
X115290476Y-37245295D02*
X115290476Y-37483390D01*
X115290476Y-37483390D02*
X115338095Y-37578628D01*
X115338095Y-37578628D02*
X115385714Y-37626247D01*
X115385714Y-37626247D02*
X115480952Y-37673866D01*
X115480952Y-37673866D02*
X115671428Y-37673866D01*
X115671428Y-37673866D02*
X115766666Y-37626247D01*
X115766666Y-37626247D02*
X115814285Y-37578628D01*
X115814285Y-37578628D02*
X115861904Y-37483390D01*
X131054819Y-83966666D02*
X130578628Y-84299999D01*
X131054819Y-84538094D02*
X130054819Y-84538094D01*
X130054819Y-84538094D02*
X130054819Y-84157142D01*
X130054819Y-84157142D02*
X130102438Y-84061904D01*
X130102438Y-84061904D02*
X130150057Y-84014285D01*
X130150057Y-84014285D02*
X130245295Y-83966666D01*
X130245295Y-83966666D02*
X130388152Y-83966666D01*
X130388152Y-83966666D02*
X130483390Y-84014285D01*
X130483390Y-84014285D02*
X130531009Y-84061904D01*
X130531009Y-84061904D02*
X130578628Y-84157142D01*
X130578628Y-84157142D02*
X130578628Y-84538094D01*
X131054819Y-83014285D02*
X131054819Y-83585713D01*
X131054819Y-83299999D02*
X130054819Y-83299999D01*
X130054819Y-83299999D02*
X130197676Y-83395237D01*
X130197676Y-83395237D02*
X130292914Y-83490475D01*
X130292914Y-83490475D02*
X130340533Y-83585713D01*
X136157142Y-37959580D02*
X136109523Y-38007200D01*
X136109523Y-38007200D02*
X135966666Y-38054819D01*
X135966666Y-38054819D02*
X135871428Y-38054819D01*
X135871428Y-38054819D02*
X135728571Y-38007200D01*
X135728571Y-38007200D02*
X135633333Y-37911961D01*
X135633333Y-37911961D02*
X135585714Y-37816723D01*
X135585714Y-37816723D02*
X135538095Y-37626247D01*
X135538095Y-37626247D02*
X135538095Y-37483390D01*
X135538095Y-37483390D02*
X135585714Y-37292914D01*
X135585714Y-37292914D02*
X135633333Y-37197676D01*
X135633333Y-37197676D02*
X135728571Y-37102438D01*
X135728571Y-37102438D02*
X135871428Y-37054819D01*
X135871428Y-37054819D02*
X135966666Y-37054819D01*
X135966666Y-37054819D02*
X136109523Y-37102438D01*
X136109523Y-37102438D02*
X136157142Y-37150057D01*
X136538095Y-37150057D02*
X136585714Y-37102438D01*
X136585714Y-37102438D02*
X136680952Y-37054819D01*
X136680952Y-37054819D02*
X136919047Y-37054819D01*
X136919047Y-37054819D02*
X137014285Y-37102438D01*
X137014285Y-37102438D02*
X137061904Y-37150057D01*
X137061904Y-37150057D02*
X137109523Y-37245295D01*
X137109523Y-37245295D02*
X137109523Y-37340533D01*
X137109523Y-37340533D02*
X137061904Y-37483390D01*
X137061904Y-37483390D02*
X136490476Y-38054819D01*
X136490476Y-38054819D02*
X137109523Y-38054819D01*
X138061904Y-38054819D02*
X137490476Y-38054819D01*
X137776190Y-38054819D02*
X137776190Y-37054819D01*
X137776190Y-37054819D02*
X137680952Y-37197676D01*
X137680952Y-37197676D02*
X137585714Y-37292914D01*
X137585714Y-37292914D02*
X137490476Y-37340533D01*
X149054819Y-53538094D02*
X148054819Y-53538094D01*
X148054819Y-53538094D02*
X148054819Y-53299999D01*
X148054819Y-53299999D02*
X148102438Y-53157142D01*
X148102438Y-53157142D02*
X148197676Y-53061904D01*
X148197676Y-53061904D02*
X148292914Y-53014285D01*
X148292914Y-53014285D02*
X148483390Y-52966666D01*
X148483390Y-52966666D02*
X148626247Y-52966666D01*
X148626247Y-52966666D02*
X148816723Y-53014285D01*
X148816723Y-53014285D02*
X148911961Y-53061904D01*
X148911961Y-53061904D02*
X149007200Y-53157142D01*
X149007200Y-53157142D02*
X149054819Y-53299999D01*
X149054819Y-53299999D02*
X149054819Y-53538094D01*
X149054819Y-52014285D02*
X149054819Y-52585713D01*
X149054819Y-52299999D02*
X148054819Y-52299999D01*
X148054819Y-52299999D02*
X148197676Y-52395237D01*
X148197676Y-52395237D02*
X148292914Y-52490475D01*
X148292914Y-52490475D02*
X148340533Y-52585713D01*
X141454819Y-101042857D02*
X140978628Y-101376190D01*
X141454819Y-101614285D02*
X140454819Y-101614285D01*
X140454819Y-101614285D02*
X140454819Y-101233333D01*
X140454819Y-101233333D02*
X140502438Y-101138095D01*
X140502438Y-101138095D02*
X140550057Y-101090476D01*
X140550057Y-101090476D02*
X140645295Y-101042857D01*
X140645295Y-101042857D02*
X140788152Y-101042857D01*
X140788152Y-101042857D02*
X140883390Y-101090476D01*
X140883390Y-101090476D02*
X140931009Y-101138095D01*
X140931009Y-101138095D02*
X140978628Y-101233333D01*
X140978628Y-101233333D02*
X140978628Y-101614285D01*
X141454819Y-100090476D02*
X141454819Y-100661904D01*
X141454819Y-100376190D02*
X140454819Y-100376190D01*
X140454819Y-100376190D02*
X140597676Y-100471428D01*
X140597676Y-100471428D02*
X140692914Y-100566666D01*
X140692914Y-100566666D02*
X140740533Y-100661904D01*
X141454819Y-99614285D02*
X141454819Y-99423809D01*
X141454819Y-99423809D02*
X141407200Y-99328571D01*
X141407200Y-99328571D02*
X141359580Y-99280952D01*
X141359580Y-99280952D02*
X141216723Y-99185714D01*
X141216723Y-99185714D02*
X141026247Y-99138095D01*
X141026247Y-99138095D02*
X140645295Y-99138095D01*
X140645295Y-99138095D02*
X140550057Y-99185714D01*
X140550057Y-99185714D02*
X140502438Y-99233333D01*
X140502438Y-99233333D02*
X140454819Y-99328571D01*
X140454819Y-99328571D02*
X140454819Y-99519047D01*
X140454819Y-99519047D02*
X140502438Y-99614285D01*
X140502438Y-99614285D02*
X140550057Y-99661904D01*
X140550057Y-99661904D02*
X140645295Y-99709523D01*
X140645295Y-99709523D02*
X140883390Y-99709523D01*
X140883390Y-99709523D02*
X140978628Y-99661904D01*
X140978628Y-99661904D02*
X141026247Y-99614285D01*
X141026247Y-99614285D02*
X141073866Y-99519047D01*
X141073866Y-99519047D02*
X141073866Y-99328571D01*
X141073866Y-99328571D02*
X141026247Y-99233333D01*
X141026247Y-99233333D02*
X140978628Y-99185714D01*
X140978628Y-99185714D02*
X140883390Y-99138095D01*
X125357142Y-37959580D02*
X125309523Y-38007200D01*
X125309523Y-38007200D02*
X125166666Y-38054819D01*
X125166666Y-38054819D02*
X125071428Y-38054819D01*
X125071428Y-38054819D02*
X124928571Y-38007200D01*
X124928571Y-38007200D02*
X124833333Y-37911961D01*
X124833333Y-37911961D02*
X124785714Y-37816723D01*
X124785714Y-37816723D02*
X124738095Y-37626247D01*
X124738095Y-37626247D02*
X124738095Y-37483390D01*
X124738095Y-37483390D02*
X124785714Y-37292914D01*
X124785714Y-37292914D02*
X124833333Y-37197676D01*
X124833333Y-37197676D02*
X124928571Y-37102438D01*
X124928571Y-37102438D02*
X125071428Y-37054819D01*
X125071428Y-37054819D02*
X125166666Y-37054819D01*
X125166666Y-37054819D02*
X125309523Y-37102438D01*
X125309523Y-37102438D02*
X125357142Y-37150057D01*
X125738095Y-37150057D02*
X125785714Y-37102438D01*
X125785714Y-37102438D02*
X125880952Y-37054819D01*
X125880952Y-37054819D02*
X126119047Y-37054819D01*
X126119047Y-37054819D02*
X126214285Y-37102438D01*
X126214285Y-37102438D02*
X126261904Y-37150057D01*
X126261904Y-37150057D02*
X126309523Y-37245295D01*
X126309523Y-37245295D02*
X126309523Y-37340533D01*
X126309523Y-37340533D02*
X126261904Y-37483390D01*
X126261904Y-37483390D02*
X125690476Y-38054819D01*
X125690476Y-38054819D02*
X126309523Y-38054819D01*
X126928571Y-37054819D02*
X127023809Y-37054819D01*
X127023809Y-37054819D02*
X127119047Y-37102438D01*
X127119047Y-37102438D02*
X127166666Y-37150057D01*
X127166666Y-37150057D02*
X127214285Y-37245295D01*
X127214285Y-37245295D02*
X127261904Y-37435771D01*
X127261904Y-37435771D02*
X127261904Y-37673866D01*
X127261904Y-37673866D02*
X127214285Y-37864342D01*
X127214285Y-37864342D02*
X127166666Y-37959580D01*
X127166666Y-37959580D02*
X127119047Y-38007200D01*
X127119047Y-38007200D02*
X127023809Y-38054819D01*
X127023809Y-38054819D02*
X126928571Y-38054819D01*
X126928571Y-38054819D02*
X126833333Y-38007200D01*
X126833333Y-38007200D02*
X126785714Y-37959580D01*
X126785714Y-37959580D02*
X126738095Y-37864342D01*
X126738095Y-37864342D02*
X126690476Y-37673866D01*
X126690476Y-37673866D02*
X126690476Y-37435771D01*
X126690476Y-37435771D02*
X126738095Y-37245295D01*
X126738095Y-37245295D02*
X126785714Y-37150057D01*
X126785714Y-37150057D02*
X126833333Y-37102438D01*
X126833333Y-37102438D02*
X126928571Y-37054819D01*
X139205600Y-117997582D02*
X139253219Y-117854725D01*
X139253219Y-117854725D02*
X139253219Y-117616630D01*
X139253219Y-117616630D02*
X139205600Y-117521392D01*
X139205600Y-117521392D02*
X139157980Y-117473773D01*
X139157980Y-117473773D02*
X139062742Y-117426154D01*
X139062742Y-117426154D02*
X138967504Y-117426154D01*
X138967504Y-117426154D02*
X138872266Y-117473773D01*
X138872266Y-117473773D02*
X138824647Y-117521392D01*
X138824647Y-117521392D02*
X138777028Y-117616630D01*
X138777028Y-117616630D02*
X138729409Y-117807106D01*
X138729409Y-117807106D02*
X138681790Y-117902344D01*
X138681790Y-117902344D02*
X138634171Y-117949963D01*
X138634171Y-117949963D02*
X138538933Y-117997582D01*
X138538933Y-117997582D02*
X138443695Y-117997582D01*
X138443695Y-117997582D02*
X138348457Y-117949963D01*
X138348457Y-117949963D02*
X138300838Y-117902344D01*
X138300838Y-117902344D02*
X138253219Y-117807106D01*
X138253219Y-117807106D02*
X138253219Y-117569011D01*
X138253219Y-117569011D02*
X138300838Y-117426154D01*
X138253219Y-117092820D02*
X139253219Y-116854725D01*
X139253219Y-116854725D02*
X138538933Y-116664249D01*
X138538933Y-116664249D02*
X139253219Y-116473773D01*
X139253219Y-116473773D02*
X138253219Y-116235678D01*
X138253219Y-115949963D02*
X138253219Y-115330916D01*
X138253219Y-115330916D02*
X138634171Y-115664249D01*
X138634171Y-115664249D02*
X138634171Y-115521392D01*
X138634171Y-115521392D02*
X138681790Y-115426154D01*
X138681790Y-115426154D02*
X138729409Y-115378535D01*
X138729409Y-115378535D02*
X138824647Y-115330916D01*
X138824647Y-115330916D02*
X139062742Y-115330916D01*
X139062742Y-115330916D02*
X139157980Y-115378535D01*
X139157980Y-115378535D02*
X139205600Y-115426154D01*
X139205600Y-115426154D02*
X139253219Y-115521392D01*
X139253219Y-115521392D02*
X139253219Y-115807106D01*
X139253219Y-115807106D02*
X139205600Y-115902344D01*
X139205600Y-115902344D02*
X139157980Y-115949963D01*
D13*
X105041666Y-55133609D02*
X104708333Y-55133609D01*
X104708333Y-55657419D02*
X104708333Y-54657419D01*
X104708333Y-54657419D02*
X105184523Y-54657419D01*
X105994047Y-54657419D02*
X105803571Y-54657419D01*
X105803571Y-54657419D02*
X105708333Y-54705038D01*
X105708333Y-54705038D02*
X105660714Y-54752657D01*
X105660714Y-54752657D02*
X105565476Y-54895514D01*
X105565476Y-54895514D02*
X105517857Y-55085990D01*
X105517857Y-55085990D02*
X105517857Y-55466942D01*
X105517857Y-55466942D02*
X105565476Y-55562180D01*
X105565476Y-55562180D02*
X105613095Y-55609800D01*
X105613095Y-55609800D02*
X105708333Y-55657419D01*
X105708333Y-55657419D02*
X105898809Y-55657419D01*
X105898809Y-55657419D02*
X105994047Y-55609800D01*
X105994047Y-55609800D02*
X106041666Y-55562180D01*
X106041666Y-55562180D02*
X106089285Y-55466942D01*
X106089285Y-55466942D02*
X106089285Y-55228847D01*
X106089285Y-55228847D02*
X106041666Y-55133609D01*
X106041666Y-55133609D02*
X105994047Y-55085990D01*
X105994047Y-55085990D02*
X105898809Y-55038371D01*
X105898809Y-55038371D02*
X105708333Y-55038371D01*
X105708333Y-55038371D02*
X105613095Y-55085990D01*
X105613095Y-55085990D02*
X105565476Y-55133609D01*
X105565476Y-55133609D02*
X105517857Y-55228847D01*
D11*
X132854819Y-84166666D02*
X132378628Y-84499999D01*
X132854819Y-84738094D02*
X131854819Y-84738094D01*
X131854819Y-84738094D02*
X131854819Y-84357142D01*
X131854819Y-84357142D02*
X131902438Y-84261904D01*
X131902438Y-84261904D02*
X131950057Y-84214285D01*
X131950057Y-84214285D02*
X132045295Y-84166666D01*
X132045295Y-84166666D02*
X132188152Y-84166666D01*
X132188152Y-84166666D02*
X132283390Y-84214285D01*
X132283390Y-84214285D02*
X132331009Y-84261904D01*
X132331009Y-84261904D02*
X132378628Y-84357142D01*
X132378628Y-84357142D02*
X132378628Y-84738094D01*
X131950057Y-83785713D02*
X131902438Y-83738094D01*
X131902438Y-83738094D02*
X131854819Y-83642856D01*
X131854819Y-83642856D02*
X131854819Y-83404761D01*
X131854819Y-83404761D02*
X131902438Y-83309523D01*
X131902438Y-83309523D02*
X131950057Y-83261904D01*
X131950057Y-83261904D02*
X132045295Y-83214285D01*
X132045295Y-83214285D02*
X132140533Y-83214285D01*
X132140533Y-83214285D02*
X132283390Y-83261904D01*
X132283390Y-83261904D02*
X132854819Y-83833332D01*
X132854819Y-83833332D02*
X132854819Y-83214285D01*
D14*
%TO.C,C36*%
X105260000Y-70759420D02*
X105260000Y-71040580D01*
X104240000Y-70759420D02*
X104240000Y-71040580D01*
%TO.C,C35*%
X114359420Y-69390000D02*
X114640580Y-69390000D01*
X114359420Y-70410000D02*
X114640580Y-70410000D01*
%TO.C,C34*%
X106609420Y-67890000D02*
X106890580Y-67890000D01*
X106609420Y-68910000D02*
X106890580Y-68910000D01*
%TO.C,C33*%
X102890580Y-68910000D02*
X102609420Y-68910000D01*
X102890580Y-67890000D02*
X102609420Y-67890000D01*
%TO.C,C32*%
X102890580Y-67160000D02*
X102609420Y-67160000D01*
X102890580Y-66140000D02*
X102609420Y-66140000D01*
%TO.C,C31*%
X112260000Y-73009420D02*
X112260000Y-73290580D01*
X111240000Y-73009420D02*
X111240000Y-73290580D01*
%TO.C,C30*%
X110640580Y-67160000D02*
X110359420Y-67160000D01*
X110640580Y-66140000D02*
X110359420Y-66140000D01*
%TO.C,C29*%
X110640580Y-71160000D02*
X110359420Y-71160000D01*
X110640580Y-70140000D02*
X110359420Y-70140000D01*
%TO.C,C28*%
X106609420Y-66140000D02*
X106890580Y-66140000D01*
X106609420Y-67160000D02*
X106890580Y-67160000D01*
%TO.C,C27*%
X110640580Y-68910000D02*
X110359420Y-68910000D01*
X110640580Y-67890000D02*
X110359420Y-67890000D01*
D15*
%TO.C,SW1*%
X105378600Y-110542850D02*
X105378600Y-122785650D01*
X105378600Y-122785650D02*
X107740160Y-122785650D01*
X107746741Y-110542850D02*
X105378600Y-110542850D01*
X110259840Y-122785650D02*
X112746741Y-122785650D01*
X112746741Y-110542850D02*
X110253259Y-110542850D01*
X115253259Y-122785650D02*
X117621400Y-122785650D01*
X117621400Y-110542850D02*
X115253259Y-110542850D01*
X117621400Y-122785650D02*
X117621400Y-110542850D01*
X109203200Y-124563650D02*
G75*
G02*
X108796800Y-124563650I-203200J0D01*
G01*
X108796800Y-124563650D02*
G75*
G02*
X109203200Y-124563650I203200J0D01*
G01*
%TO.C,U6*%
X122375800Y-40514539D02*
X122375800Y-43485461D01*
X122375800Y-45124200D02*
X128624200Y-45124200D01*
X128624200Y-38875800D02*
X122375800Y-38875800D01*
X128624200Y-43485461D02*
X128624200Y-40514539D01*
X127252600Y-42000000D02*
G75*
G02*
X123747400Y-42000000I-1752600J0D01*
G01*
X123747400Y-42000000D02*
G75*
G02*
X127252600Y-42000000I1752600J0D01*
G01*
D16*
%TO.C,S1*%
X145375000Y-41975000D02*
X145375000Y-42475000D01*
X145375000Y-49975000D02*
X145375000Y-50475000D01*
X145375000Y-50475000D02*
X148875000Y-50475000D01*
X148875000Y-41975000D02*
X145375000Y-41975000D01*
X148875000Y-42475000D02*
X148875000Y-41975000D01*
X148875000Y-50475000D02*
X148875000Y-49975000D01*
D17*
X144425000Y-48825000D02*
G75*
G02*
X144225000Y-48825000I-100000J0D01*
G01*
X144225000Y-48825000D02*
G75*
G02*
X144425000Y-48825000I100000J0D01*
G01*
D14*
%TO.C,R3*%
X148077500Y-59837258D02*
X148077500Y-59362742D01*
X149122500Y-59837258D02*
X149122500Y-59362742D01*
%TO.C,R21*%
X136077500Y-100162742D02*
X136077500Y-100637258D01*
X137122500Y-100162742D02*
X137122500Y-100637258D01*
D15*
%TO.C,U7*%
X133375800Y-40514539D02*
X133375800Y-43485461D01*
X133375800Y-45124200D02*
X139624200Y-45124200D01*
X139624200Y-38875800D02*
X133375800Y-38875800D01*
X139624200Y-43485461D02*
X139624200Y-40514539D01*
X138252600Y-42000000D02*
G75*
G02*
X134747400Y-42000000I-1752600J0D01*
G01*
X134747400Y-42000000D02*
G75*
G02*
X138252600Y-42000000I1752600J0D01*
G01*
D14*
%TO.C,C2*%
X130690000Y-76940580D02*
X130690000Y-76659420D01*
X131710000Y-76940580D02*
X131710000Y-76659420D01*
D15*
%TO.C,SW2*%
X119027800Y-110542850D02*
X119027800Y-122785650D01*
X119027800Y-122785650D02*
X121389360Y-122785650D01*
X121395941Y-110542850D02*
X119027800Y-110542850D01*
X123909040Y-122785650D02*
X126395941Y-122785650D01*
X126395941Y-110542850D02*
X123902459Y-110542850D01*
X128902459Y-122785650D02*
X131270600Y-122785650D01*
X131270600Y-110542850D02*
X128902459Y-110542850D01*
X131270600Y-122785650D02*
X131270600Y-110542850D01*
X122852400Y-124563650D02*
G75*
G02*
X122446000Y-124563650I-203200J0D01*
G01*
X122446000Y-124563650D02*
G75*
G02*
X122852400Y-124563650I203200J0D01*
G01*
D17*
%TO.C,J2*%
X111140000Y-104400000D02*
X111140000Y-105840000D01*
X111140000Y-105840000D02*
X139461000Y-105840000D01*
X139461000Y-102959000D02*
X112600000Y-102959000D01*
X139461000Y-105840000D02*
X139461000Y-102959000D01*
D13*
X107551000Y-48949500D02*
X143051000Y-48949500D01*
X143051000Y-108149500D01*
X107551000Y-108149500D01*
X107551000Y-48949500D01*
D15*
%TO.C,U5*%
X111375800Y-40514539D02*
X111375800Y-43485461D01*
X111375800Y-45124200D02*
X117624200Y-45124200D01*
X117624200Y-38875800D02*
X111375800Y-38875800D01*
X117624200Y-43485461D02*
X117624200Y-40514539D01*
X116252600Y-42000000D02*
G75*
G02*
X112747400Y-42000000I-1752600J0D01*
G01*
X112747400Y-42000000D02*
G75*
G02*
X116252600Y-42000000I1752600J0D01*
G01*
D14*
%TO.C,C19*%
X117859420Y-37090000D02*
X118140580Y-37090000D01*
X117859420Y-38110000D02*
X118140580Y-38110000D01*
%TO.C,R1*%
X130077500Y-81162742D02*
X130077500Y-81637258D01*
X131122500Y-81162742D02*
X131122500Y-81637258D01*
%TO.C,C21*%
X139859420Y-37090000D02*
X140140580Y-37090000D01*
X139859420Y-38110000D02*
X140140580Y-38110000D01*
%TO.C,D1*%
X147640000Y-54115000D02*
X147640000Y-56800000D01*
X149560000Y-54115000D02*
X147640000Y-54115000D01*
X149560000Y-56800000D02*
X149560000Y-54115000D01*
%TO.C,R19*%
X138877500Y-100637258D02*
X138877500Y-100162742D01*
X139922500Y-100637258D02*
X139922500Y-100162742D01*
%TO.C,C20*%
X128859420Y-37090000D02*
X129140580Y-37090000D01*
X128859420Y-38110000D02*
X129140580Y-38110000D01*
D15*
%TO.C,SW3*%
X132677000Y-110542850D02*
X132677000Y-122785650D01*
X132677000Y-122785650D02*
X135038560Y-122785650D01*
X135045141Y-110542850D02*
X132677000Y-110542850D01*
X137558240Y-122785650D02*
X140045141Y-122785650D01*
X140045141Y-110542850D02*
X137551659Y-110542850D01*
X142551659Y-122785650D02*
X144919800Y-122785650D01*
X144919800Y-110542850D02*
X142551659Y-110542850D01*
X144919800Y-122785650D02*
X144919800Y-110542850D01*
X136501600Y-124563650D02*
G75*
G02*
X136095200Y-124563650I-203200J0D01*
G01*
X136095200Y-124563650D02*
G75*
G02*
X136501600Y-124563650I203200J0D01*
G01*
D14*
%TO.C,R2*%
X131877500Y-81637258D02*
X131877500Y-81162742D01*
X132922500Y-81637258D02*
X132922500Y-81162742D01*
D18*
%TO.C,J1*%
X130713479Y-45166955D02*
G75*
G02*
X129951479Y-45166955I-381000J0D01*
G01*
X129951479Y-45166955D02*
G75*
G02*
X130713479Y-45166955I381000J0D01*
G01*
%TD*%
M02*
