%TF.GenerationSoftware,KiCad,Pcbnew,9.0.5*%
%TF.CreationDate,2025-11-15T02:11:42-05:00*%
%TF.ProjectId,CreditCard,43726564-6974-4436-9172-642e6b696361,rev?*%
%TF.SameCoordinates,Original*%
%TF.FileFunction,Paste,Bot*%
%TF.FilePolarity,Positive*%
%FSLAX46Y46*%
G04 Gerber Fmt 4.6, Leading zero omitted, Abs format (unit mm)*
G04 Created by KiCad (PCBNEW 9.0.5) date 2025-11-15 02:11:42*
%MOMM*%
%LPD*%
G01*
G04 APERTURE LIST*
G04 Aperture macros list*
%AMRoundRect*
0 Rectangle with rounded corners*
0 $1 Rounding radius*
0 $2 $3 $4 $5 $6 $7 $8 $9 X,Y pos of 4 corners*
0 Add a 4 corners polygon primitive as box body*
4,1,4,$2,$3,$4,$5,$6,$7,$8,$9,$2,$3,0*
0 Add four circle primitives for the rounded corners*
1,1,$1+$1,$2,$3*
1,1,$1+$1,$4,$5*
1,1,$1+$1,$6,$7*
1,1,$1+$1,$8,$9*
0 Add four rect primitives between the rounded corners*
20,1,$1+$1,$2,$3,$4,$5,0*
20,1,$1+$1,$4,$5,$6,$7,0*
20,1,$1+$1,$6,$7,$8,$9,0*
20,1,$1+$1,$8,$9,$2,$3,0*%
G04 Aperture macros list end*
%ADD10C,0.000000*%
%ADD11RoundRect,0.250000X-0.325000X-0.650000X0.325000X-0.650000X0.325000X0.650000X-0.325000X0.650000X0*%
%ADD12RoundRect,0.225000X0.225000X0.250000X-0.225000X0.250000X-0.225000X-0.250000X0.225000X-0.250000X0*%
%ADD13RoundRect,0.135000X0.135000X0.185000X-0.135000X0.185000X-0.135000X-0.185000X0.135000X-0.185000X0*%
%ADD14R,1.600000X1.000000*%
%ADD15R,2.500000X3.000000*%
%ADD16RoundRect,0.225000X-0.225000X-0.250000X0.225000X-0.250000X0.225000X0.250000X-0.225000X0.250000X0*%
%ADD17RoundRect,0.250000X-0.250000X-0.475000X0.250000X-0.475000X0.250000X0.475000X-0.250000X0.475000X0*%
%ADD18RoundRect,0.135000X0.185000X-0.135000X0.185000X0.135000X-0.185000X0.135000X-0.185000X-0.135000X0*%
%ADD19RoundRect,0.200000X0.275000X-0.200000X0.275000X0.200000X-0.275000X0.200000X-0.275000X-0.200000X0*%
%ADD20RoundRect,0.225000X-0.250000X0.225000X-0.250000X-0.225000X0.250000X-0.225000X0.250000X0.225000X0*%
%ADD21RoundRect,0.250000X-0.250000X0.250000X-0.250000X-0.250000X0.250000X-0.250000X0.250000X0.250000X0*%
%ADD22RoundRect,0.200000X-0.200000X-0.275000X0.200000X-0.275000X0.200000X0.275000X-0.200000X0.275000X0*%
%ADD23R,1.140000X0.600000*%
%ADD24R,1.140000X0.300000*%
%ADD25R,2.209800X0.863600*%
%ADD26RoundRect,0.250000X-0.475000X0.250000X-0.475000X-0.250000X0.475000X-0.250000X0.475000X0.250000X0*%
%ADD27R,1.397000X2.500000*%
%ADD28RoundRect,0.200000X0.200000X0.275000X-0.200000X0.275000X-0.200000X-0.275000X0.200000X-0.275000X0*%
%ADD29R,0.508000X0.955600*%
%ADD30RoundRect,0.243750X-0.243750X-0.456250X0.243750X-0.456250X0.243750X0.456250X-0.243750X0.456250X0*%
%ADD31RoundRect,0.135000X-0.135000X-0.185000X0.135000X-0.185000X0.135000X0.185000X-0.135000X0.185000X0*%
%ADD32RoundRect,0.250000X0.250000X0.475000X-0.250000X0.475000X-0.250000X-0.475000X0.250000X-0.475000X0*%
%ADD33R,1.511300X0.558800*%
%ADD34RoundRect,0.225000X0.250000X-0.225000X0.250000X0.225000X-0.250000X0.225000X-0.250000X-0.225000X0*%
%ADD35R,3.000000X0.900000*%
%ADD36R,3.000000X0.899998*%
%ADD37R,3.000000X0.899996*%
%ADD38R,0.800000X0.800000*%
%ADD39RoundRect,0.135000X-0.185000X0.135000X-0.185000X-0.135000X0.185000X-0.135000X0.185000X0.135000X0*%
G04 APERTURE END LIST*
D10*
%TO.C,U1*%
G36*
X122475108Y-55539919D02*
G01*
X121674893Y-55539919D01*
X121674893Y-55309703D01*
X122475108Y-55309703D01*
X122475108Y-55539919D01*
G37*
G36*
X122475108Y-56040045D02*
G01*
X121674893Y-56040045D01*
X121674893Y-55809829D01*
X122475108Y-55809829D01*
X122475108Y-56040045D01*
G37*
G36*
X122475108Y-56540171D02*
G01*
X121674893Y-56540171D01*
X121674893Y-56309955D01*
X122475108Y-56309955D01*
X122475108Y-56540171D01*
G37*
G36*
X122475108Y-57040297D02*
G01*
X121674893Y-57040297D01*
X121674893Y-56810081D01*
X122475108Y-56810081D01*
X122475108Y-57040297D01*
G37*
G36*
X122915109Y-55100108D02*
G01*
X122684891Y-55100108D01*
X122684891Y-54299893D01*
X122915109Y-54299893D01*
X122915109Y-55100108D01*
G37*
G36*
X122915109Y-58050107D02*
G01*
X122684891Y-58050107D01*
X122684891Y-57249892D01*
X122915109Y-57249892D01*
X122915109Y-58050107D01*
G37*
G36*
X123415108Y-55100108D02*
G01*
X123184893Y-55100108D01*
X123184893Y-54299893D01*
X123415108Y-54299893D01*
X123415108Y-55100108D01*
G37*
G36*
X123415108Y-58050107D02*
G01*
X123184893Y-58050107D01*
X123184893Y-57249892D01*
X123415108Y-57249892D01*
X123415108Y-58050107D01*
G37*
G36*
X123915107Y-55100108D02*
G01*
X123684892Y-55100108D01*
X123684892Y-54299893D01*
X123915107Y-54299893D01*
X123915107Y-55100108D01*
G37*
G36*
X123915107Y-58050107D02*
G01*
X123684892Y-58050107D01*
X123684892Y-57249892D01*
X123915107Y-57249892D01*
X123915107Y-58050107D01*
G37*
G36*
X124415109Y-55100108D02*
G01*
X124184891Y-55100108D01*
X124184891Y-54299893D01*
X124415109Y-54299893D01*
X124415109Y-55100108D01*
G37*
G36*
X124415109Y-58050107D02*
G01*
X124184891Y-58050107D01*
X124184891Y-57249892D01*
X124415109Y-57249892D01*
X124415109Y-58050107D01*
G37*
G36*
X125425107Y-55539919D02*
G01*
X124624892Y-55539919D01*
X124624892Y-55309703D01*
X125425107Y-55309703D01*
X125425107Y-55539919D01*
G37*
G36*
X125425107Y-56040045D02*
G01*
X124624892Y-56040045D01*
X124624892Y-55809829D01*
X125425107Y-55809829D01*
X125425107Y-56040045D01*
G37*
G36*
X125425107Y-56540171D02*
G01*
X124624892Y-56540171D01*
X124624892Y-56309955D01*
X125425107Y-56309955D01*
X125425107Y-56540171D01*
G37*
G36*
X125425107Y-57040297D02*
G01*
X124624892Y-57040297D01*
X124624892Y-56810081D01*
X125425107Y-56810081D01*
X125425107Y-57040297D01*
G37*
G36*
X123056300Y-55539879D02*
G01*
X122914879Y-55681300D01*
X122774930Y-55681300D01*
X122774930Y-55399930D01*
X123056300Y-55399930D01*
X123056300Y-55539879D01*
G37*
G36*
X123056300Y-56810121D02*
G01*
X123056300Y-56950070D01*
X122774930Y-56950070D01*
X122774930Y-56668700D01*
X122914879Y-56668700D01*
X123056300Y-56810121D01*
G37*
G36*
X124325070Y-55681300D02*
G01*
X124185121Y-55681300D01*
X124043700Y-55539879D01*
X124043700Y-55399930D01*
X124325070Y-55399930D01*
X124325070Y-55681300D01*
G37*
G36*
X124325070Y-56950070D02*
G01*
X124043700Y-56950070D01*
X124043700Y-56810121D01*
X124185121Y-56668700D01*
X124325070Y-56668700D01*
X124325070Y-56950070D01*
G37*
G36*
X123056300Y-56022721D02*
G01*
X123056300Y-56327279D01*
X122914879Y-56468700D01*
X122774930Y-56468700D01*
X122774930Y-55881300D01*
X122914879Y-55881300D01*
X123056300Y-56022721D01*
G37*
G36*
X123843700Y-55539879D02*
G01*
X123702279Y-55681300D01*
X123397721Y-55681300D01*
X123256300Y-55539879D01*
X123256300Y-55399930D01*
X123843700Y-55399930D01*
X123843700Y-55539879D01*
G37*
G36*
X123843700Y-56810121D02*
G01*
X123843700Y-56950070D01*
X123256300Y-56950070D01*
X123256300Y-56810121D01*
X123397721Y-56668700D01*
X123702279Y-56668700D01*
X123843700Y-56810121D01*
G37*
G36*
X124325070Y-56468700D02*
G01*
X124185121Y-56468700D01*
X124043700Y-56327279D01*
X124043700Y-56022721D01*
X124185121Y-55881300D01*
X124325070Y-55881300D01*
X124325070Y-56468700D01*
G37*
G36*
X123843700Y-56022721D02*
G01*
X123843700Y-56327279D01*
X123702279Y-56468700D01*
X123397721Y-56468700D01*
X123256300Y-56327279D01*
X123256300Y-56022721D01*
X123397721Y-55881300D01*
X123702279Y-55881300D01*
X123843700Y-56022721D01*
G37*
%TD*%
D11*
%TO.C,C7*%
X141925000Y-64200000D03*
X144875000Y-64200000D03*
%TD*%
D12*
%TO.C,C24*%
X103275000Y-70795000D03*
X101725000Y-70795000D03*
%TD*%
D13*
%TO.C,R31*%
X127500099Y-52520100D03*
X126480099Y-52520100D03*
%TD*%
D14*
%TO.C,Y1*%
X142100000Y-86400000D03*
X142100000Y-83800000D03*
D15*
X148350000Y-85100000D03*
%TD*%
D16*
%TO.C,C8*%
X142025000Y-69000000D03*
X143575000Y-69000000D03*
%TD*%
D17*
%TO.C,C4*%
X141850000Y-66800000D03*
X143750000Y-66800000D03*
%TD*%
D16*
%TO.C,C11*%
X124425000Y-120200000D03*
X125975000Y-120200000D03*
%TD*%
D18*
%TO.C,R8*%
X121990099Y-51230100D03*
X121990099Y-50210100D03*
%TD*%
D16*
%TO.C,C12*%
X141875000Y-88300000D03*
X143425000Y-88300000D03*
%TD*%
D19*
%TO.C,R10*%
X141725000Y-46250000D03*
X141725000Y-44600000D03*
%TD*%
D20*
%TO.C,C22*%
X102746307Y-74370000D03*
X102746307Y-75920000D03*
%TD*%
D21*
%TO.C,D5*%
X139725000Y-44775000D03*
X139725000Y-47275000D03*
%TD*%
D22*
%TO.C,R4*%
X126965099Y-62920100D03*
X128615099Y-62920100D03*
%TD*%
D14*
%TO.C,U11*%
X113500000Y-63500000D03*
X113500000Y-66500000D03*
%TD*%
D16*
%TO.C,C17*%
X141875000Y-81900000D03*
X143425000Y-81900000D03*
%TD*%
D23*
%TO.C,J3*%
X107965000Y-61200000D03*
X107965000Y-60400000D03*
D24*
X107965000Y-59250000D03*
X107965000Y-58250000D03*
X107965000Y-57750000D03*
X107965000Y-56750000D03*
D23*
X107965000Y-54800000D03*
X107965000Y-55600000D03*
D24*
X107965000Y-56250000D03*
X107965000Y-57250000D03*
X107965000Y-58750000D03*
X107965000Y-59750000D03*
%TD*%
D25*
%TO.C,U3*%
X126557000Y-72150000D03*
X134050000Y-72150000D03*
X126557000Y-67649998D03*
X134050000Y-67649998D03*
%TD*%
D26*
%TO.C,C15*%
X123790099Y-60970100D03*
X123790099Y-62870100D03*
%TD*%
D22*
%TO.C,R15*%
X113675000Y-72245000D03*
X115325000Y-72245000D03*
%TD*%
D19*
%TO.C,R11*%
X110175000Y-56425000D03*
X110175000Y-54775000D03*
%TD*%
D27*
%TO.C,J1*%
X126977478Y-45166955D03*
X126977478Y-38966957D03*
X123977479Y-45166955D03*
X123977479Y-38966957D03*
%TD*%
D28*
%TO.C,R18*%
X117825000Y-68800000D03*
X116175000Y-68800000D03*
%TD*%
D16*
%TO.C,C18*%
X138025000Y-120200000D03*
X139575000Y-120200000D03*
%TD*%
D29*
%TO.C,U2*%
X137249999Y-61522200D03*
X138200000Y-61522200D03*
X139150001Y-61522200D03*
X139150001Y-64077800D03*
X137249999Y-64077800D03*
%TD*%
D19*
%TO.C,R5*%
X130590099Y-61545100D03*
X130590099Y-59895100D03*
%TD*%
D12*
%TO.C,C5*%
X111675450Y-75545000D03*
X110125450Y-75545000D03*
%TD*%
D30*
%TO.C,D3*%
X128252599Y-57920100D03*
X130127599Y-57920100D03*
%TD*%
D18*
%TO.C,R7*%
X119390099Y-53830100D03*
X119390099Y-52810100D03*
%TD*%
D16*
%TO.C,C6*%
X117225000Y-72500000D03*
X118775000Y-72500000D03*
%TD*%
D30*
%TO.C,L1*%
X137462500Y-66800000D03*
X139337500Y-66800000D03*
%TD*%
D20*
%TO.C,C14*%
X119790099Y-57145100D03*
X119790099Y-58695100D03*
%TD*%
D17*
%TO.C,C13*%
X124040099Y-50720100D03*
X125940099Y-50720100D03*
%TD*%
D31*
%TO.C,R26*%
X129880099Y-55920100D03*
X130900099Y-55920100D03*
%TD*%
D32*
%TO.C,C3*%
X136950000Y-58800000D03*
X135050000Y-58800000D03*
%TD*%
D20*
%TO.C,C9*%
X125950000Y-97075000D03*
X125950000Y-98625000D03*
%TD*%
D33*
%TO.C,U10*%
X111500000Y-64650000D03*
X111500000Y-65920000D03*
X111500000Y-67190000D03*
X111500000Y-68460000D03*
X111500000Y-69730000D03*
X111500000Y-71000000D03*
X111500000Y-72270000D03*
X111500000Y-73540000D03*
X106000900Y-73540000D03*
X106000900Y-72270000D03*
X106000900Y-71000000D03*
X106000900Y-69730000D03*
X106000900Y-68460000D03*
X106000900Y-67190000D03*
X106000900Y-65920000D03*
X106000900Y-64650000D03*
%TD*%
D22*
%TO.C,R16*%
X101675000Y-72500000D03*
X103325000Y-72500000D03*
%TD*%
D25*
%TO.C,U4*%
X123646500Y-95499999D03*
X116153500Y-95499999D03*
X123646500Y-100000001D03*
X116153500Y-100000001D03*
%TD*%
D12*
%TO.C,C23*%
X103275000Y-69000000D03*
X101725000Y-69000000D03*
%TD*%
D16*
%TO.C,C10*%
X110825000Y-120200000D03*
X112375000Y-120200000D03*
%TD*%
D12*
%TO.C,C26*%
X116975000Y-70500000D03*
X115425000Y-70500000D03*
%TD*%
D19*
%TO.C,R12*%
X110175000Y-61225000D03*
X110175000Y-59575000D03*
%TD*%
D30*
%TO.C,D2*%
X126852599Y-60920100D03*
X128727599Y-60920100D03*
%TD*%
D14*
%TO.C,U9*%
X103500000Y-64500000D03*
X103500000Y-67500000D03*
%TD*%
D34*
%TO.C,C1*%
X136200000Y-70725000D03*
X136200000Y-69175000D03*
%TD*%
D31*
%TO.C,R23*%
X121240000Y-60150000D03*
X122260000Y-60150000D03*
%TD*%
D35*
%TO.C,U8*%
X135000000Y-75590000D03*
X135000000Y-76860000D03*
X135000000Y-78130000D03*
X135000000Y-79400000D03*
X135000000Y-80670000D03*
X135000000Y-81940000D03*
X135000000Y-83210000D03*
X135000000Y-84480000D03*
X135000000Y-85750000D03*
X135000000Y-87020000D03*
X135000000Y-88290000D03*
X135000000Y-89560000D03*
D36*
X135000000Y-90829999D03*
X135000000Y-92099999D03*
D35*
X116000000Y-92100000D03*
X116000000Y-90830000D03*
X116000000Y-89560000D03*
X116000000Y-88290000D03*
X116000000Y-87020000D03*
X116000000Y-85750000D03*
X116000000Y-84480000D03*
D36*
X116000000Y-83210001D03*
D37*
X116000000Y-81940002D03*
D36*
X116000000Y-80670001D03*
D35*
X116000000Y-79400000D03*
D36*
X116000000Y-78130001D03*
D35*
X116000000Y-76860000D03*
D36*
X116000000Y-75590001D03*
D38*
X128255000Y-80060000D03*
X127005000Y-80060000D03*
X125755000Y-80060000D03*
X128255000Y-81310000D03*
X127005000Y-81310000D03*
X125755000Y-81310000D03*
X128255000Y-82560000D03*
X127005000Y-82560000D03*
X125755000Y-82560000D03*
%TD*%
D34*
%TO.C,C16*%
X143525000Y-46200000D03*
X143525000Y-44650000D03*
%TD*%
D16*
%TO.C,C25*%
X116225000Y-67000000D03*
X117775000Y-67000000D03*
%TD*%
D39*
%TO.C,R29*%
X127790099Y-53610100D03*
X127790099Y-54630100D03*
%TD*%
M02*
