%TF.GenerationSoftware,KiCad,Pcbnew,9.0.5*%
%TF.CreationDate,2025-11-15T02:55:35-05:00*%
%TF.ProjectId,CreditCard,43726564-6974-4436-9172-642e6b696361,rev?*%
%TF.SameCoordinates,Original*%
%TF.FileFunction,Paste,Top*%
%TF.FilePolarity,Positive*%
%FSLAX46Y46*%
G04 Gerber Fmt 4.6, Leading zero omitted, Abs format (unit mm)*
G04 Created by KiCad (PCBNEW 9.0.5) date 2025-11-15 02:55:35*
%MOMM*%
%LPD*%
G01*
G04 APERTURE LIST*
G04 Aperture macros list*
%AMRoundRect*
0 Rectangle with rounded corners*
0 $1 Rounding radius*
0 $2 $3 $4 $5 $6 $7 $8 $9 X,Y pos of 4 corners*
0 Add a 4 corners polygon primitive as box body*
4,1,4,$2,$3,$4,$5,$6,$7,$8,$9,$2,$3,0*
0 Add four circle primitives for the rounded corners*
1,1,$1+$1,$2,$3*
1,1,$1+$1,$4,$5*
1,1,$1+$1,$6,$7*
1,1,$1+$1,$8,$9*
0 Add four rect primitives between the rounded corners*
20,1,$1+$1,$2,$3,$4,$5,0*
20,1,$1+$1,$4,$5,$6,$7,0*
20,1,$1+$1,$6,$7,$8,$9,0*
20,1,$1+$1,$8,$9,$2,$3,0*%
%AMFreePoly0*
4,1,18,-1.500000,0.437500,-1.485727,0.509253,-1.445083,0.570083,-1.384253,0.610727,-1.312500,0.625000,1.187500,0.625000,1.500000,0.312500,1.500000,-0.437500,1.485727,-0.509253,1.445083,-0.570083,1.384253,-0.610727,1.312500,-0.625000,-1.312500,-0.625000,-1.384253,-0.610727,-1.445083,-0.570083,-1.485727,-0.509253,-1.500000,-0.437500,-1.500000,0.437500,-1.500000,0.437500,$1*%
G04 Aperture macros list end*
%ADD10RoundRect,0.225000X-0.250000X0.225000X-0.250000X-0.225000X0.250000X-0.225000X0.250000X0.225000X0*%
%ADD11RoundRect,0.225000X-0.225000X-0.250000X0.225000X-0.250000X0.225000X0.250000X-0.225000X0.250000X0*%
%ADD12RoundRect,0.225000X0.225000X0.250000X-0.225000X0.250000X-0.225000X-0.250000X0.225000X-0.250000X0*%
%ADD13R,2.209800X0.863600*%
%ADD14RoundRect,0.200000X0.275000X-0.200000X0.275000X0.200000X-0.275000X0.200000X-0.275000X-0.200000X0*%
%ADD15RoundRect,0.200000X-0.275000X0.200000X-0.275000X-0.200000X0.275000X-0.200000X0.275000X0.200000X0*%
%ADD16RoundRect,0.225000X0.250000X-0.225000X0.250000X0.225000X-0.250000X0.225000X-0.250000X-0.225000X0*%
%ADD17FreePoly0,180.000000*%
%ADD18RoundRect,0.243750X-0.456250X0.243750X-0.456250X-0.243750X0.456250X-0.243750X0.456250X0.243750X0*%
G04 APERTURE END LIST*
D10*
%TO.C,C36*%
X104750000Y-70125000D03*
X104750000Y-71675000D03*
%TD*%
D11*
%TO.C,C35*%
X113725000Y-69900000D03*
X115275000Y-69900000D03*
%TD*%
%TO.C,C34*%
X105975000Y-68400000D03*
X107525000Y-68400000D03*
%TD*%
D12*
%TO.C,C33*%
X103525000Y-68400000D03*
X101975000Y-68400000D03*
%TD*%
%TO.C,C32*%
X103525000Y-66650000D03*
X101975000Y-66650000D03*
%TD*%
D10*
%TO.C,C31*%
X111750000Y-72375000D03*
X111750000Y-73925000D03*
%TD*%
D12*
%TO.C,C30*%
X111275000Y-66650000D03*
X109725000Y-66650000D03*
%TD*%
%TO.C,C29*%
X111275000Y-70650000D03*
X109725000Y-70650000D03*
%TD*%
D11*
%TO.C,C28*%
X105975000Y-66650000D03*
X107525000Y-66650000D03*
%TD*%
D12*
%TO.C,C27*%
X111275000Y-68400000D03*
X109725000Y-68400000D03*
%TD*%
D13*
%TO.C,U6*%
X121753500Y-39749999D03*
X129246500Y-39749999D03*
X121753500Y-44250001D03*
X129246500Y-44250001D03*
%TD*%
D14*
%TO.C,R3*%
X148600000Y-60425000D03*
X148600000Y-58775000D03*
%TD*%
D15*
%TO.C,R21*%
X136600000Y-99575000D03*
X136600000Y-101225000D03*
%TD*%
D13*
%TO.C,U7*%
X132753500Y-39749999D03*
X140246500Y-39749999D03*
X132753500Y-44250001D03*
X140246500Y-44250001D03*
%TD*%
D16*
%TO.C,C2*%
X131200000Y-77575000D03*
X131200000Y-76025000D03*
%TD*%
D13*
%TO.C,U5*%
X110753500Y-39749999D03*
X118246500Y-39749999D03*
X110753500Y-44250001D03*
X118246500Y-44250001D03*
%TD*%
D17*
%TO.C,F5*%
X103575000Y-59800000D03*
%TD*%
D11*
%TO.C,C19*%
X117225000Y-37600000D03*
X118775000Y-37600000D03*
%TD*%
D15*
%TO.C,R1*%
X130600000Y-80575000D03*
X130600000Y-82225000D03*
%TD*%
D11*
%TO.C,C21*%
X139225000Y-37600000D03*
X140775000Y-37600000D03*
%TD*%
D18*
%TO.C,D1*%
X148600000Y-54862500D03*
X148600000Y-56737500D03*
%TD*%
D14*
%TO.C,R19*%
X139400000Y-101225000D03*
X139400000Y-99575000D03*
%TD*%
D11*
%TO.C,C20*%
X128225000Y-37600000D03*
X129775000Y-37600000D03*
%TD*%
D17*
%TO.C,F6*%
X103575000Y-56800000D03*
%TD*%
D14*
%TO.C,R2*%
X132400000Y-82225000D03*
X132400000Y-80575000D03*
%TD*%
M02*
