%TF.GenerationSoftware,KiCad,Pcbnew,9.0.5*%
%TF.CreationDate,2025-11-15T02:55:35-05:00*%
%TF.ProjectId,CreditCard,43726564-6974-4436-9172-642e6b696361,rev?*%
%TF.SameCoordinates,Original*%
%TF.FileFunction,Copper,L2,Inr*%
%TF.FilePolarity,Positive*%
%FSLAX46Y46*%
G04 Gerber Fmt 4.6, Leading zero omitted, Abs format (unit mm)*
G04 Created by KiCad (PCBNEW 9.0.5) date 2025-11-15 02:55:35*
%MOMM*%
%LPD*%
G01*
G04 APERTURE LIST*
%TA.AperFunction,ComponentPad*%
%ADD10R,1.854200X1.854200*%
%TD*%
%TA.AperFunction,ComponentPad*%
%ADD11C,1.854200*%
%TD*%
%TA.AperFunction,ComponentPad*%
%ADD12R,1.308000X1.308000*%
%TD*%
%TA.AperFunction,ComponentPad*%
%ADD13C,1.308000*%
%TD*%
%TA.AperFunction,ComponentPad*%
%ADD14R,1.650000X1.650000*%
%TD*%
%TA.AperFunction,ComponentPad*%
%ADD15C,1.650000*%
%TD*%
%TA.AperFunction,ComponentPad*%
%ADD16O,2.100000X1.050000*%
%TD*%
%TA.AperFunction,ComponentPad*%
%ADD17O,1.800000X0.900000*%
%TD*%
%TA.AperFunction,ViaPad*%
%ADD18C,0.600000*%
%TD*%
G04 APERTURE END LIST*
D10*
%TO.N,GPIO2*%
%TO.C,SW1*%
X109000000Y-122914250D03*
D11*
%TO.N,GND*%
X114000000Y-122914250D03*
X114000000Y-110414250D03*
%TO.N,GPIO2*%
X109000000Y-110414250D03*
%TD*%
D12*
%TO.N,Vsys*%
%TO.C,S1*%
X145525000Y-48725000D03*
D13*
%TO.N,/PWR/POWER_EN*%
X145525000Y-46225000D03*
%TO.N,GND*%
X145525000Y-43725000D03*
%TO.N,Vsys*%
X148725000Y-48725000D03*
%TO.N,/PWR/POWER_EN*%
X148725000Y-46225000D03*
%TO.N,GND*%
X148725000Y-43725000D03*
%TD*%
D10*
%TO.N,GPIO3*%
%TO.C,SW2*%
X122649200Y-122914250D03*
D11*
%TO.N,GND*%
X127649200Y-122914250D03*
X127649200Y-110414250D03*
%TO.N,GPIO3*%
X122649200Y-110414250D03*
%TD*%
D14*
%TO.N,3V3*%
%TO.C,J2*%
X112600000Y-104400000D03*
D15*
%TO.N,unconnected-(J2-Pad2)*%
X115140000Y-104400000D03*
%TO.N,GND*%
X117680000Y-104400000D03*
%TO.N,SCK*%
X120220000Y-104400000D03*
%TO.N,MISO*%
X122760000Y-104400000D03*
%TO.N,MOSI*%
X125300000Y-104400000D03*
%TO.N,LCD_CS*%
X127840000Y-104400000D03*
%TO.N,LCD_RESET*%
X130380000Y-104400000D03*
%TO.N,LCD_D{slash}C*%
X132920000Y-104400000D03*
%TO.N,CS_SD*%
X135460000Y-104400000D03*
%TO.N,Net-(J2-Pad11)*%
X138000000Y-104400000D03*
%TD*%
D10*
%TO.N,GPIO4*%
%TO.C,SW3*%
X136298400Y-122914250D03*
D11*
%TO.N,GND*%
X141298400Y-122914250D03*
X141298400Y-110414250D03*
%TO.N,GPIO4*%
X136298400Y-110414250D03*
%TD*%
D16*
%TO.N,GND*%
%TO.C,J3*%
X107395000Y-62320000D03*
X107395000Y-53680000D03*
D17*
X103215000Y-62320000D03*
X103215000Y-53680000D03*
%TD*%
D18*
%TO.N,GND*%
X116250000Y-71400000D03*
X108800000Y-71400000D03*
%TO.N,3V3*%
X113000000Y-71000000D03*
%TO.N,GND*%
X108500000Y-68400000D03*
X103500000Y-71150000D03*
X101000000Y-66650000D03*
%TO.N,3V3*%
X115412500Y-67812500D03*
X141850000Y-65600000D03*
X104687500Y-68587500D03*
X148600000Y-61800000D03*
X119000000Y-68900000D03*
X114500000Y-71000000D03*
X140500000Y-66800000D03*
X113000000Y-68460000D03*
X132600000Y-76800000D03*
X142025000Y-68000000D03*
X139400000Y-98200000D03*
X147000000Y-108900000D03*
X131462500Y-81362500D03*
X139150001Y-65300000D03*
%TO.N,MCU_EN*%
X132600000Y-78000000D03*
%TO.N,GND*%
X118000000Y-100000001D03*
X121100000Y-50200000D03*
X125300000Y-58300000D03*
X126422500Y-81977500D03*
X130700000Y-37600000D03*
X109100000Y-54800000D03*
X109100000Y-61200000D03*
X126949999Y-51650001D03*
X126100000Y-57600000D03*
X143600000Y-68000000D03*
X131000000Y-44250001D03*
X126977478Y-43400000D03*
X118200000Y-75600000D03*
X100800000Y-69000000D03*
X126397500Y-80702500D03*
X125325000Y-57600000D03*
X121000000Y-58800003D03*
X123800000Y-63900000D03*
X118900000Y-67000000D03*
X127607500Y-80707500D03*
X126800000Y-58300000D03*
X121800000Y-100000000D03*
X110300000Y-65650000D03*
X147000000Y-114400000D03*
X120000000Y-44250001D03*
X138200000Y-60400000D03*
X132600000Y-75600000D03*
X143800000Y-65300000D03*
X119700000Y-37600000D03*
X128250000Y-52400000D03*
X126100000Y-58300000D03*
X136600000Y-98200000D03*
X107500000Y-71000000D03*
X142600000Y-44600000D03*
X148600000Y-53300000D03*
X134300000Y-44300000D03*
X135100000Y-57400000D03*
X110100000Y-74500000D03*
X135100001Y-68699999D03*
X118200000Y-70500000D03*
X140700000Y-45300000D03*
X142000000Y-37500000D03*
X128200000Y-67700000D03*
X119400000Y-52000000D03*
X127582500Y-81982500D03*
X143400000Y-80700000D03*
X112600000Y-44200000D03*
X143425000Y-89500000D03*
X107250000Y-65650000D03*
X126977478Y-40650000D03*
X126800000Y-57600000D03*
%TO.N,Vsys*%
X122250000Y-60900000D03*
X123250000Y-59400000D03*
X140250000Y-48400000D03*
X132500000Y-51400000D03*
X132000000Y-61900000D03*
X131750000Y-55900000D03*
X136500000Y-60650000D03*
X126204664Y-62000783D03*
X123750000Y-60150000D03*
X138000000Y-58650000D03*
X124000000Y-59400000D03*
%TO.N,GPIO2*%
X102500000Y-86200000D03*
X113400000Y-76800000D03*
%TO.N,GPIO3*%
X113500000Y-78100000D03*
X107800000Y-91900000D03*
%TO.N,Vbat*%
X123977479Y-43400000D03*
X123977479Y-40650000D03*
X124000000Y-52650000D03*
X123977479Y-49400000D03*
X123977479Y-41650000D03*
X147000000Y-37900000D03*
X123977479Y-42400000D03*
X123250000Y-52650000D03*
%TO.N,Vbus*%
X109100000Y-60400000D03*
X120750000Y-57650000D03*
X105000000Y-44400000D03*
%TO.N,GPIO5*%
X137200000Y-80700000D03*
%TO.N,GPIO6*%
X137800000Y-81900000D03*
%TO.N,GPIO7*%
X137800000Y-83200000D03*
%TO.N,IO_CHG*%
X118350000Y-84450000D03*
X126900000Y-59600000D03*
%TO.N,LCD_D{slash}C*%
X113300000Y-80900000D03*
X119600000Y-80800000D03*
%TO.N,CS_SD*%
X118100000Y-85700000D03*
%TO.N,MISO*%
X113200000Y-90900000D03*
X110100000Y-93500000D03*
%TO.N,MOSI*%
X113700000Y-89600000D03*
X110900000Y-94500000D03*
%TO.N,SCK*%
X109000000Y-92300000D03*
X113800000Y-81900000D03*
%TO.N,D_P*%
X106650000Y-58250000D03*
X106600473Y-57049000D03*
%TO.N,Net-(U8-IO8)*%
X132600000Y-87000000D03*
%TO.N,AudioL*%
X132600000Y-88300000D03*
X127800000Y-91700000D03*
%TO.N,AudioR*%
X132700000Y-89600000D03*
X127900000Y-94800000D03*
%TO.N,Net-(F5-GOLDFINGER)*%
X106175000Y-59750000D03*
%TO.N,Net-(F6-GOLDFINGER)*%
X105800000Y-56000000D03*
%TD*%
%TA.AperFunction,Conductor*%
%TO.N,GND*%
G36*
X146563600Y-37020185D02*
G01*
X146609355Y-37072989D01*
X146619299Y-37142147D01*
X146590274Y-37205703D01*
X146565452Y-37227602D01*
X146489711Y-37278210D01*
X146489707Y-37278213D01*
X146378213Y-37389707D01*
X146378210Y-37389711D01*
X146290609Y-37520814D01*
X146290602Y-37520827D01*
X146230264Y-37666498D01*
X146230261Y-37666510D01*
X146199500Y-37821153D01*
X146199500Y-37978846D01*
X146230261Y-38133489D01*
X146230264Y-38133501D01*
X146290602Y-38279172D01*
X146290609Y-38279185D01*
X146378210Y-38410288D01*
X146378213Y-38410292D01*
X146489707Y-38521786D01*
X146489711Y-38521789D01*
X146620814Y-38609390D01*
X146620827Y-38609397D01*
X146766498Y-38669735D01*
X146766503Y-38669737D01*
X146921153Y-38700499D01*
X146921156Y-38700500D01*
X146921158Y-38700500D01*
X147078844Y-38700500D01*
X147078845Y-38700499D01*
X147233497Y-38669737D01*
X147379179Y-38609394D01*
X147477338Y-38543805D01*
X147544013Y-38522929D01*
X147611393Y-38541413D01*
X147658084Y-38593392D01*
X147668700Y-38627511D01*
X147682753Y-38716239D01*
X147748444Y-38918414D01*
X147844951Y-39107820D01*
X147969890Y-39279786D01*
X148120213Y-39430109D01*
X148292179Y-39555048D01*
X148292181Y-39555049D01*
X148292184Y-39555051D01*
X148481588Y-39651557D01*
X148683757Y-39717246D01*
X148893713Y-39750500D01*
X148893714Y-39750500D01*
X149106286Y-39750500D01*
X149106287Y-39750500D01*
X149316243Y-39717246D01*
X149518412Y-39651557D01*
X149707816Y-39555051D01*
X149729789Y-39539086D01*
X149879786Y-39430109D01*
X149879788Y-39430106D01*
X149879792Y-39430104D01*
X150030104Y-39279792D01*
X150075181Y-39217747D01*
X150130511Y-39175082D01*
X150200124Y-39169103D01*
X150261920Y-39201708D01*
X150296277Y-39262547D01*
X150299500Y-39290633D01*
X150299500Y-122509366D01*
X150279815Y-122576405D01*
X150227011Y-122622160D01*
X150157853Y-122632104D01*
X150094297Y-122603079D01*
X150075182Y-122582251D01*
X150030109Y-122520214D01*
X150030105Y-122520209D01*
X149879786Y-122369890D01*
X149707820Y-122244951D01*
X149518414Y-122148444D01*
X149518413Y-122148443D01*
X149518412Y-122148443D01*
X149316243Y-122082754D01*
X149316241Y-122082753D01*
X149316240Y-122082753D01*
X149154957Y-122057208D01*
X149106287Y-122049500D01*
X148893713Y-122049500D01*
X148845042Y-122057208D01*
X148683760Y-122082753D01*
X148481585Y-122148444D01*
X148292179Y-122244951D01*
X148120213Y-122369890D01*
X147969890Y-122520213D01*
X147844951Y-122692179D01*
X147748444Y-122881585D01*
X147682753Y-123083760D01*
X147649500Y-123293713D01*
X147649500Y-123506286D01*
X147682753Y-123716239D01*
X147748444Y-123918414D01*
X147844951Y-124107820D01*
X147969890Y-124279786D01*
X148120213Y-124430109D01*
X148292179Y-124555048D01*
X148292181Y-124555049D01*
X148292184Y-124555051D01*
X148481588Y-124651557D01*
X148500092Y-124657569D01*
X148557768Y-124697006D01*
X148584966Y-124761365D01*
X148573051Y-124830211D01*
X148525807Y-124881687D01*
X148461774Y-124899500D01*
X103118019Y-124899500D01*
X103050980Y-124879815D01*
X103037730Y-124869997D01*
X102806029Y-124673132D01*
X102767686Y-124614723D01*
X102767007Y-124544857D01*
X102804209Y-124485715D01*
X102813433Y-124478316D01*
X102879792Y-124430104D01*
X103030104Y-124279792D01*
X103030106Y-124279788D01*
X103030109Y-124279786D01*
X103155048Y-124107820D01*
X103155047Y-124107820D01*
X103155051Y-124107816D01*
X103251557Y-123918412D01*
X103317246Y-123716243D01*
X103350500Y-123506287D01*
X103350500Y-123293713D01*
X103317246Y-123083757D01*
X103251557Y-122881588D01*
X103155051Y-122692184D01*
X103155049Y-122692181D01*
X103155048Y-122692179D01*
X103030109Y-122520213D01*
X102879786Y-122369890D01*
X102707820Y-122244951D01*
X102518414Y-122148444D01*
X102518413Y-122148443D01*
X102518412Y-122148443D01*
X102316243Y-122082754D01*
X102316241Y-122082753D01*
X102316239Y-122082753D01*
X102162662Y-122058429D01*
X102106287Y-122049500D01*
X101893713Y-122049500D01*
X101845042Y-122057208D01*
X101683760Y-122082753D01*
X101481585Y-122148444D01*
X101292179Y-122244951D01*
X101120213Y-122369890D01*
X100969890Y-122520213D01*
X100844951Y-122692179D01*
X100748445Y-122881582D01*
X100748443Y-122881587D01*
X100748443Y-122881588D01*
X100742429Y-122900094D01*
X100702992Y-122957768D01*
X100638633Y-122984965D01*
X100569787Y-122973050D01*
X100518312Y-122925805D01*
X100500500Y-122861773D01*
X100500500Y-121939285D01*
X107572400Y-121939285D01*
X107572400Y-123889220D01*
X107572401Y-123889226D01*
X107578808Y-123948833D01*
X107629102Y-124083678D01*
X107629106Y-124083685D01*
X107715352Y-124198894D01*
X107715355Y-124198897D01*
X107830564Y-124285143D01*
X107830571Y-124285147D01*
X107965417Y-124335441D01*
X107965416Y-124335441D01*
X107972344Y-124336185D01*
X108025027Y-124341850D01*
X109974972Y-124341849D01*
X110034583Y-124335441D01*
X110169431Y-124285146D01*
X110284646Y-124198896D01*
X110370896Y-124083681D01*
X110421191Y-123948833D01*
X110427600Y-123889223D01*
X110427599Y-122801935D01*
X112572900Y-122801935D01*
X112572900Y-123026564D01*
X112608040Y-123248431D01*
X112677452Y-123462063D01*
X112779435Y-123662213D01*
X112829531Y-123731163D01*
X112829532Y-123731164D01*
X113381277Y-123179418D01*
X113403506Y-123233082D01*
X113477169Y-123343326D01*
X113570924Y-123437081D01*
X113681168Y-123510744D01*
X113734831Y-123532971D01*
X113183084Y-124084717D01*
X113183085Y-124084718D01*
X113252031Y-124134810D01*
X113252044Y-124134818D01*
X113452186Y-124236797D01*
X113665818Y-124306209D01*
X113887686Y-124341350D01*
X114112314Y-124341350D01*
X114334181Y-124306209D01*
X114547813Y-124236797D01*
X114747963Y-124134814D01*
X114816913Y-124084717D01*
X114265168Y-123532972D01*
X114318832Y-123510744D01*
X114429076Y-123437081D01*
X114522831Y-123343326D01*
X114596494Y-123233082D01*
X114618721Y-123179418D01*
X115170467Y-123731164D01*
X115170467Y-123731163D01*
X115220564Y-123662213D01*
X115322547Y-123462063D01*
X115391959Y-123248431D01*
X115427100Y-123026564D01*
X115427100Y-122801935D01*
X115391959Y-122580068D01*
X115322547Y-122366436D01*
X115220568Y-122166294D01*
X115220560Y-122166281D01*
X115170468Y-122097335D01*
X115170467Y-122097334D01*
X114618721Y-122649080D01*
X114596494Y-122595418D01*
X114522831Y-122485174D01*
X114429076Y-122391419D01*
X114318832Y-122317756D01*
X114265168Y-122295528D01*
X114621411Y-121939285D01*
X121221600Y-121939285D01*
X121221600Y-123889220D01*
X121221601Y-123889226D01*
X121228008Y-123948833D01*
X121278302Y-124083678D01*
X121278306Y-124083685D01*
X121364552Y-124198894D01*
X121364555Y-124198897D01*
X121479764Y-124285143D01*
X121479771Y-124285147D01*
X121614617Y-124335441D01*
X121614616Y-124335441D01*
X121621544Y-124336185D01*
X121674227Y-124341850D01*
X123624172Y-124341849D01*
X123683783Y-124335441D01*
X123818631Y-124285146D01*
X123933846Y-124198896D01*
X124020096Y-124083681D01*
X124070391Y-123948833D01*
X124076800Y-123889223D01*
X124076799Y-122801935D01*
X126222100Y-122801935D01*
X126222100Y-123026564D01*
X126257240Y-123248431D01*
X126326652Y-123462063D01*
X126428635Y-123662213D01*
X126478731Y-123731163D01*
X126478732Y-123731164D01*
X127030477Y-123179418D01*
X127052706Y-123233082D01*
X127126369Y-123343326D01*
X127220124Y-123437081D01*
X127330368Y-123510744D01*
X127384031Y-123532971D01*
X126832284Y-124084717D01*
X126832285Y-124084718D01*
X126901231Y-124134810D01*
X126901244Y-124134818D01*
X127101386Y-124236797D01*
X127315018Y-124306209D01*
X127536886Y-124341350D01*
X127761514Y-124341350D01*
X127983381Y-124306209D01*
X128197013Y-124236797D01*
X128397163Y-124134814D01*
X128466113Y-124084717D01*
X127914368Y-123532972D01*
X127968032Y-123510744D01*
X128078276Y-123437081D01*
X128172031Y-123343326D01*
X128245694Y-123233082D01*
X128267921Y-123179418D01*
X128819667Y-123731164D01*
X128819667Y-123731163D01*
X128869764Y-123662213D01*
X128971747Y-123462063D01*
X129041159Y-123248431D01*
X129076300Y-123026564D01*
X129076300Y-122801935D01*
X129041159Y-122580068D01*
X128971747Y-122366436D01*
X128869768Y-122166294D01*
X128869760Y-122166281D01*
X128819668Y-122097335D01*
X128819667Y-122097334D01*
X128267921Y-122649080D01*
X128245694Y-122595418D01*
X128172031Y-122485174D01*
X128078276Y-122391419D01*
X127968032Y-122317756D01*
X127914368Y-122295528D01*
X128270611Y-121939285D01*
X134870800Y-121939285D01*
X134870800Y-123889220D01*
X134870801Y-123889226D01*
X134877208Y-123948833D01*
X134927502Y-124083678D01*
X134927506Y-124083685D01*
X135013752Y-124198894D01*
X135013755Y-124198897D01*
X135128964Y-124285143D01*
X135128971Y-124285147D01*
X135263817Y-124335441D01*
X135263816Y-124335441D01*
X135270744Y-124336185D01*
X135323427Y-124341850D01*
X137273372Y-124341849D01*
X137332983Y-124335441D01*
X137467831Y-124285146D01*
X137583046Y-124198896D01*
X137669296Y-124083681D01*
X137719591Y-123948833D01*
X137726000Y-123889223D01*
X137725999Y-122801935D01*
X139871300Y-122801935D01*
X139871300Y-123026564D01*
X139906440Y-123248431D01*
X139975852Y-123462063D01*
X140077835Y-123662213D01*
X140127931Y-123731163D01*
X140127932Y-123731164D01*
X140679677Y-123179418D01*
X140701906Y-123233082D01*
X140775569Y-123343326D01*
X140869324Y-123437081D01*
X140979568Y-123510744D01*
X141033231Y-123532971D01*
X140481484Y-124084717D01*
X140481485Y-124084718D01*
X140550431Y-124134810D01*
X140550444Y-124134818D01*
X140750586Y-124236797D01*
X140964218Y-124306209D01*
X141186086Y-124341350D01*
X141410714Y-124341350D01*
X141632581Y-124306209D01*
X141846213Y-124236797D01*
X142046363Y-124134814D01*
X142115314Y-124084717D01*
X141563568Y-123532972D01*
X141617232Y-123510744D01*
X141727476Y-123437081D01*
X141821231Y-123343326D01*
X141894894Y-123233082D01*
X141917122Y-123179418D01*
X142468867Y-123731163D01*
X142518964Y-123662213D01*
X142620947Y-123462063D01*
X142690359Y-123248431D01*
X142725500Y-123026564D01*
X142725500Y-122801935D01*
X142690359Y-122580068D01*
X142620947Y-122366436D01*
X142518968Y-122166294D01*
X142518960Y-122166281D01*
X142468868Y-122097335D01*
X142468867Y-122097334D01*
X141917121Y-122649080D01*
X141894894Y-122595418D01*
X141821231Y-122485174D01*
X141727476Y-122391419D01*
X141617232Y-122317756D01*
X141563568Y-122295528D01*
X142115314Y-121743782D01*
X142115313Y-121743781D01*
X142046363Y-121693685D01*
X141846213Y-121591702D01*
X141632581Y-121522290D01*
X141410714Y-121487150D01*
X141186086Y-121487150D01*
X140964218Y-121522290D01*
X140750586Y-121591702D01*
X140550433Y-121693687D01*
X140481485Y-121743780D01*
X140481485Y-121743781D01*
X141033231Y-122295527D01*
X140979568Y-122317756D01*
X140869324Y-122391419D01*
X140775569Y-122485174D01*
X140701906Y-122595418D01*
X140679677Y-122649081D01*
X140127931Y-122097335D01*
X140127930Y-122097335D01*
X140077837Y-122166283D01*
X139975852Y-122366436D01*
X139906440Y-122580068D01*
X139871300Y-122801935D01*
X137725999Y-122801935D01*
X137725999Y-121939278D01*
X137719591Y-121879667D01*
X137707883Y-121848275D01*
X137702698Y-121834372D01*
X137669297Y-121744821D01*
X137669293Y-121744814D01*
X137583047Y-121629605D01*
X137583044Y-121629602D01*
X137467835Y-121543356D01*
X137467828Y-121543352D01*
X137332982Y-121493058D01*
X137332983Y-121493058D01*
X137273383Y-121486651D01*
X137273381Y-121486650D01*
X137273373Y-121486650D01*
X137273364Y-121486650D01*
X135323429Y-121486650D01*
X135323423Y-121486651D01*
X135263816Y-121493058D01*
X135128971Y-121543352D01*
X135128964Y-121543356D01*
X135013755Y-121629602D01*
X135013752Y-121629605D01*
X134927506Y-121744814D01*
X134927502Y-121744821D01*
X134877208Y-121879667D01*
X134870801Y-121939266D01*
X134870801Y-121939273D01*
X134870800Y-121939285D01*
X128270611Y-121939285D01*
X128361621Y-121848275D01*
X128466114Y-121743781D01*
X128397163Y-121693685D01*
X128197013Y-121591702D01*
X127983381Y-121522290D01*
X127761514Y-121487150D01*
X127536886Y-121487150D01*
X127315018Y-121522290D01*
X127101386Y-121591702D01*
X126901233Y-121693687D01*
X126832285Y-121743780D01*
X126832285Y-121743781D01*
X127384031Y-122295527D01*
X127330368Y-122317756D01*
X127220124Y-122391419D01*
X127126369Y-122485174D01*
X127052706Y-122595418D01*
X127030477Y-122649081D01*
X126478731Y-122097335D01*
X126478730Y-122097335D01*
X126428637Y-122166283D01*
X126326652Y-122366436D01*
X126257240Y-122580068D01*
X126222100Y-122801935D01*
X124076799Y-122801935D01*
X124076799Y-121939278D01*
X124070391Y-121879667D01*
X124058683Y-121848275D01*
X124053498Y-121834372D01*
X124020097Y-121744821D01*
X124020093Y-121744814D01*
X123933847Y-121629605D01*
X123933844Y-121629602D01*
X123818635Y-121543356D01*
X123818628Y-121543352D01*
X123683782Y-121493058D01*
X123683783Y-121493058D01*
X123624183Y-121486651D01*
X123624181Y-121486650D01*
X123624173Y-121486650D01*
X123624164Y-121486650D01*
X121674229Y-121486650D01*
X121674223Y-121486651D01*
X121614616Y-121493058D01*
X121479771Y-121543352D01*
X121479764Y-121543356D01*
X121364555Y-121629602D01*
X121364552Y-121629605D01*
X121278306Y-121744814D01*
X121278302Y-121744821D01*
X121228008Y-121879667D01*
X121221601Y-121939266D01*
X121221601Y-121939273D01*
X121221600Y-121939285D01*
X114621411Y-121939285D01*
X114712421Y-121848275D01*
X114816914Y-121743781D01*
X114747963Y-121693685D01*
X114547813Y-121591702D01*
X114334181Y-121522290D01*
X114112314Y-121487150D01*
X113887686Y-121487150D01*
X113665818Y-121522290D01*
X113452186Y-121591702D01*
X113252033Y-121693687D01*
X113183085Y-121743780D01*
X113183085Y-121743781D01*
X113734831Y-122295527D01*
X113681168Y-122317756D01*
X113570924Y-122391419D01*
X113477169Y-122485174D01*
X113403506Y-122595418D01*
X113381277Y-122649081D01*
X112829531Y-122097335D01*
X112829530Y-122097335D01*
X112779437Y-122166283D01*
X112677452Y-122366436D01*
X112608040Y-122580068D01*
X112572900Y-122801935D01*
X110427599Y-122801935D01*
X110427599Y-121939278D01*
X110421191Y-121879667D01*
X110409483Y-121848275D01*
X110404298Y-121834372D01*
X110370897Y-121744821D01*
X110370893Y-121744814D01*
X110284647Y-121629605D01*
X110284644Y-121629602D01*
X110169435Y-121543356D01*
X110169428Y-121543352D01*
X110034582Y-121493058D01*
X110034583Y-121493058D01*
X109974983Y-121486651D01*
X109974981Y-121486650D01*
X109974973Y-121486650D01*
X109974964Y-121486650D01*
X108025029Y-121486650D01*
X108025023Y-121486651D01*
X107965416Y-121493058D01*
X107830571Y-121543352D01*
X107830564Y-121543356D01*
X107715355Y-121629602D01*
X107715352Y-121629605D01*
X107629106Y-121744814D01*
X107629102Y-121744821D01*
X107578808Y-121879667D01*
X107572401Y-121939266D01*
X107572401Y-121939273D01*
X107572400Y-121939285D01*
X100500500Y-121939285D01*
X100500500Y-116573564D01*
X105847800Y-116573564D01*
X105847800Y-116754935D01*
X105876171Y-116934059D01*
X105876171Y-116934062D01*
X105932212Y-117106538D01*
X105932214Y-117106541D01*
X106014550Y-117268135D01*
X106121151Y-117414858D01*
X106249392Y-117543099D01*
X106396115Y-117649700D01*
X106557709Y-117732036D01*
X106557711Y-117732037D01*
X106718591Y-117784309D01*
X106730192Y-117788079D01*
X106801586Y-117799386D01*
X106909315Y-117816450D01*
X106909320Y-117816450D01*
X107090685Y-117816450D01*
X107177522Y-117802695D01*
X107269808Y-117788079D01*
X107269811Y-117788078D01*
X107269812Y-117788078D01*
X107442288Y-117732037D01*
X107442288Y-117732036D01*
X107442291Y-117732036D01*
X107603885Y-117649700D01*
X107750608Y-117543099D01*
X107878849Y-117414858D01*
X107985450Y-117268135D01*
X108067786Y-117106541D01*
X108123829Y-116934058D01*
X108138445Y-116841772D01*
X108152200Y-116754935D01*
X108152200Y-116573564D01*
X114847800Y-116573564D01*
X114847800Y-116754935D01*
X114876171Y-116934059D01*
X114876171Y-116934062D01*
X114932212Y-117106538D01*
X114932214Y-117106541D01*
X115014550Y-117268135D01*
X115121151Y-117414858D01*
X115249392Y-117543099D01*
X115396115Y-117649700D01*
X115557709Y-117732036D01*
X115557711Y-117732037D01*
X115718591Y-117784309D01*
X115730192Y-117788079D01*
X115801586Y-117799386D01*
X115909315Y-117816450D01*
X115909320Y-117816450D01*
X116090685Y-117816450D01*
X116177522Y-117802695D01*
X116269808Y-117788079D01*
X116269811Y-117788078D01*
X116269812Y-117788078D01*
X116442288Y-117732037D01*
X116442288Y-117732036D01*
X116442291Y-117732036D01*
X116603885Y-117649700D01*
X116750608Y-117543099D01*
X116878849Y-117414858D01*
X116985450Y-117268135D01*
X117067786Y-117106541D01*
X117123829Y-116934058D01*
X117138445Y-116841772D01*
X117152200Y-116754935D01*
X117152200Y-116573564D01*
X119497000Y-116573564D01*
X119497000Y-116754935D01*
X119525371Y-116934059D01*
X119525371Y-116934062D01*
X119581412Y-117106538D01*
X119581414Y-117106541D01*
X119663750Y-117268135D01*
X119770351Y-117414858D01*
X119898592Y-117543099D01*
X120045315Y-117649700D01*
X120206909Y-117732036D01*
X120206911Y-117732037D01*
X120367791Y-117784309D01*
X120379392Y-117788079D01*
X120450786Y-117799386D01*
X120558515Y-117816450D01*
X120558520Y-117816450D01*
X120739885Y-117816450D01*
X120826722Y-117802695D01*
X120919008Y-117788079D01*
X120919011Y-117788078D01*
X120919012Y-117788078D01*
X121091488Y-117732037D01*
X121091488Y-117732036D01*
X121091491Y-117732036D01*
X121253085Y-117649700D01*
X121399808Y-117543099D01*
X121528049Y-117414858D01*
X121634650Y-117268135D01*
X121716986Y-117106541D01*
X121773029Y-116934058D01*
X121787645Y-116841772D01*
X121801400Y-116754935D01*
X121801400Y-116573564D01*
X128497000Y-116573564D01*
X128497000Y-116754935D01*
X128525371Y-116934059D01*
X128525371Y-116934062D01*
X128581412Y-117106538D01*
X128581414Y-117106541D01*
X128663750Y-117268135D01*
X128770351Y-117414858D01*
X128898592Y-117543099D01*
X129045315Y-117649700D01*
X129206909Y-117732036D01*
X129206911Y-117732037D01*
X129367791Y-117784309D01*
X129379392Y-117788079D01*
X129450786Y-117799386D01*
X129558515Y-117816450D01*
X129558520Y-117816450D01*
X129739885Y-117816450D01*
X129826722Y-117802695D01*
X129919008Y-117788079D01*
X129919011Y-117788078D01*
X129919012Y-117788078D01*
X130091488Y-117732037D01*
X130091488Y-117732036D01*
X130091491Y-117732036D01*
X130253085Y-117649700D01*
X130399808Y-117543099D01*
X130528049Y-117414858D01*
X130634650Y-117268135D01*
X130716986Y-117106541D01*
X130773029Y-116934058D01*
X130787645Y-116841772D01*
X130801400Y-116754935D01*
X130801400Y-116573564D01*
X133146200Y-116573564D01*
X133146200Y-116754935D01*
X133174571Y-116934059D01*
X133174571Y-116934062D01*
X133230612Y-117106538D01*
X133230614Y-117106541D01*
X133312950Y-117268135D01*
X133419551Y-117414858D01*
X133547792Y-117543099D01*
X133694515Y-117649700D01*
X133856109Y-117732036D01*
X133856111Y-117732037D01*
X134016991Y-117784309D01*
X134028592Y-117788079D01*
X134099986Y-117799386D01*
X134207715Y-117816450D01*
X134207720Y-117816450D01*
X134389085Y-117816450D01*
X134475922Y-117802695D01*
X134568208Y-117788079D01*
X134568211Y-117788078D01*
X134568212Y-117788078D01*
X134740688Y-117732037D01*
X134740688Y-117732036D01*
X134740691Y-117732036D01*
X134902285Y-117649700D01*
X135049008Y-117543099D01*
X135177249Y-117414858D01*
X135283850Y-117268135D01*
X135366186Y-117106541D01*
X135422229Y-116934058D01*
X135436845Y-116841772D01*
X135450600Y-116754935D01*
X135450600Y-116573564D01*
X142146200Y-116573564D01*
X142146200Y-116754935D01*
X142174571Y-116934059D01*
X142174571Y-116934062D01*
X142230612Y-117106538D01*
X142230614Y-117106541D01*
X142312950Y-117268135D01*
X142419551Y-117414858D01*
X142547792Y-117543099D01*
X142694515Y-117649700D01*
X142856109Y-117732036D01*
X142856111Y-117732037D01*
X143016991Y-117784309D01*
X143028592Y-117788079D01*
X143099986Y-117799386D01*
X143207715Y-117816450D01*
X143207720Y-117816450D01*
X143389085Y-117816450D01*
X143475922Y-117802695D01*
X143568208Y-117788079D01*
X143568211Y-117788078D01*
X143568212Y-117788078D01*
X143740688Y-117732037D01*
X143740688Y-117732036D01*
X143740691Y-117732036D01*
X143902285Y-117649700D01*
X144049008Y-117543099D01*
X144177249Y-117414858D01*
X144283850Y-117268135D01*
X144366186Y-117106541D01*
X144422229Y-116934058D01*
X144436845Y-116841772D01*
X144450600Y-116754935D01*
X144450600Y-116573564D01*
X144434094Y-116469359D01*
X144422229Y-116394442D01*
X144422228Y-116394438D01*
X144422228Y-116394437D01*
X144366187Y-116221961D01*
X144283849Y-116060364D01*
X144177249Y-115913642D01*
X144049008Y-115785401D01*
X143902285Y-115678800D01*
X143740688Y-115596462D01*
X143568210Y-115540421D01*
X143389085Y-115512050D01*
X143389080Y-115512050D01*
X143207720Y-115512050D01*
X143207715Y-115512050D01*
X143028590Y-115540421D01*
X143028587Y-115540421D01*
X142856111Y-115596462D01*
X142694514Y-115678800D01*
X142610803Y-115739620D01*
X142547792Y-115785401D01*
X142547790Y-115785403D01*
X142547789Y-115785403D01*
X142419553Y-115913639D01*
X142419553Y-115913640D01*
X142419551Y-115913642D01*
X142373770Y-115976653D01*
X142312950Y-116060364D01*
X142230612Y-116221961D01*
X142174571Y-116394437D01*
X142174571Y-116394440D01*
X142146200Y-116573564D01*
X135450600Y-116573564D01*
X135434094Y-116469359D01*
X135422229Y-116394442D01*
X135422228Y-116394438D01*
X135422228Y-116394437D01*
X135366187Y-116221961D01*
X135283849Y-116060364D01*
X135177249Y-115913642D01*
X135049008Y-115785401D01*
X134902285Y-115678800D01*
X134740688Y-115596462D01*
X134568210Y-115540421D01*
X134389085Y-115512050D01*
X134389080Y-115512050D01*
X134207720Y-115512050D01*
X134207715Y-115512050D01*
X134028590Y-115540421D01*
X134028587Y-115540421D01*
X133856111Y-115596462D01*
X133694514Y-115678800D01*
X133610803Y-115739620D01*
X133547792Y-115785401D01*
X133547790Y-115785403D01*
X133547789Y-115785403D01*
X133419553Y-115913639D01*
X133419553Y-115913640D01*
X133419551Y-115913642D01*
X133373770Y-115976653D01*
X133312950Y-116060364D01*
X133230612Y-116221961D01*
X133174571Y-116394437D01*
X133174571Y-116394440D01*
X133146200Y-116573564D01*
X130801400Y-116573564D01*
X130784894Y-116469359D01*
X130773029Y-116394442D01*
X130773028Y-116394438D01*
X130773028Y-116394437D01*
X130716987Y-116221961D01*
X130634649Y-116060364D01*
X130528049Y-115913642D01*
X130399808Y-115785401D01*
X130253085Y-115678800D01*
X130091488Y-115596462D01*
X129919010Y-115540421D01*
X129739885Y-115512050D01*
X129739880Y-115512050D01*
X129558520Y-115512050D01*
X129558515Y-115512050D01*
X129379390Y-115540421D01*
X129379387Y-115540421D01*
X129206911Y-115596462D01*
X129045314Y-115678800D01*
X128961603Y-115739620D01*
X128898592Y-115785401D01*
X128898590Y-115785403D01*
X128898589Y-115785403D01*
X128770353Y-115913639D01*
X128770353Y-115913640D01*
X128770351Y-115913642D01*
X128724570Y-115976653D01*
X128663750Y-116060364D01*
X128581412Y-116221961D01*
X128525371Y-116394437D01*
X128525371Y-116394440D01*
X128497000Y-116573564D01*
X121801400Y-116573564D01*
X121784894Y-116469359D01*
X121773029Y-116394442D01*
X121773028Y-116394438D01*
X121773028Y-116394437D01*
X121716987Y-116221961D01*
X121634649Y-116060364D01*
X121528049Y-115913642D01*
X121399808Y-115785401D01*
X121253085Y-115678800D01*
X121091488Y-115596462D01*
X120919010Y-115540421D01*
X120739885Y-115512050D01*
X120739880Y-115512050D01*
X120558520Y-115512050D01*
X120558515Y-115512050D01*
X120379390Y-115540421D01*
X120379387Y-115540421D01*
X120206911Y-115596462D01*
X120045314Y-115678800D01*
X119961603Y-115739620D01*
X119898592Y-115785401D01*
X119898590Y-115785403D01*
X119898589Y-115785403D01*
X119770353Y-115913639D01*
X119770353Y-115913640D01*
X119770351Y-115913642D01*
X119724570Y-115976653D01*
X119663750Y-116060364D01*
X119581412Y-116221961D01*
X119525371Y-116394437D01*
X119525371Y-116394440D01*
X119497000Y-116573564D01*
X117152200Y-116573564D01*
X117135694Y-116469359D01*
X117123829Y-116394442D01*
X117123828Y-116394438D01*
X117123828Y-116394437D01*
X117067787Y-116221961D01*
X116985449Y-116060364D01*
X116878849Y-115913642D01*
X116750608Y-115785401D01*
X116603885Y-115678800D01*
X116442288Y-115596462D01*
X116269810Y-115540421D01*
X116090685Y-115512050D01*
X116090680Y-115512050D01*
X115909320Y-115512050D01*
X115909315Y-115512050D01*
X115730190Y-115540421D01*
X115730187Y-115540421D01*
X115557711Y-115596462D01*
X115396114Y-115678800D01*
X115312403Y-115739620D01*
X115249392Y-115785401D01*
X115249390Y-115785403D01*
X115249389Y-115785403D01*
X115121153Y-115913639D01*
X115121153Y-115913640D01*
X115121151Y-115913642D01*
X115075370Y-115976653D01*
X115014550Y-116060364D01*
X114932212Y-116221961D01*
X114876171Y-116394437D01*
X114876171Y-116394440D01*
X114847800Y-116573564D01*
X108152200Y-116573564D01*
X108135694Y-116469359D01*
X108123829Y-116394442D01*
X108123828Y-116394438D01*
X108123828Y-116394437D01*
X108067787Y-116221961D01*
X107985449Y-116060364D01*
X107878849Y-115913642D01*
X107750608Y-115785401D01*
X107603885Y-115678800D01*
X107442288Y-115596462D01*
X107269810Y-115540421D01*
X107090685Y-115512050D01*
X107090680Y-115512050D01*
X106909320Y-115512050D01*
X106909315Y-115512050D01*
X106730190Y-115540421D01*
X106730187Y-115540421D01*
X106557711Y-115596462D01*
X106396114Y-115678800D01*
X106312403Y-115739620D01*
X106249392Y-115785401D01*
X106249390Y-115785403D01*
X106249389Y-115785403D01*
X106121153Y-115913639D01*
X106121153Y-115913640D01*
X106121151Y-115913642D01*
X106075370Y-115976653D01*
X106014550Y-116060364D01*
X105932212Y-116221961D01*
X105876171Y-116394437D01*
X105876171Y-116394440D01*
X105847800Y-116573564D01*
X100500500Y-116573564D01*
X100500500Y-110301895D01*
X107572400Y-110301895D01*
X107572400Y-110526604D01*
X107607552Y-110748543D01*
X107607552Y-110748544D01*
X107607553Y-110748547D01*
X107676992Y-110962258D01*
X107779007Y-111162475D01*
X107911088Y-111344269D01*
X108069981Y-111503162D01*
X108251775Y-111635243D01*
X108451992Y-111737258D01*
X108665703Y-111806697D01*
X108887645Y-111841850D01*
X108887646Y-111841850D01*
X109112354Y-111841850D01*
X109112355Y-111841850D01*
X109334297Y-111806697D01*
X109548008Y-111737258D01*
X109748225Y-111635243D01*
X109930019Y-111503162D01*
X110088912Y-111344269D01*
X110220993Y-111162475D01*
X110323008Y-110962258D01*
X110392447Y-110748547D01*
X110427600Y-110526605D01*
X110427600Y-110301935D01*
X112572900Y-110301935D01*
X112572900Y-110526564D01*
X112608040Y-110748431D01*
X112677452Y-110962063D01*
X112779435Y-111162213D01*
X112829531Y-111231163D01*
X112829532Y-111231164D01*
X113381277Y-110679418D01*
X113403506Y-110733082D01*
X113477169Y-110843326D01*
X113570924Y-110937081D01*
X113681168Y-111010744D01*
X113734831Y-111032971D01*
X113183084Y-111584717D01*
X113183085Y-111584718D01*
X113252031Y-111634810D01*
X113252044Y-111634818D01*
X113452186Y-111736797D01*
X113665818Y-111806209D01*
X113887686Y-111841350D01*
X114112314Y-111841350D01*
X114334181Y-111806209D01*
X114547813Y-111736797D01*
X114747963Y-111634814D01*
X114816913Y-111584717D01*
X114265168Y-111032972D01*
X114318832Y-111010744D01*
X114429076Y-110937081D01*
X114522831Y-110843326D01*
X114596494Y-110733082D01*
X114618721Y-110679418D01*
X115170467Y-111231164D01*
X115170467Y-111231163D01*
X115220564Y-111162213D01*
X115322547Y-110962063D01*
X115391959Y-110748431D01*
X115427100Y-110526564D01*
X115427100Y-110301935D01*
X115427094Y-110301895D01*
X121221600Y-110301895D01*
X121221600Y-110526604D01*
X121256752Y-110748543D01*
X121256752Y-110748544D01*
X121256753Y-110748547D01*
X121326192Y-110962258D01*
X121428207Y-111162475D01*
X121560288Y-111344269D01*
X121719181Y-111503162D01*
X121900975Y-111635243D01*
X122101192Y-111737258D01*
X122314903Y-111806697D01*
X122536845Y-111841850D01*
X122536846Y-111841850D01*
X122761554Y-111841850D01*
X122761555Y-111841850D01*
X122983497Y-111806697D01*
X123197208Y-111737258D01*
X123397425Y-111635243D01*
X123579219Y-111503162D01*
X123738112Y-111344269D01*
X123870193Y-111162475D01*
X123972208Y-110962258D01*
X124041647Y-110748547D01*
X124076800Y-110526605D01*
X124076800Y-110301935D01*
X126222100Y-110301935D01*
X126222100Y-110526564D01*
X126257240Y-110748431D01*
X126326652Y-110962063D01*
X126428635Y-111162213D01*
X126478731Y-111231163D01*
X126478732Y-111231164D01*
X127030477Y-110679418D01*
X127052706Y-110733082D01*
X127126369Y-110843326D01*
X127220124Y-110937081D01*
X127330368Y-111010744D01*
X127384031Y-111032971D01*
X126832284Y-111584717D01*
X126832285Y-111584718D01*
X126901231Y-111634810D01*
X126901244Y-111634818D01*
X127101386Y-111736797D01*
X127315018Y-111806209D01*
X127536886Y-111841350D01*
X127761514Y-111841350D01*
X127983381Y-111806209D01*
X128197013Y-111736797D01*
X128397163Y-111634814D01*
X128466113Y-111584717D01*
X127914368Y-111032972D01*
X127968032Y-111010744D01*
X128078276Y-110937081D01*
X128172031Y-110843326D01*
X128245694Y-110733082D01*
X128267921Y-110679418D01*
X128819667Y-111231164D01*
X128819667Y-111231163D01*
X128869764Y-111162213D01*
X128971747Y-110962063D01*
X129041159Y-110748431D01*
X129076300Y-110526564D01*
X129076300Y-110301935D01*
X129076294Y-110301895D01*
X134870800Y-110301895D01*
X134870800Y-110526604D01*
X134905952Y-110748543D01*
X134905952Y-110748544D01*
X134905953Y-110748547D01*
X134975392Y-110962258D01*
X135077407Y-111162475D01*
X135209488Y-111344269D01*
X135368381Y-111503162D01*
X135550175Y-111635243D01*
X135750392Y-111737258D01*
X135964103Y-111806697D01*
X136186045Y-111841850D01*
X136186046Y-111841850D01*
X136410754Y-111841850D01*
X136410755Y-111841850D01*
X136632697Y-111806697D01*
X136846408Y-111737258D01*
X137046625Y-111635243D01*
X137228419Y-111503162D01*
X137387312Y-111344269D01*
X137519393Y-111162475D01*
X137621408Y-110962258D01*
X137690847Y-110748547D01*
X137726000Y-110526605D01*
X137726000Y-110301935D01*
X139871300Y-110301935D01*
X139871300Y-110526564D01*
X139906440Y-110748431D01*
X139975852Y-110962063D01*
X140077835Y-111162213D01*
X140127931Y-111231163D01*
X140127932Y-111231164D01*
X140679677Y-110679418D01*
X140701906Y-110733082D01*
X140775569Y-110843326D01*
X140869324Y-110937081D01*
X140979568Y-111010744D01*
X141033231Y-111032971D01*
X140481484Y-111584717D01*
X140481485Y-111584718D01*
X140550431Y-111634810D01*
X140550444Y-111634818D01*
X140750586Y-111736797D01*
X140964218Y-111806209D01*
X141186086Y-111841350D01*
X141410714Y-111841350D01*
X141632581Y-111806209D01*
X141846213Y-111736797D01*
X142046363Y-111634814D01*
X142115313Y-111584717D01*
X141563568Y-111032972D01*
X141617232Y-111010744D01*
X141727476Y-110937081D01*
X141821231Y-110843326D01*
X141894894Y-110733082D01*
X141917122Y-110679418D01*
X142468867Y-111231163D01*
X142518964Y-111162213D01*
X142620947Y-110962063D01*
X142690359Y-110748431D01*
X142725500Y-110526564D01*
X142725500Y-110301935D01*
X142690359Y-110080068D01*
X142620947Y-109866436D01*
X142518968Y-109666294D01*
X142518960Y-109666281D01*
X142468868Y-109597335D01*
X142468867Y-109597334D01*
X141917121Y-110149080D01*
X141894894Y-110095418D01*
X141821231Y-109985174D01*
X141727476Y-109891419D01*
X141617232Y-109817756D01*
X141563568Y-109795528D01*
X142115314Y-109243782D01*
X142115313Y-109243781D01*
X142046363Y-109193685D01*
X141846213Y-109091702D01*
X141632581Y-109022290D01*
X141410714Y-108987150D01*
X141186086Y-108987150D01*
X140964218Y-109022290D01*
X140750586Y-109091702D01*
X140550433Y-109193687D01*
X140481485Y-109243780D01*
X140481485Y-109243781D01*
X141033231Y-109795527D01*
X140979568Y-109817756D01*
X140869324Y-109891419D01*
X140775569Y-109985174D01*
X140701906Y-110095418D01*
X140679677Y-110149081D01*
X140127931Y-109597335D01*
X140127930Y-109597335D01*
X140077837Y-109666283D01*
X139975852Y-109866436D01*
X139906440Y-110080068D01*
X139871300Y-110301935D01*
X137726000Y-110301935D01*
X137726000Y-110301895D01*
X137690847Y-110079953D01*
X137621408Y-109866242D01*
X137519393Y-109666025D01*
X137387312Y-109484231D01*
X137228419Y-109325338D01*
X137046625Y-109193257D01*
X136846410Y-109091243D01*
X136846409Y-109091242D01*
X136846408Y-109091242D01*
X136632697Y-109021803D01*
X136632695Y-109021802D01*
X136632693Y-109021802D01*
X136477732Y-108997258D01*
X136410755Y-108986650D01*
X136186045Y-108986650D01*
X136134594Y-108994799D01*
X135964106Y-109021802D01*
X135964105Y-109021802D01*
X135750389Y-109091243D01*
X135550174Y-109193257D01*
X135368378Y-109325340D01*
X135209490Y-109484228D01*
X135077407Y-109666024D01*
X134975393Y-109866239D01*
X134905952Y-110079955D01*
X134905952Y-110079956D01*
X134870800Y-110301895D01*
X129076294Y-110301895D01*
X129041159Y-110080068D01*
X128971747Y-109866436D01*
X128869768Y-109666294D01*
X128869760Y-109666281D01*
X128819668Y-109597335D01*
X128819667Y-109597334D01*
X128267921Y-110149080D01*
X128245694Y-110095418D01*
X128172031Y-109985174D01*
X128078276Y-109891419D01*
X127968032Y-109817756D01*
X127914368Y-109795528D01*
X128466114Y-109243782D01*
X128466113Y-109243781D01*
X128397163Y-109193685D01*
X128197013Y-109091702D01*
X127983381Y-109022290D01*
X127761514Y-108987150D01*
X127536886Y-108987150D01*
X127315018Y-109022290D01*
X127101386Y-109091702D01*
X126901233Y-109193687D01*
X126832285Y-109243780D01*
X126832285Y-109243781D01*
X127384031Y-109795527D01*
X127330368Y-109817756D01*
X127220124Y-109891419D01*
X127126369Y-109985174D01*
X127052706Y-110095418D01*
X127030477Y-110149081D01*
X126478731Y-109597335D01*
X126478730Y-109597335D01*
X126428637Y-109666283D01*
X126326652Y-109866436D01*
X126257240Y-110080068D01*
X126222100Y-110301935D01*
X124076800Y-110301935D01*
X124076800Y-110301895D01*
X124041647Y-110079953D01*
X123972208Y-109866242D01*
X123870193Y-109666025D01*
X123738112Y-109484231D01*
X123579219Y-109325338D01*
X123397425Y-109193257D01*
X123197210Y-109091243D01*
X123197209Y-109091242D01*
X123197208Y-109091242D01*
X122983497Y-109021803D01*
X122983495Y-109021802D01*
X122983493Y-109021802D01*
X122828532Y-108997258D01*
X122761555Y-108986650D01*
X122536845Y-108986650D01*
X122485394Y-108994799D01*
X122314906Y-109021802D01*
X122314905Y-109021802D01*
X122101189Y-109091243D01*
X121900974Y-109193257D01*
X121719178Y-109325340D01*
X121560290Y-109484228D01*
X121428207Y-109666024D01*
X121326193Y-109866239D01*
X121256752Y-110079955D01*
X121256752Y-110079956D01*
X121221600Y-110301895D01*
X115427094Y-110301895D01*
X115391959Y-110080068D01*
X115322547Y-109866436D01*
X115220568Y-109666294D01*
X115220560Y-109666281D01*
X115170468Y-109597335D01*
X115170467Y-109597334D01*
X114618721Y-110149080D01*
X114596494Y-110095418D01*
X114522831Y-109985174D01*
X114429076Y-109891419D01*
X114318832Y-109817756D01*
X114265168Y-109795528D01*
X114816914Y-109243782D01*
X114816913Y-109243781D01*
X114747963Y-109193685D01*
X114547813Y-109091702D01*
X114334181Y-109022290D01*
X114112314Y-108987150D01*
X113887686Y-108987150D01*
X113665818Y-109022290D01*
X113452186Y-109091702D01*
X113252033Y-109193687D01*
X113183085Y-109243780D01*
X113183085Y-109243781D01*
X113734831Y-109795527D01*
X113681168Y-109817756D01*
X113570924Y-109891419D01*
X113477169Y-109985174D01*
X113403506Y-110095418D01*
X113381277Y-110149081D01*
X112829531Y-109597335D01*
X112829530Y-109597335D01*
X112779437Y-109666283D01*
X112677452Y-109866436D01*
X112608040Y-110080068D01*
X112572900Y-110301935D01*
X110427600Y-110301935D01*
X110427600Y-110301895D01*
X110392447Y-110079953D01*
X110323008Y-109866242D01*
X110220993Y-109666025D01*
X110088912Y-109484231D01*
X109930019Y-109325338D01*
X109748225Y-109193257D01*
X109548010Y-109091243D01*
X109548009Y-109091242D01*
X109548008Y-109091242D01*
X109334297Y-109021803D01*
X109334295Y-109021802D01*
X109334293Y-109021802D01*
X109179332Y-108997258D01*
X109112355Y-108986650D01*
X108887645Y-108986650D01*
X108836194Y-108994799D01*
X108665706Y-109021802D01*
X108665705Y-109021802D01*
X108451989Y-109091243D01*
X108251774Y-109193257D01*
X108069978Y-109325340D01*
X107911090Y-109484228D01*
X107779007Y-109666024D01*
X107676993Y-109866239D01*
X107607552Y-110079955D01*
X107607552Y-110079956D01*
X107572400Y-110301895D01*
X100500500Y-110301895D01*
X100500500Y-108821153D01*
X146199500Y-108821153D01*
X146199500Y-108978846D01*
X146230261Y-109133489D01*
X146230264Y-109133501D01*
X146290602Y-109279172D01*
X146290609Y-109279185D01*
X146378210Y-109410288D01*
X146378213Y-109410292D01*
X146489707Y-109521786D01*
X146489711Y-109521789D01*
X146620814Y-109609390D01*
X146620827Y-109609397D01*
X146757539Y-109666024D01*
X146766503Y-109669737D01*
X146921153Y-109700499D01*
X146921156Y-109700500D01*
X146921158Y-109700500D01*
X147078844Y-109700500D01*
X147078845Y-109700499D01*
X147233497Y-109669737D01*
X147379179Y-109609394D01*
X147510289Y-109521789D01*
X147621789Y-109410289D01*
X147709394Y-109279179D01*
X147769737Y-109133497D01*
X147800500Y-108978842D01*
X147800500Y-108821158D01*
X147800500Y-108821155D01*
X147800499Y-108821153D01*
X147769738Y-108666510D01*
X147769737Y-108666503D01*
X147769735Y-108666498D01*
X147709397Y-108520827D01*
X147709390Y-108520814D01*
X147621789Y-108389711D01*
X147621786Y-108389707D01*
X147510292Y-108278213D01*
X147510288Y-108278210D01*
X147379185Y-108190609D01*
X147379172Y-108190602D01*
X147233501Y-108130264D01*
X147233489Y-108130261D01*
X147078845Y-108099500D01*
X147078842Y-108099500D01*
X146921158Y-108099500D01*
X146921155Y-108099500D01*
X146766510Y-108130261D01*
X146766498Y-108130264D01*
X146620827Y-108190602D01*
X146620814Y-108190609D01*
X146489711Y-108278210D01*
X146489707Y-108278213D01*
X146378213Y-108389707D01*
X146378210Y-108389711D01*
X146290609Y-108520814D01*
X146290602Y-108520827D01*
X146230264Y-108666498D01*
X146230261Y-108666510D01*
X146199500Y-108821153D01*
X100500500Y-108821153D01*
X100500500Y-103527135D01*
X111274500Y-103527135D01*
X111274500Y-105272870D01*
X111274501Y-105272876D01*
X111280908Y-105332483D01*
X111331202Y-105467328D01*
X111331206Y-105467335D01*
X111417452Y-105582544D01*
X111417455Y-105582547D01*
X111532664Y-105668793D01*
X111532671Y-105668797D01*
X111667517Y-105719091D01*
X111667516Y-105719091D01*
X111674444Y-105719835D01*
X111727127Y-105725500D01*
X113472872Y-105725499D01*
X113532483Y-105719091D01*
X113667331Y-105668796D01*
X113782546Y-105582546D01*
X113868796Y-105467331D01*
X113919091Y-105332483D01*
X113919091Y-105332481D01*
X113920874Y-105324938D01*
X113923757Y-105325619D01*
X113945147Y-105273896D01*
X114002517Y-105234014D01*
X114072340Y-105231480D01*
X114129425Y-105263965D01*
X114276495Y-105411035D01*
X114445286Y-105533670D01*
X114533116Y-105578421D01*
X114631179Y-105628387D01*
X114631181Y-105628387D01*
X114631184Y-105628389D01*
X114737545Y-105662948D01*
X114829610Y-105692862D01*
X115035676Y-105725500D01*
X115035681Y-105725500D01*
X115244324Y-105725500D01*
X115450389Y-105692862D01*
X115451894Y-105692373D01*
X115648816Y-105628389D01*
X115834714Y-105533670D01*
X116003505Y-105411035D01*
X116151035Y-105263505D01*
X116273670Y-105094714D01*
X116299796Y-105043437D01*
X116347769Y-104992642D01*
X116415590Y-104975846D01*
X116481725Y-104998383D01*
X116520766Y-105043437D01*
X116546759Y-105094451D01*
X116582627Y-105143818D01*
X116582627Y-105143819D01*
X117156212Y-104570234D01*
X117167482Y-104612292D01*
X117239890Y-104737708D01*
X117342292Y-104840110D01*
X117467708Y-104912518D01*
X117509765Y-104923787D01*
X116936179Y-105497371D01*
X116936180Y-105497372D01*
X116985543Y-105533236D01*
X116985556Y-105533244D01*
X117171372Y-105627924D01*
X117369727Y-105692373D01*
X117575721Y-105725000D01*
X117784279Y-105725000D01*
X117990272Y-105692373D01*
X118188627Y-105627924D01*
X118374451Y-105533240D01*
X118423818Y-105497372D01*
X118423818Y-105497371D01*
X117850234Y-104923787D01*
X117892292Y-104912518D01*
X118017708Y-104840110D01*
X118120110Y-104737708D01*
X118192518Y-104612292D01*
X118203787Y-104570234D01*
X118777371Y-105143818D01*
X118777372Y-105143818D01*
X118813242Y-105094449D01*
X118813242Y-105094448D01*
X118839233Y-105043438D01*
X118887206Y-104992642D01*
X118955027Y-104975846D01*
X119021162Y-104998383D01*
X119060203Y-105043437D01*
X119086330Y-105094714D01*
X119208965Y-105263505D01*
X119356495Y-105411035D01*
X119525286Y-105533670D01*
X119613116Y-105578421D01*
X119711179Y-105628387D01*
X119711181Y-105628387D01*
X119711184Y-105628389D01*
X119817545Y-105662948D01*
X119909610Y-105692862D01*
X120115676Y-105725500D01*
X120115681Y-105725500D01*
X120324324Y-105725500D01*
X120530389Y-105692862D01*
X120531894Y-105692373D01*
X120728816Y-105628389D01*
X120914714Y-105533670D01*
X121083505Y-105411035D01*
X121231035Y-105263505D01*
X121353670Y-105094714D01*
X121379515Y-105043990D01*
X121427489Y-104993194D01*
X121495310Y-104976398D01*
X121561445Y-104998935D01*
X121600485Y-105043990D01*
X121626328Y-105094712D01*
X121662006Y-105143818D01*
X121748965Y-105263505D01*
X121896495Y-105411035D01*
X122065286Y-105533670D01*
X122153116Y-105578421D01*
X122251179Y-105628387D01*
X122251181Y-105628387D01*
X122251184Y-105628389D01*
X122357545Y-105662948D01*
X122449610Y-105692862D01*
X122655676Y-105725500D01*
X122655681Y-105725500D01*
X122864324Y-105725500D01*
X123070389Y-105692862D01*
X123071894Y-105692373D01*
X123268816Y-105628389D01*
X123454714Y-105533670D01*
X123623505Y-105411035D01*
X123771035Y-105263505D01*
X123893670Y-105094714D01*
X123919515Y-105043990D01*
X123967489Y-104993194D01*
X124035310Y-104976398D01*
X124101445Y-104998935D01*
X124140485Y-105043990D01*
X124166328Y-105094712D01*
X124202006Y-105143818D01*
X124288965Y-105263505D01*
X124436495Y-105411035D01*
X124605286Y-105533670D01*
X124693116Y-105578421D01*
X124791179Y-105628387D01*
X124791181Y-105628387D01*
X124791184Y-105628389D01*
X124897545Y-105662948D01*
X124989610Y-105692862D01*
X125195676Y-105725500D01*
X125195681Y-105725500D01*
X125404324Y-105725500D01*
X125610389Y-105692862D01*
X125611894Y-105692373D01*
X125808816Y-105628389D01*
X125994714Y-105533670D01*
X126163505Y-105411035D01*
X126311035Y-105263505D01*
X126433670Y-105094714D01*
X126459515Y-105043990D01*
X126507489Y-104993194D01*
X126575310Y-104976398D01*
X126641445Y-104998935D01*
X126680485Y-105043990D01*
X126706328Y-105094712D01*
X126742006Y-105143818D01*
X126828965Y-105263505D01*
X126976495Y-105411035D01*
X127145286Y-105533670D01*
X127233116Y-105578421D01*
X127331179Y-105628387D01*
X127331181Y-105628387D01*
X127331184Y-105628389D01*
X127437545Y-105662948D01*
X127529610Y-105692862D01*
X127735676Y-105725500D01*
X127735681Y-105725500D01*
X127944324Y-105725500D01*
X128150389Y-105692862D01*
X128151894Y-105692373D01*
X128348816Y-105628389D01*
X128534714Y-105533670D01*
X128703505Y-105411035D01*
X128851035Y-105263505D01*
X128973670Y-105094714D01*
X128999515Y-105043990D01*
X129047489Y-104993194D01*
X129115310Y-104976398D01*
X129181445Y-104998935D01*
X129220485Y-105043990D01*
X129246328Y-105094712D01*
X129282006Y-105143818D01*
X129368965Y-105263505D01*
X129516495Y-105411035D01*
X129685286Y-105533670D01*
X129773116Y-105578421D01*
X129871179Y-105628387D01*
X129871181Y-105628387D01*
X129871184Y-105628389D01*
X129977545Y-105662948D01*
X130069610Y-105692862D01*
X130275676Y-105725500D01*
X130275681Y-105725500D01*
X130484324Y-105725500D01*
X130690389Y-105692862D01*
X130691894Y-105692373D01*
X130888816Y-105628389D01*
X131074714Y-105533670D01*
X131243505Y-105411035D01*
X131391035Y-105263505D01*
X131513670Y-105094714D01*
X131539515Y-105043990D01*
X131587489Y-104993194D01*
X131655310Y-104976398D01*
X131721445Y-104998935D01*
X131760485Y-105043990D01*
X131786328Y-105094712D01*
X131822006Y-105143818D01*
X131908965Y-105263505D01*
X132056495Y-105411035D01*
X132225286Y-105533670D01*
X132313116Y-105578421D01*
X132411179Y-105628387D01*
X132411181Y-105628387D01*
X132411184Y-105628389D01*
X132517545Y-105662948D01*
X132609610Y-105692862D01*
X132815676Y-105725500D01*
X132815681Y-105725500D01*
X133024324Y-105725500D01*
X133230389Y-105692862D01*
X133231894Y-105692373D01*
X133428816Y-105628389D01*
X133614714Y-105533670D01*
X133783505Y-105411035D01*
X133931035Y-105263505D01*
X134053670Y-105094714D01*
X134079515Y-105043990D01*
X134127489Y-104993194D01*
X134195310Y-104976398D01*
X134261445Y-104998935D01*
X134300485Y-105043990D01*
X134326328Y-105094712D01*
X134362006Y-105143818D01*
X134448965Y-105263505D01*
X134596495Y-105411035D01*
X134765286Y-105533670D01*
X134853116Y-105578421D01*
X134951179Y-105628387D01*
X134951181Y-105628387D01*
X134951184Y-105628389D01*
X135057545Y-105662948D01*
X135149610Y-105692862D01*
X135355676Y-105725500D01*
X135355681Y-105725500D01*
X135564324Y-105725500D01*
X135770389Y-105692862D01*
X135771894Y-105692373D01*
X135968816Y-105628389D01*
X136154714Y-105533670D01*
X136323505Y-105411035D01*
X136471035Y-105263505D01*
X136593670Y-105094714D01*
X136619515Y-105043990D01*
X136667489Y-104993194D01*
X136735310Y-104976398D01*
X136801445Y-104998935D01*
X136840485Y-105043990D01*
X136866328Y-105094712D01*
X136902006Y-105143818D01*
X136988965Y-105263505D01*
X137136495Y-105411035D01*
X137305286Y-105533670D01*
X137393116Y-105578421D01*
X137491179Y-105628387D01*
X137491181Y-105628387D01*
X137491184Y-105628389D01*
X137597545Y-105662948D01*
X137689610Y-105692862D01*
X137895676Y-105725500D01*
X137895681Y-105725500D01*
X138104324Y-105725500D01*
X138310389Y-105692862D01*
X138311894Y-105692373D01*
X138508816Y-105628389D01*
X138694714Y-105533670D01*
X138863505Y-105411035D01*
X139011035Y-105263505D01*
X139133670Y-105094714D01*
X139228389Y-104908816D01*
X139292862Y-104710389D01*
X139308399Y-104612292D01*
X139325500Y-104504324D01*
X139325500Y-104295675D01*
X139292862Y-104089610D01*
X139228387Y-103891179D01*
X139133807Y-103705555D01*
X139133670Y-103705286D01*
X139011035Y-103536495D01*
X138863505Y-103388965D01*
X138694714Y-103266330D01*
X138508820Y-103171612D01*
X138310389Y-103107137D01*
X138104324Y-103074500D01*
X138104319Y-103074500D01*
X137895681Y-103074500D01*
X137895676Y-103074500D01*
X137689610Y-103107137D01*
X137491179Y-103171612D01*
X137305285Y-103266330D01*
X137136493Y-103388966D01*
X136988966Y-103536493D01*
X136866330Y-103705285D01*
X136840485Y-103756010D01*
X136792510Y-103806806D01*
X136724690Y-103823601D01*
X136658555Y-103801064D01*
X136619515Y-103756010D01*
X136593807Y-103705555D01*
X136593670Y-103705286D01*
X136471035Y-103536495D01*
X136323505Y-103388965D01*
X136154714Y-103266330D01*
X135968820Y-103171612D01*
X135770389Y-103107137D01*
X135564324Y-103074500D01*
X135564319Y-103074500D01*
X135355681Y-103074500D01*
X135355676Y-103074500D01*
X135149610Y-103107137D01*
X134951179Y-103171612D01*
X134765285Y-103266330D01*
X134596493Y-103388966D01*
X134448966Y-103536493D01*
X134326330Y-103705285D01*
X134300485Y-103756010D01*
X134252510Y-103806806D01*
X134184690Y-103823601D01*
X134118555Y-103801064D01*
X134079515Y-103756010D01*
X134053807Y-103705555D01*
X134053670Y-103705286D01*
X133931035Y-103536495D01*
X133783505Y-103388965D01*
X133614714Y-103266330D01*
X133428820Y-103171612D01*
X133230389Y-103107137D01*
X133024324Y-103074500D01*
X133024319Y-103074500D01*
X132815681Y-103074500D01*
X132815676Y-103074500D01*
X132609610Y-103107137D01*
X132411179Y-103171612D01*
X132225285Y-103266330D01*
X132056493Y-103388966D01*
X131908966Y-103536493D01*
X131786330Y-103705285D01*
X131760485Y-103756010D01*
X131712510Y-103806806D01*
X131644690Y-103823601D01*
X131578555Y-103801064D01*
X131539515Y-103756010D01*
X131513807Y-103705555D01*
X131513670Y-103705286D01*
X131391035Y-103536495D01*
X131243505Y-103388965D01*
X131074714Y-103266330D01*
X130888820Y-103171612D01*
X130690389Y-103107137D01*
X130484324Y-103074500D01*
X130484319Y-103074500D01*
X130275681Y-103074500D01*
X130275676Y-103074500D01*
X130069610Y-103107137D01*
X129871179Y-103171612D01*
X129685285Y-103266330D01*
X129516493Y-103388966D01*
X129368966Y-103536493D01*
X129246330Y-103705285D01*
X129220485Y-103756010D01*
X129172510Y-103806806D01*
X129104690Y-103823601D01*
X129038555Y-103801064D01*
X128999515Y-103756010D01*
X128973807Y-103705555D01*
X128973670Y-103705286D01*
X128851035Y-103536495D01*
X128703505Y-103388965D01*
X128534714Y-103266330D01*
X128348820Y-103171612D01*
X128150389Y-103107137D01*
X127944324Y-103074500D01*
X127944319Y-103074500D01*
X127735681Y-103074500D01*
X127735676Y-103074500D01*
X127529610Y-103107137D01*
X127331179Y-103171612D01*
X127145285Y-103266330D01*
X126976493Y-103388966D01*
X126828966Y-103536493D01*
X126706330Y-103705285D01*
X126680485Y-103756010D01*
X126632510Y-103806806D01*
X126564690Y-103823601D01*
X126498555Y-103801064D01*
X126459515Y-103756010D01*
X126433807Y-103705555D01*
X126433670Y-103705286D01*
X126311035Y-103536495D01*
X126163505Y-103388965D01*
X125994714Y-103266330D01*
X125808820Y-103171612D01*
X125610389Y-103107137D01*
X125404324Y-103074500D01*
X125404319Y-103074500D01*
X125195681Y-103074500D01*
X125195676Y-103074500D01*
X124989610Y-103107137D01*
X124791179Y-103171612D01*
X124605285Y-103266330D01*
X124436493Y-103388966D01*
X124288966Y-103536493D01*
X124166330Y-103705285D01*
X124140485Y-103756010D01*
X124092510Y-103806806D01*
X124024690Y-103823601D01*
X123958555Y-103801064D01*
X123919515Y-103756010D01*
X123893807Y-103705555D01*
X123893670Y-103705286D01*
X123771035Y-103536495D01*
X123623505Y-103388965D01*
X123454714Y-103266330D01*
X123268820Y-103171612D01*
X123070389Y-103107137D01*
X122864324Y-103074500D01*
X122864319Y-103074500D01*
X122655681Y-103074500D01*
X122655676Y-103074500D01*
X122449610Y-103107137D01*
X122251179Y-103171612D01*
X122065285Y-103266330D01*
X121896493Y-103388966D01*
X121748966Y-103536493D01*
X121626330Y-103705285D01*
X121600485Y-103756010D01*
X121552510Y-103806806D01*
X121484690Y-103823601D01*
X121418555Y-103801064D01*
X121379515Y-103756010D01*
X121353807Y-103705555D01*
X121353670Y-103705286D01*
X121231035Y-103536495D01*
X121083505Y-103388965D01*
X120914714Y-103266330D01*
X120728820Y-103171612D01*
X120530389Y-103107137D01*
X120324324Y-103074500D01*
X120324319Y-103074500D01*
X120115681Y-103074500D01*
X120115676Y-103074500D01*
X119909610Y-103107137D01*
X119711179Y-103171612D01*
X119525285Y-103266330D01*
X119356493Y-103388966D01*
X119208966Y-103536493D01*
X119086328Y-103705288D01*
X119060202Y-103756563D01*
X119012227Y-103807358D01*
X118944406Y-103824153D01*
X118878272Y-103801615D01*
X118839233Y-103756561D01*
X118813247Y-103705561D01*
X118813236Y-103705543D01*
X118777372Y-103656180D01*
X118777371Y-103656179D01*
X118203787Y-104229764D01*
X118192518Y-104187708D01*
X118120110Y-104062292D01*
X118017708Y-103959890D01*
X117892292Y-103887482D01*
X117850233Y-103876212D01*
X118423819Y-103302627D01*
X118374451Y-103266759D01*
X118188627Y-103172075D01*
X117990272Y-103107626D01*
X117784279Y-103075000D01*
X117575721Y-103075000D01*
X117369727Y-103107626D01*
X117171372Y-103172075D01*
X116985552Y-103266757D01*
X116936180Y-103302627D01*
X117509766Y-103876212D01*
X117467708Y-103887482D01*
X117342292Y-103959890D01*
X117239890Y-104062292D01*
X117167482Y-104187708D01*
X117156212Y-104229765D01*
X116582627Y-103656180D01*
X116546755Y-103705555D01*
X116520765Y-103756563D01*
X116472790Y-103807358D01*
X116404969Y-103824153D01*
X116338834Y-103801615D01*
X116299796Y-103756561D01*
X116273671Y-103705287D01*
X116232791Y-103649022D01*
X116151035Y-103536495D01*
X116003505Y-103388965D01*
X115834714Y-103266330D01*
X115648820Y-103171612D01*
X115450389Y-103107137D01*
X115244324Y-103074500D01*
X115244319Y-103074500D01*
X115035681Y-103074500D01*
X115035676Y-103074500D01*
X114829610Y-103107137D01*
X114631179Y-103171612D01*
X114445285Y-103266330D01*
X114276496Y-103388964D01*
X114129426Y-103536034D01*
X114068103Y-103569518D01*
X113998411Y-103564534D01*
X113942478Y-103522662D01*
X113923515Y-103474444D01*
X113920876Y-103475068D01*
X113919092Y-103467520D01*
X113868797Y-103332671D01*
X113868793Y-103332664D01*
X113782547Y-103217455D01*
X113782544Y-103217452D01*
X113667335Y-103131206D01*
X113667328Y-103131202D01*
X113532482Y-103080908D01*
X113532483Y-103080908D01*
X113472883Y-103074501D01*
X113472881Y-103074500D01*
X113472873Y-103074500D01*
X113472864Y-103074500D01*
X111727129Y-103074500D01*
X111727123Y-103074501D01*
X111667516Y-103080908D01*
X111532671Y-103131202D01*
X111532664Y-103131206D01*
X111417455Y-103217452D01*
X111417452Y-103217455D01*
X111331206Y-103332664D01*
X111331202Y-103332671D01*
X111280908Y-103467517D01*
X111274501Y-103527116D01*
X111274500Y-103527135D01*
X100500500Y-103527135D01*
X100500500Y-98121153D01*
X138599500Y-98121153D01*
X138599500Y-98278846D01*
X138630261Y-98433489D01*
X138630264Y-98433501D01*
X138690602Y-98579172D01*
X138690609Y-98579185D01*
X138778210Y-98710288D01*
X138778213Y-98710292D01*
X138889707Y-98821786D01*
X138889711Y-98821789D01*
X139020814Y-98909390D01*
X139020827Y-98909397D01*
X139166498Y-98969735D01*
X139166503Y-98969737D01*
X139321153Y-99000499D01*
X139321156Y-99000500D01*
X139321158Y-99000500D01*
X139478844Y-99000500D01*
X139478845Y-99000499D01*
X139633497Y-98969737D01*
X139779179Y-98909394D01*
X139910289Y-98821789D01*
X140021789Y-98710289D01*
X140109394Y-98579179D01*
X140169737Y-98433497D01*
X140200500Y-98278842D01*
X140200500Y-98121158D01*
X140200500Y-98121155D01*
X140200499Y-98121153D01*
X140169738Y-97966510D01*
X140169737Y-97966503D01*
X140169735Y-97966498D01*
X140109397Y-97820827D01*
X140109390Y-97820814D01*
X140021789Y-97689711D01*
X140021786Y-97689707D01*
X139910292Y-97578213D01*
X139910288Y-97578210D01*
X139779185Y-97490609D01*
X139779172Y-97490602D01*
X139633501Y-97430264D01*
X139633489Y-97430261D01*
X139478845Y-97399500D01*
X139478842Y-97399500D01*
X139321158Y-97399500D01*
X139321155Y-97399500D01*
X139166510Y-97430261D01*
X139166498Y-97430264D01*
X139020827Y-97490602D01*
X139020814Y-97490609D01*
X138889711Y-97578210D01*
X138889707Y-97578213D01*
X138778213Y-97689707D01*
X138778210Y-97689711D01*
X138690609Y-97820814D01*
X138690602Y-97820827D01*
X138630264Y-97966498D01*
X138630261Y-97966510D01*
X138599500Y-98121153D01*
X100500500Y-98121153D01*
X100500500Y-91821153D01*
X106999500Y-91821153D01*
X106999500Y-91978846D01*
X107030261Y-92133489D01*
X107030264Y-92133501D01*
X107090602Y-92279172D01*
X107090609Y-92279185D01*
X107178210Y-92410288D01*
X107178213Y-92410292D01*
X107289707Y-92521786D01*
X107289711Y-92521789D01*
X107420814Y-92609390D01*
X107420827Y-92609397D01*
X107566498Y-92669735D01*
X107566503Y-92669737D01*
X107716131Y-92699500D01*
X107721153Y-92700499D01*
X107721156Y-92700500D01*
X107721158Y-92700500D01*
X107878844Y-92700500D01*
X107878845Y-92700499D01*
X108033497Y-92669737D01*
X108136037Y-92627263D01*
X108205504Y-92619795D01*
X108267984Y-92651070D01*
X108286232Y-92674774D01*
X108287221Y-92674114D01*
X108378210Y-92810288D01*
X108378213Y-92810292D01*
X108489707Y-92921786D01*
X108489711Y-92921789D01*
X108620814Y-93009390D01*
X108620827Y-93009397D01*
X108766498Y-93069735D01*
X108766503Y-93069737D01*
X108921153Y-93100499D01*
X108921156Y-93100500D01*
X108921158Y-93100500D01*
X109078844Y-93100500D01*
X109200241Y-93076352D01*
X109269833Y-93082579D01*
X109325010Y-93125442D01*
X109348255Y-93191331D01*
X109338996Y-93245417D01*
X109330264Y-93266499D01*
X109330261Y-93266510D01*
X109299500Y-93421153D01*
X109299500Y-93578846D01*
X109330261Y-93733489D01*
X109330264Y-93733501D01*
X109390602Y-93879172D01*
X109390609Y-93879185D01*
X109478210Y-94010288D01*
X109478213Y-94010292D01*
X109589707Y-94121786D01*
X109589711Y-94121789D01*
X109720814Y-94209390D01*
X109720827Y-94209397D01*
X109858683Y-94266498D01*
X109866503Y-94269737D01*
X109976987Y-94291713D01*
X109999691Y-94296230D01*
X110061602Y-94328615D01*
X110096176Y-94389330D01*
X110099500Y-94417847D01*
X110099500Y-94578846D01*
X110130261Y-94733489D01*
X110130264Y-94733501D01*
X110190602Y-94879172D01*
X110190609Y-94879185D01*
X110278210Y-95010288D01*
X110278213Y-95010292D01*
X110389707Y-95121786D01*
X110389711Y-95121789D01*
X110520814Y-95209390D01*
X110520827Y-95209397D01*
X110666498Y-95269735D01*
X110666503Y-95269737D01*
X110821153Y-95300499D01*
X110821156Y-95300500D01*
X110821158Y-95300500D01*
X110978844Y-95300500D01*
X110978845Y-95300499D01*
X111133497Y-95269737D01*
X111279179Y-95209394D01*
X111410289Y-95121789D01*
X111521789Y-95010289D01*
X111609394Y-94879179D01*
X111669737Y-94733497D01*
X111672192Y-94721153D01*
X127099500Y-94721153D01*
X127099500Y-94878846D01*
X127130261Y-95033489D01*
X127130264Y-95033501D01*
X127190602Y-95179172D01*
X127190609Y-95179185D01*
X127278210Y-95310288D01*
X127278213Y-95310292D01*
X127389707Y-95421786D01*
X127389711Y-95421789D01*
X127520814Y-95509390D01*
X127520827Y-95509397D01*
X127666498Y-95569735D01*
X127666503Y-95569737D01*
X127821153Y-95600499D01*
X127821156Y-95600500D01*
X127821158Y-95600500D01*
X127978844Y-95600500D01*
X127978845Y-95600499D01*
X128133497Y-95569737D01*
X128279179Y-95509394D01*
X128410289Y-95421789D01*
X128521789Y-95310289D01*
X128609394Y-95179179D01*
X128669737Y-95033497D01*
X128700500Y-94878842D01*
X128700500Y-94721158D01*
X128700500Y-94721155D01*
X128700499Y-94721153D01*
X128672192Y-94578846D01*
X128669737Y-94566503D01*
X128609534Y-94421158D01*
X128609397Y-94420827D01*
X128609390Y-94420814D01*
X128521789Y-94289711D01*
X128521786Y-94289707D01*
X128410292Y-94178213D01*
X128410288Y-94178210D01*
X128279185Y-94090609D01*
X128279172Y-94090602D01*
X128133501Y-94030264D01*
X128133489Y-94030261D01*
X127978845Y-93999500D01*
X127978842Y-93999500D01*
X127821158Y-93999500D01*
X127821155Y-93999500D01*
X127666510Y-94030261D01*
X127666498Y-94030264D01*
X127520827Y-94090602D01*
X127520814Y-94090609D01*
X127389711Y-94178210D01*
X127389707Y-94178213D01*
X127278213Y-94289707D01*
X127278210Y-94289711D01*
X127190609Y-94420814D01*
X127190602Y-94420827D01*
X127130264Y-94566498D01*
X127130261Y-94566510D01*
X127099500Y-94721153D01*
X111672192Y-94721153D01*
X111678216Y-94690874D01*
X111678216Y-94690873D01*
X111700499Y-94578846D01*
X111700500Y-94578844D01*
X111700500Y-94421155D01*
X111700499Y-94421153D01*
X111674353Y-94289711D01*
X111669737Y-94266503D01*
X111646080Y-94209390D01*
X111609397Y-94120827D01*
X111609390Y-94120814D01*
X111521789Y-93989711D01*
X111521786Y-93989707D01*
X111410292Y-93878213D01*
X111410288Y-93878210D01*
X111279185Y-93790609D01*
X111279172Y-93790602D01*
X111133501Y-93730264D01*
X111133491Y-93730261D01*
X111000308Y-93703769D01*
X110938397Y-93671384D01*
X110903823Y-93610668D01*
X110900500Y-93582152D01*
X110900500Y-93421155D01*
X110900499Y-93421153D01*
X110869738Y-93266510D01*
X110869737Y-93266503D01*
X110838600Y-93191331D01*
X110809397Y-93120827D01*
X110809390Y-93120814D01*
X110721789Y-92989711D01*
X110721786Y-92989707D01*
X110610292Y-92878213D01*
X110610288Y-92878210D01*
X110479185Y-92790609D01*
X110479172Y-92790602D01*
X110333501Y-92730264D01*
X110333489Y-92730261D01*
X110178845Y-92699500D01*
X110178842Y-92699500D01*
X110021158Y-92699500D01*
X110021153Y-92699500D01*
X109899757Y-92723647D01*
X109830165Y-92717420D01*
X109774988Y-92674556D01*
X109751744Y-92608667D01*
X109761005Y-92554577D01*
X109769737Y-92533497D01*
X109800500Y-92378842D01*
X109800500Y-92221158D01*
X109800500Y-92221155D01*
X109800499Y-92221153D01*
X109783061Y-92133489D01*
X109769737Y-92066503D01*
X109733427Y-91978842D01*
X109709397Y-91920827D01*
X109709390Y-91920814D01*
X109621789Y-91789711D01*
X109621786Y-91789707D01*
X109510292Y-91678213D01*
X109510288Y-91678210D01*
X109379185Y-91590609D01*
X109379172Y-91590602D01*
X109233501Y-91530264D01*
X109233489Y-91530261D01*
X109078845Y-91499500D01*
X109078842Y-91499500D01*
X108921158Y-91499500D01*
X108921155Y-91499500D01*
X108766510Y-91530261D01*
X108766507Y-91530262D01*
X108766506Y-91530262D01*
X108766503Y-91530263D01*
X108681421Y-91565504D01*
X108663963Y-91572736D01*
X108594493Y-91580204D01*
X108532014Y-91548928D01*
X108513767Y-91525226D01*
X108512779Y-91525887D01*
X108421789Y-91389710D01*
X108310292Y-91278213D01*
X108310288Y-91278210D01*
X108179185Y-91190609D01*
X108179172Y-91190602D01*
X108033501Y-91130264D01*
X108033489Y-91130261D01*
X107878845Y-91099500D01*
X107878842Y-91099500D01*
X107721158Y-91099500D01*
X107721155Y-91099500D01*
X107566510Y-91130261D01*
X107566498Y-91130264D01*
X107420827Y-91190602D01*
X107420814Y-91190609D01*
X107289711Y-91278210D01*
X107289707Y-91278213D01*
X107178213Y-91389707D01*
X107178210Y-91389711D01*
X107090609Y-91520814D01*
X107090602Y-91520827D01*
X107030264Y-91666498D01*
X107030261Y-91666510D01*
X106999500Y-91821153D01*
X100500500Y-91821153D01*
X100500500Y-90821153D01*
X112399500Y-90821153D01*
X112399500Y-90978846D01*
X112430261Y-91133489D01*
X112430264Y-91133501D01*
X112490602Y-91279172D01*
X112490609Y-91279185D01*
X112578210Y-91410288D01*
X112578213Y-91410292D01*
X112689707Y-91521786D01*
X112689711Y-91521789D01*
X112820814Y-91609390D01*
X112820827Y-91609397D01*
X112879723Y-91633792D01*
X112966503Y-91669737D01*
X113121153Y-91700499D01*
X113121156Y-91700500D01*
X113121158Y-91700500D01*
X113278844Y-91700500D01*
X113278845Y-91700499D01*
X113433497Y-91669737D01*
X113550790Y-91621153D01*
X126999500Y-91621153D01*
X126999500Y-91778846D01*
X127030261Y-91933489D01*
X127030264Y-91933501D01*
X127090602Y-92079172D01*
X127090609Y-92079185D01*
X127178210Y-92210288D01*
X127178213Y-92210292D01*
X127289707Y-92321786D01*
X127289711Y-92321789D01*
X127420814Y-92409390D01*
X127420827Y-92409397D01*
X127566498Y-92469735D01*
X127566503Y-92469737D01*
X127721153Y-92500499D01*
X127721156Y-92500500D01*
X127721158Y-92500500D01*
X127878844Y-92500500D01*
X127878845Y-92500499D01*
X128033497Y-92469737D01*
X128179179Y-92409394D01*
X128310289Y-92321789D01*
X128421789Y-92210289D01*
X128509394Y-92079179D01*
X128569737Y-91933497D01*
X128600500Y-91778842D01*
X128600500Y-91621158D01*
X128600500Y-91621155D01*
X128600499Y-91621153D01*
X128582420Y-91530263D01*
X128569737Y-91466503D01*
X128537929Y-91389710D01*
X128509397Y-91320827D01*
X128509390Y-91320814D01*
X128421789Y-91189711D01*
X128421786Y-91189707D01*
X128310292Y-91078213D01*
X128310288Y-91078210D01*
X128179185Y-90990609D01*
X128179172Y-90990602D01*
X128033501Y-90930264D01*
X128033489Y-90930261D01*
X127878845Y-90899500D01*
X127878842Y-90899500D01*
X127721158Y-90899500D01*
X127721155Y-90899500D01*
X127566510Y-90930261D01*
X127566498Y-90930264D01*
X127420827Y-90990602D01*
X127420814Y-90990609D01*
X127289711Y-91078210D01*
X127289707Y-91078213D01*
X127178213Y-91189707D01*
X127178210Y-91189711D01*
X127090609Y-91320814D01*
X127090602Y-91320827D01*
X127030264Y-91466498D01*
X127030261Y-91466510D01*
X126999500Y-91621153D01*
X113550790Y-91621153D01*
X113579179Y-91609394D01*
X113710289Y-91521789D01*
X113821789Y-91410289D01*
X113909394Y-91279179D01*
X113969737Y-91133497D01*
X114000500Y-90978842D01*
X114000500Y-90821158D01*
X114000500Y-90821155D01*
X114000499Y-90821153D01*
X113969738Y-90666510D01*
X113969737Y-90666503D01*
X113969735Y-90666498D01*
X113907063Y-90515192D01*
X113909657Y-90514117D01*
X113897904Y-90457466D01*
X113922950Y-90392240D01*
X113974042Y-90352942D01*
X114079179Y-90309394D01*
X114210289Y-90221789D01*
X114321789Y-90110289D01*
X114409394Y-89979179D01*
X114469737Y-89833497D01*
X114500500Y-89678842D01*
X114500500Y-89521158D01*
X114500500Y-89521155D01*
X114500499Y-89521153D01*
X114469738Y-89366510D01*
X114469737Y-89366503D01*
X114469735Y-89366498D01*
X114409397Y-89220827D01*
X114409390Y-89220814D01*
X114321789Y-89089711D01*
X114321786Y-89089707D01*
X114210292Y-88978213D01*
X114210288Y-88978210D01*
X114079185Y-88890609D01*
X114079172Y-88890602D01*
X113933501Y-88830264D01*
X113933489Y-88830261D01*
X113778845Y-88799500D01*
X113778842Y-88799500D01*
X113621158Y-88799500D01*
X113621155Y-88799500D01*
X113466510Y-88830261D01*
X113466498Y-88830264D01*
X113320827Y-88890602D01*
X113320814Y-88890609D01*
X113189711Y-88978210D01*
X113189707Y-88978213D01*
X113078213Y-89089707D01*
X113078210Y-89089711D01*
X112990609Y-89220814D01*
X112990602Y-89220827D01*
X112930264Y-89366498D01*
X112930261Y-89366510D01*
X112899500Y-89521153D01*
X112899500Y-89678846D01*
X112930261Y-89833489D01*
X112930264Y-89833501D01*
X112992937Y-89984808D01*
X112990374Y-89985869D01*
X113002080Y-90042722D01*
X112976934Y-90107910D01*
X112925955Y-90147058D01*
X112820823Y-90190604D01*
X112820814Y-90190609D01*
X112689711Y-90278210D01*
X112689707Y-90278213D01*
X112578213Y-90389707D01*
X112578210Y-90389711D01*
X112490609Y-90520814D01*
X112490602Y-90520827D01*
X112430264Y-90666498D01*
X112430261Y-90666510D01*
X112399500Y-90821153D01*
X100500500Y-90821153D01*
X100500500Y-86121153D01*
X101699500Y-86121153D01*
X101699500Y-86278846D01*
X101730261Y-86433489D01*
X101730264Y-86433501D01*
X101790602Y-86579172D01*
X101790609Y-86579185D01*
X101878210Y-86710288D01*
X101878213Y-86710292D01*
X101989707Y-86821786D01*
X101989711Y-86821789D01*
X102120814Y-86909390D01*
X102120827Y-86909397D01*
X102266498Y-86969735D01*
X102266503Y-86969737D01*
X102421153Y-87000499D01*
X102421156Y-87000500D01*
X102421158Y-87000500D01*
X102578844Y-87000500D01*
X102578845Y-87000499D01*
X102733497Y-86969737D01*
X102850790Y-86921153D01*
X131799500Y-86921153D01*
X131799500Y-87078846D01*
X131830261Y-87233489D01*
X131830264Y-87233501D01*
X131890602Y-87379172D01*
X131890609Y-87379185D01*
X131978210Y-87510288D01*
X131978213Y-87510292D01*
X132030240Y-87562319D01*
X132063725Y-87623642D01*
X132058741Y-87693334D01*
X132030240Y-87737681D01*
X131978213Y-87789707D01*
X131978210Y-87789711D01*
X131890609Y-87920814D01*
X131890602Y-87920827D01*
X131830264Y-88066498D01*
X131830261Y-88066510D01*
X131799500Y-88221153D01*
X131799500Y-88378846D01*
X131830261Y-88533489D01*
X131830264Y-88533501D01*
X131890602Y-88679172D01*
X131890609Y-88679185D01*
X131978210Y-88810288D01*
X131978213Y-88810292D01*
X132080240Y-88912319D01*
X132113725Y-88973642D01*
X132108741Y-89043334D01*
X132081999Y-89084947D01*
X132082072Y-89085007D01*
X132081559Y-89085630D01*
X132080247Y-89087674D01*
X132078215Y-89089706D01*
X132078208Y-89089714D01*
X131990609Y-89220814D01*
X131990602Y-89220827D01*
X131930264Y-89366498D01*
X131930261Y-89366510D01*
X131899500Y-89521153D01*
X131899500Y-89678846D01*
X131930261Y-89833489D01*
X131930264Y-89833501D01*
X131990602Y-89979172D01*
X131990609Y-89979185D01*
X132078210Y-90110288D01*
X132078213Y-90110292D01*
X132189707Y-90221786D01*
X132189711Y-90221789D01*
X132320814Y-90309390D01*
X132320827Y-90309397D01*
X132425951Y-90352940D01*
X132466503Y-90369737D01*
X132621153Y-90400499D01*
X132621156Y-90400500D01*
X132621158Y-90400500D01*
X132778844Y-90400500D01*
X132778845Y-90400499D01*
X132933497Y-90369737D01*
X133079179Y-90309394D01*
X133210289Y-90221789D01*
X133321789Y-90110289D01*
X133409394Y-89979179D01*
X133469737Y-89833497D01*
X133500500Y-89678842D01*
X133500500Y-89521158D01*
X133500500Y-89521155D01*
X133500499Y-89521153D01*
X133469738Y-89366510D01*
X133469737Y-89366503D01*
X133469735Y-89366498D01*
X133409397Y-89220827D01*
X133409390Y-89220814D01*
X133321789Y-89089711D01*
X133321786Y-89089707D01*
X133219759Y-88987680D01*
X133186274Y-88926357D01*
X133191258Y-88856665D01*
X133218002Y-88815054D01*
X133217928Y-88814993D01*
X133218454Y-88814351D01*
X133219764Y-88812313D01*
X133221789Y-88810289D01*
X133309394Y-88679179D01*
X133369737Y-88533497D01*
X133400500Y-88378842D01*
X133400500Y-88221158D01*
X133400500Y-88221155D01*
X133400499Y-88221153D01*
X133369738Y-88066510D01*
X133369737Y-88066503D01*
X133369735Y-88066498D01*
X133309397Y-87920827D01*
X133309390Y-87920814D01*
X133221789Y-87789711D01*
X133221786Y-87789707D01*
X133169760Y-87737681D01*
X133136275Y-87676358D01*
X133141259Y-87606666D01*
X133169760Y-87562319D01*
X133221786Y-87510292D01*
X133221789Y-87510289D01*
X133309394Y-87379179D01*
X133369737Y-87233497D01*
X133400500Y-87078842D01*
X133400500Y-86921158D01*
X133400500Y-86921155D01*
X133400499Y-86921153D01*
X133380734Y-86821788D01*
X133369737Y-86766503D01*
X133346452Y-86710288D01*
X133309397Y-86620827D01*
X133309390Y-86620814D01*
X133221789Y-86489711D01*
X133221786Y-86489707D01*
X133110292Y-86378213D01*
X133110288Y-86378210D01*
X132979185Y-86290609D01*
X132979172Y-86290602D01*
X132833501Y-86230264D01*
X132833489Y-86230261D01*
X132678845Y-86199500D01*
X132678842Y-86199500D01*
X132521158Y-86199500D01*
X132521155Y-86199500D01*
X132366510Y-86230261D01*
X132366498Y-86230264D01*
X132220827Y-86290602D01*
X132220814Y-86290609D01*
X132089711Y-86378210D01*
X132089707Y-86378213D01*
X131978213Y-86489707D01*
X131978210Y-86489711D01*
X131890609Y-86620814D01*
X131890602Y-86620827D01*
X131830264Y-86766498D01*
X131830261Y-86766510D01*
X131799500Y-86921153D01*
X102850790Y-86921153D01*
X102879179Y-86909394D01*
X103010289Y-86821789D01*
X103121789Y-86710289D01*
X103209394Y-86579179D01*
X103269737Y-86433497D01*
X103300500Y-86278842D01*
X103300500Y-86121158D01*
X103300500Y-86121155D01*
X103300499Y-86121153D01*
X103269738Y-85966510D01*
X103269737Y-85966503D01*
X103256062Y-85933489D01*
X103209397Y-85820827D01*
X103209390Y-85820814D01*
X103121790Y-85689712D01*
X103121784Y-85689705D01*
X103053232Y-85621153D01*
X117299500Y-85621153D01*
X117299500Y-85778846D01*
X117330261Y-85933489D01*
X117330264Y-85933501D01*
X117390602Y-86079172D01*
X117390609Y-86079185D01*
X117478210Y-86210288D01*
X117478213Y-86210292D01*
X117589707Y-86321786D01*
X117589711Y-86321789D01*
X117720814Y-86409390D01*
X117720827Y-86409397D01*
X117866498Y-86469735D01*
X117866503Y-86469737D01*
X118021153Y-86500499D01*
X118021156Y-86500500D01*
X118021158Y-86500500D01*
X118178844Y-86500500D01*
X118178845Y-86500499D01*
X118333497Y-86469737D01*
X118479179Y-86409394D01*
X118610289Y-86321789D01*
X118721789Y-86210289D01*
X118809394Y-86079179D01*
X118869737Y-85933497D01*
X118900500Y-85778842D01*
X118900500Y-85621158D01*
X118900500Y-85621155D01*
X118900499Y-85621153D01*
X118874531Y-85490606D01*
X118869737Y-85466503D01*
X118869735Y-85466498D01*
X118809397Y-85320827D01*
X118809395Y-85320823D01*
X118809394Y-85320821D01*
X118778956Y-85275267D01*
X118758078Y-85208590D01*
X118776562Y-85141210D01*
X118813167Y-85103274D01*
X118860289Y-85071789D01*
X118971789Y-84960289D01*
X119059394Y-84829179D01*
X119119737Y-84683497D01*
X119150500Y-84528842D01*
X119150500Y-84371158D01*
X119150500Y-84371155D01*
X119150499Y-84371153D01*
X119119738Y-84216510D01*
X119119737Y-84216503D01*
X119119735Y-84216498D01*
X119059397Y-84070827D01*
X119059390Y-84070814D01*
X118971789Y-83939711D01*
X118971786Y-83939707D01*
X118860292Y-83828213D01*
X118860288Y-83828210D01*
X118729185Y-83740609D01*
X118729172Y-83740602D01*
X118583501Y-83680264D01*
X118583489Y-83680261D01*
X118428845Y-83649500D01*
X118428842Y-83649500D01*
X118271158Y-83649500D01*
X118271155Y-83649500D01*
X118116510Y-83680261D01*
X118116498Y-83680264D01*
X117970827Y-83740602D01*
X117970814Y-83740609D01*
X117839711Y-83828210D01*
X117839707Y-83828213D01*
X117728213Y-83939707D01*
X117728210Y-83939711D01*
X117640609Y-84070814D01*
X117640602Y-84070827D01*
X117580264Y-84216498D01*
X117580261Y-84216510D01*
X117549500Y-84371153D01*
X117549500Y-84528846D01*
X117580261Y-84683489D01*
X117580264Y-84683501D01*
X117640602Y-84829172D01*
X117640609Y-84829185D01*
X117671043Y-84874732D01*
X117691921Y-84941409D01*
X117673437Y-85008790D01*
X117636832Y-85046725D01*
X117589711Y-85078210D01*
X117589707Y-85078213D01*
X117478213Y-85189707D01*
X117478210Y-85189711D01*
X117390609Y-85320814D01*
X117390602Y-85320827D01*
X117330264Y-85466498D01*
X117330261Y-85466510D01*
X117299500Y-85621153D01*
X103053232Y-85621153D01*
X103010292Y-85578213D01*
X103010288Y-85578210D01*
X102879185Y-85490609D01*
X102879172Y-85490602D01*
X102733501Y-85430264D01*
X102733489Y-85430261D01*
X102578845Y-85399500D01*
X102578842Y-85399500D01*
X102421158Y-85399500D01*
X102421155Y-85399500D01*
X102266510Y-85430261D01*
X102266498Y-85430264D01*
X102120827Y-85490602D01*
X102120814Y-85490609D01*
X101989711Y-85578210D01*
X101989707Y-85578213D01*
X101878213Y-85689707D01*
X101878210Y-85689711D01*
X101790609Y-85820814D01*
X101790602Y-85820827D01*
X101730264Y-85966498D01*
X101730261Y-85966510D01*
X101699500Y-86121153D01*
X100500500Y-86121153D01*
X100500500Y-80821153D01*
X112499500Y-80821153D01*
X112499500Y-80978846D01*
X112530261Y-81133489D01*
X112530264Y-81133501D01*
X112590602Y-81279172D01*
X112590609Y-81279185D01*
X112678210Y-81410288D01*
X112678213Y-81410292D01*
X112789707Y-81521786D01*
X112789711Y-81521789D01*
X112920817Y-81609392D01*
X112920819Y-81609393D01*
X112920821Y-81609394D01*
X112938409Y-81616679D01*
X112992812Y-81660520D01*
X113014877Y-81726814D01*
X113012573Y-81755431D01*
X112999500Y-81821153D01*
X112999500Y-81978846D01*
X113030261Y-82133489D01*
X113030264Y-82133501D01*
X113090602Y-82279172D01*
X113090609Y-82279185D01*
X113178210Y-82410288D01*
X113178213Y-82410292D01*
X113289707Y-82521786D01*
X113289711Y-82521789D01*
X113420814Y-82609390D01*
X113420827Y-82609397D01*
X113489112Y-82637681D01*
X113566503Y-82669737D01*
X113721153Y-82700499D01*
X113721156Y-82700500D01*
X113721158Y-82700500D01*
X113878844Y-82700500D01*
X113878845Y-82700499D01*
X114033497Y-82669737D01*
X114179179Y-82609394D01*
X114310289Y-82521789D01*
X114421789Y-82410289D01*
X114509394Y-82279179D01*
X114569737Y-82133497D01*
X114600500Y-81978842D01*
X114600500Y-81821158D01*
X114600500Y-81821155D01*
X114600499Y-81821153D01*
X114584692Y-81741685D01*
X114569737Y-81666503D01*
X114556804Y-81635279D01*
X114509397Y-81520827D01*
X114509390Y-81520814D01*
X114421789Y-81389711D01*
X114421786Y-81389707D01*
X114310292Y-81278213D01*
X114310288Y-81278210D01*
X114179185Y-81190609D01*
X114179179Y-81190606D01*
X114161589Y-81183320D01*
X114107186Y-81139478D01*
X114085122Y-81073184D01*
X114087425Y-81044571D01*
X114099609Y-80983321D01*
X114100500Y-80978843D01*
X114100500Y-80821155D01*
X114084209Y-80739258D01*
X114084209Y-80739257D01*
X114080608Y-80721153D01*
X118799500Y-80721153D01*
X118799500Y-80878846D01*
X118830261Y-81033489D01*
X118830264Y-81033501D01*
X118890602Y-81179172D01*
X118890609Y-81179185D01*
X118978210Y-81310288D01*
X118978213Y-81310292D01*
X119089707Y-81421786D01*
X119089711Y-81421789D01*
X119220814Y-81509390D01*
X119220827Y-81509397D01*
X119366498Y-81569735D01*
X119366503Y-81569737D01*
X119498480Y-81595989D01*
X119521153Y-81600499D01*
X119521156Y-81600500D01*
X119521158Y-81600500D01*
X119678844Y-81600500D01*
X119678845Y-81600499D01*
X119833497Y-81569737D01*
X119951592Y-81520821D01*
X119979172Y-81509397D01*
X119979172Y-81509396D01*
X119979179Y-81509394D01*
X120110289Y-81421789D01*
X120221789Y-81310289D01*
X120239586Y-81283653D01*
X130662000Y-81283653D01*
X130662000Y-81441346D01*
X130692761Y-81595989D01*
X130692764Y-81596001D01*
X130753102Y-81741672D01*
X130753109Y-81741685D01*
X130840710Y-81872788D01*
X130840713Y-81872792D01*
X130952207Y-81984286D01*
X130952211Y-81984289D01*
X131083314Y-82071890D01*
X131083327Y-82071897D01*
X131228998Y-82132235D01*
X131229003Y-82132237D01*
X131383653Y-82162999D01*
X131383656Y-82163000D01*
X131383658Y-82163000D01*
X131541344Y-82163000D01*
X131541345Y-82162999D01*
X131695997Y-82132237D01*
X131841679Y-82071894D01*
X131972789Y-81984289D01*
X132084289Y-81872789D01*
X132171894Y-81741679D01*
X132232237Y-81595997D01*
X132263000Y-81441342D01*
X132263000Y-81283658D01*
X132263000Y-81283655D01*
X132262999Y-81283653D01*
X132261917Y-81278213D01*
X132232237Y-81129003D01*
X132211602Y-81079185D01*
X132171897Y-80983327D01*
X132171890Y-80983314D01*
X132084289Y-80852211D01*
X132084286Y-80852207D01*
X131972792Y-80740713D01*
X131972788Y-80740710D01*
X131939052Y-80718168D01*
X131841685Y-80653109D01*
X131841672Y-80653102D01*
X131764539Y-80621153D01*
X136399500Y-80621153D01*
X136399500Y-80778846D01*
X136430261Y-80933489D01*
X136430264Y-80933501D01*
X136490602Y-81079172D01*
X136490609Y-81079185D01*
X136578210Y-81210288D01*
X136578213Y-81210292D01*
X136689707Y-81321786D01*
X136689711Y-81321789D01*
X136820814Y-81409390D01*
X136820827Y-81409397D01*
X136972131Y-81472068D01*
X136971472Y-81473657D01*
X137023054Y-81507449D01*
X137051522Y-81571256D01*
X137043196Y-81635279D01*
X137030263Y-81666502D01*
X137030261Y-81666510D01*
X136999500Y-81821153D01*
X136999500Y-81978846D01*
X137030261Y-82133489D01*
X137030264Y-82133501D01*
X137090602Y-82279172D01*
X137090609Y-82279185D01*
X137178210Y-82410288D01*
X137178213Y-82410292D01*
X137230240Y-82462319D01*
X137263725Y-82523642D01*
X137258741Y-82593334D01*
X137230240Y-82637681D01*
X137178213Y-82689707D01*
X137178210Y-82689711D01*
X137090609Y-82820814D01*
X137090602Y-82820827D01*
X137030264Y-82966498D01*
X137030261Y-82966510D01*
X136999500Y-83121153D01*
X136999500Y-83278846D01*
X137030261Y-83433489D01*
X137030264Y-83433501D01*
X137090602Y-83579172D01*
X137090609Y-83579185D01*
X137178210Y-83710288D01*
X137178213Y-83710292D01*
X137289707Y-83821786D01*
X137289711Y-83821789D01*
X137420814Y-83909390D01*
X137420827Y-83909397D01*
X137494013Y-83939711D01*
X137566503Y-83969737D01*
X137721153Y-84000499D01*
X137721156Y-84000500D01*
X137721158Y-84000500D01*
X137878844Y-84000500D01*
X137878845Y-84000499D01*
X138033497Y-83969737D01*
X138179179Y-83909394D01*
X138310289Y-83821789D01*
X138421789Y-83710289D01*
X138509394Y-83579179D01*
X138569737Y-83433497D01*
X138600500Y-83278842D01*
X138600500Y-83121158D01*
X138600500Y-83121155D01*
X138600499Y-83121153D01*
X138569738Y-82966510D01*
X138569737Y-82966503D01*
X138569735Y-82966498D01*
X138509397Y-82820827D01*
X138509390Y-82820814D01*
X138421789Y-82689711D01*
X138421786Y-82689707D01*
X138369760Y-82637681D01*
X138336275Y-82576358D01*
X138341259Y-82506666D01*
X138369760Y-82462319D01*
X138421786Y-82410292D01*
X138421789Y-82410289D01*
X138509394Y-82279179D01*
X138569737Y-82133497D01*
X138600500Y-81978842D01*
X138600500Y-81821158D01*
X138600500Y-81821155D01*
X138600499Y-81821153D01*
X138584692Y-81741685D01*
X138569737Y-81666503D01*
X138556804Y-81635279D01*
X138509397Y-81520827D01*
X138509390Y-81520814D01*
X138421789Y-81389711D01*
X138421786Y-81389707D01*
X138310292Y-81278213D01*
X138310288Y-81278210D01*
X138179185Y-81190609D01*
X138179172Y-81190602D01*
X138027870Y-81127932D01*
X138028525Y-81126349D01*
X137976919Y-81092519D01*
X137948472Y-81028702D01*
X137956804Y-80964719D01*
X137969737Y-80933497D01*
X138000500Y-80778842D01*
X138000500Y-80621158D01*
X138000500Y-80621155D01*
X138000499Y-80621153D01*
X137980543Y-80520827D01*
X137969737Y-80466503D01*
X137937929Y-80389711D01*
X137909397Y-80320827D01*
X137909390Y-80320814D01*
X137821789Y-80189711D01*
X137821786Y-80189707D01*
X137710292Y-80078213D01*
X137710288Y-80078210D01*
X137579185Y-79990609D01*
X137579172Y-79990602D01*
X137433501Y-79930264D01*
X137433489Y-79930261D01*
X137278845Y-79899500D01*
X137278842Y-79899500D01*
X137121158Y-79899500D01*
X137121155Y-79899500D01*
X136966510Y-79930261D01*
X136966498Y-79930264D01*
X136820827Y-79990602D01*
X136820814Y-79990609D01*
X136689711Y-80078210D01*
X136689707Y-80078213D01*
X136578213Y-80189707D01*
X136578210Y-80189711D01*
X136490609Y-80320814D01*
X136490602Y-80320827D01*
X136430264Y-80466498D01*
X136430261Y-80466510D01*
X136399500Y-80621153D01*
X131764539Y-80621153D01*
X131696001Y-80592764D01*
X131695989Y-80592761D01*
X131541345Y-80562000D01*
X131541342Y-80562000D01*
X131383658Y-80562000D01*
X131383655Y-80562000D01*
X131229010Y-80592761D01*
X131228998Y-80592764D01*
X131083327Y-80653102D01*
X131083314Y-80653109D01*
X130952211Y-80740710D01*
X130952207Y-80740713D01*
X130840713Y-80852207D01*
X130840710Y-80852211D01*
X130753109Y-80983314D01*
X130753102Y-80983327D01*
X130692764Y-81128998D01*
X130692761Y-81129010D01*
X130662000Y-81283653D01*
X120239586Y-81283653D01*
X120257025Y-81257553D01*
X120289686Y-81208675D01*
X120309390Y-81179185D01*
X120309390Y-81179184D01*
X120309394Y-81179179D01*
X120369737Y-81033497D01*
X120400500Y-80878842D01*
X120400500Y-80721158D01*
X120400500Y-80721155D01*
X120400499Y-80721153D01*
X120386964Y-80653109D01*
X120369737Y-80566503D01*
X120328314Y-80466498D01*
X120309397Y-80420827D01*
X120309390Y-80420814D01*
X120221789Y-80289711D01*
X120221786Y-80289707D01*
X120110292Y-80178213D01*
X120110288Y-80178210D01*
X119979185Y-80090609D01*
X119979172Y-80090602D01*
X119833501Y-80030264D01*
X119833489Y-80030261D01*
X119678845Y-79999500D01*
X119678842Y-79999500D01*
X119521158Y-79999500D01*
X119521155Y-79999500D01*
X119366510Y-80030261D01*
X119366498Y-80030264D01*
X119220827Y-80090602D01*
X119220814Y-80090609D01*
X119089711Y-80178210D01*
X119089707Y-80178213D01*
X118978213Y-80289707D01*
X118978210Y-80289711D01*
X118890609Y-80420814D01*
X118890602Y-80420827D01*
X118830264Y-80566498D01*
X118830261Y-80566510D01*
X118799500Y-80721153D01*
X114080608Y-80721153D01*
X114069738Y-80666510D01*
X114069737Y-80666503D01*
X114050955Y-80621158D01*
X114009397Y-80520827D01*
X114009390Y-80520814D01*
X113921789Y-80389711D01*
X113921786Y-80389707D01*
X113810292Y-80278213D01*
X113810288Y-80278210D01*
X113679185Y-80190609D01*
X113679172Y-80190602D01*
X113533501Y-80130264D01*
X113533489Y-80130261D01*
X113378845Y-80099500D01*
X113378842Y-80099500D01*
X113221158Y-80099500D01*
X113221155Y-80099500D01*
X113066510Y-80130261D01*
X113066498Y-80130264D01*
X112920827Y-80190602D01*
X112920814Y-80190609D01*
X112789711Y-80278210D01*
X112789707Y-80278213D01*
X112678213Y-80389707D01*
X112678210Y-80389711D01*
X112590609Y-80520814D01*
X112590602Y-80520827D01*
X112530264Y-80666498D01*
X112530261Y-80666510D01*
X112499500Y-80821153D01*
X100500500Y-80821153D01*
X100500500Y-76721153D01*
X112599500Y-76721153D01*
X112599500Y-76878846D01*
X112630261Y-77033489D01*
X112630264Y-77033501D01*
X112690602Y-77179172D01*
X112690609Y-77179185D01*
X112778210Y-77310288D01*
X112778213Y-77310292D01*
X112880240Y-77412319D01*
X112913725Y-77473642D01*
X112908741Y-77543334D01*
X112881999Y-77584947D01*
X112882072Y-77585007D01*
X112881559Y-77585630D01*
X112880247Y-77587674D01*
X112878215Y-77589706D01*
X112878208Y-77589714D01*
X112790609Y-77720814D01*
X112790602Y-77720827D01*
X112730264Y-77866498D01*
X112730261Y-77866510D01*
X112699500Y-78021153D01*
X112699500Y-78178846D01*
X112730261Y-78333489D01*
X112730264Y-78333501D01*
X112790602Y-78479172D01*
X112790609Y-78479185D01*
X112878210Y-78610288D01*
X112878213Y-78610292D01*
X112989707Y-78721786D01*
X112989711Y-78721789D01*
X113120814Y-78809390D01*
X113120827Y-78809397D01*
X113266498Y-78869735D01*
X113266503Y-78869737D01*
X113421153Y-78900499D01*
X113421156Y-78900500D01*
X113421158Y-78900500D01*
X113578844Y-78900500D01*
X113578845Y-78900499D01*
X113733497Y-78869737D01*
X113879179Y-78809394D01*
X114010289Y-78721789D01*
X114121789Y-78610289D01*
X114209394Y-78479179D01*
X114269737Y-78333497D01*
X114300500Y-78178842D01*
X114300500Y-78021158D01*
X114300500Y-78021155D01*
X114300499Y-78021153D01*
X114269737Y-77866503D01*
X114228314Y-77766498D01*
X114209397Y-77720827D01*
X114209390Y-77720814D01*
X114121789Y-77589711D01*
X114121786Y-77589707D01*
X114019759Y-77487680D01*
X113986274Y-77426357D01*
X113991258Y-77356665D01*
X114018002Y-77315054D01*
X114017928Y-77314993D01*
X114018454Y-77314351D01*
X114019764Y-77312313D01*
X114021789Y-77310289D01*
X114109394Y-77179179D01*
X114169737Y-77033497D01*
X114200500Y-76878842D01*
X114200500Y-76721158D01*
X114200500Y-76721155D01*
X114200499Y-76721153D01*
X131799500Y-76721153D01*
X131799500Y-76878846D01*
X131830261Y-77033489D01*
X131830264Y-77033501D01*
X131890602Y-77179172D01*
X131890609Y-77179185D01*
X131978210Y-77310288D01*
X131978213Y-77310292D01*
X131980240Y-77312319D01*
X131980962Y-77313642D01*
X131982076Y-77314999D01*
X131981818Y-77315210D01*
X132013725Y-77373642D01*
X132008741Y-77443334D01*
X131982001Y-77484939D01*
X131982076Y-77485001D01*
X131981552Y-77485639D01*
X131980240Y-77487681D01*
X131978213Y-77489707D01*
X131978210Y-77489711D01*
X131890609Y-77620814D01*
X131890602Y-77620827D01*
X131830264Y-77766498D01*
X131830261Y-77766510D01*
X131799500Y-77921153D01*
X131799500Y-78078846D01*
X131830261Y-78233489D01*
X131830264Y-78233501D01*
X131890602Y-78379172D01*
X131890609Y-78379185D01*
X131978210Y-78510288D01*
X131978213Y-78510292D01*
X132089707Y-78621786D01*
X132089711Y-78621789D01*
X132220814Y-78709390D01*
X132220827Y-78709397D01*
X132366498Y-78769735D01*
X132366503Y-78769737D01*
X132521153Y-78800499D01*
X132521156Y-78800500D01*
X132521158Y-78800500D01*
X132678844Y-78800500D01*
X132678845Y-78800499D01*
X132833497Y-78769737D01*
X132979179Y-78709394D01*
X133110289Y-78621789D01*
X133221789Y-78510289D01*
X133309394Y-78379179D01*
X133369737Y-78233497D01*
X133400500Y-78078842D01*
X133400500Y-77921158D01*
X133400500Y-77921155D01*
X133400499Y-77921153D01*
X133369738Y-77766510D01*
X133369737Y-77766503D01*
X133350812Y-77720814D01*
X133309397Y-77620827D01*
X133309390Y-77620814D01*
X133221789Y-77489711D01*
X133219766Y-77487688D01*
X133219043Y-77486365D01*
X133217924Y-77485001D01*
X133218182Y-77484788D01*
X133186276Y-77426368D01*
X133191255Y-77356676D01*
X133217999Y-77315060D01*
X133217924Y-77314999D01*
X133218454Y-77314351D01*
X133219766Y-77312312D01*
X133219767Y-77312311D01*
X133221789Y-77310289D01*
X133309394Y-77179179D01*
X133369737Y-77033497D01*
X133400500Y-76878842D01*
X133400500Y-76721158D01*
X133400500Y-76721155D01*
X133400499Y-76721153D01*
X133369738Y-76566510D01*
X133369737Y-76566503D01*
X133369735Y-76566498D01*
X133309397Y-76420827D01*
X133309390Y-76420814D01*
X133221789Y-76289711D01*
X133221786Y-76289707D01*
X133110292Y-76178213D01*
X133110288Y-76178210D01*
X132979185Y-76090609D01*
X132979172Y-76090602D01*
X132833501Y-76030264D01*
X132833489Y-76030261D01*
X132678845Y-75999500D01*
X132678842Y-75999500D01*
X132521158Y-75999500D01*
X132521155Y-75999500D01*
X132366510Y-76030261D01*
X132366498Y-76030264D01*
X132220827Y-76090602D01*
X132220814Y-76090609D01*
X132089711Y-76178210D01*
X132089707Y-76178213D01*
X131978213Y-76289707D01*
X131978210Y-76289711D01*
X131890609Y-76420814D01*
X131890602Y-76420827D01*
X131830264Y-76566498D01*
X131830261Y-76566510D01*
X131799500Y-76721153D01*
X114200499Y-76721153D01*
X114169738Y-76566510D01*
X114169737Y-76566503D01*
X114169735Y-76566498D01*
X114109397Y-76420827D01*
X114109390Y-76420814D01*
X114021789Y-76289711D01*
X114021786Y-76289707D01*
X113910292Y-76178213D01*
X113910288Y-76178210D01*
X113779185Y-76090609D01*
X113779172Y-76090602D01*
X113633501Y-76030264D01*
X113633489Y-76030261D01*
X113478845Y-75999500D01*
X113478842Y-75999500D01*
X113321158Y-75999500D01*
X113321155Y-75999500D01*
X113166510Y-76030261D01*
X113166498Y-76030264D01*
X113020827Y-76090602D01*
X113020814Y-76090609D01*
X112889711Y-76178210D01*
X112889707Y-76178213D01*
X112778213Y-76289707D01*
X112778210Y-76289711D01*
X112690609Y-76420814D01*
X112690602Y-76420827D01*
X112630264Y-76566498D01*
X112630261Y-76566510D01*
X112599500Y-76721153D01*
X100500500Y-76721153D01*
X100500500Y-70921153D01*
X112199500Y-70921153D01*
X112199500Y-71078846D01*
X112230261Y-71233489D01*
X112230264Y-71233501D01*
X112290602Y-71379172D01*
X112290609Y-71379185D01*
X112378210Y-71510288D01*
X112378213Y-71510292D01*
X112489707Y-71621786D01*
X112489711Y-71621789D01*
X112620814Y-71709390D01*
X112620827Y-71709397D01*
X112766498Y-71769735D01*
X112766503Y-71769737D01*
X112921153Y-71800499D01*
X112921156Y-71800500D01*
X112921158Y-71800500D01*
X113078844Y-71800500D01*
X113078845Y-71800499D01*
X113233497Y-71769737D01*
X113379179Y-71709394D01*
X113510289Y-71621789D01*
X113621789Y-71510289D01*
X113629145Y-71499279D01*
X113646898Y-71472712D01*
X113700510Y-71427906D01*
X113769835Y-71419199D01*
X113832862Y-71449353D01*
X113853102Y-71472712D01*
X113878207Y-71510284D01*
X113878213Y-71510292D01*
X113989707Y-71621786D01*
X113989711Y-71621789D01*
X114120814Y-71709390D01*
X114120827Y-71709397D01*
X114266498Y-71769735D01*
X114266503Y-71769737D01*
X114421153Y-71800499D01*
X114421156Y-71800500D01*
X114421158Y-71800500D01*
X114578844Y-71800500D01*
X114578845Y-71800499D01*
X114733497Y-71769737D01*
X114879179Y-71709394D01*
X115010289Y-71621789D01*
X115121789Y-71510289D01*
X115209394Y-71379179D01*
X115269737Y-71233497D01*
X115300500Y-71078842D01*
X115300500Y-70921158D01*
X115300500Y-70921155D01*
X115300499Y-70921153D01*
X115269738Y-70766510D01*
X115269737Y-70766503D01*
X115250000Y-70718853D01*
X115209397Y-70620827D01*
X115209390Y-70620814D01*
X115121789Y-70489711D01*
X115121786Y-70489707D01*
X115010292Y-70378213D01*
X115010288Y-70378210D01*
X114879185Y-70290609D01*
X114879172Y-70290602D01*
X114733501Y-70230264D01*
X114733489Y-70230261D01*
X114578845Y-70199500D01*
X114578842Y-70199500D01*
X114421158Y-70199500D01*
X114421155Y-70199500D01*
X114266510Y-70230261D01*
X114266498Y-70230264D01*
X114120827Y-70290602D01*
X114120814Y-70290609D01*
X113989711Y-70378210D01*
X113989707Y-70378213D01*
X113878213Y-70489707D01*
X113853102Y-70527289D01*
X113799489Y-70572093D01*
X113730164Y-70580800D01*
X113667137Y-70550645D01*
X113646898Y-70527289D01*
X113621786Y-70489707D01*
X113510292Y-70378213D01*
X113510288Y-70378210D01*
X113379185Y-70290609D01*
X113379172Y-70290602D01*
X113233501Y-70230264D01*
X113233489Y-70230261D01*
X113078845Y-70199500D01*
X113078842Y-70199500D01*
X112921158Y-70199500D01*
X112921155Y-70199500D01*
X112766510Y-70230261D01*
X112766498Y-70230264D01*
X112620827Y-70290602D01*
X112620814Y-70290609D01*
X112489711Y-70378210D01*
X112489707Y-70378213D01*
X112378213Y-70489707D01*
X112378210Y-70489711D01*
X112290609Y-70620814D01*
X112290602Y-70620827D01*
X112230264Y-70766498D01*
X112230261Y-70766510D01*
X112199500Y-70921153D01*
X100500500Y-70921153D01*
X100500500Y-68508653D01*
X103887000Y-68508653D01*
X103887000Y-68666346D01*
X103917761Y-68820989D01*
X103917764Y-68821001D01*
X103978102Y-68966672D01*
X103978109Y-68966685D01*
X104065710Y-69097788D01*
X104065713Y-69097792D01*
X104177207Y-69209286D01*
X104177211Y-69209289D01*
X104308314Y-69296890D01*
X104308327Y-69296897D01*
X104453998Y-69357235D01*
X104454003Y-69357237D01*
X104608653Y-69387999D01*
X104608656Y-69388000D01*
X104608658Y-69388000D01*
X104766344Y-69388000D01*
X104766345Y-69387999D01*
X104920997Y-69357237D01*
X105066679Y-69296894D01*
X105197789Y-69209289D01*
X105309289Y-69097789D01*
X105396894Y-68966679D01*
X105457237Y-68820997D01*
X105488000Y-68666342D01*
X105488000Y-68508658D01*
X105488000Y-68508655D01*
X105466239Y-68399258D01*
X105466239Y-68399257D01*
X105462638Y-68381153D01*
X112199500Y-68381153D01*
X112199500Y-68538846D01*
X112230261Y-68693489D01*
X112230264Y-68693501D01*
X112290602Y-68839172D01*
X112290609Y-68839185D01*
X112378210Y-68970288D01*
X112378213Y-68970292D01*
X112489707Y-69081786D01*
X112489711Y-69081789D01*
X112620814Y-69169390D01*
X112620827Y-69169397D01*
X112766498Y-69229735D01*
X112766503Y-69229737D01*
X112921153Y-69260499D01*
X112921156Y-69260500D01*
X112921158Y-69260500D01*
X113078844Y-69260500D01*
X113078845Y-69260499D01*
X113233497Y-69229737D01*
X113379179Y-69169394D01*
X113510289Y-69081789D01*
X113621789Y-68970289D01*
X113709394Y-68839179D01*
X113709395Y-68839176D01*
X113709397Y-68839173D01*
X113716861Y-68821153D01*
X118199500Y-68821153D01*
X118199500Y-68978846D01*
X118230261Y-69133489D01*
X118230264Y-69133501D01*
X118290602Y-69279172D01*
X118290609Y-69279185D01*
X118378210Y-69410288D01*
X118378213Y-69410292D01*
X118489707Y-69521786D01*
X118489711Y-69521789D01*
X118620814Y-69609390D01*
X118620827Y-69609397D01*
X118766498Y-69669735D01*
X118766503Y-69669737D01*
X118921153Y-69700499D01*
X118921156Y-69700500D01*
X118921158Y-69700500D01*
X119078844Y-69700500D01*
X119078845Y-69700499D01*
X119233497Y-69669737D01*
X119379179Y-69609394D01*
X119510289Y-69521789D01*
X119621789Y-69410289D01*
X119709394Y-69279179D01*
X119769737Y-69133497D01*
X119800500Y-68978842D01*
X119800500Y-68821158D01*
X119800500Y-68821155D01*
X119800499Y-68821153D01*
X119778269Y-68709397D01*
X119769737Y-68666503D01*
X119734833Y-68582237D01*
X119709397Y-68520827D01*
X119709390Y-68520814D01*
X119621789Y-68389711D01*
X119621786Y-68389707D01*
X119510292Y-68278213D01*
X119510288Y-68278210D01*
X119379185Y-68190609D01*
X119379172Y-68190602D01*
X119233501Y-68130264D01*
X119233489Y-68130261D01*
X119078845Y-68099500D01*
X119078842Y-68099500D01*
X118921158Y-68099500D01*
X118921155Y-68099500D01*
X118766510Y-68130261D01*
X118766498Y-68130264D01*
X118620827Y-68190602D01*
X118620814Y-68190609D01*
X118489711Y-68278210D01*
X118489707Y-68278213D01*
X118378213Y-68389707D01*
X118378210Y-68389711D01*
X118290609Y-68520814D01*
X118290602Y-68520827D01*
X118230264Y-68666498D01*
X118230261Y-68666510D01*
X118199500Y-68821153D01*
X113716861Y-68821153D01*
X113739037Y-68767614D01*
X113739037Y-68767613D01*
X113769737Y-68693497D01*
X113800500Y-68538842D01*
X113800500Y-68381158D01*
X113800500Y-68381155D01*
X113800499Y-68381153D01*
X113795098Y-68354003D01*
X113769737Y-68226503D01*
X113755310Y-68191672D01*
X113709397Y-68080827D01*
X113709390Y-68080814D01*
X113621789Y-67949711D01*
X113621786Y-67949707D01*
X113510292Y-67838213D01*
X113510286Y-67838208D01*
X113499000Y-67830667D01*
X113379185Y-67750609D01*
X113379172Y-67750602D01*
X113338253Y-67733653D01*
X114612000Y-67733653D01*
X114612000Y-67891346D01*
X114642761Y-68045989D01*
X114642764Y-68046001D01*
X114703102Y-68191672D01*
X114703109Y-68191685D01*
X114790710Y-68322788D01*
X114790713Y-68322792D01*
X114902207Y-68434286D01*
X114902211Y-68434289D01*
X115033314Y-68521890D01*
X115033327Y-68521897D01*
X115178998Y-68582235D01*
X115179003Y-68582237D01*
X115333653Y-68612999D01*
X115333656Y-68613000D01*
X115333658Y-68613000D01*
X115491344Y-68613000D01*
X115491345Y-68612999D01*
X115645997Y-68582237D01*
X115791679Y-68521894D01*
X115922789Y-68434289D01*
X116034289Y-68322789D01*
X116121894Y-68191679D01*
X116122339Y-68190606D01*
X116147334Y-68130261D01*
X116182237Y-68045997D01*
X116207070Y-67921153D01*
X141224500Y-67921153D01*
X141224500Y-68078846D01*
X141255261Y-68233489D01*
X141255264Y-68233501D01*
X141315602Y-68379172D01*
X141315609Y-68379185D01*
X141403210Y-68510288D01*
X141403213Y-68510292D01*
X141514707Y-68621786D01*
X141514711Y-68621789D01*
X141645814Y-68709390D01*
X141645827Y-68709397D01*
X141791498Y-68769735D01*
X141791503Y-68769737D01*
X141946153Y-68800499D01*
X141946156Y-68800500D01*
X141946158Y-68800500D01*
X142103844Y-68800500D01*
X142103845Y-68800499D01*
X142258497Y-68769737D01*
X142404179Y-68709394D01*
X142535289Y-68621789D01*
X142646789Y-68510289D01*
X142734394Y-68379179D01*
X142794737Y-68233497D01*
X142825500Y-68078842D01*
X142825500Y-67921158D01*
X142825500Y-67921155D01*
X142825499Y-67921153D01*
X142816936Y-67878106D01*
X142794737Y-67766503D01*
X142763157Y-67690261D01*
X142734397Y-67620827D01*
X142734390Y-67620814D01*
X142646789Y-67489711D01*
X142646786Y-67489707D01*
X142535292Y-67378213D01*
X142535288Y-67378210D01*
X142404185Y-67290609D01*
X142404172Y-67290602D01*
X142258501Y-67230264D01*
X142258489Y-67230261D01*
X142103845Y-67199500D01*
X142103842Y-67199500D01*
X141946158Y-67199500D01*
X141946155Y-67199500D01*
X141791510Y-67230261D01*
X141791498Y-67230264D01*
X141645827Y-67290602D01*
X141645814Y-67290609D01*
X141514711Y-67378210D01*
X141514707Y-67378213D01*
X141403213Y-67489707D01*
X141403210Y-67489711D01*
X141315609Y-67620814D01*
X141315602Y-67620827D01*
X141255264Y-67766498D01*
X141255261Y-67766510D01*
X141224500Y-67921153D01*
X116207070Y-67921153D01*
X116213000Y-67891342D01*
X116213000Y-67733658D01*
X116213000Y-67733655D01*
X116212999Y-67733653D01*
X116190555Y-67620821D01*
X116182237Y-67579003D01*
X116178398Y-67569735D01*
X116121897Y-67433327D01*
X116121890Y-67433314D01*
X116034289Y-67302211D01*
X116034286Y-67302207D01*
X115922792Y-67190713D01*
X115922788Y-67190710D01*
X115791685Y-67103109D01*
X115791672Y-67103102D01*
X115646001Y-67042764D01*
X115645989Y-67042761D01*
X115491345Y-67012000D01*
X115491342Y-67012000D01*
X115333658Y-67012000D01*
X115333655Y-67012000D01*
X115179010Y-67042761D01*
X115178998Y-67042764D01*
X115033327Y-67103102D01*
X115033314Y-67103109D01*
X114902211Y-67190710D01*
X114902207Y-67190713D01*
X114790713Y-67302207D01*
X114790710Y-67302211D01*
X114703109Y-67433314D01*
X114703102Y-67433327D01*
X114642764Y-67578998D01*
X114642761Y-67579010D01*
X114612000Y-67733653D01*
X113338253Y-67733653D01*
X113233501Y-67690264D01*
X113233489Y-67690261D01*
X113078845Y-67659500D01*
X113078842Y-67659500D01*
X112921158Y-67659500D01*
X112921155Y-67659500D01*
X112766510Y-67690261D01*
X112766498Y-67690264D01*
X112620827Y-67750602D01*
X112620814Y-67750609D01*
X112489711Y-67838210D01*
X112489707Y-67838213D01*
X112378213Y-67949707D01*
X112378210Y-67949711D01*
X112290609Y-68080814D01*
X112290602Y-68080827D01*
X112230264Y-68226498D01*
X112230261Y-68226510D01*
X112199500Y-68381153D01*
X105462638Y-68381153D01*
X105457238Y-68354010D01*
X105457237Y-68354003D01*
X105444308Y-68322789D01*
X105396897Y-68208327D01*
X105396890Y-68208314D01*
X105309289Y-68077211D01*
X105309286Y-68077207D01*
X105197792Y-67965713D01*
X105197788Y-67965710D01*
X105066685Y-67878109D01*
X105066672Y-67878102D01*
X104921001Y-67817764D01*
X104920989Y-67817761D01*
X104766345Y-67787000D01*
X104766342Y-67787000D01*
X104608658Y-67787000D01*
X104608655Y-67787000D01*
X104454010Y-67817761D01*
X104453998Y-67817764D01*
X104308327Y-67878102D01*
X104308314Y-67878109D01*
X104177211Y-67965710D01*
X104177207Y-67965713D01*
X104065713Y-68077207D01*
X104065710Y-68077211D01*
X103978109Y-68208314D01*
X103978102Y-68208327D01*
X103917764Y-68353998D01*
X103917761Y-68354010D01*
X103887000Y-68508653D01*
X100500500Y-68508653D01*
X100500500Y-66721153D01*
X139699500Y-66721153D01*
X139699500Y-66878846D01*
X139730261Y-67033489D01*
X139730264Y-67033501D01*
X139790602Y-67179172D01*
X139790609Y-67179185D01*
X139878210Y-67310288D01*
X139878213Y-67310292D01*
X139989707Y-67421786D01*
X139989711Y-67421789D01*
X140120814Y-67509390D01*
X140120827Y-67509397D01*
X140266498Y-67569735D01*
X140266503Y-67569737D01*
X140421153Y-67600499D01*
X140421156Y-67600500D01*
X140421158Y-67600500D01*
X140578844Y-67600500D01*
X140578845Y-67600499D01*
X140733497Y-67569737D01*
X140879179Y-67509394D01*
X141010289Y-67421789D01*
X141121789Y-67310289D01*
X141209394Y-67179179D01*
X141269737Y-67033497D01*
X141300500Y-66878842D01*
X141300500Y-66721158D01*
X141300500Y-66721155D01*
X141300499Y-66721153D01*
X141269738Y-66566510D01*
X141269737Y-66566503D01*
X141269735Y-66566498D01*
X141209397Y-66420827D01*
X141206521Y-66415446D01*
X141207984Y-66414663D01*
X141189493Y-66355602D01*
X141207979Y-66288222D01*
X141259959Y-66241533D01*
X141328929Y-66230358D01*
X141382364Y-66250289D01*
X141470814Y-66309390D01*
X141470827Y-66309397D01*
X141616498Y-66369735D01*
X141616503Y-66369737D01*
X141771153Y-66400499D01*
X141771156Y-66400500D01*
X141771158Y-66400500D01*
X141928844Y-66400500D01*
X141928845Y-66400499D01*
X142083497Y-66369737D01*
X142229179Y-66309394D01*
X142360289Y-66221789D01*
X142471789Y-66110289D01*
X142559394Y-65979179D01*
X142619737Y-65833497D01*
X142650500Y-65678842D01*
X142650500Y-65521158D01*
X142650500Y-65521155D01*
X142650499Y-65521153D01*
X142622192Y-65378846D01*
X142619737Y-65366503D01*
X142559534Y-65221158D01*
X142559397Y-65220827D01*
X142559390Y-65220814D01*
X142471789Y-65089711D01*
X142471786Y-65089707D01*
X142360292Y-64978213D01*
X142360288Y-64978210D01*
X142229185Y-64890609D01*
X142229172Y-64890602D01*
X142083501Y-64830264D01*
X142083489Y-64830261D01*
X141928845Y-64799500D01*
X141928842Y-64799500D01*
X141771158Y-64799500D01*
X141771155Y-64799500D01*
X141616510Y-64830261D01*
X141616498Y-64830264D01*
X141470827Y-64890602D01*
X141470814Y-64890609D01*
X141339711Y-64978210D01*
X141339707Y-64978213D01*
X141228213Y-65089707D01*
X141228210Y-65089711D01*
X141140609Y-65220814D01*
X141140602Y-65220827D01*
X141080264Y-65366498D01*
X141080261Y-65366510D01*
X141049500Y-65521153D01*
X141049500Y-65678846D01*
X141080261Y-65833489D01*
X141080264Y-65833501D01*
X141140602Y-65979172D01*
X141143479Y-65984554D01*
X141142016Y-65985335D01*
X141160506Y-66044405D01*
X141142016Y-66111784D01*
X141090033Y-66158470D01*
X141021062Y-66169640D01*
X140967635Y-66149710D01*
X140879185Y-66090609D01*
X140879172Y-66090602D01*
X140733501Y-66030264D01*
X140733489Y-66030261D01*
X140578845Y-65999500D01*
X140578842Y-65999500D01*
X140421158Y-65999500D01*
X140421155Y-65999500D01*
X140266510Y-66030261D01*
X140266498Y-66030264D01*
X140120827Y-66090602D01*
X140120814Y-66090609D01*
X139989711Y-66178210D01*
X139989707Y-66178213D01*
X139878213Y-66289707D01*
X139878210Y-66289711D01*
X139790609Y-66420814D01*
X139790602Y-66420827D01*
X139730264Y-66566498D01*
X139730261Y-66566510D01*
X139699500Y-66721153D01*
X100500500Y-66721153D01*
X100500500Y-65221153D01*
X138349501Y-65221153D01*
X138349501Y-65378846D01*
X138380262Y-65533489D01*
X138380265Y-65533501D01*
X138440603Y-65679172D01*
X138440610Y-65679185D01*
X138528211Y-65810288D01*
X138528214Y-65810292D01*
X138639708Y-65921786D01*
X138639712Y-65921789D01*
X138770815Y-66009390D01*
X138770828Y-66009397D01*
X138916499Y-66069735D01*
X138916504Y-66069737D01*
X139071154Y-66100499D01*
X139071157Y-66100500D01*
X139071159Y-66100500D01*
X139228845Y-66100500D01*
X139228846Y-66100499D01*
X139383498Y-66069737D01*
X139529180Y-66009394D01*
X139660290Y-65921789D01*
X139771790Y-65810289D01*
X139859395Y-65679179D01*
X139919738Y-65533497D01*
X139950501Y-65378842D01*
X139950501Y-65221158D01*
X139950501Y-65221155D01*
X139950500Y-65221153D01*
X139924354Y-65089711D01*
X139919738Y-65066503D01*
X139919736Y-65066498D01*
X139859398Y-64920827D01*
X139859391Y-64920814D01*
X139771790Y-64789711D01*
X139771787Y-64789707D01*
X139660293Y-64678213D01*
X139660289Y-64678210D01*
X139529186Y-64590609D01*
X139529173Y-64590602D01*
X139383502Y-64530264D01*
X139383490Y-64530261D01*
X139228846Y-64499500D01*
X139228843Y-64499500D01*
X139071159Y-64499500D01*
X139071156Y-64499500D01*
X138916511Y-64530261D01*
X138916499Y-64530264D01*
X138770828Y-64590602D01*
X138770815Y-64590609D01*
X138639712Y-64678210D01*
X138639708Y-64678213D01*
X138528214Y-64789707D01*
X138528211Y-64789711D01*
X138440610Y-64920814D01*
X138440603Y-64920827D01*
X138380265Y-65066498D01*
X138380262Y-65066510D01*
X138349501Y-65221153D01*
X100500500Y-65221153D01*
X100500500Y-62069999D01*
X101846115Y-62069999D01*
X101846116Y-62070000D01*
X102648012Y-62070000D01*
X102630795Y-62079940D01*
X102574940Y-62135795D01*
X102535444Y-62204204D01*
X102515000Y-62280504D01*
X102515000Y-62359496D01*
X102535444Y-62435796D01*
X102574940Y-62504205D01*
X102630795Y-62560060D01*
X102648012Y-62570000D01*
X101846116Y-62570000D01*
X101851506Y-62597100D01*
X101851507Y-62597103D01*
X101923119Y-62769991D01*
X101923124Y-62770000D01*
X102027086Y-62925589D01*
X102027089Y-62925593D01*
X102159406Y-63057910D01*
X102159410Y-63057913D01*
X102314999Y-63161875D01*
X102315008Y-63161880D01*
X102487894Y-63233491D01*
X102487902Y-63233493D01*
X102671428Y-63269999D01*
X102671431Y-63270000D01*
X102965000Y-63270000D01*
X102965000Y-62620000D01*
X103465000Y-62620000D01*
X103465000Y-63270000D01*
X103758569Y-63270000D01*
X103758571Y-63269999D01*
X103942097Y-63233493D01*
X103942105Y-63233491D01*
X104114991Y-63161880D01*
X104115000Y-63161875D01*
X104270589Y-63057913D01*
X104270593Y-63057910D01*
X104402910Y-62925593D01*
X104402913Y-62925589D01*
X104506875Y-62770000D01*
X104506880Y-62769991D01*
X104578492Y-62597103D01*
X104578493Y-62597100D01*
X104583884Y-62570000D01*
X103781988Y-62570000D01*
X103799205Y-62560060D01*
X103855060Y-62504205D01*
X103894556Y-62435796D01*
X103915000Y-62359496D01*
X103915000Y-62280504D01*
X103894556Y-62204204D01*
X103855060Y-62135795D01*
X103799205Y-62079940D01*
X103781988Y-62070000D01*
X104583884Y-62070000D01*
X104583884Y-62069999D01*
X104578493Y-62042899D01*
X104578492Y-62042896D01*
X104506880Y-61870008D01*
X104506875Y-61869999D01*
X104402913Y-61714410D01*
X104402910Y-61714406D01*
X104270593Y-61582089D01*
X104270589Y-61582086D01*
X104115000Y-61478124D01*
X104114991Y-61478119D01*
X103942105Y-61406508D01*
X103942097Y-61406506D01*
X103758570Y-61370000D01*
X103465000Y-61370000D01*
X103465000Y-62020000D01*
X102965000Y-62020000D01*
X102965000Y-61370000D01*
X102671430Y-61370000D01*
X102487902Y-61406506D01*
X102487894Y-61406508D01*
X102315008Y-61478119D01*
X102314999Y-61478124D01*
X102159410Y-61582086D01*
X102159406Y-61582089D01*
X102027089Y-61714406D01*
X102027086Y-61714410D01*
X101923124Y-61869999D01*
X101923119Y-61870008D01*
X101851507Y-62042896D01*
X101851506Y-62042899D01*
X101846115Y-62069999D01*
X100500500Y-62069999D01*
X100500500Y-55921153D01*
X104999500Y-55921153D01*
X104999500Y-56078846D01*
X105030261Y-56233489D01*
X105030264Y-56233501D01*
X105090602Y-56379172D01*
X105090609Y-56379185D01*
X105178210Y-56510288D01*
X105178213Y-56510292D01*
X105289707Y-56621786D01*
X105289711Y-56621789D01*
X105420814Y-56709390D01*
X105420827Y-56709397D01*
X105566498Y-56769735D01*
X105566503Y-56769737D01*
X105628030Y-56781975D01*
X105707818Y-56797847D01*
X105769729Y-56830232D01*
X105804303Y-56890948D01*
X105805244Y-56943655D01*
X105799973Y-56970153D01*
X105799973Y-57127846D01*
X105830734Y-57282489D01*
X105830737Y-57282501D01*
X105891075Y-57428172D01*
X105891082Y-57428185D01*
X105978683Y-57559288D01*
X105978686Y-57559292D01*
X106008681Y-57589287D01*
X106042166Y-57650610D01*
X106037182Y-57720302D01*
X106024102Y-57745859D01*
X105940609Y-57870814D01*
X105940602Y-57870827D01*
X105880264Y-58016498D01*
X105880261Y-58016510D01*
X105849500Y-58171153D01*
X105849500Y-58328846D01*
X105880261Y-58483489D01*
X105880264Y-58483501D01*
X105940602Y-58629172D01*
X105940609Y-58629185D01*
X106028210Y-58760288D01*
X106028213Y-58760292D01*
X106033262Y-58765341D01*
X106066747Y-58826664D01*
X106061763Y-58896356D01*
X106019891Y-58952289D01*
X105969774Y-58974639D01*
X105941507Y-58980261D01*
X105941498Y-58980264D01*
X105795827Y-59040602D01*
X105795814Y-59040609D01*
X105664711Y-59128210D01*
X105664707Y-59128213D01*
X105553213Y-59239707D01*
X105553210Y-59239711D01*
X105465609Y-59370814D01*
X105465602Y-59370827D01*
X105405264Y-59516498D01*
X105405261Y-59516510D01*
X105374500Y-59671153D01*
X105374500Y-59828846D01*
X105405261Y-59983489D01*
X105405264Y-59983501D01*
X105465602Y-60129172D01*
X105465609Y-60129185D01*
X105553210Y-60260288D01*
X105553213Y-60260292D01*
X105664707Y-60371786D01*
X105664711Y-60371789D01*
X105795814Y-60459390D01*
X105795827Y-60459397D01*
X105868291Y-60489412D01*
X105941503Y-60519737D01*
X106096153Y-60550499D01*
X106096156Y-60550500D01*
X106228567Y-60550500D01*
X106295606Y-60570185D01*
X106341361Y-60622989D01*
X106351305Y-60692147D01*
X106348342Y-60706592D01*
X106319500Y-60814234D01*
X106319500Y-60965766D01*
X106357985Y-61109397D01*
X106358720Y-61112137D01*
X106358720Y-61112138D01*
X106432878Y-61240583D01*
X106449351Y-61308483D01*
X106426498Y-61374510D01*
X106389017Y-61407481D01*
X106389545Y-61408271D01*
X106216600Y-61523829D01*
X106216596Y-61523832D01*
X106073832Y-61666596D01*
X106073829Y-61666600D01*
X105961659Y-61834473D01*
X105961652Y-61834486D01*
X105884390Y-62021016D01*
X105884387Y-62021025D01*
X105874647Y-62070000D01*
X106678012Y-62070000D01*
X106660795Y-62079940D01*
X106604940Y-62135795D01*
X106565444Y-62204204D01*
X106545000Y-62280504D01*
X106545000Y-62359496D01*
X106565444Y-62435796D01*
X106604940Y-62504205D01*
X106660795Y-62560060D01*
X106678012Y-62570000D01*
X105874647Y-62570000D01*
X105884387Y-62618974D01*
X105884390Y-62618983D01*
X105961652Y-62805513D01*
X105961659Y-62805526D01*
X106073829Y-62973399D01*
X106073832Y-62973403D01*
X106216596Y-63116167D01*
X106216600Y-63116170D01*
X106384473Y-63228340D01*
X106384486Y-63228347D01*
X106571016Y-63305609D01*
X106571025Y-63305612D01*
X106769041Y-63344999D01*
X106769045Y-63345000D01*
X107145000Y-63345000D01*
X107145000Y-62620000D01*
X107645000Y-62620000D01*
X107645000Y-63345000D01*
X108020955Y-63345000D01*
X108020958Y-63344999D01*
X108218974Y-63305612D01*
X108218983Y-63305609D01*
X108405513Y-63228347D01*
X108405526Y-63228340D01*
X108573399Y-63116170D01*
X108573403Y-63116167D01*
X108716167Y-62973403D01*
X108716170Y-62973399D01*
X108828340Y-62805526D01*
X108828347Y-62805513D01*
X108905609Y-62618983D01*
X108905612Y-62618974D01*
X108915353Y-62570000D01*
X108111988Y-62570000D01*
X108129205Y-62560060D01*
X108185060Y-62504205D01*
X108224556Y-62435796D01*
X108245000Y-62359496D01*
X108245000Y-62280504D01*
X108224556Y-62204204D01*
X108185060Y-62135795D01*
X108129205Y-62079940D01*
X108111988Y-62070000D01*
X108915353Y-62070000D01*
X108905612Y-62021025D01*
X108905609Y-62021016D01*
X108881703Y-61963301D01*
X108864569Y-61921936D01*
X125404164Y-61921936D01*
X125404164Y-62079629D01*
X125434925Y-62234272D01*
X125434928Y-62234284D01*
X125495266Y-62379955D01*
X125495273Y-62379968D01*
X125582874Y-62511071D01*
X125582877Y-62511075D01*
X125694371Y-62622569D01*
X125694375Y-62622572D01*
X125825478Y-62710173D01*
X125825491Y-62710180D01*
X125971162Y-62770518D01*
X125971167Y-62770520D01*
X126125817Y-62801282D01*
X126125820Y-62801283D01*
X126125822Y-62801283D01*
X126283508Y-62801283D01*
X126283509Y-62801282D01*
X126438161Y-62770520D01*
X126583843Y-62710177D01*
X126714953Y-62622572D01*
X126826453Y-62511072D01*
X126914058Y-62379962D01*
X126974401Y-62234280D01*
X127005164Y-62079625D01*
X127005164Y-61921941D01*
X127005164Y-61921938D01*
X127005163Y-61921936D01*
X126988718Y-61839257D01*
X126985117Y-61821153D01*
X131199500Y-61821153D01*
X131199500Y-61978846D01*
X131230261Y-62133489D01*
X131230264Y-62133501D01*
X131290602Y-62279172D01*
X131290609Y-62279185D01*
X131378210Y-62410288D01*
X131378213Y-62410292D01*
X131489707Y-62521786D01*
X131489711Y-62521789D01*
X131620814Y-62609390D01*
X131620827Y-62609397D01*
X131766498Y-62669735D01*
X131766503Y-62669737D01*
X131921153Y-62700499D01*
X131921156Y-62700500D01*
X131921158Y-62700500D01*
X132078844Y-62700500D01*
X132078845Y-62700499D01*
X132233497Y-62669737D01*
X132347364Y-62622572D01*
X132379172Y-62609397D01*
X132379172Y-62609396D01*
X132379179Y-62609394D01*
X132510289Y-62521789D01*
X132621789Y-62410289D01*
X132709394Y-62279179D01*
X132769737Y-62133497D01*
X132800500Y-61978842D01*
X132800500Y-61821158D01*
X132800500Y-61821155D01*
X132784209Y-61739258D01*
X132784209Y-61739257D01*
X132780608Y-61721153D01*
X147799500Y-61721153D01*
X147799500Y-61878846D01*
X147830261Y-62033489D01*
X147830264Y-62033501D01*
X147890602Y-62179172D01*
X147890609Y-62179185D01*
X147978210Y-62310288D01*
X147978213Y-62310292D01*
X148089707Y-62421786D01*
X148089711Y-62421789D01*
X148220814Y-62509390D01*
X148220827Y-62509397D01*
X148343140Y-62560060D01*
X148366503Y-62569737D01*
X148504065Y-62597100D01*
X148521153Y-62600499D01*
X148521156Y-62600500D01*
X148521158Y-62600500D01*
X148678844Y-62600500D01*
X148678845Y-62600499D01*
X148833497Y-62569737D01*
X148975128Y-62511072D01*
X148979172Y-62509397D01*
X148979172Y-62509396D01*
X148979179Y-62509394D01*
X149110289Y-62421789D01*
X149221789Y-62310289D01*
X149309394Y-62179179D01*
X149369737Y-62033497D01*
X149400500Y-61878842D01*
X149400500Y-61721158D01*
X149400500Y-61721155D01*
X149400499Y-61721153D01*
X149389627Y-61666498D01*
X149369737Y-61566503D01*
X149350812Y-61520814D01*
X149309397Y-61420827D01*
X149309390Y-61420814D01*
X149221789Y-61289711D01*
X149221786Y-61289707D01*
X149110292Y-61178213D01*
X149110288Y-61178210D01*
X148979185Y-61090609D01*
X148979172Y-61090602D01*
X148833501Y-61030264D01*
X148833489Y-61030261D01*
X148678845Y-60999500D01*
X148678842Y-60999500D01*
X148521158Y-60999500D01*
X148521155Y-60999500D01*
X148366510Y-61030261D01*
X148366498Y-61030264D01*
X148220827Y-61090602D01*
X148220814Y-61090609D01*
X148089711Y-61178210D01*
X148089707Y-61178213D01*
X147978213Y-61289707D01*
X147978210Y-61289711D01*
X147890609Y-61420814D01*
X147890602Y-61420827D01*
X147830264Y-61566498D01*
X147830261Y-61566510D01*
X147799500Y-61721153D01*
X132780608Y-61721153D01*
X132769738Y-61666510D01*
X132769737Y-61666503D01*
X132751142Y-61621610D01*
X132709397Y-61520827D01*
X132709390Y-61520814D01*
X132621789Y-61389711D01*
X132621786Y-61389707D01*
X132510292Y-61278213D01*
X132510288Y-61278210D01*
X132379185Y-61190609D01*
X132379172Y-61190602D01*
X132233501Y-61130264D01*
X132233489Y-61130261D01*
X132078845Y-61099500D01*
X132078842Y-61099500D01*
X131921158Y-61099500D01*
X131921155Y-61099500D01*
X131766510Y-61130261D01*
X131766498Y-61130264D01*
X131620827Y-61190602D01*
X131620814Y-61190609D01*
X131489711Y-61278210D01*
X131489707Y-61278213D01*
X131378213Y-61389707D01*
X131378210Y-61389711D01*
X131290609Y-61520814D01*
X131290602Y-61520827D01*
X131230264Y-61666498D01*
X131230261Y-61666510D01*
X131199500Y-61821153D01*
X126985117Y-61821153D01*
X126974402Y-61767291D01*
X126974401Y-61767290D01*
X126974401Y-61767286D01*
X126962791Y-61739257D01*
X126914061Y-61621610D01*
X126914054Y-61621597D01*
X126826453Y-61490494D01*
X126826450Y-61490490D01*
X126714956Y-61378996D01*
X126714952Y-61378993D01*
X126583849Y-61291392D01*
X126583836Y-61291385D01*
X126438165Y-61231047D01*
X126438153Y-61231044D01*
X126283509Y-61200283D01*
X126283506Y-61200283D01*
X126125822Y-61200283D01*
X126125819Y-61200283D01*
X125971174Y-61231044D01*
X125971162Y-61231047D01*
X125825491Y-61291385D01*
X125825478Y-61291392D01*
X125694375Y-61378993D01*
X125694371Y-61378996D01*
X125582877Y-61490490D01*
X125582874Y-61490494D01*
X125495273Y-61621597D01*
X125495266Y-61621610D01*
X125434928Y-61767281D01*
X125434925Y-61767293D01*
X125404164Y-61921936D01*
X108864569Y-61921936D01*
X108828347Y-61834486D01*
X108828340Y-61834473D01*
X108716170Y-61666600D01*
X108716167Y-61666596D01*
X108573403Y-61523832D01*
X108573399Y-61523829D01*
X108405526Y-61411659D01*
X108405513Y-61411652D01*
X108218983Y-61334390D01*
X108218974Y-61334387D01*
X108020958Y-61295000D01*
X107540479Y-61295000D01*
X107473440Y-61275315D01*
X107427685Y-61222511D01*
X107417741Y-61153353D01*
X107429249Y-61120096D01*
X107428169Y-61119649D01*
X107431279Y-61112138D01*
X107431281Y-61112135D01*
X107470500Y-60965766D01*
X107470500Y-60814234D01*
X107431281Y-60667865D01*
X107355515Y-60536635D01*
X107248365Y-60429485D01*
X107144879Y-60369737D01*
X107117136Y-60353719D01*
X107053038Y-60336544D01*
X106995596Y-60321153D01*
X108299500Y-60321153D01*
X108299500Y-60478846D01*
X108330261Y-60633489D01*
X108330264Y-60633501D01*
X108390602Y-60779172D01*
X108390609Y-60779185D01*
X108478210Y-60910288D01*
X108478213Y-60910292D01*
X108589707Y-61021786D01*
X108589711Y-61021789D01*
X108720814Y-61109390D01*
X108720827Y-61109397D01*
X108866498Y-61169735D01*
X108866503Y-61169737D01*
X109020067Y-61200283D01*
X109021153Y-61200499D01*
X109021156Y-61200500D01*
X109021158Y-61200500D01*
X109178844Y-61200500D01*
X109178845Y-61200499D01*
X109333497Y-61169737D01*
X109454421Y-61119649D01*
X109479172Y-61109397D01*
X109479172Y-61109396D01*
X109479179Y-61109394D01*
X109610289Y-61021789D01*
X109721789Y-60910289D01*
X109781348Y-60821153D01*
X121449500Y-60821153D01*
X121449500Y-60978846D01*
X121480261Y-61133489D01*
X121480264Y-61133501D01*
X121540602Y-61279172D01*
X121540609Y-61279185D01*
X121628210Y-61410288D01*
X121628213Y-61410292D01*
X121739707Y-61521786D01*
X121739711Y-61521789D01*
X121870814Y-61609390D01*
X121870827Y-61609397D01*
X122016498Y-61669735D01*
X122016503Y-61669737D01*
X122171153Y-61700499D01*
X122171156Y-61700500D01*
X122171158Y-61700500D01*
X122328844Y-61700500D01*
X122328845Y-61700499D01*
X122483497Y-61669737D01*
X122629179Y-61609394D01*
X122760289Y-61521789D01*
X122871789Y-61410289D01*
X122959394Y-61279179D01*
X123019737Y-61133497D01*
X123050500Y-60978842D01*
X123050500Y-60877350D01*
X123070185Y-60810311D01*
X123122989Y-60764556D01*
X123192147Y-60754612D01*
X123243391Y-60774248D01*
X123370814Y-60859390D01*
X123370827Y-60859397D01*
X123516498Y-60919735D01*
X123516503Y-60919737D01*
X123671153Y-60950499D01*
X123671156Y-60950500D01*
X123671158Y-60950500D01*
X123828844Y-60950500D01*
X123828845Y-60950499D01*
X123983497Y-60919737D01*
X124129179Y-60859394D01*
X124260289Y-60771789D01*
X124371789Y-60660289D01*
X124431348Y-60571153D01*
X135699500Y-60571153D01*
X135699500Y-60728846D01*
X135730261Y-60883489D01*
X135730264Y-60883501D01*
X135790602Y-61029172D01*
X135790609Y-61029185D01*
X135878210Y-61160288D01*
X135878213Y-61160292D01*
X135989707Y-61271786D01*
X135989711Y-61271789D01*
X136120814Y-61359390D01*
X136120827Y-61359397D01*
X136246984Y-61411652D01*
X136266503Y-61419737D01*
X136421153Y-61450499D01*
X136421156Y-61450500D01*
X136421158Y-61450500D01*
X136578844Y-61450500D01*
X136578845Y-61450499D01*
X136733497Y-61419737D01*
X136879179Y-61359394D01*
X137010289Y-61271789D01*
X137121789Y-61160289D01*
X137209394Y-61029179D01*
X137269737Y-60883497D01*
X137300500Y-60728842D01*
X137300500Y-60571158D01*
X137300500Y-60571155D01*
X137300499Y-60571153D01*
X137289849Y-60517611D01*
X137269737Y-60416503D01*
X137269735Y-60416498D01*
X137209397Y-60270827D01*
X137209390Y-60270814D01*
X137121789Y-60139711D01*
X137121786Y-60139707D01*
X137010292Y-60028213D01*
X137010288Y-60028210D01*
X136879185Y-59940609D01*
X136879172Y-59940602D01*
X136733501Y-59880264D01*
X136733489Y-59880261D01*
X136578845Y-59849500D01*
X136578842Y-59849500D01*
X136421158Y-59849500D01*
X136421155Y-59849500D01*
X136266510Y-59880261D01*
X136266498Y-59880264D01*
X136120827Y-59940602D01*
X136120814Y-59940609D01*
X135989711Y-60028210D01*
X135989707Y-60028213D01*
X135878213Y-60139707D01*
X135878210Y-60139711D01*
X135790609Y-60270814D01*
X135790602Y-60270827D01*
X135730264Y-60416498D01*
X135730261Y-60416510D01*
X135699500Y-60571153D01*
X124431348Y-60571153D01*
X124459394Y-60529179D01*
X124519737Y-60383497D01*
X124550500Y-60228842D01*
X124550500Y-60071158D01*
X124550500Y-60071155D01*
X124548569Y-60061450D01*
X124554793Y-59991858D01*
X124582503Y-59949573D01*
X124621789Y-59910289D01*
X124709394Y-59779179D01*
X124769737Y-59633497D01*
X124792083Y-59521158D01*
X124792084Y-59521153D01*
X126099500Y-59521153D01*
X126099500Y-59678846D01*
X126130261Y-59833489D01*
X126130264Y-59833501D01*
X126190602Y-59979172D01*
X126190609Y-59979185D01*
X126278210Y-60110288D01*
X126278213Y-60110292D01*
X126389707Y-60221786D01*
X126389711Y-60221789D01*
X126520814Y-60309390D01*
X126520827Y-60309397D01*
X126666498Y-60369735D01*
X126666503Y-60369737D01*
X126821153Y-60400499D01*
X126821156Y-60400500D01*
X126821158Y-60400500D01*
X126978844Y-60400500D01*
X126978845Y-60400499D01*
X127133497Y-60369737D01*
X127279179Y-60309394D01*
X127410289Y-60221789D01*
X127521789Y-60110289D01*
X127609394Y-59979179D01*
X127669737Y-59833497D01*
X127700500Y-59678842D01*
X127700500Y-59521158D01*
X127700500Y-59521155D01*
X127700499Y-59521153D01*
X127694476Y-59490874D01*
X127669737Y-59366503D01*
X127650955Y-59321158D01*
X127609397Y-59220827D01*
X127609390Y-59220814D01*
X127521789Y-59089711D01*
X127521786Y-59089707D01*
X127410292Y-58978213D01*
X127410288Y-58978210D01*
X127279185Y-58890609D01*
X127279172Y-58890602D01*
X127133501Y-58830264D01*
X127133489Y-58830261D01*
X126978845Y-58799500D01*
X126978842Y-58799500D01*
X126821158Y-58799500D01*
X126821155Y-58799500D01*
X126666510Y-58830261D01*
X126666498Y-58830264D01*
X126520827Y-58890602D01*
X126520814Y-58890609D01*
X126389711Y-58978210D01*
X126389707Y-58978213D01*
X126278213Y-59089707D01*
X126278210Y-59089711D01*
X126190609Y-59220814D01*
X126190602Y-59220827D01*
X126130264Y-59366498D01*
X126130261Y-59366510D01*
X126099500Y-59521153D01*
X124792084Y-59521153D01*
X124798107Y-59490875D01*
X124798107Y-59490874D01*
X124800500Y-59478844D01*
X124800500Y-59321155D01*
X124800499Y-59321153D01*
X124780543Y-59220827D01*
X124769737Y-59166503D01*
X124737929Y-59089711D01*
X124709397Y-59020827D01*
X124709390Y-59020814D01*
X124621789Y-58889711D01*
X124621786Y-58889707D01*
X124510292Y-58778213D01*
X124510288Y-58778210D01*
X124379185Y-58690609D01*
X124379173Y-58690602D01*
X124352674Y-58679627D01*
X124233501Y-58630264D01*
X124233489Y-58630261D01*
X124078845Y-58599500D01*
X124078842Y-58599500D01*
X123921158Y-58599500D01*
X123921155Y-58599500D01*
X123766510Y-58630261D01*
X123766498Y-58630264D01*
X123672452Y-58669219D01*
X123602982Y-58676688D01*
X123577548Y-58669219D01*
X123483501Y-58630264D01*
X123483489Y-58630261D01*
X123328845Y-58599500D01*
X123328842Y-58599500D01*
X123171158Y-58599500D01*
X123171155Y-58599500D01*
X123016510Y-58630261D01*
X123016498Y-58630264D01*
X122870827Y-58690602D01*
X122870814Y-58690609D01*
X122739711Y-58778210D01*
X122739707Y-58778213D01*
X122628213Y-58889707D01*
X122628210Y-58889711D01*
X122540609Y-59020814D01*
X122540602Y-59020827D01*
X122480264Y-59166498D01*
X122480261Y-59166510D01*
X122449500Y-59321153D01*
X122449500Y-59478846D01*
X122480261Y-59633489D01*
X122480264Y-59633501D01*
X122540602Y-59779172D01*
X122540609Y-59779185D01*
X122628210Y-59910288D01*
X122628213Y-59910292D01*
X122665253Y-59947332D01*
X122698738Y-60008655D01*
X122693754Y-60078347D01*
X122651882Y-60134280D01*
X122586418Y-60158697D01*
X122530121Y-60149575D01*
X122483497Y-60130263D01*
X122483492Y-60130262D01*
X122483489Y-60130261D01*
X122328845Y-60099500D01*
X122328842Y-60099500D01*
X122171158Y-60099500D01*
X122171155Y-60099500D01*
X122016510Y-60130261D01*
X122016498Y-60130264D01*
X121870827Y-60190602D01*
X121870814Y-60190609D01*
X121739711Y-60278210D01*
X121739707Y-60278213D01*
X121628213Y-60389707D01*
X121628210Y-60389711D01*
X121540609Y-60520814D01*
X121540602Y-60520827D01*
X121480264Y-60666498D01*
X121480261Y-60666510D01*
X121449500Y-60821153D01*
X109781348Y-60821153D01*
X109809394Y-60779179D01*
X109869737Y-60633497D01*
X109900500Y-60478842D01*
X109900500Y-60321158D01*
X109900500Y-60321155D01*
X109900499Y-60321153D01*
X109898159Y-60309390D01*
X109869737Y-60166503D01*
X109859581Y-60141983D01*
X109809397Y-60020827D01*
X109809390Y-60020814D01*
X109721789Y-59889711D01*
X109721786Y-59889707D01*
X109610292Y-59778213D01*
X109610288Y-59778210D01*
X109479185Y-59690609D01*
X109479172Y-59690602D01*
X109333501Y-59630264D01*
X109333489Y-59630261D01*
X109178845Y-59599500D01*
X109178842Y-59599500D01*
X109021158Y-59599500D01*
X109021155Y-59599500D01*
X108866510Y-59630261D01*
X108866498Y-59630264D01*
X108720827Y-59690602D01*
X108720814Y-59690609D01*
X108589711Y-59778210D01*
X108589707Y-59778213D01*
X108478213Y-59889707D01*
X108478210Y-59889711D01*
X108390609Y-60020814D01*
X108390602Y-60020827D01*
X108330264Y-60166498D01*
X108330261Y-60166510D01*
X108299500Y-60321153D01*
X106995596Y-60321153D01*
X106970766Y-60314500D01*
X106970765Y-60314500D01*
X106962916Y-60312397D01*
X106963570Y-60309954D01*
X106911252Y-60286804D01*
X106872786Y-60228476D01*
X106871962Y-60158611D01*
X106881987Y-60133681D01*
X106884390Y-60129185D01*
X106884394Y-60129179D01*
X106944737Y-59983497D01*
X106975500Y-59828842D01*
X106975500Y-59671158D01*
X106975500Y-59671155D01*
X106975499Y-59671153D01*
X106944737Y-59516503D01*
X106929138Y-59478844D01*
X106884397Y-59370827D01*
X106884390Y-59370814D01*
X106796789Y-59239711D01*
X106796786Y-59239707D01*
X106791737Y-59234658D01*
X106758252Y-59173335D01*
X106763236Y-59103643D01*
X106805108Y-59047710D01*
X106855225Y-59025360D01*
X106883497Y-59019737D01*
X107029179Y-58959394D01*
X107160289Y-58871789D01*
X107271789Y-58760289D01*
X107359394Y-58629179D01*
X107383429Y-58571153D01*
X137199500Y-58571153D01*
X137199500Y-58728846D01*
X137230261Y-58883489D01*
X137230264Y-58883501D01*
X137290602Y-59029172D01*
X137290609Y-59029185D01*
X137378210Y-59160288D01*
X137378213Y-59160292D01*
X137489707Y-59271786D01*
X137489711Y-59271789D01*
X137620814Y-59359390D01*
X137620827Y-59359397D01*
X137766498Y-59419735D01*
X137766503Y-59419737D01*
X137921153Y-59450499D01*
X137921156Y-59450500D01*
X137921158Y-59450500D01*
X138078844Y-59450500D01*
X138078845Y-59450499D01*
X138233497Y-59419737D01*
X138351592Y-59370821D01*
X138379172Y-59359397D01*
X138379172Y-59359396D01*
X138379179Y-59359394D01*
X138510289Y-59271789D01*
X138621789Y-59160289D01*
X138709394Y-59029179D01*
X138712854Y-59020827D01*
X138729655Y-58980264D01*
X138769737Y-58883497D01*
X138800500Y-58728842D01*
X138800500Y-58571158D01*
X138800500Y-58571155D01*
X138800499Y-58571153D01*
X138769738Y-58416510D01*
X138769737Y-58416503D01*
X138709794Y-58271786D01*
X138709397Y-58270827D01*
X138709390Y-58270814D01*
X138621789Y-58139711D01*
X138621786Y-58139707D01*
X138510292Y-58028213D01*
X138510288Y-58028210D01*
X138379185Y-57940609D01*
X138379172Y-57940602D01*
X138233501Y-57880264D01*
X138233489Y-57880261D01*
X138078845Y-57849500D01*
X138078842Y-57849500D01*
X137921158Y-57849500D01*
X137921155Y-57849500D01*
X137766510Y-57880261D01*
X137766498Y-57880264D01*
X137620827Y-57940602D01*
X137620814Y-57940609D01*
X137489711Y-58028210D01*
X137489707Y-58028213D01*
X137378213Y-58139707D01*
X137378210Y-58139711D01*
X137290609Y-58270814D01*
X137290602Y-58270827D01*
X137230264Y-58416498D01*
X137230261Y-58416510D01*
X137199500Y-58571153D01*
X107383429Y-58571153D01*
X107419737Y-58483497D01*
X107450500Y-58328842D01*
X107450500Y-58171158D01*
X107450500Y-58171155D01*
X107450499Y-58171153D01*
X107444244Y-58139707D01*
X107419737Y-58016503D01*
X107388298Y-57940602D01*
X107359397Y-57870827D01*
X107359390Y-57870814D01*
X107271789Y-57739711D01*
X107271786Y-57739707D01*
X107241791Y-57709712D01*
X107226578Y-57681851D01*
X107209890Y-57654836D01*
X107209951Y-57651402D01*
X107208306Y-57648389D01*
X107210570Y-57616727D01*
X107211137Y-57584978D01*
X107213140Y-57580791D01*
X107213290Y-57578697D01*
X107217151Y-57571153D01*
X119949500Y-57571153D01*
X119949500Y-57728846D01*
X119980261Y-57883489D01*
X119980264Y-57883501D01*
X120040602Y-58029172D01*
X120040609Y-58029185D01*
X120128210Y-58160288D01*
X120128213Y-58160292D01*
X120239707Y-58271786D01*
X120239711Y-58271789D01*
X120370814Y-58359390D01*
X120370827Y-58359397D01*
X120508683Y-58416498D01*
X120516503Y-58419737D01*
X120671153Y-58450499D01*
X120671156Y-58450500D01*
X120671158Y-58450500D01*
X120828844Y-58450500D01*
X120828845Y-58450499D01*
X120983497Y-58419737D01*
X121129179Y-58359394D01*
X121260289Y-58271789D01*
X121371789Y-58160289D01*
X121459394Y-58029179D01*
X121519737Y-57883497D01*
X121550500Y-57728842D01*
X121550500Y-57571158D01*
X121550500Y-57571155D01*
X121550499Y-57571153D01*
X121535585Y-57496175D01*
X121519737Y-57416503D01*
X121464232Y-57282501D01*
X121459397Y-57270827D01*
X121459390Y-57270814D01*
X121371789Y-57139711D01*
X121371786Y-57139707D01*
X121260292Y-57028213D01*
X121260288Y-57028210D01*
X121129185Y-56940609D01*
X121129172Y-56940602D01*
X120983501Y-56880264D01*
X120983489Y-56880261D01*
X120828845Y-56849500D01*
X120828842Y-56849500D01*
X120671158Y-56849500D01*
X120671155Y-56849500D01*
X120516510Y-56880261D01*
X120516498Y-56880264D01*
X120370827Y-56940602D01*
X120370814Y-56940609D01*
X120239711Y-57028210D01*
X120239707Y-57028213D01*
X120128213Y-57139707D01*
X120128210Y-57139711D01*
X120040609Y-57270814D01*
X120040602Y-57270827D01*
X119980264Y-57416498D01*
X119980261Y-57416510D01*
X119949500Y-57571153D01*
X107217151Y-57571153D01*
X107226367Y-57553144D01*
X107309867Y-57428179D01*
X107370210Y-57282497D01*
X107400973Y-57127842D01*
X107400973Y-56970158D01*
X107400973Y-56970155D01*
X107400972Y-56970153D01*
X107383092Y-56880264D01*
X107370210Y-56815503D01*
X107351253Y-56769737D01*
X107309870Y-56669827D01*
X107309863Y-56669814D01*
X107222262Y-56538711D01*
X107222259Y-56538707D01*
X107110765Y-56427213D01*
X107110761Y-56427210D01*
X106979658Y-56339609D01*
X106979645Y-56339602D01*
X106833974Y-56279264D01*
X106833964Y-56279261D01*
X106692653Y-56251152D01*
X106630742Y-56218767D01*
X106596168Y-56158051D01*
X106595228Y-56105345D01*
X106600500Y-56078842D01*
X106600500Y-55921158D01*
X106600500Y-55921155D01*
X106584209Y-55839258D01*
X106584208Y-55839257D01*
X106580607Y-55821153D01*
X130949500Y-55821153D01*
X130949500Y-55978846D01*
X130980261Y-56133489D01*
X130980264Y-56133501D01*
X131040602Y-56279172D01*
X131040609Y-56279185D01*
X131128210Y-56410288D01*
X131128213Y-56410292D01*
X131239707Y-56521786D01*
X131239711Y-56521789D01*
X131370814Y-56609390D01*
X131370827Y-56609397D01*
X131516498Y-56669735D01*
X131516503Y-56669737D01*
X131671153Y-56700499D01*
X131671156Y-56700500D01*
X131671158Y-56700500D01*
X131828844Y-56700500D01*
X131828845Y-56700499D01*
X131983497Y-56669737D01*
X132129179Y-56609394D01*
X132260289Y-56521789D01*
X132371789Y-56410289D01*
X132459394Y-56279179D01*
X132519737Y-56133497D01*
X132550500Y-55978842D01*
X132550500Y-55821158D01*
X132550500Y-55821155D01*
X132550499Y-55821153D01*
X132533622Y-55736307D01*
X132519737Y-55666503D01*
X132511361Y-55646281D01*
X132459397Y-55520827D01*
X132459390Y-55520814D01*
X132371789Y-55389711D01*
X132371786Y-55389707D01*
X132260292Y-55278213D01*
X132260288Y-55278210D01*
X132129185Y-55190609D01*
X132129172Y-55190602D01*
X131983501Y-55130264D01*
X131983489Y-55130261D01*
X131828845Y-55099500D01*
X131828842Y-55099500D01*
X131671158Y-55099500D01*
X131671155Y-55099500D01*
X131516510Y-55130261D01*
X131516498Y-55130264D01*
X131370827Y-55190602D01*
X131370814Y-55190609D01*
X131239711Y-55278210D01*
X131239707Y-55278213D01*
X131128213Y-55389707D01*
X131128210Y-55389711D01*
X131040609Y-55520814D01*
X131040602Y-55520827D01*
X130980264Y-55666498D01*
X130980261Y-55666510D01*
X130949500Y-55821153D01*
X106580607Y-55821153D01*
X106577573Y-55805897D01*
X106583802Y-55736307D01*
X106626665Y-55681130D01*
X106692555Y-55657886D01*
X106731276Y-55661932D01*
X106819234Y-55685500D01*
X106819237Y-55685500D01*
X106970764Y-55685500D01*
X106970766Y-55685500D01*
X107117135Y-55646281D01*
X107248365Y-55570515D01*
X107355515Y-55463365D01*
X107431281Y-55332135D01*
X107470500Y-55185766D01*
X107470500Y-55034234D01*
X107431281Y-54887865D01*
X107431278Y-54887860D01*
X107428169Y-54880351D01*
X107430293Y-54879471D01*
X107416620Y-54823090D01*
X107439477Y-54757065D01*
X107494402Y-54713879D01*
X107540479Y-54705000D01*
X108020955Y-54705000D01*
X108020958Y-54704999D01*
X108218974Y-54665612D01*
X108218983Y-54665609D01*
X108405513Y-54588347D01*
X108405526Y-54588340D01*
X108573399Y-54476170D01*
X108573403Y-54476167D01*
X108716167Y-54333403D01*
X108716170Y-54333399D01*
X108828340Y-54165526D01*
X108828347Y-54165513D01*
X108905609Y-53978983D01*
X108905612Y-53978974D01*
X108915353Y-53930000D01*
X108111988Y-53930000D01*
X108129205Y-53920060D01*
X108185060Y-53864205D01*
X108224556Y-53795796D01*
X108245000Y-53719496D01*
X108245000Y-53640504D01*
X108224556Y-53564204D01*
X108185060Y-53495795D01*
X108129205Y-53439940D01*
X108111988Y-53430000D01*
X108915353Y-53430000D01*
X108905612Y-53381025D01*
X108905609Y-53381016D01*
X108828347Y-53194486D01*
X108828340Y-53194473D01*
X108716170Y-53026600D01*
X108716167Y-53026596D01*
X108573403Y-52883832D01*
X108573399Y-52883829D01*
X108405526Y-52771659D01*
X108405513Y-52771652D01*
X108218983Y-52694390D01*
X108218974Y-52694387D01*
X108180239Y-52686683D01*
X108020958Y-52655000D01*
X107645000Y-52655000D01*
X107645000Y-53380000D01*
X107145000Y-53380000D01*
X107145000Y-52655000D01*
X106769041Y-52655000D01*
X106571025Y-52694387D01*
X106571016Y-52694390D01*
X106384486Y-52771652D01*
X106384473Y-52771659D01*
X106216600Y-52883829D01*
X106216596Y-52883832D01*
X106073832Y-53026596D01*
X106073829Y-53026600D01*
X105961659Y-53194473D01*
X105961652Y-53194486D01*
X105884390Y-53381016D01*
X105884387Y-53381025D01*
X105874647Y-53430000D01*
X106678012Y-53430000D01*
X106660795Y-53439940D01*
X106604940Y-53495795D01*
X106565444Y-53564204D01*
X106545000Y-53640504D01*
X106545000Y-53719496D01*
X106565444Y-53795796D01*
X106604940Y-53864205D01*
X106660795Y-53920060D01*
X106678012Y-53930000D01*
X105874647Y-53930000D01*
X105884387Y-53978974D01*
X105884390Y-53978983D01*
X105961652Y-54165513D01*
X105961659Y-54165526D01*
X106073829Y-54333399D01*
X106073832Y-54333403D01*
X106216596Y-54476167D01*
X106216600Y-54476170D01*
X106389545Y-54591729D01*
X106388805Y-54592835D01*
X106433784Y-54637013D01*
X106449250Y-54705149D01*
X106432878Y-54759416D01*
X106358720Y-54887861D01*
X106358720Y-54887862D01*
X106319500Y-55034234D01*
X106319500Y-55163149D01*
X106299815Y-55230188D01*
X106247011Y-55275943D01*
X106177853Y-55285887D01*
X106148048Y-55277711D01*
X106128827Y-55269750D01*
X106033497Y-55230263D01*
X106033492Y-55230262D01*
X106033489Y-55230261D01*
X105878845Y-55199500D01*
X105878842Y-55199500D01*
X105721158Y-55199500D01*
X105721155Y-55199500D01*
X105566510Y-55230261D01*
X105566498Y-55230264D01*
X105420827Y-55290602D01*
X105420814Y-55290609D01*
X105289711Y-55378210D01*
X105289707Y-55378213D01*
X105178213Y-55489707D01*
X105178210Y-55489711D01*
X105090609Y-55620814D01*
X105090602Y-55620827D01*
X105030264Y-55766498D01*
X105030261Y-55766510D01*
X104999500Y-55921153D01*
X100500500Y-55921153D01*
X100500500Y-53429999D01*
X101846115Y-53429999D01*
X101846116Y-53430000D01*
X102648012Y-53430000D01*
X102630795Y-53439940D01*
X102574940Y-53495795D01*
X102535444Y-53564204D01*
X102515000Y-53640504D01*
X102515000Y-53719496D01*
X102535444Y-53795796D01*
X102574940Y-53864205D01*
X102630795Y-53920060D01*
X102648012Y-53930000D01*
X101846116Y-53930000D01*
X101851506Y-53957100D01*
X101851507Y-53957103D01*
X101923119Y-54129991D01*
X101923124Y-54130000D01*
X102027086Y-54285589D01*
X102027089Y-54285593D01*
X102159406Y-54417910D01*
X102159410Y-54417913D01*
X102314999Y-54521875D01*
X102315008Y-54521880D01*
X102487894Y-54593491D01*
X102487902Y-54593493D01*
X102671428Y-54629999D01*
X102671431Y-54630000D01*
X102965000Y-54630000D01*
X102965000Y-53980000D01*
X103465000Y-53980000D01*
X103465000Y-54630000D01*
X103758569Y-54630000D01*
X103758571Y-54629999D01*
X103942097Y-54593493D01*
X103942105Y-54593491D01*
X104114991Y-54521880D01*
X104115000Y-54521875D01*
X104270589Y-54417913D01*
X104270593Y-54417910D01*
X104402910Y-54285593D01*
X104402913Y-54285589D01*
X104506875Y-54130000D01*
X104506880Y-54129991D01*
X104578492Y-53957103D01*
X104578493Y-53957100D01*
X104583884Y-53930000D01*
X103781988Y-53930000D01*
X103799205Y-53920060D01*
X103855060Y-53864205D01*
X103894556Y-53795796D01*
X103915000Y-53719496D01*
X103915000Y-53640504D01*
X103894556Y-53564204D01*
X103855060Y-53495795D01*
X103799205Y-53439940D01*
X103781988Y-53430000D01*
X104583884Y-53430000D01*
X104583884Y-53429999D01*
X104578493Y-53402899D01*
X104578492Y-53402896D01*
X104506880Y-53230008D01*
X104506875Y-53229999D01*
X104402913Y-53074410D01*
X104402910Y-53074406D01*
X104270593Y-52942089D01*
X104270589Y-52942086D01*
X104115000Y-52838124D01*
X104114991Y-52838119D01*
X103942105Y-52766508D01*
X103942097Y-52766506D01*
X103758570Y-52730000D01*
X103465000Y-52730000D01*
X103465000Y-53380000D01*
X102965000Y-53380000D01*
X102965000Y-52730000D01*
X102671430Y-52730000D01*
X102487902Y-52766506D01*
X102487894Y-52766508D01*
X102315008Y-52838119D01*
X102314999Y-52838124D01*
X102159410Y-52942086D01*
X102159406Y-52942089D01*
X102027089Y-53074406D01*
X102027086Y-53074410D01*
X101923124Y-53229999D01*
X101923119Y-53230008D01*
X101851507Y-53402896D01*
X101851506Y-53402899D01*
X101846115Y-53429999D01*
X100500500Y-53429999D01*
X100500500Y-52571153D01*
X122449500Y-52571153D01*
X122449500Y-52728846D01*
X122480261Y-52883489D01*
X122480264Y-52883501D01*
X122540602Y-53029172D01*
X122540609Y-53029185D01*
X122628210Y-53160288D01*
X122628213Y-53160292D01*
X122739707Y-53271786D01*
X122739711Y-53271789D01*
X122870814Y-53359390D01*
X122870827Y-53359397D01*
X122975852Y-53402899D01*
X123016503Y-53419737D01*
X123118070Y-53439940D01*
X123171153Y-53450499D01*
X123171156Y-53450500D01*
X123171158Y-53450500D01*
X123328844Y-53450500D01*
X123328845Y-53450499D01*
X123483497Y-53419737D01*
X123577550Y-53380778D01*
X123647016Y-53373310D01*
X123672443Y-53380775D01*
X123766503Y-53419737D01*
X123868070Y-53439940D01*
X123921153Y-53450499D01*
X123921156Y-53450500D01*
X123921158Y-53450500D01*
X124078844Y-53450500D01*
X124078845Y-53450499D01*
X124233497Y-53419737D01*
X124346166Y-53373067D01*
X124379172Y-53359397D01*
X124379172Y-53359396D01*
X124379179Y-53359394D01*
X124510289Y-53271789D01*
X124621789Y-53160289D01*
X124709394Y-53029179D01*
X124769737Y-52883497D01*
X124800500Y-52728842D01*
X124800500Y-52571158D01*
X124800500Y-52571155D01*
X124800499Y-52571153D01*
X124769738Y-52416510D01*
X124769737Y-52416503D01*
X124769735Y-52416498D01*
X124709397Y-52270827D01*
X124709390Y-52270814D01*
X124621789Y-52139711D01*
X124621786Y-52139707D01*
X124510292Y-52028213D01*
X124510288Y-52028210D01*
X124379185Y-51940609D01*
X124379172Y-51940602D01*
X124233501Y-51880264D01*
X124233489Y-51880261D01*
X124078845Y-51849500D01*
X124078842Y-51849500D01*
X123921158Y-51849500D01*
X123921155Y-51849500D01*
X123766510Y-51880261D01*
X123766498Y-51880264D01*
X123672452Y-51919219D01*
X123602982Y-51926688D01*
X123577548Y-51919219D01*
X123483501Y-51880264D01*
X123483489Y-51880261D01*
X123328845Y-51849500D01*
X123328842Y-51849500D01*
X123171158Y-51849500D01*
X123171155Y-51849500D01*
X123016510Y-51880261D01*
X123016498Y-51880264D01*
X122870827Y-51940602D01*
X122870814Y-51940609D01*
X122739711Y-52028210D01*
X122739707Y-52028213D01*
X122628213Y-52139707D01*
X122628210Y-52139711D01*
X122540609Y-52270814D01*
X122540602Y-52270827D01*
X122480264Y-52416498D01*
X122480261Y-52416510D01*
X122449500Y-52571153D01*
X100500500Y-52571153D01*
X100500500Y-50843213D01*
X108200500Y-50843213D01*
X108200500Y-51055786D01*
X108233753Y-51265739D01*
X108233753Y-51265741D01*
X108233754Y-51265743D01*
X108237329Y-51276747D01*
X108299444Y-51467914D01*
X108395951Y-51657320D01*
X108520890Y-51829286D01*
X108671213Y-51979609D01*
X108843179Y-52104548D01*
X108843181Y-52104549D01*
X108843184Y-52104551D01*
X109032588Y-52201057D01*
X109234757Y-52266746D01*
X109444713Y-52300000D01*
X109444714Y-52300000D01*
X109657286Y-52300000D01*
X109657287Y-52300000D01*
X109867243Y-52266746D01*
X110069412Y-52201057D01*
X110258816Y-52104551D01*
X110363890Y-52028211D01*
X110430786Y-51979609D01*
X110430788Y-51979606D01*
X110430792Y-51979604D01*
X110581104Y-51829292D01*
X110581106Y-51829288D01*
X110581109Y-51829286D01*
X110706048Y-51657320D01*
X110706047Y-51657320D01*
X110706051Y-51657316D01*
X110802557Y-51467912D01*
X110850242Y-51321153D01*
X131699500Y-51321153D01*
X131699500Y-51478846D01*
X131730261Y-51633489D01*
X131730264Y-51633501D01*
X131790602Y-51779172D01*
X131790609Y-51779185D01*
X131878210Y-51910288D01*
X131878213Y-51910292D01*
X131989707Y-52021786D01*
X131989711Y-52021789D01*
X132120814Y-52109390D01*
X132120827Y-52109397D01*
X132194013Y-52139711D01*
X132266503Y-52169737D01*
X132421153Y-52200499D01*
X132421156Y-52200500D01*
X132421158Y-52200500D01*
X132578844Y-52200500D01*
X132578845Y-52200499D01*
X132733497Y-52169737D01*
X132879179Y-52109394D01*
X133010289Y-52021789D01*
X133121789Y-51910289D01*
X133209394Y-51779179D01*
X133269737Y-51633497D01*
X133300500Y-51478842D01*
X133300500Y-51321158D01*
X133300500Y-51321155D01*
X133300499Y-51321153D01*
X133289477Y-51265743D01*
X133269737Y-51166503D01*
X133269735Y-51166498D01*
X133209397Y-51020827D01*
X133209390Y-51020814D01*
X133133497Y-50907232D01*
X133133496Y-50907231D01*
X133121791Y-50889713D01*
X133121786Y-50889707D01*
X133075292Y-50843213D01*
X139700500Y-50843213D01*
X139700500Y-51055786D01*
X139733753Y-51265739D01*
X139733753Y-51265741D01*
X139733754Y-51265743D01*
X139737329Y-51276747D01*
X139799444Y-51467914D01*
X139895951Y-51657320D01*
X140020890Y-51829286D01*
X140171213Y-51979609D01*
X140343179Y-52104548D01*
X140343181Y-52104549D01*
X140343184Y-52104551D01*
X140532588Y-52201057D01*
X140734757Y-52266746D01*
X140944713Y-52300000D01*
X140944714Y-52300000D01*
X141157286Y-52300000D01*
X141157287Y-52300000D01*
X141367243Y-52266746D01*
X141569412Y-52201057D01*
X141758816Y-52104551D01*
X141863890Y-52028211D01*
X141930786Y-51979609D01*
X141930788Y-51979606D01*
X141930792Y-51979604D01*
X142081104Y-51829292D01*
X142081106Y-51829288D01*
X142081109Y-51829286D01*
X142206048Y-51657320D01*
X142206047Y-51657320D01*
X142206051Y-51657316D01*
X142302557Y-51467912D01*
X142368246Y-51265743D01*
X142401500Y-51055787D01*
X142401500Y-50843213D01*
X142368246Y-50633257D01*
X142302557Y-50431088D01*
X142206051Y-50241684D01*
X142206049Y-50241681D01*
X142206048Y-50241679D01*
X142081109Y-50069713D01*
X141930786Y-49919390D01*
X141758820Y-49794451D01*
X141569414Y-49697944D01*
X141569413Y-49697943D01*
X141569412Y-49697943D01*
X141367243Y-49632254D01*
X141367241Y-49632253D01*
X141367240Y-49632253D01*
X141198957Y-49605600D01*
X141157287Y-49599000D01*
X140944713Y-49599000D01*
X140903043Y-49605600D01*
X140734760Y-49632253D01*
X140532585Y-49697944D01*
X140343179Y-49794451D01*
X140171213Y-49919390D01*
X140020890Y-50069713D01*
X139895951Y-50241679D01*
X139799444Y-50431085D01*
X139733753Y-50633260D01*
X139700500Y-50843213D01*
X133075292Y-50843213D01*
X133010292Y-50778213D01*
X133010288Y-50778210D01*
X132879185Y-50690609D01*
X132879172Y-50690602D01*
X132733501Y-50630264D01*
X132733489Y-50630261D01*
X132578845Y-50599500D01*
X132578842Y-50599500D01*
X132421158Y-50599500D01*
X132421155Y-50599500D01*
X132266510Y-50630261D01*
X132266498Y-50630264D01*
X132120827Y-50690602D01*
X132120814Y-50690609D01*
X131989711Y-50778210D01*
X131989707Y-50778213D01*
X131878213Y-50889707D01*
X131878210Y-50889711D01*
X131790609Y-51020814D01*
X131790602Y-51020827D01*
X131730264Y-51166498D01*
X131730261Y-51166510D01*
X131699500Y-51321153D01*
X110850242Y-51321153D01*
X110868246Y-51265743D01*
X110901500Y-51055787D01*
X110901500Y-50843213D01*
X110868246Y-50633257D01*
X110802557Y-50431088D01*
X110706051Y-50241684D01*
X110706049Y-50241681D01*
X110706048Y-50241679D01*
X110581109Y-50069713D01*
X110430786Y-49919390D01*
X110258820Y-49794451D01*
X110069414Y-49697944D01*
X110069413Y-49697943D01*
X110069412Y-49697943D01*
X109867243Y-49632254D01*
X109867241Y-49632253D01*
X109867240Y-49632253D01*
X109698957Y-49605600D01*
X109657287Y-49599000D01*
X109444713Y-49599000D01*
X109403043Y-49605600D01*
X109234760Y-49632253D01*
X109032585Y-49697944D01*
X108843179Y-49794451D01*
X108671213Y-49919390D01*
X108520890Y-50069713D01*
X108395951Y-50241679D01*
X108299444Y-50431085D01*
X108233753Y-50633260D01*
X108200500Y-50843213D01*
X100500500Y-50843213D01*
X100500500Y-49321153D01*
X123176979Y-49321153D01*
X123176979Y-49478846D01*
X123207740Y-49633489D01*
X123207743Y-49633501D01*
X123268081Y-49779172D01*
X123268088Y-49779185D01*
X123355689Y-49910288D01*
X123355692Y-49910292D01*
X123467186Y-50021786D01*
X123467190Y-50021789D01*
X123598293Y-50109390D01*
X123598306Y-50109397D01*
X123743977Y-50169735D01*
X123743982Y-50169737D01*
X123898632Y-50200499D01*
X123898635Y-50200500D01*
X123898637Y-50200500D01*
X124056323Y-50200500D01*
X124056324Y-50200499D01*
X124210976Y-50169737D01*
X124356658Y-50109394D01*
X124487768Y-50021789D01*
X124599268Y-49910289D01*
X124686873Y-49779179D01*
X124747216Y-49633497D01*
X124777979Y-49478842D01*
X124777979Y-49321158D01*
X124777979Y-49321155D01*
X124777978Y-49321153D01*
X124747548Y-49168174D01*
X124747216Y-49166503D01*
X124687273Y-49021786D01*
X124686876Y-49020827D01*
X124686869Y-49020814D01*
X124599268Y-48889711D01*
X124599265Y-48889707D01*
X124487771Y-48778213D01*
X124487767Y-48778210D01*
X124356664Y-48690609D01*
X124356651Y-48690602D01*
X124210980Y-48630264D01*
X124210968Y-48630261D01*
X124056324Y-48599500D01*
X124056321Y-48599500D01*
X123898637Y-48599500D01*
X123898634Y-48599500D01*
X123743989Y-48630261D01*
X123743977Y-48630264D01*
X123598306Y-48690602D01*
X123598293Y-48690609D01*
X123467190Y-48778210D01*
X123467186Y-48778213D01*
X123355692Y-48889707D01*
X123355689Y-48889711D01*
X123268088Y-49020814D01*
X123268081Y-49020827D01*
X123207743Y-49166498D01*
X123207740Y-49166510D01*
X123176979Y-49321153D01*
X100500500Y-49321153D01*
X100500500Y-48321153D01*
X139449500Y-48321153D01*
X139449500Y-48478846D01*
X139480261Y-48633489D01*
X139480264Y-48633501D01*
X139540602Y-48779172D01*
X139540609Y-48779185D01*
X139628210Y-48910288D01*
X139628213Y-48910292D01*
X139739707Y-49021786D01*
X139739711Y-49021789D01*
X139870814Y-49109390D01*
X139870827Y-49109397D01*
X140016498Y-49169735D01*
X140016503Y-49169737D01*
X140171153Y-49200499D01*
X140171156Y-49200500D01*
X140171158Y-49200500D01*
X140328844Y-49200500D01*
X140328845Y-49200499D01*
X140483497Y-49169737D01*
X140629179Y-49109394D01*
X140760289Y-49021789D01*
X140871789Y-48910289D01*
X140959394Y-48779179D01*
X141019737Y-48633497D01*
X141050500Y-48478842D01*
X141050500Y-48321158D01*
X141050500Y-48321155D01*
X141050499Y-48321153D01*
X141019738Y-48166510D01*
X141019737Y-48166503D01*
X141000437Y-48119909D01*
X140959397Y-48020827D01*
X140959390Y-48020814D01*
X140871789Y-47889711D01*
X140871786Y-47889707D01*
X140760292Y-47778213D01*
X140760288Y-47778210D01*
X140629185Y-47690609D01*
X140629172Y-47690602D01*
X140483501Y-47630264D01*
X140483489Y-47630261D01*
X140328845Y-47599500D01*
X140328842Y-47599500D01*
X140171158Y-47599500D01*
X140171155Y-47599500D01*
X140016510Y-47630261D01*
X140016498Y-47630264D01*
X139870827Y-47690602D01*
X139870814Y-47690609D01*
X139739711Y-47778210D01*
X139739707Y-47778213D01*
X139628213Y-47889707D01*
X139628210Y-47889711D01*
X139540609Y-48020814D01*
X139540602Y-48020827D01*
X139480264Y-48166498D01*
X139480261Y-48166510D01*
X139449500Y-48321153D01*
X100500500Y-48321153D01*
X100500500Y-46134139D01*
X144370500Y-46134139D01*
X144370500Y-46315860D01*
X144398928Y-46495347D01*
X144398928Y-46495350D01*
X144455081Y-46668171D01*
X144455083Y-46668174D01*
X144537583Y-46830090D01*
X144644397Y-46977106D01*
X144772894Y-47105603D01*
X144919910Y-47212417D01*
X145081826Y-47294917D01*
X145081828Y-47294918D01*
X145185397Y-47328569D01*
X145243072Y-47368006D01*
X145270271Y-47432364D01*
X145258357Y-47501211D01*
X145211113Y-47552687D01*
X145147079Y-47570500D01*
X144823130Y-47570500D01*
X144823123Y-47570501D01*
X144763516Y-47576908D01*
X144628671Y-47627202D01*
X144628664Y-47627206D01*
X144513455Y-47713452D01*
X144513452Y-47713455D01*
X144427206Y-47828664D01*
X144427202Y-47828671D01*
X144376908Y-47963517D01*
X144370748Y-48020821D01*
X144370501Y-48023123D01*
X144370500Y-48023135D01*
X144370500Y-49426870D01*
X144370501Y-49426876D01*
X144376908Y-49486483D01*
X144427202Y-49621328D01*
X144427206Y-49621335D01*
X144513452Y-49736544D01*
X144513455Y-49736547D01*
X144628664Y-49822793D01*
X144628671Y-49822797D01*
X144763517Y-49873091D01*
X144763516Y-49873091D01*
X144770444Y-49873835D01*
X144823127Y-49879500D01*
X146226872Y-49879499D01*
X146286483Y-49873091D01*
X146421331Y-49822796D01*
X146536546Y-49736546D01*
X146622796Y-49621331D01*
X146673091Y-49486483D01*
X146679500Y-49426873D01*
X146679499Y-48023128D01*
X146673091Y-47963517D01*
X146622796Y-47828669D01*
X146622795Y-47828668D01*
X146622793Y-47828664D01*
X146536547Y-47713455D01*
X146536544Y-47713452D01*
X146421335Y-47627206D01*
X146421328Y-47627202D01*
X146286482Y-47576908D01*
X146286483Y-47576908D01*
X146226883Y-47570501D01*
X146226881Y-47570500D01*
X146226873Y-47570500D01*
X146226865Y-47570500D01*
X145902922Y-47570500D01*
X145835883Y-47550815D01*
X145790128Y-47498011D01*
X145780184Y-47428853D01*
X145809209Y-47365297D01*
X145864604Y-47328569D01*
X145968171Y-47294918D01*
X145968171Y-47294917D01*
X145968174Y-47294917D01*
X146130090Y-47212417D01*
X146277106Y-47105603D01*
X146405603Y-46977106D01*
X146512417Y-46830090D01*
X146594917Y-46668174D01*
X146651072Y-46495346D01*
X146679500Y-46315861D01*
X146679500Y-46134139D01*
X147570500Y-46134139D01*
X147570500Y-46315860D01*
X147598928Y-46495347D01*
X147598928Y-46495350D01*
X147655081Y-46668171D01*
X147655083Y-46668174D01*
X147737583Y-46830090D01*
X147844397Y-46977106D01*
X147972894Y-47105603D01*
X148119910Y-47212417D01*
X148281826Y-47294917D01*
X148281828Y-47294918D01*
X148454650Y-47351071D01*
X148454651Y-47351071D01*
X148454654Y-47351072D01*
X148462516Y-47352317D01*
X148463840Y-47352527D01*
X148526974Y-47382457D01*
X148563905Y-47441768D01*
X148562907Y-47511631D01*
X148524297Y-47569863D01*
X148463840Y-47597473D01*
X148454650Y-47598928D01*
X148454649Y-47598928D01*
X148281828Y-47655081D01*
X148281825Y-47655083D01*
X148119909Y-47737583D01*
X148063988Y-47778213D01*
X147972894Y-47844397D01*
X147972892Y-47844399D01*
X147972891Y-47844399D01*
X147844399Y-47972891D01*
X147844399Y-47972892D01*
X147844397Y-47972894D01*
X147807908Y-48023116D01*
X147737583Y-48119909D01*
X147655083Y-48281825D01*
X147655081Y-48281828D01*
X147598928Y-48454649D01*
X147598928Y-48454652D01*
X147570500Y-48634139D01*
X147570500Y-48815860D01*
X147598928Y-48995347D01*
X147598928Y-48995350D01*
X147655081Y-49168171D01*
X147655083Y-49168174D01*
X147737583Y-49330090D01*
X147844397Y-49477106D01*
X147972894Y-49605603D01*
X148119910Y-49712417D01*
X148281826Y-49794917D01*
X148281828Y-49794918D01*
X148367629Y-49822796D01*
X148454654Y-49851072D01*
X148634139Y-49879500D01*
X148634140Y-49879500D01*
X148815860Y-49879500D01*
X148815861Y-49879500D01*
X148995346Y-49851072D01*
X148995349Y-49851071D01*
X148995350Y-49851071D01*
X149168171Y-49794918D01*
X149168171Y-49794917D01*
X149168174Y-49794917D01*
X149330090Y-49712417D01*
X149477106Y-49605603D01*
X149605603Y-49477106D01*
X149712417Y-49330090D01*
X149794917Y-49168174D01*
X149851072Y-48995346D01*
X149879500Y-48815861D01*
X149879500Y-48634139D01*
X149851072Y-48454654D01*
X149851071Y-48454650D01*
X149851071Y-48454649D01*
X149794918Y-48281828D01*
X149794916Y-48281825D01*
X149736161Y-48166510D01*
X149712417Y-48119910D01*
X149605603Y-47972894D01*
X149477106Y-47844397D01*
X149330090Y-47737583D01*
X149168174Y-47655083D01*
X149168171Y-47655081D01*
X148995350Y-47598928D01*
X148995345Y-47598927D01*
X148986161Y-47597473D01*
X148923026Y-47567544D01*
X148886094Y-47508233D01*
X148887092Y-47438370D01*
X148925701Y-47380137D01*
X148986161Y-47352527D01*
X148991501Y-47351680D01*
X148995346Y-47351072D01*
X148995347Y-47351071D01*
X148995350Y-47351071D01*
X149168171Y-47294918D01*
X149168171Y-47294917D01*
X149168174Y-47294917D01*
X149330090Y-47212417D01*
X149477106Y-47105603D01*
X149605603Y-46977106D01*
X149712417Y-46830090D01*
X149794917Y-46668174D01*
X149851072Y-46495346D01*
X149879500Y-46315861D01*
X149879500Y-46134139D01*
X149851072Y-45954654D01*
X149851071Y-45954650D01*
X149851071Y-45954649D01*
X149794918Y-45781828D01*
X149794916Y-45781825D01*
X149712416Y-45619909D01*
X149605603Y-45472894D01*
X149477106Y-45344397D01*
X149330090Y-45237583D01*
X149168174Y-45155083D01*
X149168171Y-45155081D01*
X148995352Y-45098929D01*
X148995339Y-45098927D01*
X148984556Y-45097219D01*
X148921422Y-45067286D01*
X148884494Y-45007973D01*
X148885494Y-44938111D01*
X148924107Y-44879880D01*
X148984567Y-44852272D01*
X148995227Y-44850584D01*
X149167984Y-44794451D01*
X149329831Y-44711986D01*
X149346396Y-44699949D01*
X148771447Y-44125000D01*
X148777661Y-44125000D01*
X148879394Y-44097741D01*
X148970606Y-44045080D01*
X149045080Y-43970606D01*
X149097741Y-43879394D01*
X149125000Y-43777661D01*
X149125000Y-43771446D01*
X149699949Y-44346395D01*
X149711986Y-44329831D01*
X149794451Y-44167984D01*
X149850584Y-43995225D01*
X149879000Y-43815821D01*
X149879000Y-43634178D01*
X149850584Y-43454774D01*
X149794450Y-43282012D01*
X149711993Y-43120179D01*
X149711985Y-43120165D01*
X149699950Y-43103603D01*
X149699949Y-43103602D01*
X149125000Y-43678552D01*
X149125000Y-43672339D01*
X149097741Y-43570606D01*
X149045080Y-43479394D01*
X148970606Y-43404920D01*
X148879394Y-43352259D01*
X148777661Y-43325000D01*
X148771447Y-43325000D01*
X149346396Y-42750049D01*
X149346395Y-42750048D01*
X149329834Y-42738014D01*
X149329830Y-42738012D01*
X149167984Y-42655548D01*
X148995225Y-42599415D01*
X148815821Y-42571000D01*
X148634179Y-42571000D01*
X148454774Y-42599415D01*
X148282015Y-42655548D01*
X148120170Y-42738012D01*
X148120161Y-42738018D01*
X148103603Y-42750048D01*
X148103602Y-42750049D01*
X148678554Y-43325000D01*
X148672339Y-43325000D01*
X148570606Y-43352259D01*
X148479394Y-43404920D01*
X148404920Y-43479394D01*
X148352259Y-43570606D01*
X148325000Y-43672339D01*
X148325000Y-43678553D01*
X147750049Y-43103602D01*
X147750048Y-43103603D01*
X147738018Y-43120161D01*
X147738012Y-43120170D01*
X147655548Y-43282015D01*
X147599415Y-43454774D01*
X147571000Y-43634178D01*
X147571000Y-43815821D01*
X147599415Y-43995225D01*
X147655548Y-44167984D01*
X147738012Y-44329830D01*
X147738014Y-44329834D01*
X147750048Y-44346395D01*
X147750049Y-44346396D01*
X148325000Y-43771445D01*
X148325000Y-43777661D01*
X148352259Y-43879394D01*
X148404920Y-43970606D01*
X148479394Y-44045080D01*
X148570606Y-44097741D01*
X148672339Y-44125000D01*
X148678554Y-44125000D01*
X148103602Y-44699949D01*
X148103603Y-44699950D01*
X148120165Y-44711985D01*
X148120179Y-44711993D01*
X148282012Y-44794450D01*
X148454771Y-44850583D01*
X148465433Y-44852272D01*
X148528569Y-44882199D01*
X148565503Y-44941509D01*
X148564508Y-45011371D01*
X148525900Y-45069606D01*
X148465444Y-45097218D01*
X148454656Y-45098927D01*
X148454649Y-45098928D01*
X148281828Y-45155081D01*
X148281825Y-45155083D01*
X148119909Y-45237583D01*
X148036030Y-45298525D01*
X147972894Y-45344397D01*
X147972892Y-45344399D01*
X147972891Y-45344399D01*
X147844399Y-45472891D01*
X147844399Y-45472892D01*
X147844397Y-45472894D01*
X147798525Y-45536030D01*
X147737583Y-45619909D01*
X147655083Y-45781825D01*
X147655081Y-45781828D01*
X147598928Y-45954649D01*
X147598928Y-45954652D01*
X147570500Y-46134139D01*
X146679500Y-46134139D01*
X146651072Y-45954654D01*
X146651071Y-45954650D01*
X146651071Y-45954649D01*
X146594918Y-45781828D01*
X146594916Y-45781825D01*
X146512416Y-45619909D01*
X146405603Y-45472894D01*
X146277106Y-45344397D01*
X146130090Y-45237583D01*
X145968174Y-45155083D01*
X145968171Y-45155081D01*
X145795352Y-45098929D01*
X145795339Y-45098927D01*
X145784556Y-45097219D01*
X145721422Y-45067286D01*
X145684494Y-45007973D01*
X145685494Y-44938111D01*
X145724107Y-44879880D01*
X145784567Y-44852272D01*
X145795227Y-44850584D01*
X145967984Y-44794451D01*
X146129831Y-44711986D01*
X146146396Y-44699949D01*
X145571447Y-44125000D01*
X145577661Y-44125000D01*
X145679394Y-44097741D01*
X145770606Y-44045080D01*
X145845080Y-43970606D01*
X145897741Y-43879394D01*
X145925000Y-43777661D01*
X145925000Y-43771446D01*
X146499949Y-44346395D01*
X146511986Y-44329831D01*
X146594451Y-44167984D01*
X146650584Y-43995225D01*
X146679000Y-43815821D01*
X146679000Y-43634178D01*
X146650584Y-43454774D01*
X146594450Y-43282012D01*
X146511993Y-43120179D01*
X146511985Y-43120165D01*
X146499950Y-43103603D01*
X146499949Y-43103602D01*
X145925000Y-43678552D01*
X145925000Y-43672339D01*
X145897741Y-43570606D01*
X145845080Y-43479394D01*
X145770606Y-43404920D01*
X145679394Y-43352259D01*
X145577661Y-43325000D01*
X145571447Y-43325000D01*
X146146396Y-42750049D01*
X146146395Y-42750048D01*
X146129834Y-42738014D01*
X146129830Y-42738012D01*
X145967984Y-42655548D01*
X145795225Y-42599415D01*
X145615821Y-42571000D01*
X145434179Y-42571000D01*
X145254774Y-42599415D01*
X145082015Y-42655548D01*
X144920170Y-42738012D01*
X144920161Y-42738018D01*
X144903603Y-42750048D01*
X144903602Y-42750049D01*
X145478554Y-43325000D01*
X145472339Y-43325000D01*
X145370606Y-43352259D01*
X145279394Y-43404920D01*
X145204920Y-43479394D01*
X145152259Y-43570606D01*
X145125000Y-43672339D01*
X145125000Y-43678553D01*
X144550049Y-43103602D01*
X144550048Y-43103603D01*
X144538018Y-43120161D01*
X144538012Y-43120170D01*
X144455548Y-43282015D01*
X144399415Y-43454774D01*
X144371000Y-43634178D01*
X144371000Y-43815821D01*
X144399415Y-43995225D01*
X144455548Y-44167984D01*
X144538012Y-44329830D01*
X144538014Y-44329834D01*
X144550048Y-44346395D01*
X144550049Y-44346396D01*
X145125000Y-43771445D01*
X145125000Y-43777661D01*
X145152259Y-43879394D01*
X145204920Y-43970606D01*
X145279394Y-44045080D01*
X145370606Y-44097741D01*
X145472339Y-44125000D01*
X145478554Y-44125000D01*
X144903602Y-44699949D01*
X144903603Y-44699950D01*
X144920165Y-44711985D01*
X144920179Y-44711993D01*
X145082012Y-44794450D01*
X145254771Y-44850583D01*
X145265433Y-44852272D01*
X145328569Y-44882199D01*
X145365503Y-44941509D01*
X145364508Y-45011371D01*
X145325900Y-45069606D01*
X145265444Y-45097218D01*
X145254656Y-45098927D01*
X145254649Y-45098928D01*
X145081828Y-45155081D01*
X145081825Y-45155083D01*
X144919909Y-45237583D01*
X144836030Y-45298525D01*
X144772894Y-45344397D01*
X144772892Y-45344399D01*
X144772891Y-45344399D01*
X144644399Y-45472891D01*
X144644399Y-45472892D01*
X144644397Y-45472894D01*
X144598525Y-45536030D01*
X144537583Y-45619909D01*
X144455083Y-45781825D01*
X144455081Y-45781828D01*
X144398928Y-45954649D01*
X144398928Y-45954652D01*
X144370500Y-46134139D01*
X100500500Y-46134139D01*
X100500500Y-44321153D01*
X104199500Y-44321153D01*
X104199500Y-44478846D01*
X104230261Y-44633489D01*
X104230264Y-44633501D01*
X104290602Y-44779172D01*
X104290609Y-44779185D01*
X104378210Y-44910288D01*
X104378213Y-44910292D01*
X104489707Y-45021786D01*
X104489711Y-45021789D01*
X104620814Y-45109390D01*
X104620827Y-45109397D01*
X104766498Y-45169735D01*
X104766503Y-45169737D01*
X104921153Y-45200499D01*
X104921156Y-45200500D01*
X104921158Y-45200500D01*
X105078844Y-45200500D01*
X105078845Y-45200499D01*
X105233497Y-45169737D01*
X105379179Y-45109394D01*
X105510289Y-45021789D01*
X105621789Y-44910289D01*
X105709394Y-44779179D01*
X105769737Y-44633497D01*
X105800500Y-44478842D01*
X105800500Y-44321158D01*
X105800500Y-44321155D01*
X105800499Y-44321153D01*
X105770380Y-44169735D01*
X105769737Y-44166503D01*
X105733308Y-44078554D01*
X105709397Y-44020827D01*
X105709390Y-44020814D01*
X105621789Y-43889711D01*
X105621786Y-43889707D01*
X105510292Y-43778213D01*
X105510288Y-43778210D01*
X105379185Y-43690609D01*
X105379172Y-43690602D01*
X105233501Y-43630264D01*
X105233489Y-43630261D01*
X105078845Y-43599500D01*
X105078842Y-43599500D01*
X104921158Y-43599500D01*
X104921155Y-43599500D01*
X104766510Y-43630261D01*
X104766498Y-43630264D01*
X104620827Y-43690602D01*
X104620814Y-43690609D01*
X104489711Y-43778210D01*
X104489707Y-43778213D01*
X104378213Y-43889707D01*
X104378210Y-43889711D01*
X104290609Y-44020814D01*
X104290602Y-44020827D01*
X104230264Y-44166498D01*
X104230261Y-44166510D01*
X104199500Y-44321153D01*
X100500500Y-44321153D01*
X100500500Y-40571153D01*
X123176979Y-40571153D01*
X123176979Y-40728846D01*
X123207740Y-40883489D01*
X123207743Y-40883501D01*
X123268081Y-41029172D01*
X123268088Y-41029185D01*
X123302783Y-41081109D01*
X123323661Y-41147786D01*
X123305177Y-41215167D01*
X123302783Y-41218891D01*
X123268088Y-41270814D01*
X123268081Y-41270827D01*
X123207743Y-41416498D01*
X123207740Y-41416510D01*
X123176979Y-41571153D01*
X123176979Y-41728846D01*
X123207740Y-41883489D01*
X123207743Y-41883501D01*
X123246698Y-41977548D01*
X123254167Y-42047018D01*
X123246698Y-42072452D01*
X123207743Y-42166498D01*
X123207740Y-42166510D01*
X123176979Y-42321153D01*
X123176979Y-42478846D01*
X123207740Y-42633489D01*
X123207743Y-42633501D01*
X123268081Y-42779172D01*
X123268088Y-42779185D01*
X123302783Y-42831109D01*
X123323661Y-42897786D01*
X123305177Y-42965167D01*
X123302783Y-42968891D01*
X123268088Y-43020814D01*
X123268081Y-43020827D01*
X123207743Y-43166498D01*
X123207740Y-43166510D01*
X123176979Y-43321153D01*
X123176979Y-43478846D01*
X123207740Y-43633489D01*
X123207743Y-43633501D01*
X123268081Y-43779172D01*
X123268088Y-43779185D01*
X123355689Y-43910288D01*
X123355692Y-43910292D01*
X123467186Y-44021786D01*
X123467190Y-44021789D01*
X123598293Y-44109390D01*
X123598306Y-44109397D01*
X123736162Y-44166498D01*
X123743982Y-44169737D01*
X123898632Y-44200499D01*
X123898635Y-44200500D01*
X123898637Y-44200500D01*
X124056323Y-44200500D01*
X124056324Y-44200499D01*
X124210976Y-44169737D01*
X124356658Y-44109394D01*
X124487768Y-44021789D01*
X124599268Y-43910289D01*
X124686873Y-43779179D01*
X124747216Y-43633497D01*
X124752862Y-43605114D01*
X124777979Y-43478844D01*
X124777979Y-43321155D01*
X124777978Y-43321153D01*
X124747217Y-43166510D01*
X124747216Y-43166503D01*
X124728028Y-43120179D01*
X124686875Y-43020825D01*
X124686873Y-43020822D01*
X124686873Y-43020821D01*
X124652173Y-42968889D01*
X124647518Y-42954025D01*
X124638391Y-42941401D01*
X124637291Y-42921365D01*
X124631295Y-42902215D01*
X124635363Y-42886230D01*
X124634563Y-42871636D01*
X124645464Y-42846548D01*
X124647443Y-42838776D01*
X124649658Y-42834873D01*
X124686873Y-42779179D01*
X124703923Y-42738018D01*
X124747214Y-42633501D01*
X124747216Y-42633497D01*
X124777979Y-42478842D01*
X124777979Y-42321158D01*
X124777979Y-42321155D01*
X124777978Y-42321153D01*
X124747217Y-42166510D01*
X124747216Y-42166503D01*
X124708257Y-42072449D01*
X124700789Y-42002984D01*
X124708254Y-41977556D01*
X124747216Y-41883497D01*
X124777979Y-41728842D01*
X124777979Y-41571158D01*
X124777979Y-41571155D01*
X124777978Y-41571153D01*
X124747217Y-41416510D01*
X124747216Y-41416503D01*
X124747214Y-41416498D01*
X124686875Y-41270825D01*
X124686873Y-41270822D01*
X124686873Y-41270821D01*
X124652173Y-41218889D01*
X124631295Y-41152215D01*
X124649779Y-41084835D01*
X124652155Y-41081136D01*
X124686873Y-41029179D01*
X124747216Y-40883497D01*
X124777979Y-40728842D01*
X124777979Y-40571158D01*
X124777979Y-40571155D01*
X124777978Y-40571153D01*
X124747217Y-40416510D01*
X124747216Y-40416503D01*
X124747214Y-40416498D01*
X124686876Y-40270827D01*
X124686869Y-40270814D01*
X124599268Y-40139711D01*
X124599265Y-40139707D01*
X124487771Y-40028213D01*
X124487767Y-40028210D01*
X124356664Y-39940609D01*
X124356651Y-39940602D01*
X124210980Y-39880264D01*
X124210968Y-39880261D01*
X124056324Y-39849500D01*
X124056321Y-39849500D01*
X123898637Y-39849500D01*
X123898634Y-39849500D01*
X123743989Y-39880261D01*
X123743977Y-39880264D01*
X123598306Y-39940602D01*
X123598293Y-39940609D01*
X123467190Y-40028210D01*
X123467186Y-40028213D01*
X123355692Y-40139707D01*
X123355689Y-40139711D01*
X123268088Y-40270814D01*
X123268081Y-40270827D01*
X123207743Y-40416498D01*
X123207740Y-40416510D01*
X123176979Y-40571153D01*
X100500500Y-40571153D01*
X100500500Y-38938226D01*
X100520185Y-38871187D01*
X100572989Y-38825432D01*
X100642147Y-38815488D01*
X100705703Y-38844513D01*
X100742431Y-38899908D01*
X100748444Y-38918414D01*
X100844951Y-39107820D01*
X100969890Y-39279786D01*
X101120213Y-39430109D01*
X101292179Y-39555048D01*
X101292181Y-39555049D01*
X101292184Y-39555051D01*
X101481588Y-39651557D01*
X101683757Y-39717246D01*
X101893713Y-39750500D01*
X101893714Y-39750500D01*
X102106286Y-39750500D01*
X102106287Y-39750500D01*
X102316243Y-39717246D01*
X102518412Y-39651557D01*
X102707816Y-39555051D01*
X102729789Y-39539086D01*
X102879786Y-39430109D01*
X102879788Y-39430106D01*
X102879792Y-39430104D01*
X103030104Y-39279792D01*
X103030106Y-39279788D01*
X103030109Y-39279786D01*
X103155048Y-39107820D01*
X103155047Y-39107820D01*
X103155051Y-39107816D01*
X103251557Y-38918412D01*
X103317246Y-38716243D01*
X103350500Y-38506287D01*
X103350500Y-38293713D01*
X103317246Y-38083757D01*
X103251557Y-37881588D01*
X103155051Y-37692184D01*
X103155049Y-37692181D01*
X103155048Y-37692179D01*
X103030109Y-37520213D01*
X102879786Y-37369890D01*
X102707817Y-37244949D01*
X102688261Y-37234985D01*
X102637464Y-37187011D01*
X102620669Y-37119190D01*
X102643206Y-37053055D01*
X102697921Y-37009603D01*
X102744555Y-37000500D01*
X146496561Y-37000500D01*
X146563600Y-37020185D01*
G37*
%TD.AperFunction*%
%TD*%
M02*
