M48
; DRILL file {KiCad 9.0.5} date 2025-11-15T02:10:26-0500
; FORMAT={-:-/ absolute / metric / decimal}
; #@! TF.CreationDate,2025-11-15T02:10:26-05:00
; #@! TF.GenerationSoftware,Kicad,Pcbnew,9.0.5
; #@! TF.FileFunction,Plated,1,4,PTH
FMAT,2
METRIC
; #@! TA.AperFunction,Plated,PTH,ViaDrill
T1C0.300
; #@! TA.AperFunction,Plated,PTH,ComponentDrill
T2C0.600
; #@! TA.AperFunction,Plated,PTH,ComponentDrill
T3C0.800
; #@! TA.AperFunction,Plated,PTH,ComponentDrill
T4C1.100
; #@! TA.AperFunction,Plated,PTH,ComponentDrill
T5C1.346
%
G90
G05
T1
X100.8Y-69.0
X100.8Y-70.8
X102.5Y-86.2
X103.275Y-69.9
X104.438Y-68.837
X105.0Y-44.4
X105.8Y-56.0
X106.175Y-59.75
X106.6Y-57.049
X106.65Y-58.25
X107.4Y-66.0
X107.5Y-71.0
X107.8Y-91.9
X109.0Y-92.3
X109.1Y-54.8
X109.1Y-60.4
X109.1Y-61.2
X110.1Y-74.5
X110.1Y-93.5
X110.3Y-65.9
X110.9Y-94.5
X112.6Y-44.2
X113.0Y-68.46
X113.2Y-90.9
X113.3Y-80.9
X113.4Y-76.8
X113.5Y-78.1
X113.7Y-89.6
X113.8Y-81.9
X114.5Y-71.0
X115.412Y-67.812
X118.0Y-100.0
X118.1Y-85.7
X118.2Y-70.5
X118.2Y-75.6
X118.35Y-84.45
X118.9Y-67.0
X119.0Y-68.9
X119.4Y-52.0
X119.6Y-80.8
X119.7Y-37.6
X120.0Y-44.25
X120.75Y-57.65
X121.0Y-58.8
X121.1Y-50.2
X121.8Y-100.0
X122.25Y-60.9
X123.25Y-52.65
X123.25Y-59.4
X123.75Y-60.15
X123.8Y-63.9
X123.977Y-40.65
X123.977Y-41.65
X123.977Y-42.4
X123.977Y-43.4
X123.977Y-49.4
X124.0Y-52.65
X124.0Y-59.4
X125.3Y-58.3
X125.325Y-57.6
X126.1Y-57.6
X126.1Y-58.3
X126.205Y-62.001
X126.397Y-80.703
X126.422Y-81.977
X126.8Y-57.6
X126.8Y-58.3
X126.9Y-59.6
X126.95Y-51.65
X126.977Y-40.65
X126.977Y-43.4
X127.582Y-81.983
X127.607Y-80.707
X127.8Y-91.7
X127.9Y-94.8
X128.2Y-67.7
X128.25Y-52.4
X130.7Y-37.6
X131.0Y-44.25
X131.463Y-81.362
X131.75Y-55.9
X132.0Y-61.9
X132.5Y-51.4
X132.6Y-75.6
X132.6Y-76.8
X132.6Y-78.0
X132.6Y-87.0
X132.6Y-88.3
X132.7Y-89.6
X134.3Y-44.3
X135.1Y-57.4
X135.1Y-68.7
X136.5Y-60.65
X136.6Y-98.2
X137.2Y-80.7
X137.8Y-81.9
X137.8Y-83.2
X138.0Y-58.65
X138.2Y-60.4
X139.15Y-65.3
X139.4Y-98.2
X140.25Y-48.4
X140.5Y-66.8
X140.7Y-45.3
X141.85Y-65.6
X142.0Y-37.5
X142.025Y-68.0
X142.6Y-44.6
X143.4Y-80.7
X143.425Y-89.5
X143.6Y-68.0
X143.8Y-65.3
X147.0Y-37.9
X147.0Y-108.9
X147.0Y-114.4
X148.6Y-53.3
X148.6Y-61.8
T3
X145.525Y-43.725
X145.525Y-46.225
X145.525Y-48.725
X148.725Y-43.725
X148.725Y-46.225
X148.725Y-48.725
T4
X112.6Y-104.4
X115.14Y-104.4
X117.68Y-104.4
X120.22Y-104.4
X122.76Y-104.4
X125.3Y-104.4
X127.84Y-104.4
X130.38Y-104.4
X132.92Y-104.4
X135.46Y-104.4
X138.0Y-104.4
T5
X109.0Y-110.414
X109.0Y-122.914
X114.0Y-110.414
X114.0Y-122.914
X122.649Y-110.414
X122.649Y-122.914
X127.649Y-110.414
X127.649Y-122.914
X136.298Y-110.414
X136.298Y-122.914
X141.298Y-110.414
X141.298Y-122.914
T2
G00X102.815Y-53.68
M15
G01X103.615Y-53.68
M16
G05
G00X102.815Y-62.32
M15
G01X103.615Y-62.32
M16
G05
G00X106.845Y-53.68
M15
G01X107.945Y-53.68
M16
G05
G00X106.845Y-62.32
M15
G01X107.945Y-62.32
M16
G05
M30
