%TF.GenerationSoftware,KiCad,Pcbnew,9.0.5*%
%TF.CreationDate,2025-11-15T02:11:42-05:00*%
%TF.ProjectId,CreditCard,43726564-6974-4436-9172-642e6b696361,rev?*%
%TF.SameCoordinates,Original*%
%TF.FileFunction,Copper,L4,Bot*%
%TF.FilePolarity,Positive*%
%FSLAX46Y46*%
G04 Gerber Fmt 4.6, Leading zero omitted, Abs format (unit mm)*
G04 Created by KiCad (PCBNEW 9.0.5) date 2025-11-15 02:11:42*
%MOMM*%
%LPD*%
G01*
G04 APERTURE LIST*
G04 Aperture macros list*
%AMRoundRect*
0 Rectangle with rounded corners*
0 $1 Rounding radius*
0 $2 $3 $4 $5 $6 $7 $8 $9 X,Y pos of 4 corners*
0 Add a 4 corners polygon primitive as box body*
4,1,4,$2,$3,$4,$5,$6,$7,$8,$9,$2,$3,0*
0 Add four circle primitives for the rounded corners*
1,1,$1+$1,$2,$3*
1,1,$1+$1,$4,$5*
1,1,$1+$1,$6,$7*
1,1,$1+$1,$8,$9*
0 Add four rect primitives between the rounded corners*
20,1,$1+$1,$2,$3,$4,$5,0*
20,1,$1+$1,$4,$5,$6,$7,0*
20,1,$1+$1,$6,$7,$8,$9,0*
20,1,$1+$1,$8,$9,$2,$3,0*%
G04 Aperture macros list end*
%TA.AperFunction,SMDPad,CuDef*%
%ADD10C,1.500000*%
%TD*%
%TA.AperFunction,ComponentPad*%
%ADD11R,1.854200X1.854200*%
%TD*%
%TA.AperFunction,ComponentPad*%
%ADD12C,1.854200*%
%TD*%
%TA.AperFunction,ComponentPad*%
%ADD13R,1.308000X1.308000*%
%TD*%
%TA.AperFunction,ComponentPad*%
%ADD14C,1.308000*%
%TD*%
%TA.AperFunction,ComponentPad*%
%ADD15R,1.650000X1.650000*%
%TD*%
%TA.AperFunction,ComponentPad*%
%ADD16C,1.650000*%
%TD*%
%TA.AperFunction,SMDPad,CuDef*%
%ADD17RoundRect,0.250000X-0.325000X-0.650000X0.325000X-0.650000X0.325000X0.650000X-0.325000X0.650000X0*%
%TD*%
%TA.AperFunction,SMDPad,CuDef*%
%ADD18RoundRect,0.225000X0.225000X0.250000X-0.225000X0.250000X-0.225000X-0.250000X0.225000X-0.250000X0*%
%TD*%
%TA.AperFunction,SMDPad,CuDef*%
%ADD19RoundRect,0.135000X0.135000X0.185000X-0.135000X0.185000X-0.135000X-0.185000X0.135000X-0.185000X0*%
%TD*%
%TA.AperFunction,SMDPad,CuDef*%
%ADD20R,1.600000X1.000000*%
%TD*%
%TA.AperFunction,SMDPad,CuDef*%
%ADD21R,2.500000X3.000000*%
%TD*%
%TA.AperFunction,SMDPad,CuDef*%
%ADD22RoundRect,0.225000X-0.225000X-0.250000X0.225000X-0.250000X0.225000X0.250000X-0.225000X0.250000X0*%
%TD*%
%TA.AperFunction,SMDPad,CuDef*%
%ADD23RoundRect,0.250000X-0.250000X-0.475000X0.250000X-0.475000X0.250000X0.475000X-0.250000X0.475000X0*%
%TD*%
%TA.AperFunction,SMDPad,CuDef*%
%ADD24RoundRect,0.135000X0.185000X-0.135000X0.185000X0.135000X-0.185000X0.135000X-0.185000X-0.135000X0*%
%TD*%
%TA.AperFunction,SMDPad,CuDef*%
%ADD25RoundRect,0.200000X0.275000X-0.200000X0.275000X0.200000X-0.275000X0.200000X-0.275000X-0.200000X0*%
%TD*%
%TA.AperFunction,SMDPad,CuDef*%
%ADD26RoundRect,0.225000X-0.250000X0.225000X-0.250000X-0.225000X0.250000X-0.225000X0.250000X0.225000X0*%
%TD*%
%TA.AperFunction,SMDPad,CuDef*%
%ADD27RoundRect,0.250000X-0.250000X0.250000X-0.250000X-0.250000X0.250000X-0.250000X0.250000X0.250000X0*%
%TD*%
%TA.AperFunction,SMDPad,CuDef*%
%ADD28RoundRect,0.200000X-0.200000X-0.275000X0.200000X-0.275000X0.200000X0.275000X-0.200000X0.275000X0*%
%TD*%
%TA.AperFunction,SMDPad,CuDef*%
%ADD29R,1.140000X0.600000*%
%TD*%
%TA.AperFunction,SMDPad,CuDef*%
%ADD30R,1.140000X0.300000*%
%TD*%
%TA.AperFunction,ComponentPad*%
%ADD31O,2.100000X1.050000*%
%TD*%
%TA.AperFunction,ComponentPad*%
%ADD32O,1.800000X0.900000*%
%TD*%
%TA.AperFunction,SMDPad,CuDef*%
%ADD33R,2.209800X0.863600*%
%TD*%
%TA.AperFunction,SMDPad,CuDef*%
%ADD34RoundRect,0.250000X-0.475000X0.250000X-0.475000X-0.250000X0.475000X-0.250000X0.475000X0.250000X0*%
%TD*%
%TA.AperFunction,SMDPad,CuDef*%
%ADD35C,0.500000*%
%TD*%
%TA.AperFunction,SMDPad,CuDef*%
%ADD36R,1.397000X2.500000*%
%TD*%
%TA.AperFunction,SMDPad,CuDef*%
%ADD37RoundRect,0.200000X0.200000X0.275000X-0.200000X0.275000X-0.200000X-0.275000X0.200000X-0.275000X0*%
%TD*%
%TA.AperFunction,SMDPad,CuDef*%
%ADD38R,0.280000X1.449999*%
%TD*%
%TA.AperFunction,SMDPad,CuDef*%
%ADD39R,0.279998X1.449999*%
%TD*%
%TA.AperFunction,SMDPad,CuDef*%
%ADD40R,1.449999X0.280000*%
%TD*%
%TA.AperFunction,SMDPad,CuDef*%
%ADD41R,0.280000X1.549999*%
%TD*%
%TA.AperFunction,SMDPad,CuDef*%
%ADD42R,1.700000X1.700000*%
%TD*%
%TA.AperFunction,SMDPad,CuDef*%
%ADD43R,0.508000X0.955600*%
%TD*%
%TA.AperFunction,SMDPad,CuDef*%
%ADD44RoundRect,0.243750X-0.243750X-0.456250X0.243750X-0.456250X0.243750X0.456250X-0.243750X0.456250X0*%
%TD*%
%TA.AperFunction,SMDPad,CuDef*%
%ADD45RoundRect,0.135000X-0.135000X-0.185000X0.135000X-0.185000X0.135000X0.185000X-0.135000X0.185000X0*%
%TD*%
%TA.AperFunction,SMDPad,CuDef*%
%ADD46RoundRect,0.250000X0.250000X0.475000X-0.250000X0.475000X-0.250000X-0.475000X0.250000X-0.475000X0*%
%TD*%
%TA.AperFunction,SMDPad,CuDef*%
%ADD47R,1.511300X0.558800*%
%TD*%
%TA.AperFunction,SMDPad,CuDef*%
%ADD48RoundRect,0.225000X0.250000X-0.225000X0.250000X0.225000X-0.250000X0.225000X-0.250000X-0.225000X0*%
%TD*%
%TA.AperFunction,SMDPad,CuDef*%
%ADD49R,3.000000X0.900000*%
%TD*%
%TA.AperFunction,SMDPad,CuDef*%
%ADD50R,3.000000X0.899998*%
%TD*%
%TA.AperFunction,SMDPad,CuDef*%
%ADD51R,3.000000X0.899996*%
%TD*%
%TA.AperFunction,SMDPad,CuDef*%
%ADD52R,0.800000X0.800000*%
%TD*%
%TA.AperFunction,SMDPad,CuDef*%
%ADD53RoundRect,0.135000X-0.185000X0.135000X-0.185000X-0.135000X0.185000X-0.135000X0.185000X0.135000X0*%
%TD*%
%TA.AperFunction,ViaPad*%
%ADD54C,0.600000*%
%TD*%
%TA.AperFunction,Conductor*%
%ADD55C,0.200000*%
%TD*%
G04 APERTURE END LIST*
D10*
%TO.P,IOCHG_TP1,1,1*%
%TO.N,IO_CHG*%
X110000000Y-81150000D03*
%TD*%
%TO.P,Vsys_TP1,1,1*%
%TO.N,Vsys*%
X134250000Y-51650000D03*
%TD*%
%TO.P,Vbus_TP1,1,1*%
%TO.N,Vbus*%
X105000000Y-45900000D03*
%TD*%
%TO.P,Vbat_TP1,1,1*%
%TO.N,Vbat*%
X145250000Y-38650000D03*
%TD*%
D11*
%TO.P,SW1,1,1*%
%TO.N,GPIO2*%
X109000000Y-122914250D03*
D12*
%TO.P,SW1,2,2*%
%TO.N,GND*%
X114000000Y-122914250D03*
%TO.P,SW1,3,3*%
X114000000Y-110414250D03*
%TO.P,SW1,4,4*%
%TO.N,GPIO2*%
X109000000Y-110414250D03*
%TD*%
D13*
%TO.P,S1,1*%
%TO.N,Vsys*%
X145525000Y-48725000D03*
D14*
%TO.P,S1,2*%
%TO.N,/PWR/POWER_EN*%
X145525000Y-46225000D03*
%TO.P,S1,3*%
%TO.N,GND*%
X145525000Y-43725000D03*
%TO.P,S1,4*%
%TO.N,Vsys*%
X148725000Y-48725000D03*
%TO.P,S1,5*%
%TO.N,/PWR/POWER_EN*%
X148725000Y-46225000D03*
%TO.P,S1,6*%
%TO.N,GND*%
X148725000Y-43725000D03*
%TD*%
D11*
%TO.P,SW2,1,1*%
%TO.N,GPIO3*%
X122649200Y-122914250D03*
D12*
%TO.P,SW2,2,2*%
%TO.N,GND*%
X127649200Y-122914250D03*
%TO.P,SW2,3,3*%
X127649200Y-110414250D03*
%TO.P,SW2,4,4*%
%TO.N,GPIO3*%
X122649200Y-110414250D03*
%TD*%
D15*
%TO.P,J2,1,1*%
%TO.N,3V3*%
X112600000Y-104400000D03*
D16*
%TO.P,J2,2,2*%
%TO.N,unconnected-(J2-Pad2)*%
X115140000Y-104400000D03*
%TO.P,J2,3,3*%
%TO.N,GND*%
X117680000Y-104400000D03*
%TO.P,J2,4,4*%
%TO.N,SCK*%
X120220000Y-104400000D03*
%TO.P,J2,5,5*%
%TO.N,MISO*%
X122760000Y-104400000D03*
%TO.P,J2,6,6*%
%TO.N,MOSI*%
X125300000Y-104400000D03*
%TO.P,J2,7,7*%
%TO.N,LCD_CS*%
X127840000Y-104400000D03*
%TO.P,J2,8,8*%
%TO.N,LCD_RESET*%
X130380000Y-104400000D03*
%TO.P,J2,9,9*%
%TO.N,LCD_D{slash}C*%
X132920000Y-104400000D03*
%TO.P,J2,10,10*%
%TO.N,CS_SD*%
X135460000Y-104400000D03*
%TO.P,J2,11,11*%
%TO.N,Net-(J2-Pad11)*%
X138000000Y-104400000D03*
%TD*%
D11*
%TO.P,SW3,1,1*%
%TO.N,GPIO4*%
X136298400Y-122914250D03*
D12*
%TO.P,SW3,2,2*%
%TO.N,GND*%
X141298400Y-122914250D03*
%TO.P,SW3,3,3*%
X141298400Y-110414250D03*
%TO.P,SW3,4,4*%
%TO.N,GPIO4*%
X136298400Y-110414250D03*
%TD*%
D17*
%TO.P,C7,1*%
%TO.N,3V3*%
X141925000Y-64200000D03*
%TO.P,C7,2*%
%TO.N,GND*%
X144875000Y-64200000D03*
%TD*%
D18*
%TO.P,C24,1*%
%TO.N,3V3*%
X103275000Y-70795000D03*
%TO.P,C24,2*%
%TO.N,GND*%
X101725000Y-70795000D03*
%TD*%
D19*
%TO.P,R31,1*%
%TO.N,GND*%
X127500099Y-52520100D03*
%TO.P,R31,2*%
%TO.N,/PWR/CE_CHR*%
X126480099Y-52520100D03*
%TD*%
D20*
%TO.P,Y1,1*%
%TO.N,XTAL_P*%
X142100000Y-86400000D03*
%TO.P,Y1,2*%
%TO.N,XTAL_N*%
X142100000Y-83800000D03*
D21*
%TO.P,Y1,S1*%
%TO.N,N/C*%
X148350000Y-85100000D03*
%TD*%
D10*
%TO.P,GND_TP1,1,1*%
%TO.N,GND*%
X147000000Y-112400000D03*
%TD*%
D22*
%TO.P,C8,1*%
%TO.N,3V3*%
X142025000Y-69000000D03*
%TO.P,C8,2*%
%TO.N,GND*%
X143575000Y-69000000D03*
%TD*%
D23*
%TO.P,C4,1*%
%TO.N,3V3*%
X141850000Y-66800000D03*
%TO.P,C4,2*%
%TO.N,GND*%
X143750000Y-66800000D03*
%TD*%
D22*
%TO.P,C11,1*%
%TO.N,GPIO3*%
X124425000Y-120200000D03*
%TO.P,C11,2*%
%TO.N,GND*%
X125975000Y-120200000D03*
%TD*%
D24*
%TO.P,R8,1*%
%TO.N,/PWR/TS_CHR*%
X121990099Y-51230100D03*
%TO.P,R8,2*%
%TO.N,GND*%
X121990099Y-50210100D03*
%TD*%
D22*
%TO.P,C12,1*%
%TO.N,XTAL_P*%
X141875000Y-88300000D03*
%TO.P,C12,2*%
%TO.N,GND*%
X143425000Y-88300000D03*
%TD*%
D25*
%TO.P,R10,1*%
%TO.N,/PWR/POWER_EN*%
X141725000Y-46250000D03*
%TO.P,R10,2*%
%TO.N,GND*%
X141725000Y-44600000D03*
%TD*%
D26*
%TO.P,C22,1*%
%TO.N,Net-(C22-Pad1)*%
X102746307Y-74370000D03*
%TO.P,C22,2*%
%TO.N,AudioR*%
X102746307Y-75920000D03*
%TD*%
D27*
%TO.P,D5,1,A1*%
%TO.N,GND*%
X139725000Y-44775000D03*
%TO.P,D5,2,A2*%
%TO.N,Vsys*%
X139725000Y-47275000D03*
%TD*%
D28*
%TO.P,R4,1*%
%TO.N,Vsys*%
X126965099Y-62920100D03*
%TO.P,R4,2*%
%TO.N,Net-(D2-A)*%
X128615099Y-62920100D03*
%TD*%
D20*
%TO.P,U11,1,VDD*%
%TO.N,Net-(U10-+OUT_L)*%
X113500000Y-63500000D03*
%TO.P,U11,2,GND*%
%TO.N,Net-(U10--OUT_L)*%
X113500000Y-66500000D03*
%TD*%
D22*
%TO.P,C17,1*%
%TO.N,XTAL_N*%
X141875000Y-81900000D03*
%TO.P,C17,2*%
%TO.N,GND*%
X143425000Y-81900000D03*
%TD*%
D29*
%TO.P,J3,A1_B12,GND*%
%TO.N,GND*%
X107965000Y-61200000D03*
%TO.P,J3,A4_B9,VBUS*%
%TO.N,Vbus*%
X107965000Y-60400000D03*
D30*
%TO.P,J3,A5,CC1_A*%
%TO.N,Net-(J3-CC1_A)*%
X107965000Y-59250000D03*
%TO.P,J3,A6,D+_A*%
%TO.N,D_P*%
X107965000Y-58250000D03*
%TO.P,J3,A7,D-_A*%
%TO.N,D_N*%
X107965000Y-57750000D03*
%TO.P,J3,A8,SBU1*%
%TO.N,Net-(F6-GOLDFINGER)*%
X107965000Y-56750000D03*
D29*
%TO.P,J3,B1_A12,GND__1*%
%TO.N,GND*%
X107965000Y-54800000D03*
%TO.P,J3,B4_A9,VBUS__1*%
%TO.N,unconnected-(J3-VBUS__1-PadB4_A9)*%
X107965000Y-55600000D03*
D30*
%TO.P,J3,B5,CC1_B*%
%TO.N,Net-(J3-CC1_B)*%
X107965000Y-56250000D03*
%TO.P,J3,B6,D+_B*%
%TO.N,D_P*%
X107965000Y-57250000D03*
%TO.P,J3,B7,D-_B*%
%TO.N,D_N*%
X107965000Y-58750000D03*
%TO.P,J3,B8,SBU2*%
%TO.N,Net-(F5-GOLDFINGER)*%
X107965000Y-59750000D03*
D31*
%TO.P,J3,SH1,SHIELD*%
%TO.N,GND*%
X107395000Y-62320000D03*
%TO.P,J3,SH2,SHIELD__1*%
X107395000Y-53680000D03*
D32*
%TO.P,J3,SH3,SHIELD__2*%
X103215000Y-62320000D03*
%TO.P,J3,SH4,SHIELD__3*%
X103215000Y-53680000D03*
%TD*%
D33*
%TO.P,U3,1,1*%
%TO.N,MCU_EN*%
X126557000Y-72150000D03*
%TO.P,U3,2,2*%
X134050000Y-72150000D03*
%TO.P,U3,3,3*%
%TO.N,GND*%
X126557000Y-67649998D03*
%TO.P,U3,4,4*%
X134050000Y-67649998D03*
%TD*%
D34*
%TO.P,C15,1*%
%TO.N,Vsys*%
X123790099Y-60970100D03*
%TO.P,C15,2*%
%TO.N,GND*%
X123790099Y-62870100D03*
%TD*%
D35*
%TO.P,FID2,*%
%TO.N,*%
X102500000Y-119900000D03*
%TD*%
D28*
%TO.P,R15,1*%
%TO.N,Net-(U10-INL)*%
X113675000Y-72245000D03*
%TO.P,R15,2*%
%TO.N,Net-(C6-Pad1)*%
X115325000Y-72245000D03*
%TD*%
D25*
%TO.P,R11,1*%
%TO.N,Net-(J3-CC1_B)*%
X110175000Y-56425000D03*
%TO.P,R11,2*%
%TO.N,GND*%
X110175000Y-54775000D03*
%TD*%
D36*
%TO.P,J1,1,1_1*%
%TO.N,GND*%
X126977478Y-45166955D03*
%TO.P,J1,2,1_2*%
X126977478Y-38966957D03*
%TO.P,J1,3,2_1*%
%TO.N,Vbat*%
X123977479Y-45166955D03*
%TO.P,J1,4,2_2*%
X123977479Y-38966957D03*
%TD*%
D37*
%TO.P,R18,1*%
%TO.N,3V3*%
X117825000Y-68800000D03*
%TO.P,R18,2*%
%TO.N,Net-(U10-MUTE)*%
X116175000Y-68800000D03*
%TD*%
D38*
%TO.P,U1,1,TS*%
%TO.N,/PWR/TS_CHR*%
X122799999Y-54400000D03*
%TO.P,U1,2,BAT*%
%TO.N,Vbat*%
X123300000Y-54400000D03*
D39*
%TO.P,U1,3,BAT*%
X123799999Y-54400000D03*
D38*
%TO.P,U1,4,\u002ACE*%
%TO.N,/PWR/CE_CHR*%
X124300001Y-54400000D03*
D40*
%TO.P,U1,5,EN2*%
%TO.N,/PWR/EN2_CHR*%
X125325000Y-55424811D03*
%TO.P,U1,6,EN1*%
%TO.N,/PWR/EN1_CHR*%
X125325000Y-55924937D03*
%TO.P,U1,7,\u002APGOOD*%
%TO.N,Net-(D3-K)*%
X125325000Y-56425063D03*
%TO.P,U1,8,VSS*%
%TO.N,GND*%
X125325000Y-56925189D03*
D41*
%TO.P,U1,9,\u002ACHG*%
%TO.N,IO_CHG*%
X124300001Y-58000000D03*
%TO.P,U1,10,OUT*%
%TO.N,Vsys*%
X123800000Y-58000000D03*
%TO.P,U1,11,OUT*%
X123300000Y-58000000D03*
%TO.P,U1,12,ILIM*%
%TO.N,/PWR/ILIM_CHR*%
X122799999Y-58000000D03*
D40*
%TO.P,U1,13,IN*%
%TO.N,Vbus*%
X121775000Y-56925189D03*
%TO.P,U1,14,TMR*%
%TO.N,/PWR/TMR_CHR*%
X121775000Y-56425063D03*
%TO.P,U1,15,TD*%
%TO.N,/PWR/TD_CHR*%
X121775000Y-55924937D03*
%TO.P,U1,16,ISET*%
%TO.N,/PWR/ISET_CHR*%
X121775000Y-55424811D03*
D42*
%TO.P,U1,17,EPAD*%
%TO.N,GND*%
X123550000Y-56175000D03*
%TD*%
D22*
%TO.P,C18,1*%
%TO.N,GPIO4*%
X138025000Y-120200000D03*
%TO.P,C18,2*%
%TO.N,GND*%
X139575000Y-120200000D03*
%TD*%
D43*
%TO.P,U2,1,VIN*%
%TO.N,Vsys*%
X137249999Y-61522200D03*
%TO.P,U2,2,GND*%
%TO.N,GND*%
X138200000Y-61522200D03*
%TO.P,U2,3,\u002ASHDN*%
%TO.N,/PWR/POWER_EN*%
X139150001Y-61522200D03*
%TO.P,U2,4,VFB/VOUT*%
%TO.N,3V3*%
X139150001Y-64077800D03*
%TO.P,U2,5,LX*%
%TO.N,Net-(U2-LX)*%
X137249999Y-64077800D03*
%TD*%
D25*
%TO.P,R5,1*%
%TO.N,Vsys*%
X130590099Y-61545100D03*
%TO.P,R5,2*%
%TO.N,Net-(D3-A)*%
X130590099Y-59895100D03*
%TD*%
D18*
%TO.P,C5,1*%
%TO.N,Net-(U10-VREF)*%
X111675450Y-75545000D03*
%TO.P,C5,2*%
%TO.N,GND*%
X110125450Y-75545000D03*
%TD*%
D44*
%TO.P,D3,1,K*%
%TO.N,Net-(D3-K)*%
X128252599Y-57920100D03*
%TO.P,D3,2,A*%
%TO.N,Net-(D3-A)*%
X130127599Y-57920100D03*
%TD*%
D24*
%TO.P,R7,1*%
%TO.N,/PWR/ISET_CHR*%
X119390099Y-53830100D03*
%TO.P,R7,2*%
%TO.N,GND*%
X119390099Y-52810100D03*
%TD*%
D35*
%TO.P,FID3,*%
%TO.N,*%
X147750000Y-119900000D03*
%TD*%
D22*
%TO.P,C6,1*%
%TO.N,Net-(C6-Pad1)*%
X117225000Y-72500000D03*
%TO.P,C6,2*%
%TO.N,AudioL*%
X118775000Y-72500000D03*
%TD*%
D44*
%TO.P,L1,1,1*%
%TO.N,Net-(U2-LX)*%
X137462500Y-66800000D03*
%TO.P,L1,2,2*%
%TO.N,3V3*%
X139337500Y-66800000D03*
%TD*%
D26*
%TO.P,C14,1*%
%TO.N,Vbus*%
X119790099Y-57145100D03*
%TO.P,C14,2*%
%TO.N,GND*%
X119790099Y-58695100D03*
%TD*%
D23*
%TO.P,C13,1*%
%TO.N,Vbat*%
X124040099Y-50720100D03*
%TO.P,C13,2*%
%TO.N,GND*%
X125940099Y-50720100D03*
%TD*%
D10*
%TO.P,3V3_TP1,1,1*%
%TO.N,3V3*%
X147000000Y-106900000D03*
%TD*%
D45*
%TO.P,R26,1*%
%TO.N,/PWR/EN1_CHR*%
X129880099Y-55920100D03*
%TO.P,R26,2*%
%TO.N,Vsys*%
X130900099Y-55920100D03*
%TD*%
D46*
%TO.P,C3,1*%
%TO.N,Vsys*%
X136950000Y-58800000D03*
%TO.P,C3,2*%
%TO.N,GND*%
X135050000Y-58800000D03*
%TD*%
D26*
%TO.P,C9,1*%
%TO.N,IO9*%
X125950000Y-97075000D03*
%TO.P,C9,2*%
%TO.N,GND*%
X125950000Y-98625000D03*
%TD*%
D47*
%TO.P,U10,1,+OUT_L*%
%TO.N,Net-(U10-+OUT_L)*%
X111500000Y-64650000D03*
%TO.P,U10,2,PGND*%
%TO.N,GND*%
X111500000Y-65920000D03*
%TO.P,U10,3,-OUT_L*%
%TO.N,Net-(U10--OUT_L)*%
X111500000Y-67190000D03*
%TO.P,U10,4,PVDD*%
%TO.N,3V3*%
X111500000Y-68460000D03*
%TO.P,U10,5,MUTE*%
%TO.N,Net-(U10-MUTE)*%
X111500000Y-69730000D03*
%TO.P,U10,6,VDD*%
%TO.N,3V3*%
X111500000Y-71000000D03*
%TO.P,U10,7,INL*%
%TO.N,Net-(U10-INL)*%
X111500000Y-72270000D03*
%TO.P,U10,8,VREF*%
%TO.N,Net-(U10-VREF)*%
X111500000Y-73540000D03*
%TO.P,U10,9,NC*%
%TO.N,unconnected-(U10-NC-Pad9)*%
X106000900Y-73540000D03*
%TO.P,U10,10,INR*%
%TO.N,Net-(U10-INR)*%
X106000900Y-72270000D03*
%TO.P,U10,11,GND*%
%TO.N,GND*%
X106000900Y-71000000D03*
%TO.P,U10,12,SHND*%
%TO.N,AudioCS*%
X106000900Y-69730000D03*
%TO.P,U10,13,PVDD*%
%TO.N,3V3*%
X106000900Y-68460000D03*
%TO.P,U10,14,-OUT_R*%
%TO.N,Net-(U10--OUT_R)*%
X106000900Y-67190000D03*
%TO.P,U10,15,PGND*%
%TO.N,GND*%
X106000900Y-65920000D03*
%TO.P,U10,16,+OUT_R*%
%TO.N,Net-(U10-+OUT_R)*%
X106000900Y-64650000D03*
%TD*%
D28*
%TO.P,R16,1*%
%TO.N,Net-(C22-Pad1)*%
X101675000Y-72500000D03*
%TO.P,R16,2*%
%TO.N,Net-(U10-INR)*%
X103325000Y-72500000D03*
%TD*%
D33*
%TO.P,U4,1,1*%
%TO.N,IO9*%
X123646500Y-95499999D03*
%TO.P,U4,2,2*%
X116153500Y-95499999D03*
%TO.P,U4,3,3*%
%TO.N,GND*%
X123646500Y-100000001D03*
%TO.P,U4,4,4*%
X116153500Y-100000001D03*
%TD*%
D35*
%TO.P,FID6,*%
%TO.N,*%
X105500000Y-40650000D03*
%TD*%
D18*
%TO.P,C23,1*%
%TO.N,3V3*%
X103275000Y-69000000D03*
%TO.P,C23,2*%
%TO.N,GND*%
X101725000Y-69000000D03*
%TD*%
D22*
%TO.P,C10,1*%
%TO.N,GPIO2*%
X110825000Y-120200000D03*
%TO.P,C10,2*%
%TO.N,GND*%
X112375000Y-120200000D03*
%TD*%
D18*
%TO.P,C26,1*%
%TO.N,GND*%
X116975000Y-70500000D03*
%TO.P,C26,2*%
%TO.N,3V3*%
X115425000Y-70500000D03*
%TD*%
D25*
%TO.P,R12,1*%
%TO.N,GND*%
X110175000Y-61225000D03*
%TO.P,R12,2*%
%TO.N,Net-(J3-CC1_A)*%
X110175000Y-59575000D03*
%TD*%
D44*
%TO.P,D2,1,K*%
%TO.N,IO_CHG*%
X126852599Y-60920100D03*
%TO.P,D2,2,A*%
%TO.N,Net-(D2-A)*%
X128727599Y-60920100D03*
%TD*%
D20*
%TO.P,U9,1,VDD*%
%TO.N,Net-(U10-+OUT_R)*%
X103500000Y-64500000D03*
%TO.P,U9,2,GND*%
%TO.N,Net-(U10--OUT_R)*%
X103500000Y-67500000D03*
%TD*%
D48*
%TO.P,C1,1*%
%TO.N,MCU_EN*%
X136200000Y-70725000D03*
%TO.P,C1,2*%
%TO.N,GND*%
X136200000Y-69175000D03*
%TD*%
D45*
%TO.P,R23,1*%
%TO.N,/PWR/TD_CHR*%
X121240000Y-60150000D03*
%TO.P,R23,2*%
%TO.N,Vsys*%
X122260000Y-60150000D03*
%TD*%
D49*
%TO.P,U8,1,GND*%
%TO.N,GND*%
X135000000Y-75590000D03*
%TO.P,U8,2,3V3*%
%TO.N,3V3*%
X135000000Y-76860000D03*
%TO.P,U8,3,EN*%
%TO.N,MCU_EN*%
X135000000Y-78130000D03*
%TO.P,U8,4,IO4*%
%TO.N,GPIO4*%
X135000000Y-79400000D03*
%TO.P,U8,5,IO5*%
%TO.N,GPIO5*%
X135000000Y-80670000D03*
%TO.P,U8,6,IO6*%
%TO.N,GPIO6*%
X135000000Y-81940000D03*
%TO.P,U8,7,IO7*%
%TO.N,GPIO7*%
X135000000Y-83210000D03*
%TO.P,U8,8,IO0*%
%TO.N,XTAL_N*%
X135000000Y-84480000D03*
%TO.P,U8,9,IO1*%
%TO.N,XTAL_P*%
X135000000Y-85750000D03*
%TO.P,U8,10,IO8*%
%TO.N,Net-(U8-IO8)*%
X135000000Y-87020000D03*
%TO.P,U8,11,IO10*%
%TO.N,AudioL*%
X135000000Y-88290000D03*
%TO.P,U8,12,IO11*%
%TO.N,AudioR*%
X135000000Y-89560000D03*
D50*
%TO.P,U8,13,IO12*%
%TO.N,D_N*%
X135000000Y-90829999D03*
%TO.P,U8,14,IO13*%
%TO.N,D_P*%
X135000000Y-92099999D03*
D49*
%TO.P,U8,15,IO9*%
%TO.N,IO9*%
X116000000Y-92100000D03*
%TO.P,U8,16,IO18*%
%TO.N,MISO*%
X116000000Y-90830000D03*
%TO.P,U8,17,IO19*%
%TO.N,MOSI*%
X116000000Y-89560000D03*
%TO.P,U8,18,IO20*%
%TO.N,AudioCS*%
X116000000Y-88290000D03*
%TO.P,U8,19,IO21*%
%TO.N,LCD_CS*%
X116000000Y-87020000D03*
%TO.P,U8,20,IO22*%
%TO.N,CS_SD*%
X116000000Y-85750000D03*
%TO.P,U8,21,IO23*%
%TO.N,IO_CHG*%
X116000000Y-84480000D03*
D50*
%TO.P,U8,22,NC*%
%TO.N,unconnected-(U8-NC-Pad22)*%
X116000000Y-83210001D03*
D51*
%TO.P,U8,23,IO15*%
%TO.N,SCK*%
X116000000Y-81940002D03*
D50*
%TO.P,U8,24,RXD0/GPIO17*%
%TO.N,LCD_D{slash}C*%
X116000000Y-80670001D03*
D49*
%TO.P,U8,25,TXD0/GPIO16*%
%TO.N,LCD_RESET*%
X116000000Y-79400000D03*
D50*
%TO.P,U8,26,IO3*%
%TO.N,GPIO3*%
X116000000Y-78130001D03*
D49*
%TO.P,U8,27,IO2*%
%TO.N,GPIO2*%
X116000000Y-76860000D03*
D50*
%TO.P,U8,28,GND__1*%
%TO.N,GND*%
X116000000Y-75590001D03*
D52*
%TO.P,U8,29_1,GND__2*%
X128255000Y-80060000D03*
%TO.P,U8,29_2,GND__3*%
X127005000Y-80060000D03*
%TO.P,U8,29_3,GND__4*%
X125755000Y-80060000D03*
%TO.P,U8,29_4,GND__5*%
X128255000Y-81310000D03*
%TO.P,U8,29_5,GND__6*%
X127005000Y-81310000D03*
%TO.P,U8,29_6,GND__7*%
X125755000Y-81310000D03*
%TO.P,U8,29_7,GND__8*%
X128255000Y-82560000D03*
%TO.P,U8,29_8,GND__9*%
X127005000Y-82560000D03*
%TO.P,U8,29_9,GND__10*%
X125755000Y-82560000D03*
%TD*%
D48*
%TO.P,C16,1*%
%TO.N,/PWR/POWER_EN*%
X143525000Y-46200000D03*
%TO.P,C16,2*%
%TO.N,GND*%
X143525000Y-44650000D03*
%TD*%
D22*
%TO.P,C25,1*%
%TO.N,3V3*%
X116225000Y-67000000D03*
%TO.P,C25,2*%
%TO.N,GND*%
X117775000Y-67000000D03*
%TD*%
D53*
%TO.P,R29,1*%
%TO.N,GND*%
X127790099Y-53610100D03*
%TO.P,R29,2*%
%TO.N,/PWR/EN2_CHR*%
X127790099Y-54630100D03*
%TD*%
D54*
%TO.N,Vbat*%
X147000000Y-37900000D03*
%TO.N,Vsys*%
X132500000Y-51400000D03*
%TO.N,Vbus*%
X105000000Y-44400000D03*
%TO.N,GND*%
X147000000Y-114400000D03*
%TO.N,3V3*%
X147000000Y-108900000D03*
X103275000Y-69900000D03*
X104437500Y-68837500D03*
X113000000Y-68460000D03*
X115412500Y-67812500D03*
X114500000Y-71000000D03*
X119000000Y-68900000D03*
%TO.N,Vsys*%
X140250000Y-48400000D03*
X136500000Y-60650000D03*
X138000000Y-58650000D03*
X131750000Y-55900000D03*
X132000000Y-61900000D03*
X126204664Y-62000783D03*
X123750000Y-60150000D03*
X122250000Y-60900000D03*
X124000000Y-59400000D03*
X123250000Y-59400000D03*
%TO.N,Vbat*%
X123977479Y-40650000D03*
X123977479Y-41650000D03*
X123977479Y-42400000D03*
X123977479Y-43400000D03*
X123977479Y-49400000D03*
X124000000Y-52650000D03*
X123250000Y-52650000D03*
%TO.N,3V3*%
X141850000Y-65600000D03*
X148600000Y-61800000D03*
X140500000Y-66800000D03*
X132600000Y-76800000D03*
X142025000Y-68000000D03*
X139400000Y-98200000D03*
X131462500Y-81362500D03*
X139150001Y-65300000D03*
%TO.N,MCU_EN*%
X132600000Y-78000000D03*
%TO.N,GND*%
X118000000Y-100000001D03*
X121100000Y-50200000D03*
X125300000Y-58300000D03*
X126422500Y-81977500D03*
X130700000Y-37600000D03*
X109100000Y-54800000D03*
X109100000Y-61200000D03*
X126949999Y-51650001D03*
X126100000Y-57600000D03*
X143600000Y-68000000D03*
X131000000Y-44250001D03*
X126977478Y-43400000D03*
X118200000Y-75600000D03*
X100800000Y-69000000D03*
X126397500Y-80702500D03*
X125325000Y-57600000D03*
X121000000Y-58800003D03*
X123800000Y-63900000D03*
X118900000Y-67000000D03*
X127607500Y-80707500D03*
X126800000Y-58300000D03*
X121800000Y-100000000D03*
X110300000Y-65900000D03*
X120000000Y-44250001D03*
X138200000Y-60400000D03*
X132600000Y-75600000D03*
X100800000Y-70800000D03*
X143800000Y-65300000D03*
X119700000Y-37600000D03*
X128250000Y-52400000D03*
X126100000Y-58300000D03*
X136600000Y-98200000D03*
X107500000Y-71000000D03*
X142600000Y-44600000D03*
X148600000Y-53300000D03*
X134300000Y-44300000D03*
X135100000Y-57400000D03*
X110100000Y-74500000D03*
X135100001Y-68699999D03*
X118200000Y-70500000D03*
X140700000Y-45300000D03*
X142000000Y-37500000D03*
X128200000Y-67700000D03*
X119400000Y-52000000D03*
X127582500Y-81982500D03*
X143400000Y-80700000D03*
X112600000Y-44200000D03*
X143425000Y-89500000D03*
X107400000Y-66000000D03*
X126977478Y-40650000D03*
X126800000Y-57600000D03*
%TO.N,GPIO2*%
X102500000Y-86200000D03*
X113400000Y-76800000D03*
%TO.N,GPIO3*%
X113500000Y-78100000D03*
X107800000Y-91900000D03*
%TO.N,Vbus*%
X109100000Y-60400000D03*
X120750000Y-57650000D03*
%TO.N,GPIO5*%
X137200000Y-80700000D03*
%TO.N,GPIO6*%
X137800000Y-81900000D03*
%TO.N,GPIO7*%
X137800000Y-83200000D03*
%TO.N,IO_CHG*%
X118350000Y-84450000D03*
X126900000Y-59600000D03*
%TO.N,LCD_D{slash}C*%
X113300000Y-80900000D03*
X119600000Y-80800000D03*
%TO.N,CS_SD*%
X118100000Y-85700000D03*
%TO.N,MISO*%
X113200000Y-90900000D03*
X110100000Y-93500000D03*
%TO.N,MOSI*%
X113700000Y-89600000D03*
X110900000Y-94500000D03*
%TO.N,SCK*%
X109000000Y-92300000D03*
X113800000Y-81900000D03*
%TO.N,D_P*%
X106650000Y-58250000D03*
X106600473Y-57049000D03*
%TO.N,Net-(U8-IO8)*%
X132600000Y-87000000D03*
%TO.N,AudioL*%
X132600000Y-88300000D03*
X127800000Y-91700000D03*
%TO.N,AudioR*%
X132700000Y-89600000D03*
X127900000Y-94800000D03*
%TO.N,Net-(F5-GOLDFINGER)*%
X106175000Y-59750000D03*
%TO.N,Net-(F6-GOLDFINGER)*%
X105800000Y-56000000D03*
%TD*%
D55*
%TO.N,Vsys*%
X132750000Y-51650000D02*
X134250000Y-51650000D01*
X132500000Y-51400000D02*
X132750000Y-51650000D01*
%TO.N,Vbus*%
X105000000Y-45900000D02*
X105000000Y-44400000D01*
%TO.N,GND*%
X147000000Y-112400000D02*
X147000000Y-114400000D01*
%TO.N,3V3*%
X147000000Y-106900000D02*
X147000000Y-108900000D01*
X103275000Y-69900000D02*
X103275000Y-70795000D01*
X113000000Y-68460000D02*
X111500000Y-68460000D01*
X114500000Y-71000000D02*
X114925000Y-71000000D01*
X117825000Y-68800000D02*
X118900000Y-68800000D01*
%TO.N,Vsys*%
X126965099Y-62761218D02*
X126965099Y-62920100D01*
X126204664Y-62000783D02*
X126965099Y-62761218D01*
X131145100Y-61545100D02*
X130590099Y-61545100D01*
X131500000Y-61900000D02*
X131145100Y-61545100D01*
X132000000Y-61900000D02*
X131500000Y-61900000D01*
X139725000Y-47875000D02*
X140250000Y-48400000D01*
X139725000Y-47275000D02*
X139725000Y-47875000D01*
X137000000Y-60650000D02*
X136500000Y-60650000D01*
X137249999Y-60899999D02*
X137000000Y-60650000D01*
X137249999Y-61522200D02*
X137249999Y-60899999D01*
X136950000Y-58800000D02*
X137850000Y-58800000D01*
X137850000Y-58800000D02*
X138000000Y-58650000D01*
%TO.N,IO_CHG*%
X113080000Y-84480000D02*
X116000000Y-84480000D01*
X110000000Y-81400000D02*
X113080000Y-84480000D01*
%TO.N,Vsys*%
X131479900Y-55920100D02*
X130900099Y-55920100D01*
X131750000Y-55900000D02*
X131500000Y-55900000D01*
X131500000Y-55900000D02*
X131479900Y-55920100D01*
X122260000Y-60890000D02*
X122250000Y-60900000D01*
X122260000Y-60150000D02*
X122260000Y-60890000D01*
X123790099Y-60190099D02*
X123750000Y-60150000D01*
X123790099Y-60970100D02*
X123790099Y-60190099D01*
X123300000Y-59350000D02*
X123250000Y-59400000D01*
X123300000Y-58000000D02*
X123300000Y-59350000D01*
X123800000Y-59200000D02*
X124000000Y-59400000D01*
X123800000Y-58000000D02*
X123800000Y-59200000D01*
%TO.N,/PWR/TD_CHR*%
X118329999Y-60150000D02*
X121240000Y-60150000D01*
X117990099Y-57320100D02*
X117990099Y-59810100D01*
X119385262Y-55924937D02*
X117990099Y-57320100D01*
X121775000Y-55924937D02*
X119385262Y-55924937D01*
X117990099Y-59810100D02*
X118329999Y-60150000D01*
%TO.N,GND*%
X128250000Y-52400000D02*
X128140200Y-52400000D01*
X128020100Y-52520100D02*
X127500099Y-52520100D01*
X127790099Y-53309901D02*
X127790099Y-53610100D01*
X128250000Y-52850000D02*
X127790099Y-53309901D01*
X128140200Y-52400000D02*
X128020100Y-52520100D01*
X128250000Y-52400000D02*
X128250000Y-52850000D01*
X126977478Y-43400000D02*
X126977478Y-45166955D01*
X126977478Y-38966957D02*
X126977478Y-40650000D01*
%TO.N,Vbat*%
X123977479Y-42400000D02*
X123977479Y-43400000D01*
X123977479Y-41650000D02*
X123977479Y-42400000D01*
X123977479Y-40650000D02*
X123977479Y-41650000D01*
X123977479Y-38966957D02*
X123977479Y-40650000D01*
X123977479Y-43400000D02*
X123977479Y-45166955D01*
X123977479Y-49400000D02*
X123977479Y-50657480D01*
X123300000Y-52700000D02*
X123250000Y-52650000D01*
X123300000Y-54400000D02*
X123300000Y-52700000D01*
X123799999Y-52850001D02*
X124000000Y-52650000D01*
X123799999Y-54400000D02*
X123799999Y-52850001D01*
%TO.N,Vbus*%
X121474811Y-56925189D02*
X121775000Y-56925189D01*
X120750000Y-57650000D02*
X121474811Y-56925189D01*
%TO.N,GND*%
X121000000Y-58800003D02*
X119895002Y-58800003D01*
X119895002Y-58800003D02*
X119790099Y-58695100D01*
%TO.N,3V3*%
X139150001Y-65300000D02*
X139150001Y-66612501D01*
X142025000Y-68000000D02*
X142025000Y-66975000D01*
X114925000Y-71000000D02*
X115425000Y-70500000D01*
X115725000Y-70500000D02*
X115425000Y-70500000D01*
X106000900Y-68460000D02*
X104815000Y-68460000D01*
X141850000Y-65600000D02*
X141850000Y-66800000D01*
X142025000Y-66975000D02*
X141850000Y-66800000D01*
X141925000Y-64200000D02*
X141925000Y-64525000D01*
X140500000Y-66800000D02*
X141850000Y-66800000D01*
X111500000Y-71000000D02*
X114500000Y-71000000D01*
X141925000Y-64525000D02*
X141850000Y-64600000D01*
X116225000Y-67000000D02*
X115412500Y-67812500D01*
X139150001Y-64077800D02*
X139150001Y-65300000D01*
X141850000Y-64600000D02*
X141850000Y-65600000D01*
X139150001Y-66612501D02*
X139337500Y-66800000D01*
X141802800Y-64077800D02*
X141925000Y-64200000D01*
X141925000Y-64200000D02*
X141800000Y-64075000D01*
X103275000Y-69000000D02*
X103275000Y-69900000D01*
X104815000Y-68460000D02*
X104437500Y-68837500D01*
X142025000Y-69000000D02*
X142025000Y-68000000D01*
X132660000Y-76860000D02*
X132600000Y-76800000D01*
X111535000Y-68495000D02*
X111500000Y-68460000D01*
X139337500Y-66800000D02*
X140500000Y-66800000D01*
X135000000Y-76860000D02*
X132660000Y-76860000D01*
%TO.N,MCU_EN*%
X135000000Y-78130000D02*
X132730000Y-78130000D01*
X131999000Y-77399000D02*
X132600000Y-78000000D01*
X131999000Y-74201000D02*
X131999000Y-77399000D01*
X126557000Y-72150000D02*
X134050000Y-72150000D01*
X132730000Y-78130000D02*
X132600000Y-78000000D01*
X134050000Y-72150000D02*
X131999000Y-74201000D01*
X135475000Y-70725000D02*
X134050000Y-72150000D01*
X136200000Y-70725000D02*
X135475000Y-70725000D01*
%TO.N,GND*%
X109550000Y-61225000D02*
X109525000Y-61200000D01*
X143575000Y-69000000D02*
X143575000Y-66975000D01*
X127582500Y-81982500D02*
X128255000Y-81310000D01*
X143575000Y-66975000D02*
X143750000Y-66800000D01*
X128255000Y-80060000D02*
X127607500Y-80707500D01*
X110175000Y-61225000D02*
X109550000Y-61225000D01*
X117800000Y-67000000D02*
X118900000Y-67000000D01*
X140175000Y-44775000D02*
X140700000Y-45300000D01*
X126000000Y-50700000D02*
X126949999Y-51650001D01*
X143750000Y-66800000D02*
X143750000Y-65325000D01*
X101700000Y-69000000D02*
X100800000Y-69000000D01*
X126422500Y-81977500D02*
X125755000Y-81310000D01*
X125325000Y-56925189D02*
X125300000Y-56925189D01*
X132610000Y-75590000D02*
X132600000Y-75600000D01*
X138200000Y-61500000D02*
X138200000Y-60400000D01*
X119390099Y-52009901D02*
X119400000Y-52000000D01*
X141725000Y-44600000D02*
X142600000Y-44600000D01*
X126557000Y-67649998D02*
X128149998Y-67649998D01*
X135100001Y-68699999D02*
X135575002Y-69175000D01*
X106000900Y-65920000D02*
X107320000Y-65920000D01*
X143400000Y-80700000D02*
X143400000Y-81900000D01*
X125755000Y-80060000D02*
X126397500Y-80702500D01*
X139725000Y-44775000D02*
X140175000Y-44775000D01*
X111500000Y-65900000D02*
X110300000Y-65900000D01*
X123790099Y-62870100D02*
X123790099Y-62990099D01*
X125021501Y-98625000D02*
X123646500Y-100000001D01*
X124300189Y-56925189D02*
X123550000Y-56175000D01*
X107320000Y-65920000D02*
X107400000Y-66000000D01*
X128149998Y-67649998D02*
X128200000Y-67700000D01*
X145525000Y-43725000D02*
X148725000Y-43725000D01*
X127500099Y-52200101D02*
X127500099Y-52520100D01*
X100805000Y-70795000D02*
X100800000Y-70800000D01*
X123800000Y-63000000D02*
X123800000Y-63900000D01*
X107965000Y-54800000D02*
X109100000Y-54800000D01*
X125325000Y-56925189D02*
X126025189Y-56925189D01*
X112375000Y-121289250D02*
X114000000Y-122914250D01*
X125325000Y-56925189D02*
X125174811Y-56925189D01*
X121799999Y-100000001D02*
X121800000Y-100000000D01*
X121800001Y-100000001D02*
X123646500Y-100000001D01*
X134050000Y-67649998D02*
X135100001Y-68699999D01*
X126397500Y-80702500D02*
X128255000Y-82560000D01*
X143425000Y-88300000D02*
X143425000Y-89500000D01*
X109100000Y-61200000D02*
X107965000Y-61200000D01*
X116153500Y-100000001D02*
X118000000Y-100000001D01*
X127005000Y-80060000D02*
X125755000Y-81310000D01*
X138200000Y-61522200D02*
X138200000Y-61500000D01*
X125940099Y-50720100D02*
X125979900Y-50720100D01*
X121990099Y-50210100D02*
X121110100Y-50210100D01*
X123790099Y-62990099D02*
X123800000Y-63000000D01*
X125325000Y-56925189D02*
X124300189Y-56925189D01*
X121800000Y-100000000D02*
X121800001Y-100000001D01*
X143400000Y-81900000D02*
X143425000Y-81900000D01*
X141550000Y-44775000D02*
X141725000Y-44600000D01*
X135050000Y-57450000D02*
X135100000Y-57400000D01*
X109100000Y-54800000D02*
X110150000Y-54800000D01*
X128255000Y-81310000D02*
X127005000Y-80060000D01*
X106000900Y-71000000D02*
X107500000Y-71000000D01*
X116000000Y-75600000D02*
X118200000Y-75600000D01*
X143525000Y-44650000D02*
X144600000Y-44650000D01*
X125975000Y-121240050D02*
X127649200Y-122914250D01*
X140700000Y-45300000D02*
X141225000Y-44775000D01*
X111500000Y-65920000D02*
X111500000Y-65900000D01*
X135000000Y-75590000D02*
X132610000Y-75590000D01*
X127005000Y-82560000D02*
X126422500Y-81977500D01*
X135575002Y-69175000D02*
X136200000Y-69175000D01*
X143750000Y-65325000D02*
X144875000Y-64200000D01*
X110150000Y-54800000D02*
X110175000Y-54775000D01*
X141225000Y-44775000D02*
X141550000Y-44775000D01*
X144600000Y-44650000D02*
X145525000Y-43725000D01*
X125979900Y-50720100D02*
X126000000Y-50700000D01*
X139575000Y-120200000D02*
X139575000Y-121190850D01*
X127607500Y-80707500D02*
X125755000Y-82560000D01*
X116975000Y-70500000D02*
X118200000Y-70500000D01*
X125950000Y-98625000D02*
X125021501Y-98625000D01*
X101725000Y-70795000D02*
X100805000Y-70795000D01*
X121110100Y-50210100D02*
X121100000Y-50200000D01*
X139575000Y-121190850D02*
X141298400Y-122914250D01*
X127005000Y-82560000D02*
X127582500Y-81982500D01*
X110125450Y-75545000D02*
X110125450Y-74525450D01*
X101725000Y-69000000D02*
X101700000Y-69000000D01*
X119390099Y-52810100D02*
X119390099Y-52009901D01*
X109525000Y-61200000D02*
X109100000Y-61200000D01*
X112375000Y-120200000D02*
X112375000Y-121289250D01*
X125975000Y-120400000D02*
X125975000Y-121240050D01*
X143475000Y-44600000D02*
X143525000Y-44650000D01*
X116000000Y-75590001D02*
X116000000Y-75600000D01*
X117775000Y-67000000D02*
X117800000Y-67000000D01*
X126025189Y-56925189D02*
X126400000Y-57300000D01*
X142600000Y-44600000D02*
X143475000Y-44600000D01*
X135050000Y-58800000D02*
X135050000Y-57450000D01*
X126949999Y-51650001D02*
X127500099Y-52200101D01*
%TO.N,Vsys*%
X145875000Y-49075000D02*
X145525000Y-48725000D01*
X145525000Y-48725000D02*
X148725000Y-48725000D01*
X123800000Y-60960199D02*
X123790099Y-60970100D01*
X137249999Y-59299999D02*
X136750000Y-58800000D01*
%TO.N,IO9*%
X116153500Y-92253500D02*
X116000000Y-92100000D01*
X125221501Y-97075000D02*
X123646500Y-95499999D01*
X125950000Y-97075000D02*
X125221501Y-97075000D01*
X116153500Y-95499999D02*
X116153500Y-92253500D01*
%TO.N,GPIO2*%
X102500000Y-103914250D02*
X102500000Y-86200000D01*
X113400000Y-76800000D02*
X113460000Y-76860000D01*
X110825000Y-120200000D02*
X110825000Y-112239250D01*
X109000000Y-110414250D02*
X102500000Y-103914250D01*
X110825000Y-121089250D02*
X109000000Y-122914250D01*
X110825000Y-120200000D02*
X110825000Y-121089250D01*
X113460000Y-76860000D02*
X116000000Y-76860000D01*
X110825000Y-112239250D02*
X109000000Y-110414250D01*
%TO.N,GPIO3*%
X124425000Y-112190050D02*
X122649200Y-110414250D01*
X114674000Y-108700000D02*
X107800000Y-101826000D01*
X124425000Y-120200000D02*
X124425000Y-112190050D01*
X113500000Y-78100000D02*
X113530001Y-78130001D01*
X124425000Y-120400000D02*
X124425000Y-121138450D01*
X113530001Y-78130001D02*
X116000000Y-78130001D01*
X120934950Y-108700000D02*
X114674000Y-108700000D01*
X124425000Y-121138450D02*
X122649200Y-122914250D01*
X107800000Y-101826000D02*
X107800000Y-91900000D01*
X122649200Y-110414250D02*
X120934950Y-108700000D01*
%TO.N,Vbat*%
X123690097Y-50370098D02*
X124040099Y-50720100D01*
X123977479Y-50657480D02*
X124040099Y-50720100D01*
%TO.N,Vbus*%
X120010010Y-56925189D02*
X119790099Y-57145100D01*
X107965000Y-60400000D02*
X109100000Y-60400000D01*
X121775000Y-56925189D02*
X120010010Y-56925189D01*
%TO.N,/PWR/POWER_EN*%
X143475000Y-46250000D02*
X143525000Y-46200000D01*
X145525000Y-46225000D02*
X148725000Y-46225000D01*
X141725000Y-46250000D02*
X139463840Y-46250000D01*
X143525000Y-46200000D02*
X145500000Y-46200000D01*
X138924000Y-46789840D02*
X138924000Y-47760160D01*
X141725000Y-46250000D02*
X143475000Y-46250000D01*
X139150001Y-47986161D02*
X139150001Y-61522200D01*
X145500000Y-46200000D02*
X145525000Y-46225000D01*
X139463840Y-46250000D02*
X138924000Y-46789840D01*
X138924000Y-47760160D02*
X139150001Y-47986161D01*
%TO.N,GPIO4*%
X136298400Y-110414250D02*
X145600000Y-101112650D01*
X145600000Y-101112650D02*
X145600000Y-80500000D01*
X138025000Y-120200000D02*
X138025000Y-121187650D01*
X145600000Y-80500000D02*
X144400000Y-79300000D01*
X135100000Y-79300000D02*
X135000000Y-79400000D01*
X138025000Y-121187650D02*
X136298400Y-122914250D01*
X138025000Y-112140850D02*
X136298400Y-110414250D01*
X138025000Y-120200000D02*
X138025000Y-112140850D01*
X144400000Y-79300000D02*
X135100000Y-79300000D01*
%TO.N,GPIO5*%
X135000000Y-80670000D02*
X137170000Y-80670000D01*
X137170000Y-80670000D02*
X137200000Y-80700000D01*
%TO.N,GPIO6*%
X137760000Y-81940000D02*
X137800000Y-81900000D01*
X135000000Y-81940000D02*
X137760000Y-81940000D01*
%TO.N,GPIO7*%
X135000000Y-83210000D02*
X137790000Y-83210000D01*
X137790000Y-83210000D02*
X137800000Y-83200000D01*
%TO.N,Net-(D2-A)*%
X128727599Y-62807600D02*
X128615099Y-62920100D01*
X128727599Y-60920100D02*
X128727599Y-62807600D01*
%TO.N,IO_CHG*%
X126852599Y-60920100D02*
X126852599Y-59647401D01*
X116000000Y-84500000D02*
X118300000Y-84500000D01*
X126852599Y-59647401D02*
X126900000Y-59600000D01*
X124300001Y-58367502D02*
X124300001Y-58000000D01*
X126852599Y-60920100D02*
X124300001Y-58367502D01*
X116000000Y-84480000D02*
X116000000Y-84500000D01*
X118300000Y-84500000D02*
X118350000Y-84450000D01*
%TO.N,Net-(D3-K)*%
X128252599Y-57920100D02*
X126757562Y-56425063D01*
X126757562Y-56425063D02*
X125325000Y-56425063D01*
%TO.N,Net-(D3-A)*%
X130127599Y-57920100D02*
X130127599Y-58857600D01*
X130590099Y-59320100D02*
X130590099Y-59895100D01*
X130127599Y-58857600D02*
X130590099Y-59320100D01*
%TO.N,LCD_D{slash}C*%
X132920000Y-95970057D02*
X119600000Y-82650057D01*
X113529999Y-80670001D02*
X113300000Y-80900000D01*
X132920000Y-104400000D02*
X132920000Y-95970057D01*
X119600000Y-82650057D02*
X119600000Y-80800000D01*
X116000000Y-80670001D02*
X113529999Y-80670001D01*
%TO.N,CS_SD*%
X118100000Y-85700000D02*
X118000000Y-85700000D01*
X118000000Y-85700000D02*
X117950000Y-85750000D01*
X117950000Y-85750000D02*
X116000000Y-85750000D01*
%TO.N,MISO*%
X112100000Y-101900000D02*
X110000000Y-99800000D01*
X110000000Y-93600000D02*
X110100000Y-93500000D01*
X122760000Y-104400000D02*
X120260000Y-101900000D01*
X122760000Y-104400000D02*
X122760000Y-104360000D01*
X115930000Y-90900000D02*
X116000000Y-90830000D01*
X122760000Y-104360000D02*
X122700000Y-104300000D01*
X113200000Y-90900000D02*
X115930000Y-90900000D01*
X110000000Y-99800000D02*
X110000000Y-93600000D01*
X120260000Y-101900000D02*
X112100000Y-101900000D01*
%TO.N,MOSI*%
X125300000Y-104300000D02*
X122300000Y-101300000D01*
X113840000Y-89560000D02*
X116000000Y-89560000D01*
X125300000Y-104400000D02*
X125300000Y-104300000D01*
X110900000Y-99400000D02*
X110900000Y-94500000D01*
X113800000Y-89600000D02*
X113840000Y-89560000D01*
X113700000Y-89600000D02*
X113800000Y-89600000D01*
X112800000Y-101300000D02*
X110900000Y-99400000D01*
X122300000Y-101300000D02*
X112800000Y-101300000D01*
%TO.N,SCK*%
X113800000Y-81900000D02*
X113840002Y-81940002D01*
X118120000Y-102300000D02*
X120220000Y-104400000D01*
X109000000Y-92300000D02*
X109000000Y-100500000D01*
X113840002Y-81940002D02*
X116000000Y-81940002D01*
X110800000Y-102300000D02*
X118120000Y-102300000D01*
X109000000Y-100500000D02*
X110800000Y-102300000D01*
%TO.N,LCD_RESET*%
X130380000Y-104400000D02*
X130900000Y-103880000D01*
X130850056Y-103929944D02*
X130850056Y-95600000D01*
X130850056Y-95600000D02*
X118300000Y-83049944D01*
X130380000Y-104400000D02*
X130850056Y-103929944D01*
X117700000Y-79400000D02*
X116000000Y-79400000D01*
X118300000Y-83049944D02*
X118300000Y-80000000D01*
X118300000Y-80000000D02*
X117700000Y-79400000D01*
%TO.N,D_P*%
X107965000Y-58250000D02*
X106650000Y-58250000D01*
X122375000Y-84493198D02*
X122375000Y-67493198D01*
X108845001Y-58225000D02*
X108820001Y-58250000D01*
X113106802Y-58225000D02*
X108845001Y-58225000D01*
X122375000Y-67493198D02*
X113106802Y-58225000D01*
X107915000Y-57200000D02*
X107965000Y-57250000D01*
X132749999Y-92099999D02*
X132339999Y-91689999D01*
X106751473Y-57200000D02*
X107915000Y-57200000D01*
X106600473Y-57049000D02*
X106751473Y-57200000D01*
X132339999Y-91689999D02*
X129571801Y-91689999D01*
X108820001Y-58250000D02*
X107965000Y-58250000D01*
X129571801Y-91689999D02*
X122375000Y-84493198D01*
X135000000Y-92099999D02*
X132749999Y-92099999D01*
%TO.N,D_N*%
X122825000Y-84306802D02*
X122825000Y-67306802D01*
X106944000Y-57649000D02*
X106401057Y-57649000D01*
X107149000Y-58851000D02*
X107250000Y-58750000D01*
X106401057Y-57649000D02*
X106049000Y-58001057D01*
X132339999Y-91239999D02*
X129758197Y-91239999D01*
X108845001Y-57775000D02*
X108820001Y-57750000D01*
X132749999Y-90829999D02*
X132339999Y-91239999D01*
X106401057Y-58851000D02*
X107149000Y-58851000D01*
X122825000Y-67306802D02*
X113293198Y-57775000D01*
X129758197Y-91239999D02*
X122825000Y-84306802D01*
X106049000Y-58001057D02*
X106049000Y-58498943D01*
X108820001Y-57750000D02*
X107965000Y-57750000D01*
X107965000Y-57750000D02*
X107045000Y-57750000D01*
X135000000Y-90829999D02*
X132749999Y-90829999D01*
X106049000Y-58498943D02*
X106401057Y-58851000D01*
X113293198Y-57775000D02*
X108845001Y-57775000D01*
X107045000Y-57750000D02*
X106944000Y-57649000D01*
X107250000Y-58750000D02*
X107965000Y-58750000D01*
%TO.N,Net-(J3-CC1_A)*%
X109850000Y-59250000D02*
X110175000Y-59575000D01*
X107965000Y-59250000D02*
X109850000Y-59250000D01*
%TO.N,Net-(U2-LX)*%
X137249999Y-66587499D02*
X137462500Y-66800000D01*
X137249999Y-64077800D02*
X137249999Y-66587499D01*
%TO.N,Net-(U8-IO8)*%
X135000000Y-87020000D02*
X132620000Y-87020000D01*
X132620000Y-87020000D02*
X132600000Y-87000000D01*
%TO.N,/PWR/ISET_CHR*%
X119390099Y-54520100D02*
X119390099Y-53830100D01*
X120294810Y-55424811D02*
X119390099Y-54520100D01*
X121775000Y-55424811D02*
X120294810Y-55424811D01*
%TO.N,/PWR/TS_CHR*%
X122799999Y-53130000D02*
X121990099Y-52320100D01*
X122799999Y-54400000D02*
X122799999Y-53130000D01*
X121990099Y-52320100D02*
X121990099Y-51230100D01*
%TO.N,XTAL_P*%
X137250001Y-85750000D02*
X137660001Y-85340000D01*
X140772206Y-85340000D02*
X140787205Y-85325001D01*
X142100000Y-88075000D02*
X141875000Y-88300000D01*
X141025001Y-85325001D02*
X142100000Y-86400000D01*
X135000000Y-85750000D02*
X137250001Y-85750000D01*
X137660001Y-85340000D02*
X140772206Y-85340000D01*
X140787205Y-85325001D02*
X141025001Y-85325001D01*
X142100000Y-86400000D02*
X142100000Y-88075000D01*
%TO.N,XTAL_N*%
X137250001Y-84480000D02*
X137660001Y-84890000D01*
X140615001Y-84874999D02*
X141025001Y-84874999D01*
X140600000Y-84890000D02*
X140615001Y-84874999D01*
X142100000Y-82200000D02*
X142100000Y-83800000D01*
X141025001Y-84874999D02*
X142100000Y-83800000D01*
X135000000Y-84480000D02*
X137250001Y-84480000D01*
X137660001Y-84890000D02*
X140600000Y-84890000D01*
X141875000Y-81900000D02*
X141875000Y-81975000D01*
X141875000Y-81975000D02*
X142100000Y-82200000D01*
%TO.N,/PWR/EN1_CHR*%
X129875262Y-55924937D02*
X129880099Y-55920100D01*
X125325000Y-55924937D02*
X129875262Y-55924937D01*
%TO.N,/PWR/EN2_CHR*%
X126995388Y-55424811D02*
X127790099Y-54630100D01*
X125325000Y-55424811D02*
X126995388Y-55424811D01*
%TO.N,/PWR/CE_CHR*%
X124300001Y-53610198D02*
X125390099Y-52520100D01*
X124300001Y-54400000D02*
X124300001Y-53610198D01*
X125390099Y-52520100D02*
X126480099Y-52520100D01*
%TO.N,Net-(U10-VREF)*%
X111500000Y-73540000D02*
X111500000Y-75369550D01*
X111500000Y-75369550D02*
X111675450Y-75545000D01*
%TO.N,Net-(C6-Pad1)*%
X115325000Y-72245000D02*
X115745000Y-72245000D01*
X115745000Y-72245000D02*
X116000000Y-72500000D01*
X116000000Y-72500000D02*
X117225000Y-72500000D01*
X114980000Y-72245000D02*
X115325000Y-72245000D01*
%TO.N,AudioL*%
X118800000Y-72500000D02*
X118800000Y-82700000D01*
X118800000Y-82700000D02*
X127800000Y-91700000D01*
X118775000Y-72500000D02*
X118800000Y-72500000D01*
X132610000Y-88290000D02*
X135000000Y-88290000D01*
X132600000Y-88300000D02*
X132610000Y-88290000D01*
%TO.N,AudioR*%
X127900000Y-94800000D02*
X127100000Y-94000000D01*
X132700000Y-89600000D02*
X132740000Y-89560000D01*
X119067201Y-96232799D02*
X114747600Y-96232799D01*
X121300000Y-94000000D02*
X119067201Y-96232799D01*
X114747600Y-96232799D02*
X102746307Y-84231506D01*
X102746307Y-84231506D02*
X102746307Y-75920000D01*
X132740000Y-89560000D02*
X135000000Y-89560000D01*
X127100000Y-94000000D02*
X121300000Y-94000000D01*
%TO.N,Net-(C22-Pad1)*%
X101675000Y-73298693D02*
X102746307Y-74370000D01*
X101675000Y-72500000D02*
X101675000Y-73298693D01*
%TO.N,Net-(U10-INL)*%
X113675000Y-72245000D02*
X111525000Y-72245000D01*
X111525000Y-72245000D02*
X111500000Y-72270000D01*
%TO.N,Net-(U10-INR)*%
X103325000Y-72500000D02*
X104321307Y-72500000D01*
X106000900Y-72270000D02*
X104546307Y-72270000D01*
X104546307Y-72270000D02*
X104321307Y-72495000D01*
X104321307Y-72500000D02*
X104321307Y-72495000D01*
%TO.N,Net-(U10-MUTE)*%
X113470000Y-69730000D02*
X113600000Y-69600000D01*
X113600000Y-69600000D02*
X114200000Y-69600000D01*
X114200000Y-69600000D02*
X115000000Y-68800000D01*
X115000000Y-68800000D02*
X116175000Y-68800000D01*
X111500000Y-69730000D02*
X113470000Y-69730000D01*
%TO.N,AudioCS*%
X113690000Y-88290000D02*
X116000000Y-88290000D01*
X107079943Y-69730000D02*
X108200000Y-70850057D01*
X106000900Y-69730000D02*
X107079943Y-69730000D01*
X108200000Y-70850057D02*
X108200000Y-82800000D01*
X108200000Y-82800000D02*
X113690000Y-88290000D01*
%TO.N,Net-(U10-+OUT_R)*%
X106000900Y-64650000D02*
X104150000Y-64650000D01*
X104150000Y-64650000D02*
X104000000Y-64500000D01*
X104000000Y-64500000D02*
X103500000Y-64500000D01*
%TO.N,Net-(U10--OUT_R)*%
X106000900Y-67190000D02*
X104310000Y-67190000D01*
X104000000Y-67500000D02*
X103500000Y-67500000D01*
X104310000Y-67190000D02*
X104000000Y-67500000D01*
%TO.N,Net-(U10--OUT_L)*%
X111505000Y-67195000D02*
X111500000Y-67190000D01*
X112805000Y-67195000D02*
X111505000Y-67195000D01*
X113500000Y-66500000D02*
X112805000Y-67195000D01*
%TO.N,Net-(U10-+OUT_L)*%
X112350000Y-64650000D02*
X113500000Y-63500000D01*
X111500000Y-64650000D02*
X112350000Y-64650000D01*
%TO.N,Net-(F5-GOLDFINGER)*%
X106175000Y-59750000D02*
X107965000Y-59750000D01*
%TO.N,Net-(F6-GOLDFINGER)*%
X106000000Y-56200000D02*
X106600000Y-56200000D01*
X105800000Y-56000000D02*
X106000000Y-56200000D01*
X106600000Y-56200000D02*
X107150000Y-56750000D01*
X107150000Y-56750000D02*
X107965000Y-56750000D01*
%TO.N,LCD_CS*%
X121220000Y-87020000D02*
X130200000Y-96000000D01*
X130200000Y-96000000D02*
X130200000Y-102040000D01*
X130200000Y-102040000D02*
X127840000Y-104400000D01*
X116000000Y-87020000D02*
X121220000Y-87020000D01*
%TO.N,Net-(J3-CC1_B)*%
X110000000Y-56250000D02*
X110175000Y-56425000D01*
X107965000Y-56250000D02*
X110000000Y-56250000D01*
%TO.N,Vbat*%
X145250000Y-38650000D02*
X146000000Y-37900000D01*
X146000000Y-37900000D02*
X147000000Y-37900000D01*
%TD*%
%TA.AperFunction,Conductor*%
%TO.N,GND*%
G36*
X126628057Y-56795248D02*
G01*
X126648699Y-56811882D01*
X127410102Y-57573285D01*
X127443587Y-57634608D01*
X127446230Y-57667844D01*
X127390109Y-58678023D01*
X127366736Y-58743868D01*
X127311475Y-58786623D01*
X127261874Y-58795066D01*
X125196499Y-58721303D01*
X125130205Y-58699238D01*
X125113244Y-58685063D01*
X124726820Y-58298639D01*
X124693335Y-58237316D01*
X124690501Y-58210958D01*
X124690501Y-57200323D01*
X124690500Y-57200321D01*
X124675968Y-57127264D01*
X124675967Y-57127263D01*
X124675967Y-57127260D01*
X124664948Y-57110769D01*
X124620897Y-57044839D01*
X124615246Y-57026793D01*
X124605023Y-57010885D01*
X124600571Y-56979922D01*
X124600020Y-56978162D01*
X124600000Y-56975950D01*
X124600000Y-56939563D01*
X124619685Y-56872524D01*
X124672489Y-56826769D01*
X124724000Y-56815563D01*
X126074676Y-56815563D01*
X126074677Y-56815562D01*
X126147740Y-56801029D01*
X126151294Y-56798654D01*
X126154576Y-56796462D01*
X126221253Y-56775583D01*
X126223468Y-56775563D01*
X126561018Y-56775563D01*
X126628057Y-56795248D01*
G37*
%TD.AperFunction*%
%TD*%
M02*
