%TF.GenerationSoftware,KiCad,Pcbnew,9.0.5*%
%TF.CreationDate,2025-11-15T02:55:35-05:00*%
%TF.ProjectId,CreditCard,43726564-6974-4436-9172-642e6b696361,rev?*%
%TF.SameCoordinates,Original*%
%TF.FileFunction,Copper,L3,Inr*%
%TF.FilePolarity,Positive*%
%FSLAX46Y46*%
G04 Gerber Fmt 4.6, Leading zero omitted, Abs format (unit mm)*
G04 Created by KiCad (PCBNEW 9.0.5) date 2025-11-15 02:55:35*
%MOMM*%
%LPD*%
G01*
G04 APERTURE LIST*
%TA.AperFunction,ComponentPad*%
%ADD10R,1.854200X1.854200*%
%TD*%
%TA.AperFunction,ComponentPad*%
%ADD11C,1.854200*%
%TD*%
%TA.AperFunction,ComponentPad*%
%ADD12R,1.308000X1.308000*%
%TD*%
%TA.AperFunction,ComponentPad*%
%ADD13C,1.308000*%
%TD*%
%TA.AperFunction,ComponentPad*%
%ADD14R,1.650000X1.650000*%
%TD*%
%TA.AperFunction,ComponentPad*%
%ADD15C,1.650000*%
%TD*%
%TA.AperFunction,ComponentPad*%
%ADD16O,2.100000X1.050000*%
%TD*%
%TA.AperFunction,ComponentPad*%
%ADD17O,1.800000X0.900000*%
%TD*%
%TA.AperFunction,ViaPad*%
%ADD18C,0.600000*%
%TD*%
G04 APERTURE END LIST*
D10*
%TO.N,GPIO2*%
%TO.C,SW1*%
X109000000Y-122914250D03*
D11*
%TO.N,GND*%
X114000000Y-122914250D03*
X114000000Y-110414250D03*
%TO.N,GPIO2*%
X109000000Y-110414250D03*
%TD*%
D12*
%TO.N,Vsys*%
%TO.C,S1*%
X145525000Y-48725000D03*
D13*
%TO.N,/PWR/POWER_EN*%
X145525000Y-46225000D03*
%TO.N,GND*%
X145525000Y-43725000D03*
%TO.N,Vsys*%
X148725000Y-48725000D03*
%TO.N,/PWR/POWER_EN*%
X148725000Y-46225000D03*
%TO.N,GND*%
X148725000Y-43725000D03*
%TD*%
D10*
%TO.N,GPIO3*%
%TO.C,SW2*%
X122649200Y-122914250D03*
D11*
%TO.N,GND*%
X127649200Y-122914250D03*
X127649200Y-110414250D03*
%TO.N,GPIO3*%
X122649200Y-110414250D03*
%TD*%
D14*
%TO.N,3V3*%
%TO.C,J2*%
X112600000Y-104400000D03*
D15*
%TO.N,unconnected-(J2-Pad2)*%
X115140000Y-104400000D03*
%TO.N,GND*%
X117680000Y-104400000D03*
%TO.N,SCK*%
X120220000Y-104400000D03*
%TO.N,MISO*%
X122760000Y-104400000D03*
%TO.N,MOSI*%
X125300000Y-104400000D03*
%TO.N,LCD_CS*%
X127840000Y-104400000D03*
%TO.N,LCD_RESET*%
X130380000Y-104400000D03*
%TO.N,LCD_D{slash}C*%
X132920000Y-104400000D03*
%TO.N,CS_SD*%
X135460000Y-104400000D03*
%TO.N,Net-(J2-Pad11)*%
X138000000Y-104400000D03*
%TD*%
D10*
%TO.N,GPIO4*%
%TO.C,SW3*%
X136298400Y-122914250D03*
D11*
%TO.N,GND*%
X141298400Y-122914250D03*
X141298400Y-110414250D03*
%TO.N,GPIO4*%
X136298400Y-110414250D03*
%TD*%
D16*
%TO.N,GND*%
%TO.C,J3*%
X107395000Y-62320000D03*
X107395000Y-53680000D03*
D17*
X103215000Y-62320000D03*
X103215000Y-53680000D03*
%TD*%
D18*
%TO.N,GND*%
X116250000Y-71400000D03*
X108800000Y-71400000D03*
%TO.N,3V3*%
X113000000Y-71000000D03*
%TO.N,GND*%
X108500000Y-68400000D03*
X103500000Y-71150000D03*
X101000000Y-66650000D03*
%TO.N,3V3*%
X115412500Y-67812500D03*
X141850000Y-65600000D03*
X104687500Y-68587500D03*
X148600000Y-61800000D03*
X119000000Y-68900000D03*
X114500000Y-71000000D03*
X140500000Y-66800000D03*
X113000000Y-68460000D03*
X132600000Y-76800000D03*
X142025000Y-68000000D03*
X139400000Y-98200000D03*
X147000000Y-108900000D03*
X131462500Y-81362500D03*
X139150001Y-65300000D03*
%TO.N,MCU_EN*%
X132600000Y-78000000D03*
%TO.N,GND*%
X118000000Y-100000001D03*
X121100000Y-50200000D03*
X125300000Y-58300000D03*
X126422500Y-81977500D03*
X130700000Y-37600000D03*
X109100000Y-54800000D03*
X109100000Y-61200000D03*
X126949999Y-51650001D03*
X126100000Y-57600000D03*
X143600000Y-68000000D03*
X131000000Y-44250001D03*
X126977478Y-43400000D03*
X118200000Y-75600000D03*
X100800000Y-69000000D03*
X126397500Y-80702500D03*
X125325000Y-57600000D03*
X121000000Y-58800003D03*
X123800000Y-63900000D03*
X118900000Y-67000000D03*
X127607500Y-80707500D03*
X126800000Y-58300000D03*
X121800000Y-100000000D03*
X110300000Y-65650000D03*
X147000000Y-114400000D03*
X120000000Y-44250001D03*
X138200000Y-60400000D03*
X132600000Y-75600000D03*
X143800000Y-65300000D03*
X119700000Y-37600000D03*
X128250000Y-52400000D03*
X126100000Y-58300000D03*
X136600000Y-98200000D03*
X107500000Y-71000000D03*
X142600000Y-44600000D03*
X148600000Y-53300000D03*
X134300000Y-44300000D03*
X135100000Y-57400000D03*
X110100000Y-74500000D03*
X135100001Y-68699999D03*
X118200000Y-70500000D03*
X140700000Y-45300000D03*
X142000000Y-37500000D03*
X128200000Y-67700000D03*
X119400000Y-52000000D03*
X127582500Y-81982500D03*
X143400000Y-80700000D03*
X112600000Y-44200000D03*
X143425000Y-89500000D03*
X107250000Y-65650000D03*
X126977478Y-40650000D03*
X126800000Y-57600000D03*
%TO.N,Vsys*%
X122250000Y-60900000D03*
X123250000Y-59400000D03*
X140250000Y-48400000D03*
X132500000Y-51400000D03*
X132000000Y-61900000D03*
X131750000Y-55900000D03*
X136500000Y-60650000D03*
X126204664Y-62000783D03*
X123750000Y-60150000D03*
X138000000Y-58650000D03*
X124000000Y-59400000D03*
%TO.N,GPIO2*%
X102500000Y-86200000D03*
X113400000Y-76800000D03*
%TO.N,GPIO3*%
X113500000Y-78100000D03*
X107800000Y-91900000D03*
%TO.N,Vbat*%
X123977479Y-43400000D03*
X123977479Y-40650000D03*
X124000000Y-52650000D03*
X123977479Y-49400000D03*
X123977479Y-41650000D03*
X147000000Y-37900000D03*
X123977479Y-42400000D03*
X123250000Y-52650000D03*
%TO.N,Vbus*%
X109100000Y-60400000D03*
X120750000Y-57650000D03*
X105000000Y-44400000D03*
%TO.N,GPIO5*%
X137200000Y-80700000D03*
%TO.N,GPIO6*%
X137800000Y-81900000D03*
%TO.N,GPIO7*%
X137800000Y-83200000D03*
%TO.N,IO_CHG*%
X118350000Y-84450000D03*
X126900000Y-59600000D03*
%TO.N,LCD_D{slash}C*%
X113300000Y-80900000D03*
X119600000Y-80800000D03*
%TO.N,CS_SD*%
X118100000Y-85700000D03*
%TO.N,MISO*%
X113200000Y-90900000D03*
X110100000Y-93500000D03*
%TO.N,MOSI*%
X113700000Y-89600000D03*
X110900000Y-94500000D03*
%TO.N,SCK*%
X109000000Y-92300000D03*
X113800000Y-81900000D03*
%TO.N,D_P*%
X106650000Y-58250000D03*
X106600473Y-57049000D03*
%TO.N,Net-(U8-IO8)*%
X132600000Y-87000000D03*
%TO.N,AudioL*%
X132600000Y-88300000D03*
X127800000Y-91700000D03*
%TO.N,AudioR*%
X132700000Y-89600000D03*
X127900000Y-94800000D03*
%TO.N,Net-(F5-GOLDFINGER)*%
X106175000Y-59750000D03*
%TO.N,Net-(F6-GOLDFINGER)*%
X105800000Y-56000000D03*
%TD*%
%TA.AperFunction,Conductor*%
%TO.N,3V3*%
G36*
X147733503Y-53414445D02*
G01*
X147764400Y-53421747D01*
X147766784Y-53424217D01*
X147770078Y-53425185D01*
X147790868Y-53449178D01*
X147812915Y-53472027D01*
X147814458Y-53476403D01*
X147815833Y-53477989D01*
X147824655Y-53505304D01*
X147829468Y-53529500D01*
X147830263Y-53533497D01*
X147830263Y-53533498D01*
X147890602Y-53679172D01*
X147890609Y-53679185D01*
X147978210Y-53810288D01*
X147978213Y-53810292D01*
X148089707Y-53921786D01*
X148089711Y-53921789D01*
X148220814Y-54009390D01*
X148220827Y-54009397D01*
X148366498Y-54069735D01*
X148366503Y-54069737D01*
X148521153Y-54100499D01*
X148521156Y-54100500D01*
X148521158Y-54100500D01*
X148678844Y-54100500D01*
X148678845Y-54100499D01*
X148833497Y-54069737D01*
X148979179Y-54009394D01*
X149110289Y-53921789D01*
X149221789Y-53810289D01*
X149309394Y-53679179D01*
X149369737Y-53533497D01*
X149375344Y-53505307D01*
X149407728Y-53443399D01*
X149468443Y-53408824D01*
X149496961Y-53405500D01*
X150175500Y-53405500D01*
X150242539Y-53425185D01*
X150288294Y-53477989D01*
X150299500Y-53529500D01*
X150299500Y-122509366D01*
X150279815Y-122576405D01*
X150227011Y-122622160D01*
X150157853Y-122632104D01*
X150094297Y-122603079D01*
X150075182Y-122582251D01*
X150030109Y-122520214D01*
X150030105Y-122520209D01*
X149879786Y-122369890D01*
X149707820Y-122244951D01*
X149518414Y-122148444D01*
X149518413Y-122148443D01*
X149518412Y-122148443D01*
X149316243Y-122082754D01*
X149316241Y-122082753D01*
X149316240Y-122082753D01*
X149154957Y-122057208D01*
X149106287Y-122049500D01*
X148893713Y-122049500D01*
X148845042Y-122057208D01*
X148683760Y-122082753D01*
X148481585Y-122148444D01*
X148292179Y-122244951D01*
X148120213Y-122369890D01*
X147969890Y-122520213D01*
X147844951Y-122692179D01*
X147748444Y-122881585D01*
X147682753Y-123083760D01*
X147656654Y-123248543D01*
X147649500Y-123293713D01*
X147649500Y-123506287D01*
X147682754Y-123716243D01*
X147724352Y-123844269D01*
X147748444Y-123918414D01*
X147844951Y-124107820D01*
X147969890Y-124279786D01*
X148120213Y-124430109D01*
X148292179Y-124555048D01*
X148292181Y-124555049D01*
X148292184Y-124555051D01*
X148481588Y-124651557D01*
X148500092Y-124657569D01*
X148557768Y-124697006D01*
X148584966Y-124761365D01*
X148573051Y-124830211D01*
X148525807Y-124881687D01*
X148461774Y-124899500D01*
X102538226Y-124899500D01*
X102471187Y-124879815D01*
X102425432Y-124827011D01*
X102415488Y-124757853D01*
X102444513Y-124694297D01*
X102499906Y-124657569D01*
X102518412Y-124651557D01*
X102707816Y-124555051D01*
X102729789Y-124539086D01*
X102879786Y-124430109D01*
X102879788Y-124430106D01*
X102879792Y-124430104D01*
X103030104Y-124279792D01*
X103030106Y-124279788D01*
X103030109Y-124279786D01*
X103155048Y-124107820D01*
X103155047Y-124107820D01*
X103155051Y-124107816D01*
X103251557Y-123918412D01*
X103317246Y-123716243D01*
X103350500Y-123506287D01*
X103350500Y-123293713D01*
X103317246Y-123083757D01*
X103251557Y-122881588D01*
X103155051Y-122692184D01*
X103155049Y-122692181D01*
X103155048Y-122692179D01*
X103030109Y-122520213D01*
X102879786Y-122369890D01*
X102707820Y-122244951D01*
X102518414Y-122148444D01*
X102518413Y-122148443D01*
X102518412Y-122148443D01*
X102316243Y-122082754D01*
X102316241Y-122082753D01*
X102316239Y-122082753D01*
X102162662Y-122058429D01*
X102106287Y-122049500D01*
X101893713Y-122049500D01*
X101845042Y-122057208D01*
X101683760Y-122082753D01*
X101481585Y-122148444D01*
X101292179Y-122244951D01*
X101120213Y-122369890D01*
X100969890Y-122520213D01*
X100844951Y-122692179D01*
X100748445Y-122881582D01*
X100748443Y-122881587D01*
X100748443Y-122881588D01*
X100742429Y-122900094D01*
X100702992Y-122957768D01*
X100638633Y-122984965D01*
X100569787Y-122973050D01*
X100518312Y-122925805D01*
X100500500Y-122861773D01*
X100500500Y-121939285D01*
X107572400Y-121939285D01*
X107572400Y-123889220D01*
X107572401Y-123889226D01*
X107578808Y-123948833D01*
X107629102Y-124083678D01*
X107629106Y-124083685D01*
X107715352Y-124198894D01*
X107715355Y-124198897D01*
X107830564Y-124285143D01*
X107830571Y-124285147D01*
X107965417Y-124335441D01*
X107965416Y-124335441D01*
X107972344Y-124336185D01*
X108025027Y-124341850D01*
X109974972Y-124341849D01*
X110034583Y-124335441D01*
X110169431Y-124285146D01*
X110284646Y-124198896D01*
X110370896Y-124083681D01*
X110421191Y-123948833D01*
X110427600Y-123889223D01*
X110427599Y-122801895D01*
X112572400Y-122801895D01*
X112572400Y-123026604D01*
X112607552Y-123248543D01*
X112607552Y-123248544D01*
X112607553Y-123248547D01*
X112676992Y-123462258D01*
X112779007Y-123662475D01*
X112911088Y-123844269D01*
X113069981Y-124003162D01*
X113251775Y-124135243D01*
X113451992Y-124237258D01*
X113665703Y-124306697D01*
X113887645Y-124341850D01*
X113887646Y-124341850D01*
X114112354Y-124341850D01*
X114112355Y-124341850D01*
X114334297Y-124306697D01*
X114548008Y-124237258D01*
X114748225Y-124135243D01*
X114930019Y-124003162D01*
X115088912Y-123844269D01*
X115220993Y-123662475D01*
X115323008Y-123462258D01*
X115392447Y-123248547D01*
X115427600Y-123026605D01*
X115427600Y-122801895D01*
X115392447Y-122579953D01*
X115323008Y-122366242D01*
X115220993Y-122166025D01*
X115088912Y-121984231D01*
X115043966Y-121939285D01*
X121221600Y-121939285D01*
X121221600Y-123889220D01*
X121221601Y-123889226D01*
X121228008Y-123948833D01*
X121278302Y-124083678D01*
X121278306Y-124083685D01*
X121364552Y-124198894D01*
X121364555Y-124198897D01*
X121479764Y-124285143D01*
X121479771Y-124285147D01*
X121614617Y-124335441D01*
X121614616Y-124335441D01*
X121621544Y-124336185D01*
X121674227Y-124341850D01*
X123624172Y-124341849D01*
X123683783Y-124335441D01*
X123818631Y-124285146D01*
X123933846Y-124198896D01*
X124020096Y-124083681D01*
X124070391Y-123948833D01*
X124076800Y-123889223D01*
X124076799Y-122801895D01*
X126221600Y-122801895D01*
X126221600Y-123026604D01*
X126256752Y-123248543D01*
X126256752Y-123248544D01*
X126256753Y-123248547D01*
X126326192Y-123462258D01*
X126428207Y-123662475D01*
X126560288Y-123844269D01*
X126719181Y-124003162D01*
X126900975Y-124135243D01*
X127101192Y-124237258D01*
X127314903Y-124306697D01*
X127536845Y-124341850D01*
X127536846Y-124341850D01*
X127761554Y-124341850D01*
X127761555Y-124341850D01*
X127983497Y-124306697D01*
X128197208Y-124237258D01*
X128397425Y-124135243D01*
X128579219Y-124003162D01*
X128738112Y-123844269D01*
X128870193Y-123662475D01*
X128972208Y-123462258D01*
X129041647Y-123248547D01*
X129076800Y-123026605D01*
X129076800Y-122801895D01*
X129041647Y-122579953D01*
X128972208Y-122366242D01*
X128870193Y-122166025D01*
X128738112Y-121984231D01*
X128693166Y-121939285D01*
X134870800Y-121939285D01*
X134870800Y-123889220D01*
X134870801Y-123889226D01*
X134877208Y-123948833D01*
X134927502Y-124083678D01*
X134927506Y-124083685D01*
X135013752Y-124198894D01*
X135013755Y-124198897D01*
X135128964Y-124285143D01*
X135128971Y-124285147D01*
X135263817Y-124335441D01*
X135263816Y-124335441D01*
X135270744Y-124336185D01*
X135323427Y-124341850D01*
X137273372Y-124341849D01*
X137332983Y-124335441D01*
X137467831Y-124285146D01*
X137583046Y-124198896D01*
X137669296Y-124083681D01*
X137719591Y-123948833D01*
X137726000Y-123889223D01*
X137725999Y-122801895D01*
X139870800Y-122801895D01*
X139870800Y-123026604D01*
X139905952Y-123248543D01*
X139905952Y-123248544D01*
X139905953Y-123248547D01*
X139975392Y-123462258D01*
X140077407Y-123662475D01*
X140209488Y-123844269D01*
X140368381Y-124003162D01*
X140550175Y-124135243D01*
X140750392Y-124237258D01*
X140964103Y-124306697D01*
X141186045Y-124341850D01*
X141186046Y-124341850D01*
X141410754Y-124341850D01*
X141410755Y-124341850D01*
X141632697Y-124306697D01*
X141846408Y-124237258D01*
X142046625Y-124135243D01*
X142228419Y-124003162D01*
X142387312Y-123844269D01*
X142519393Y-123662475D01*
X142621408Y-123462258D01*
X142690847Y-123248547D01*
X142726000Y-123026605D01*
X142726000Y-122801895D01*
X142690847Y-122579953D01*
X142621408Y-122366242D01*
X142519393Y-122166025D01*
X142387312Y-121984231D01*
X142228419Y-121825338D01*
X142046625Y-121693257D01*
X141846408Y-121591242D01*
X141632697Y-121521803D01*
X141632695Y-121521802D01*
X141632693Y-121521802D01*
X141477732Y-121497258D01*
X141410755Y-121486650D01*
X141186045Y-121486650D01*
X141145581Y-121493059D01*
X140964106Y-121521802D01*
X140964105Y-121521802D01*
X140750389Y-121591243D01*
X140550174Y-121693257D01*
X140368378Y-121825340D01*
X140209490Y-121984228D01*
X140077407Y-122166024D01*
X139975393Y-122366239D01*
X139905952Y-122579955D01*
X139905952Y-122579956D01*
X139870800Y-122801895D01*
X137725999Y-122801895D01*
X137725999Y-121939278D01*
X137719591Y-121879667D01*
X137699328Y-121825340D01*
X137669297Y-121744821D01*
X137669293Y-121744814D01*
X137583047Y-121629605D01*
X137583044Y-121629602D01*
X137467835Y-121543356D01*
X137467828Y-121543352D01*
X137332982Y-121493058D01*
X137332983Y-121493058D01*
X137273383Y-121486651D01*
X137273381Y-121486650D01*
X137273373Y-121486650D01*
X137273364Y-121486650D01*
X135323429Y-121486650D01*
X135323423Y-121486651D01*
X135263816Y-121493058D01*
X135128971Y-121543352D01*
X135128964Y-121543356D01*
X135013755Y-121629602D01*
X135013752Y-121629605D01*
X134927506Y-121744814D01*
X134927502Y-121744821D01*
X134877208Y-121879667D01*
X134870801Y-121939266D01*
X134870801Y-121939273D01*
X134870800Y-121939285D01*
X128693166Y-121939285D01*
X128579219Y-121825338D01*
X128397425Y-121693257D01*
X128197208Y-121591242D01*
X127983497Y-121521803D01*
X127983495Y-121521802D01*
X127983493Y-121521802D01*
X127828532Y-121497258D01*
X127761555Y-121486650D01*
X127536845Y-121486650D01*
X127496381Y-121493059D01*
X127314906Y-121521802D01*
X127314905Y-121521802D01*
X127101189Y-121591243D01*
X126900974Y-121693257D01*
X126719178Y-121825340D01*
X126560290Y-121984228D01*
X126428207Y-122166024D01*
X126326193Y-122366239D01*
X126256752Y-122579955D01*
X126256752Y-122579956D01*
X126221600Y-122801895D01*
X124076799Y-122801895D01*
X124076799Y-121939278D01*
X124070391Y-121879667D01*
X124050128Y-121825340D01*
X124020097Y-121744821D01*
X124020093Y-121744814D01*
X123933847Y-121629605D01*
X123933844Y-121629602D01*
X123818635Y-121543356D01*
X123818628Y-121543352D01*
X123683782Y-121493058D01*
X123683783Y-121493058D01*
X123624183Y-121486651D01*
X123624181Y-121486650D01*
X123624173Y-121486650D01*
X123624164Y-121486650D01*
X121674229Y-121486650D01*
X121674223Y-121486651D01*
X121614616Y-121493058D01*
X121479771Y-121543352D01*
X121479764Y-121543356D01*
X121364555Y-121629602D01*
X121364552Y-121629605D01*
X121278306Y-121744814D01*
X121278302Y-121744821D01*
X121228008Y-121879667D01*
X121221601Y-121939266D01*
X121221601Y-121939273D01*
X121221600Y-121939285D01*
X115043966Y-121939285D01*
X114930019Y-121825338D01*
X114748225Y-121693257D01*
X114548008Y-121591242D01*
X114334297Y-121521803D01*
X114334295Y-121521802D01*
X114334293Y-121521802D01*
X114179332Y-121497258D01*
X114112355Y-121486650D01*
X113887645Y-121486650D01*
X113847181Y-121493059D01*
X113665706Y-121521802D01*
X113665705Y-121521802D01*
X113451989Y-121591243D01*
X113251774Y-121693257D01*
X113069978Y-121825340D01*
X112911090Y-121984228D01*
X112779007Y-122166024D01*
X112676993Y-122366239D01*
X112607552Y-122579955D01*
X112607552Y-122579956D01*
X112572400Y-122801895D01*
X110427599Y-122801895D01*
X110427599Y-121939278D01*
X110421191Y-121879667D01*
X110400928Y-121825340D01*
X110370897Y-121744821D01*
X110370893Y-121744814D01*
X110284647Y-121629605D01*
X110284644Y-121629602D01*
X110169435Y-121543356D01*
X110169428Y-121543352D01*
X110034582Y-121493058D01*
X110034583Y-121493058D01*
X109974983Y-121486651D01*
X109974981Y-121486650D01*
X109974973Y-121486650D01*
X109974964Y-121486650D01*
X108025029Y-121486650D01*
X108025023Y-121486651D01*
X107965416Y-121493058D01*
X107830571Y-121543352D01*
X107830564Y-121543356D01*
X107715355Y-121629602D01*
X107715352Y-121629605D01*
X107629106Y-121744814D01*
X107629102Y-121744821D01*
X107578808Y-121879667D01*
X107572401Y-121939266D01*
X107572401Y-121939273D01*
X107572400Y-121939285D01*
X100500500Y-121939285D01*
X100500500Y-116573564D01*
X105847800Y-116573564D01*
X105847800Y-116754935D01*
X105876171Y-116934059D01*
X105876171Y-116934062D01*
X105932212Y-117106538D01*
X105932214Y-117106541D01*
X106014550Y-117268135D01*
X106121151Y-117414858D01*
X106249392Y-117543099D01*
X106396115Y-117649700D01*
X106557709Y-117732036D01*
X106557711Y-117732037D01*
X106718591Y-117784309D01*
X106730192Y-117788079D01*
X106801586Y-117799386D01*
X106909315Y-117816450D01*
X106909320Y-117816450D01*
X107090685Y-117816450D01*
X107177522Y-117802695D01*
X107269808Y-117788079D01*
X107269811Y-117788078D01*
X107269812Y-117788078D01*
X107442288Y-117732037D01*
X107442288Y-117732036D01*
X107442291Y-117732036D01*
X107603885Y-117649700D01*
X107750608Y-117543099D01*
X107878849Y-117414858D01*
X107985450Y-117268135D01*
X108067786Y-117106541D01*
X108123829Y-116934058D01*
X108138445Y-116841772D01*
X108152200Y-116754935D01*
X108152200Y-116573564D01*
X114847800Y-116573564D01*
X114847800Y-116754935D01*
X114876171Y-116934059D01*
X114876171Y-116934062D01*
X114932212Y-117106538D01*
X114932214Y-117106541D01*
X115014550Y-117268135D01*
X115121151Y-117414858D01*
X115249392Y-117543099D01*
X115396115Y-117649700D01*
X115557709Y-117732036D01*
X115557711Y-117732037D01*
X115718591Y-117784309D01*
X115730192Y-117788079D01*
X115801586Y-117799386D01*
X115909315Y-117816450D01*
X115909320Y-117816450D01*
X116090685Y-117816450D01*
X116177522Y-117802695D01*
X116269808Y-117788079D01*
X116269811Y-117788078D01*
X116269812Y-117788078D01*
X116442288Y-117732037D01*
X116442288Y-117732036D01*
X116442291Y-117732036D01*
X116603885Y-117649700D01*
X116750608Y-117543099D01*
X116878849Y-117414858D01*
X116985450Y-117268135D01*
X117067786Y-117106541D01*
X117123829Y-116934058D01*
X117138445Y-116841772D01*
X117152200Y-116754935D01*
X117152200Y-116573564D01*
X119497000Y-116573564D01*
X119497000Y-116754935D01*
X119525371Y-116934059D01*
X119525371Y-116934062D01*
X119581412Y-117106538D01*
X119581414Y-117106541D01*
X119663750Y-117268135D01*
X119770351Y-117414858D01*
X119898592Y-117543099D01*
X120045315Y-117649700D01*
X120206909Y-117732036D01*
X120206911Y-117732037D01*
X120367791Y-117784309D01*
X120379392Y-117788079D01*
X120450786Y-117799386D01*
X120558515Y-117816450D01*
X120558520Y-117816450D01*
X120739885Y-117816450D01*
X120826722Y-117802695D01*
X120919008Y-117788079D01*
X120919011Y-117788078D01*
X120919012Y-117788078D01*
X121091488Y-117732037D01*
X121091488Y-117732036D01*
X121091491Y-117732036D01*
X121253085Y-117649700D01*
X121399808Y-117543099D01*
X121528049Y-117414858D01*
X121634650Y-117268135D01*
X121716986Y-117106541D01*
X121773029Y-116934058D01*
X121787645Y-116841772D01*
X121801400Y-116754935D01*
X121801400Y-116573564D01*
X128497000Y-116573564D01*
X128497000Y-116754935D01*
X128525371Y-116934059D01*
X128525371Y-116934062D01*
X128581412Y-117106538D01*
X128581414Y-117106541D01*
X128663750Y-117268135D01*
X128770351Y-117414858D01*
X128898592Y-117543099D01*
X129045315Y-117649700D01*
X129206909Y-117732036D01*
X129206911Y-117732037D01*
X129367791Y-117784309D01*
X129379392Y-117788079D01*
X129450786Y-117799386D01*
X129558515Y-117816450D01*
X129558520Y-117816450D01*
X129739885Y-117816450D01*
X129826722Y-117802695D01*
X129919008Y-117788079D01*
X129919011Y-117788078D01*
X129919012Y-117788078D01*
X130091488Y-117732037D01*
X130091488Y-117732036D01*
X130091491Y-117732036D01*
X130253085Y-117649700D01*
X130399808Y-117543099D01*
X130528049Y-117414858D01*
X130634650Y-117268135D01*
X130716986Y-117106541D01*
X130773029Y-116934058D01*
X130787645Y-116841772D01*
X130801400Y-116754935D01*
X130801400Y-116573564D01*
X133146200Y-116573564D01*
X133146200Y-116754935D01*
X133174571Y-116934059D01*
X133174571Y-116934062D01*
X133230612Y-117106538D01*
X133230614Y-117106541D01*
X133312950Y-117268135D01*
X133419551Y-117414858D01*
X133547792Y-117543099D01*
X133694515Y-117649700D01*
X133856109Y-117732036D01*
X133856111Y-117732037D01*
X134016991Y-117784309D01*
X134028592Y-117788079D01*
X134099986Y-117799386D01*
X134207715Y-117816450D01*
X134207720Y-117816450D01*
X134389085Y-117816450D01*
X134475922Y-117802695D01*
X134568208Y-117788079D01*
X134568211Y-117788078D01*
X134568212Y-117788078D01*
X134740688Y-117732037D01*
X134740688Y-117732036D01*
X134740691Y-117732036D01*
X134902285Y-117649700D01*
X135049008Y-117543099D01*
X135177249Y-117414858D01*
X135283850Y-117268135D01*
X135366186Y-117106541D01*
X135422229Y-116934058D01*
X135436845Y-116841772D01*
X135450600Y-116754935D01*
X135450600Y-116573564D01*
X142146200Y-116573564D01*
X142146200Y-116754935D01*
X142174571Y-116934059D01*
X142174571Y-116934062D01*
X142230612Y-117106538D01*
X142230614Y-117106541D01*
X142312950Y-117268135D01*
X142419551Y-117414858D01*
X142547792Y-117543099D01*
X142694515Y-117649700D01*
X142856109Y-117732036D01*
X142856111Y-117732037D01*
X143016991Y-117784309D01*
X143028592Y-117788079D01*
X143099986Y-117799386D01*
X143207715Y-117816450D01*
X143207720Y-117816450D01*
X143389085Y-117816450D01*
X143475922Y-117802695D01*
X143568208Y-117788079D01*
X143568211Y-117788078D01*
X143568212Y-117788078D01*
X143740688Y-117732037D01*
X143740688Y-117732036D01*
X143740691Y-117732036D01*
X143902285Y-117649700D01*
X144049008Y-117543099D01*
X144177249Y-117414858D01*
X144283850Y-117268135D01*
X144366186Y-117106541D01*
X144422229Y-116934058D01*
X144436845Y-116841772D01*
X144450600Y-116754935D01*
X144450600Y-116573564D01*
X144434094Y-116469359D01*
X144422229Y-116394442D01*
X144422228Y-116394438D01*
X144422228Y-116394437D01*
X144366187Y-116221961D01*
X144283849Y-116060364D01*
X144177249Y-115913642D01*
X144049008Y-115785401D01*
X143902285Y-115678800D01*
X143740688Y-115596462D01*
X143568210Y-115540421D01*
X143389085Y-115512050D01*
X143389080Y-115512050D01*
X143207720Y-115512050D01*
X143207715Y-115512050D01*
X143028590Y-115540421D01*
X143028587Y-115540421D01*
X142856111Y-115596462D01*
X142694514Y-115678800D01*
X142610803Y-115739620D01*
X142547792Y-115785401D01*
X142547790Y-115785403D01*
X142547789Y-115785403D01*
X142419553Y-115913639D01*
X142419553Y-115913640D01*
X142419551Y-115913642D01*
X142373770Y-115976653D01*
X142312950Y-116060364D01*
X142230612Y-116221961D01*
X142174571Y-116394437D01*
X142174571Y-116394440D01*
X142146200Y-116573564D01*
X135450600Y-116573564D01*
X135434094Y-116469359D01*
X135422229Y-116394442D01*
X135422228Y-116394438D01*
X135422228Y-116394437D01*
X135366187Y-116221961D01*
X135283849Y-116060364D01*
X135177249Y-115913642D01*
X135049008Y-115785401D01*
X134902285Y-115678800D01*
X134740688Y-115596462D01*
X134568210Y-115540421D01*
X134389085Y-115512050D01*
X134389080Y-115512050D01*
X134207720Y-115512050D01*
X134207715Y-115512050D01*
X134028590Y-115540421D01*
X134028587Y-115540421D01*
X133856111Y-115596462D01*
X133694514Y-115678800D01*
X133610803Y-115739620D01*
X133547792Y-115785401D01*
X133547790Y-115785403D01*
X133547789Y-115785403D01*
X133419553Y-115913639D01*
X133419553Y-115913640D01*
X133419551Y-115913642D01*
X133373770Y-115976653D01*
X133312950Y-116060364D01*
X133230612Y-116221961D01*
X133174571Y-116394437D01*
X133174571Y-116394440D01*
X133146200Y-116573564D01*
X130801400Y-116573564D01*
X130784894Y-116469359D01*
X130773029Y-116394442D01*
X130773028Y-116394438D01*
X130773028Y-116394437D01*
X130716987Y-116221961D01*
X130634649Y-116060364D01*
X130528049Y-115913642D01*
X130399808Y-115785401D01*
X130253085Y-115678800D01*
X130091488Y-115596462D01*
X129919010Y-115540421D01*
X129739885Y-115512050D01*
X129739880Y-115512050D01*
X129558520Y-115512050D01*
X129558515Y-115512050D01*
X129379390Y-115540421D01*
X129379387Y-115540421D01*
X129206911Y-115596462D01*
X129045314Y-115678800D01*
X128961603Y-115739620D01*
X128898592Y-115785401D01*
X128898590Y-115785403D01*
X128898589Y-115785403D01*
X128770353Y-115913639D01*
X128770353Y-115913640D01*
X128770351Y-115913642D01*
X128724570Y-115976653D01*
X128663750Y-116060364D01*
X128581412Y-116221961D01*
X128525371Y-116394437D01*
X128525371Y-116394440D01*
X128497000Y-116573564D01*
X121801400Y-116573564D01*
X121784894Y-116469359D01*
X121773029Y-116394442D01*
X121773028Y-116394438D01*
X121773028Y-116394437D01*
X121716987Y-116221961D01*
X121634649Y-116060364D01*
X121528049Y-115913642D01*
X121399808Y-115785401D01*
X121253085Y-115678800D01*
X121091488Y-115596462D01*
X120919010Y-115540421D01*
X120739885Y-115512050D01*
X120739880Y-115512050D01*
X120558520Y-115512050D01*
X120558515Y-115512050D01*
X120379390Y-115540421D01*
X120379387Y-115540421D01*
X120206911Y-115596462D01*
X120045314Y-115678800D01*
X119961603Y-115739620D01*
X119898592Y-115785401D01*
X119898590Y-115785403D01*
X119898589Y-115785403D01*
X119770353Y-115913639D01*
X119770353Y-115913640D01*
X119770351Y-115913642D01*
X119724570Y-115976653D01*
X119663750Y-116060364D01*
X119581412Y-116221961D01*
X119525371Y-116394437D01*
X119525371Y-116394440D01*
X119497000Y-116573564D01*
X117152200Y-116573564D01*
X117135694Y-116469359D01*
X117123829Y-116394442D01*
X117123828Y-116394438D01*
X117123828Y-116394437D01*
X117067787Y-116221961D01*
X116985449Y-116060364D01*
X116878849Y-115913642D01*
X116750608Y-115785401D01*
X116603885Y-115678800D01*
X116442288Y-115596462D01*
X116269810Y-115540421D01*
X116090685Y-115512050D01*
X116090680Y-115512050D01*
X115909320Y-115512050D01*
X115909315Y-115512050D01*
X115730190Y-115540421D01*
X115730187Y-115540421D01*
X115557711Y-115596462D01*
X115396114Y-115678800D01*
X115312403Y-115739620D01*
X115249392Y-115785401D01*
X115249390Y-115785403D01*
X115249389Y-115785403D01*
X115121153Y-115913639D01*
X115121153Y-115913640D01*
X115121151Y-115913642D01*
X115075370Y-115976653D01*
X115014550Y-116060364D01*
X114932212Y-116221961D01*
X114876171Y-116394437D01*
X114876171Y-116394440D01*
X114847800Y-116573564D01*
X108152200Y-116573564D01*
X108135694Y-116469359D01*
X108123829Y-116394442D01*
X108123828Y-116394438D01*
X108123828Y-116394437D01*
X108067787Y-116221961D01*
X107985449Y-116060364D01*
X107878849Y-115913642D01*
X107750608Y-115785401D01*
X107603885Y-115678800D01*
X107442288Y-115596462D01*
X107269810Y-115540421D01*
X107090685Y-115512050D01*
X107090680Y-115512050D01*
X106909320Y-115512050D01*
X106909315Y-115512050D01*
X106730190Y-115540421D01*
X106730187Y-115540421D01*
X106557711Y-115596462D01*
X106396114Y-115678800D01*
X106312403Y-115739620D01*
X106249392Y-115785401D01*
X106249390Y-115785403D01*
X106249389Y-115785403D01*
X106121153Y-115913639D01*
X106121153Y-115913640D01*
X106121151Y-115913642D01*
X106075370Y-115976653D01*
X106014550Y-116060364D01*
X105932212Y-116221961D01*
X105876171Y-116394437D01*
X105876171Y-116394440D01*
X105847800Y-116573564D01*
X100500500Y-116573564D01*
X100500500Y-114321153D01*
X146199500Y-114321153D01*
X146199500Y-114478846D01*
X146230261Y-114633489D01*
X146230264Y-114633501D01*
X146290602Y-114779172D01*
X146290609Y-114779185D01*
X146378210Y-114910288D01*
X146378213Y-114910292D01*
X146489707Y-115021786D01*
X146489711Y-115021789D01*
X146620814Y-115109390D01*
X146620827Y-115109397D01*
X146766498Y-115169735D01*
X146766503Y-115169737D01*
X146921153Y-115200499D01*
X146921156Y-115200500D01*
X146921158Y-115200500D01*
X147078844Y-115200500D01*
X147078845Y-115200499D01*
X147233497Y-115169737D01*
X147379179Y-115109394D01*
X147510289Y-115021789D01*
X147621789Y-114910289D01*
X147709394Y-114779179D01*
X147769737Y-114633497D01*
X147800500Y-114478842D01*
X147800500Y-114321158D01*
X147800500Y-114321155D01*
X147800499Y-114321153D01*
X147769738Y-114166510D01*
X147769737Y-114166503D01*
X147769735Y-114166498D01*
X147709397Y-114020827D01*
X147709390Y-114020814D01*
X147621789Y-113889711D01*
X147621786Y-113889707D01*
X147510292Y-113778213D01*
X147510288Y-113778210D01*
X147379185Y-113690609D01*
X147379172Y-113690602D01*
X147233501Y-113630264D01*
X147233489Y-113630261D01*
X147078845Y-113599500D01*
X147078842Y-113599500D01*
X146921158Y-113599500D01*
X146921155Y-113599500D01*
X146766510Y-113630261D01*
X146766498Y-113630264D01*
X146620827Y-113690602D01*
X146620814Y-113690609D01*
X146489711Y-113778210D01*
X146489707Y-113778213D01*
X146378213Y-113889707D01*
X146378210Y-113889711D01*
X146290609Y-114020814D01*
X146290602Y-114020827D01*
X146230264Y-114166498D01*
X146230261Y-114166510D01*
X146199500Y-114321153D01*
X100500500Y-114321153D01*
X100500500Y-110301895D01*
X107572400Y-110301895D01*
X107572400Y-110526604D01*
X107607552Y-110748543D01*
X107607552Y-110748544D01*
X107607553Y-110748547D01*
X107676992Y-110962258D01*
X107779007Y-111162475D01*
X107911088Y-111344269D01*
X108069981Y-111503162D01*
X108251775Y-111635243D01*
X108451992Y-111737258D01*
X108665703Y-111806697D01*
X108887645Y-111841850D01*
X108887646Y-111841850D01*
X109112354Y-111841850D01*
X109112355Y-111841850D01*
X109334297Y-111806697D01*
X109548008Y-111737258D01*
X109748225Y-111635243D01*
X109930019Y-111503162D01*
X110088912Y-111344269D01*
X110220993Y-111162475D01*
X110323008Y-110962258D01*
X110392447Y-110748547D01*
X110427600Y-110526605D01*
X110427600Y-110301895D01*
X112572400Y-110301895D01*
X112572400Y-110526604D01*
X112607552Y-110748543D01*
X112607552Y-110748544D01*
X112607553Y-110748547D01*
X112676992Y-110962258D01*
X112779007Y-111162475D01*
X112911088Y-111344269D01*
X113069981Y-111503162D01*
X113251775Y-111635243D01*
X113451992Y-111737258D01*
X113665703Y-111806697D01*
X113887645Y-111841850D01*
X113887646Y-111841850D01*
X114112354Y-111841850D01*
X114112355Y-111841850D01*
X114334297Y-111806697D01*
X114548008Y-111737258D01*
X114748225Y-111635243D01*
X114930019Y-111503162D01*
X115088912Y-111344269D01*
X115220993Y-111162475D01*
X115323008Y-110962258D01*
X115392447Y-110748547D01*
X115427600Y-110526605D01*
X115427600Y-110301895D01*
X121221600Y-110301895D01*
X121221600Y-110526604D01*
X121256752Y-110748543D01*
X121256752Y-110748544D01*
X121256753Y-110748547D01*
X121326192Y-110962258D01*
X121428207Y-111162475D01*
X121560288Y-111344269D01*
X121719181Y-111503162D01*
X121900975Y-111635243D01*
X122101192Y-111737258D01*
X122314903Y-111806697D01*
X122536845Y-111841850D01*
X122536846Y-111841850D01*
X122761554Y-111841850D01*
X122761555Y-111841850D01*
X122983497Y-111806697D01*
X123197208Y-111737258D01*
X123397425Y-111635243D01*
X123579219Y-111503162D01*
X123738112Y-111344269D01*
X123870193Y-111162475D01*
X123972208Y-110962258D01*
X124041647Y-110748547D01*
X124076800Y-110526605D01*
X124076800Y-110301895D01*
X126221600Y-110301895D01*
X126221600Y-110526604D01*
X126256752Y-110748543D01*
X126256752Y-110748544D01*
X126256753Y-110748547D01*
X126326192Y-110962258D01*
X126428207Y-111162475D01*
X126560288Y-111344269D01*
X126719181Y-111503162D01*
X126900975Y-111635243D01*
X127101192Y-111737258D01*
X127314903Y-111806697D01*
X127536845Y-111841850D01*
X127536846Y-111841850D01*
X127761554Y-111841850D01*
X127761555Y-111841850D01*
X127983497Y-111806697D01*
X128197208Y-111737258D01*
X128397425Y-111635243D01*
X128579219Y-111503162D01*
X128738112Y-111344269D01*
X128870193Y-111162475D01*
X128972208Y-110962258D01*
X129041647Y-110748547D01*
X129076800Y-110526605D01*
X129076800Y-110301895D01*
X134870800Y-110301895D01*
X134870800Y-110526604D01*
X134905952Y-110748543D01*
X134905952Y-110748544D01*
X134905953Y-110748547D01*
X134975392Y-110962258D01*
X135077407Y-111162475D01*
X135209488Y-111344269D01*
X135368381Y-111503162D01*
X135550175Y-111635243D01*
X135750392Y-111737258D01*
X135964103Y-111806697D01*
X136186045Y-111841850D01*
X136186046Y-111841850D01*
X136410754Y-111841850D01*
X136410755Y-111841850D01*
X136632697Y-111806697D01*
X136846408Y-111737258D01*
X137046625Y-111635243D01*
X137228419Y-111503162D01*
X137387312Y-111344269D01*
X137519393Y-111162475D01*
X137621408Y-110962258D01*
X137690847Y-110748547D01*
X137726000Y-110526605D01*
X137726000Y-110301895D01*
X139870800Y-110301895D01*
X139870800Y-110526604D01*
X139905952Y-110748543D01*
X139905952Y-110748544D01*
X139905953Y-110748547D01*
X139975392Y-110962258D01*
X140077407Y-111162475D01*
X140209488Y-111344269D01*
X140368381Y-111503162D01*
X140550175Y-111635243D01*
X140750392Y-111737258D01*
X140964103Y-111806697D01*
X141186045Y-111841850D01*
X141186046Y-111841850D01*
X141410754Y-111841850D01*
X141410755Y-111841850D01*
X141632697Y-111806697D01*
X141846408Y-111737258D01*
X142046625Y-111635243D01*
X142228419Y-111503162D01*
X142387312Y-111344269D01*
X142519393Y-111162475D01*
X142621408Y-110962258D01*
X142690847Y-110748547D01*
X142726000Y-110526605D01*
X142726000Y-110301895D01*
X142690847Y-110079953D01*
X142621408Y-109866242D01*
X142519393Y-109666025D01*
X142387312Y-109484231D01*
X142228419Y-109325338D01*
X142046625Y-109193257D01*
X141846408Y-109091242D01*
X141632697Y-109021803D01*
X141632695Y-109021802D01*
X141632693Y-109021802D01*
X141477732Y-108997258D01*
X141410755Y-108986650D01*
X141186045Y-108986650D01*
X141134594Y-108994799D01*
X140964106Y-109021802D01*
X140964105Y-109021802D01*
X140750389Y-109091243D01*
X140550174Y-109193257D01*
X140368378Y-109325340D01*
X140209490Y-109484228D01*
X140077407Y-109666024D01*
X139975393Y-109866239D01*
X139905952Y-110079955D01*
X139905952Y-110079956D01*
X139870800Y-110301895D01*
X137726000Y-110301895D01*
X137690847Y-110079953D01*
X137621408Y-109866242D01*
X137519393Y-109666025D01*
X137387312Y-109484231D01*
X137228419Y-109325338D01*
X137046625Y-109193257D01*
X136846408Y-109091242D01*
X136632697Y-109021803D01*
X136632695Y-109021802D01*
X136632693Y-109021802D01*
X136477732Y-108997258D01*
X136410755Y-108986650D01*
X136186045Y-108986650D01*
X136134594Y-108994799D01*
X135964106Y-109021802D01*
X135964105Y-109021802D01*
X135750389Y-109091243D01*
X135550174Y-109193257D01*
X135368378Y-109325340D01*
X135209490Y-109484228D01*
X135077407Y-109666024D01*
X134975393Y-109866239D01*
X134905952Y-110079955D01*
X134905952Y-110079956D01*
X134870800Y-110301895D01*
X129076800Y-110301895D01*
X129041647Y-110079953D01*
X128972208Y-109866242D01*
X128870193Y-109666025D01*
X128738112Y-109484231D01*
X128579219Y-109325338D01*
X128397425Y-109193257D01*
X128197208Y-109091242D01*
X127983497Y-109021803D01*
X127983495Y-109021802D01*
X127983493Y-109021802D01*
X127828532Y-108997258D01*
X127761555Y-108986650D01*
X127536845Y-108986650D01*
X127485394Y-108994799D01*
X127314906Y-109021802D01*
X127314905Y-109021802D01*
X127101189Y-109091243D01*
X126900974Y-109193257D01*
X126719178Y-109325340D01*
X126560290Y-109484228D01*
X126428207Y-109666024D01*
X126326193Y-109866239D01*
X126256752Y-110079955D01*
X126256752Y-110079956D01*
X126221600Y-110301895D01*
X124076800Y-110301895D01*
X124041647Y-110079953D01*
X123972208Y-109866242D01*
X123870193Y-109666025D01*
X123738112Y-109484231D01*
X123579219Y-109325338D01*
X123397425Y-109193257D01*
X123197208Y-109091242D01*
X122983497Y-109021803D01*
X122983495Y-109021802D01*
X122983493Y-109021802D01*
X122828532Y-108997258D01*
X122761555Y-108986650D01*
X122536845Y-108986650D01*
X122485394Y-108994799D01*
X122314906Y-109021802D01*
X122314905Y-109021802D01*
X122101189Y-109091243D01*
X121900974Y-109193257D01*
X121719178Y-109325340D01*
X121560290Y-109484228D01*
X121428207Y-109666024D01*
X121326193Y-109866239D01*
X121256752Y-110079955D01*
X121256752Y-110079956D01*
X121221600Y-110301895D01*
X115427600Y-110301895D01*
X115392447Y-110079953D01*
X115323008Y-109866242D01*
X115220993Y-109666025D01*
X115088912Y-109484231D01*
X114930019Y-109325338D01*
X114748225Y-109193257D01*
X114548008Y-109091242D01*
X114334297Y-109021803D01*
X114334295Y-109021802D01*
X114334293Y-109021802D01*
X114179332Y-108997258D01*
X114112355Y-108986650D01*
X113887645Y-108986650D01*
X113836194Y-108994799D01*
X113665706Y-109021802D01*
X113665705Y-109021802D01*
X113451989Y-109091243D01*
X113251774Y-109193257D01*
X113069978Y-109325340D01*
X112911090Y-109484228D01*
X112779007Y-109666024D01*
X112676993Y-109866239D01*
X112607552Y-110079955D01*
X112607552Y-110079956D01*
X112572400Y-110301895D01*
X110427600Y-110301895D01*
X110392447Y-110079953D01*
X110323008Y-109866242D01*
X110220993Y-109666025D01*
X110088912Y-109484231D01*
X109930019Y-109325338D01*
X109748225Y-109193257D01*
X109548008Y-109091242D01*
X109334297Y-109021803D01*
X109334295Y-109021802D01*
X109334293Y-109021802D01*
X109179332Y-108997258D01*
X109112355Y-108986650D01*
X108887645Y-108986650D01*
X108836194Y-108994799D01*
X108665706Y-109021802D01*
X108665705Y-109021802D01*
X108451989Y-109091243D01*
X108251774Y-109193257D01*
X108069978Y-109325340D01*
X107911090Y-109484228D01*
X107779007Y-109666024D01*
X107676993Y-109866239D01*
X107607552Y-110079955D01*
X107607552Y-110079956D01*
X107572400Y-110301895D01*
X100500500Y-110301895D01*
X100500500Y-103527155D01*
X111275000Y-103527155D01*
X111275000Y-104150000D01*
X112109252Y-104150000D01*
X112087482Y-104187708D01*
X112050000Y-104327591D01*
X112050000Y-104472409D01*
X112087482Y-104612292D01*
X112109252Y-104650000D01*
X111275000Y-104650000D01*
X111275000Y-105272844D01*
X111281401Y-105332372D01*
X111281403Y-105332379D01*
X111331645Y-105467086D01*
X111331649Y-105467093D01*
X111417809Y-105582187D01*
X111417812Y-105582190D01*
X111532906Y-105668350D01*
X111532913Y-105668354D01*
X111667620Y-105718596D01*
X111667627Y-105718598D01*
X111727155Y-105724999D01*
X111727172Y-105725000D01*
X112350000Y-105725000D01*
X112350000Y-104890747D01*
X112387708Y-104912518D01*
X112527591Y-104950000D01*
X112672409Y-104950000D01*
X112812292Y-104912518D01*
X112850000Y-104890747D01*
X112850000Y-105725000D01*
X113472828Y-105725000D01*
X113472844Y-105724999D01*
X113532372Y-105718598D01*
X113532379Y-105718596D01*
X113667086Y-105668354D01*
X113667093Y-105668350D01*
X113782187Y-105582190D01*
X113782190Y-105582187D01*
X113868350Y-105467093D01*
X113868354Y-105467086D01*
X113918596Y-105332379D01*
X113920380Y-105324832D01*
X113923159Y-105325488D01*
X113944724Y-105273401D01*
X114002110Y-105233543D01*
X114071935Y-105231038D01*
X114128970Y-105263510D01*
X114276495Y-105411035D01*
X114445286Y-105533670D01*
X114533116Y-105578421D01*
X114631179Y-105628387D01*
X114631181Y-105628387D01*
X114631184Y-105628389D01*
X114737545Y-105662948D01*
X114829610Y-105692862D01*
X115035676Y-105725500D01*
X115035681Y-105725500D01*
X115244324Y-105725500D01*
X115450389Y-105692862D01*
X115648816Y-105628389D01*
X115834714Y-105533670D01*
X116003505Y-105411035D01*
X116151035Y-105263505D01*
X116273670Y-105094714D01*
X116299515Y-105043990D01*
X116347489Y-104993194D01*
X116415310Y-104976398D01*
X116481445Y-104998935D01*
X116520485Y-105043990D01*
X116546328Y-105094712D01*
X116628086Y-105207241D01*
X116668965Y-105263505D01*
X116816495Y-105411035D01*
X116985286Y-105533670D01*
X117073116Y-105578421D01*
X117171179Y-105628387D01*
X117171181Y-105628387D01*
X117171184Y-105628389D01*
X117277545Y-105662948D01*
X117369610Y-105692862D01*
X117575676Y-105725500D01*
X117575681Y-105725500D01*
X117784324Y-105725500D01*
X117990389Y-105692862D01*
X118188816Y-105628389D01*
X118374714Y-105533670D01*
X118543505Y-105411035D01*
X118691035Y-105263505D01*
X118813670Y-105094714D01*
X118839515Y-105043990D01*
X118887489Y-104993194D01*
X118955310Y-104976398D01*
X119021445Y-104998935D01*
X119060485Y-105043990D01*
X119086328Y-105094712D01*
X119168086Y-105207241D01*
X119208965Y-105263505D01*
X119356495Y-105411035D01*
X119525286Y-105533670D01*
X119613116Y-105578421D01*
X119711179Y-105628387D01*
X119711181Y-105628387D01*
X119711184Y-105628389D01*
X119817545Y-105662948D01*
X119909610Y-105692862D01*
X120115676Y-105725500D01*
X120115681Y-105725500D01*
X120324324Y-105725500D01*
X120530389Y-105692862D01*
X120728816Y-105628389D01*
X120914714Y-105533670D01*
X121083505Y-105411035D01*
X121231035Y-105263505D01*
X121353670Y-105094714D01*
X121379515Y-105043990D01*
X121427489Y-104993194D01*
X121495310Y-104976398D01*
X121561445Y-104998935D01*
X121600485Y-105043990D01*
X121626328Y-105094712D01*
X121708086Y-105207241D01*
X121748965Y-105263505D01*
X121896495Y-105411035D01*
X122065286Y-105533670D01*
X122153116Y-105578421D01*
X122251179Y-105628387D01*
X122251181Y-105628387D01*
X122251184Y-105628389D01*
X122357545Y-105662948D01*
X122449610Y-105692862D01*
X122655676Y-105725500D01*
X122655681Y-105725500D01*
X122864324Y-105725500D01*
X123070389Y-105692862D01*
X123268816Y-105628389D01*
X123454714Y-105533670D01*
X123623505Y-105411035D01*
X123771035Y-105263505D01*
X123893670Y-105094714D01*
X123919515Y-105043990D01*
X123967489Y-104993194D01*
X124035310Y-104976398D01*
X124101445Y-104998935D01*
X124140485Y-105043990D01*
X124166328Y-105094712D01*
X124248086Y-105207241D01*
X124288965Y-105263505D01*
X124436495Y-105411035D01*
X124605286Y-105533670D01*
X124693116Y-105578421D01*
X124791179Y-105628387D01*
X124791181Y-105628387D01*
X124791184Y-105628389D01*
X124897545Y-105662948D01*
X124989610Y-105692862D01*
X125195676Y-105725500D01*
X125195681Y-105725500D01*
X125404324Y-105725500D01*
X125610389Y-105692862D01*
X125808816Y-105628389D01*
X125994714Y-105533670D01*
X126163505Y-105411035D01*
X126311035Y-105263505D01*
X126433670Y-105094714D01*
X126459515Y-105043990D01*
X126507489Y-104993194D01*
X126575310Y-104976398D01*
X126641445Y-104998935D01*
X126680485Y-105043990D01*
X126706328Y-105094712D01*
X126788086Y-105207241D01*
X126828965Y-105263505D01*
X126976495Y-105411035D01*
X127145286Y-105533670D01*
X127233116Y-105578421D01*
X127331179Y-105628387D01*
X127331181Y-105628387D01*
X127331184Y-105628389D01*
X127437545Y-105662948D01*
X127529610Y-105692862D01*
X127735676Y-105725500D01*
X127735681Y-105725500D01*
X127944324Y-105725500D01*
X128150389Y-105692862D01*
X128348816Y-105628389D01*
X128534714Y-105533670D01*
X128703505Y-105411035D01*
X128851035Y-105263505D01*
X128973670Y-105094714D01*
X128999515Y-105043990D01*
X129047489Y-104993194D01*
X129115310Y-104976398D01*
X129181445Y-104998935D01*
X129220485Y-105043990D01*
X129246328Y-105094712D01*
X129328086Y-105207241D01*
X129368965Y-105263505D01*
X129516495Y-105411035D01*
X129685286Y-105533670D01*
X129773116Y-105578421D01*
X129871179Y-105628387D01*
X129871181Y-105628387D01*
X129871184Y-105628389D01*
X129977545Y-105662948D01*
X130069610Y-105692862D01*
X130275676Y-105725500D01*
X130275681Y-105725500D01*
X130484324Y-105725500D01*
X130690389Y-105692862D01*
X130888816Y-105628389D01*
X131074714Y-105533670D01*
X131243505Y-105411035D01*
X131391035Y-105263505D01*
X131513670Y-105094714D01*
X131539515Y-105043990D01*
X131587489Y-104993194D01*
X131655310Y-104976398D01*
X131721445Y-104998935D01*
X131760485Y-105043990D01*
X131786328Y-105094712D01*
X131868086Y-105207241D01*
X131908965Y-105263505D01*
X132056495Y-105411035D01*
X132225286Y-105533670D01*
X132313116Y-105578421D01*
X132411179Y-105628387D01*
X132411181Y-105628387D01*
X132411184Y-105628389D01*
X132517545Y-105662948D01*
X132609610Y-105692862D01*
X132815676Y-105725500D01*
X132815681Y-105725500D01*
X133024324Y-105725500D01*
X133230389Y-105692862D01*
X133428816Y-105628389D01*
X133614714Y-105533670D01*
X133783505Y-105411035D01*
X133931035Y-105263505D01*
X134053670Y-105094714D01*
X134079515Y-105043990D01*
X134127489Y-104993194D01*
X134195310Y-104976398D01*
X134261445Y-104998935D01*
X134300485Y-105043990D01*
X134326328Y-105094712D01*
X134408086Y-105207241D01*
X134448965Y-105263505D01*
X134596495Y-105411035D01*
X134765286Y-105533670D01*
X134853116Y-105578421D01*
X134951179Y-105628387D01*
X134951181Y-105628387D01*
X134951184Y-105628389D01*
X135057545Y-105662948D01*
X135149610Y-105692862D01*
X135355676Y-105725500D01*
X135355681Y-105725500D01*
X135564324Y-105725500D01*
X135770389Y-105692862D01*
X135968816Y-105628389D01*
X136154714Y-105533670D01*
X136323505Y-105411035D01*
X136471035Y-105263505D01*
X136593670Y-105094714D01*
X136619515Y-105043990D01*
X136667489Y-104993194D01*
X136735310Y-104976398D01*
X136801445Y-104998935D01*
X136840485Y-105043990D01*
X136866328Y-105094712D01*
X136948086Y-105207241D01*
X136988965Y-105263505D01*
X137136495Y-105411035D01*
X137305286Y-105533670D01*
X137393116Y-105578421D01*
X137491179Y-105628387D01*
X137491181Y-105628387D01*
X137491184Y-105628389D01*
X137597545Y-105662948D01*
X137689610Y-105692862D01*
X137895676Y-105725500D01*
X137895681Y-105725500D01*
X138104324Y-105725500D01*
X138310389Y-105692862D01*
X138508816Y-105628389D01*
X138694714Y-105533670D01*
X138863505Y-105411035D01*
X139011035Y-105263505D01*
X139133670Y-105094714D01*
X139228389Y-104908816D01*
X139292862Y-104710389D01*
X139308399Y-104612292D01*
X139325500Y-104504324D01*
X139325500Y-104295675D01*
X139292862Y-104089610D01*
X139228387Y-103891179D01*
X139133669Y-103705285D01*
X139031738Y-103564990D01*
X139011035Y-103536495D01*
X138863505Y-103388965D01*
X138694714Y-103266330D01*
X138508820Y-103171612D01*
X138310389Y-103107137D01*
X138104324Y-103074500D01*
X138104319Y-103074500D01*
X137895681Y-103074500D01*
X137895676Y-103074500D01*
X137689610Y-103107137D01*
X137491179Y-103171612D01*
X137305285Y-103266330D01*
X137136493Y-103388966D01*
X137136492Y-103388967D01*
X136988970Y-103536490D01*
X136988966Y-103536493D01*
X136866330Y-103705285D01*
X136840485Y-103756010D01*
X136792510Y-103806806D01*
X136724690Y-103823601D01*
X136658555Y-103801064D01*
X136619515Y-103756010D01*
X136593669Y-103705285D01*
X136491738Y-103564990D01*
X136471035Y-103536495D01*
X136323505Y-103388965D01*
X136154714Y-103266330D01*
X135968820Y-103171612D01*
X135770389Y-103107137D01*
X135564324Y-103074500D01*
X135564319Y-103074500D01*
X135355681Y-103074500D01*
X135355676Y-103074500D01*
X135149610Y-103107137D01*
X134951179Y-103171612D01*
X134765285Y-103266330D01*
X134596493Y-103388966D01*
X134596492Y-103388967D01*
X134448970Y-103536490D01*
X134448966Y-103536493D01*
X134326330Y-103705285D01*
X134300485Y-103756010D01*
X134252510Y-103806806D01*
X134184690Y-103823601D01*
X134118555Y-103801064D01*
X134079515Y-103756010D01*
X134053669Y-103705285D01*
X133951738Y-103564990D01*
X133931035Y-103536495D01*
X133783505Y-103388965D01*
X133614714Y-103266330D01*
X133428820Y-103171612D01*
X133230389Y-103107137D01*
X133024324Y-103074500D01*
X133024319Y-103074500D01*
X132815681Y-103074500D01*
X132815676Y-103074500D01*
X132609610Y-103107137D01*
X132411179Y-103171612D01*
X132225285Y-103266330D01*
X132056493Y-103388966D01*
X132056492Y-103388967D01*
X131908970Y-103536490D01*
X131908966Y-103536493D01*
X131786330Y-103705285D01*
X131760485Y-103756010D01*
X131712510Y-103806806D01*
X131644690Y-103823601D01*
X131578555Y-103801064D01*
X131539515Y-103756010D01*
X131513669Y-103705285D01*
X131411738Y-103564990D01*
X131391035Y-103536495D01*
X131243505Y-103388965D01*
X131074714Y-103266330D01*
X130888820Y-103171612D01*
X130690389Y-103107137D01*
X130484324Y-103074500D01*
X130484319Y-103074500D01*
X130275681Y-103074500D01*
X130275676Y-103074500D01*
X130069610Y-103107137D01*
X129871179Y-103171612D01*
X129685285Y-103266330D01*
X129516493Y-103388966D01*
X129516492Y-103388967D01*
X129368970Y-103536490D01*
X129368966Y-103536493D01*
X129246330Y-103705285D01*
X129220485Y-103756010D01*
X129172510Y-103806806D01*
X129104690Y-103823601D01*
X129038555Y-103801064D01*
X128999515Y-103756010D01*
X128973669Y-103705285D01*
X128871738Y-103564990D01*
X128851035Y-103536495D01*
X128703505Y-103388965D01*
X128534714Y-103266330D01*
X128348820Y-103171612D01*
X128150389Y-103107137D01*
X127944324Y-103074500D01*
X127944319Y-103074500D01*
X127735681Y-103074500D01*
X127735676Y-103074500D01*
X127529610Y-103107137D01*
X127331179Y-103171612D01*
X127145285Y-103266330D01*
X126976493Y-103388966D01*
X126976492Y-103388967D01*
X126828970Y-103536490D01*
X126828966Y-103536493D01*
X126706330Y-103705285D01*
X126680485Y-103756010D01*
X126632510Y-103806806D01*
X126564690Y-103823601D01*
X126498555Y-103801064D01*
X126459515Y-103756010D01*
X126433669Y-103705285D01*
X126331738Y-103564990D01*
X126311035Y-103536495D01*
X126163505Y-103388965D01*
X125994714Y-103266330D01*
X125808820Y-103171612D01*
X125610389Y-103107137D01*
X125404324Y-103074500D01*
X125404319Y-103074500D01*
X125195681Y-103074500D01*
X125195676Y-103074500D01*
X124989610Y-103107137D01*
X124791179Y-103171612D01*
X124605285Y-103266330D01*
X124436493Y-103388966D01*
X124436492Y-103388967D01*
X124288970Y-103536490D01*
X124288966Y-103536493D01*
X124166330Y-103705285D01*
X124140485Y-103756010D01*
X124092510Y-103806806D01*
X124024690Y-103823601D01*
X123958555Y-103801064D01*
X123919515Y-103756010D01*
X123893669Y-103705285D01*
X123791738Y-103564990D01*
X123771035Y-103536495D01*
X123623505Y-103388965D01*
X123454714Y-103266330D01*
X123268820Y-103171612D01*
X123070389Y-103107137D01*
X122864324Y-103074500D01*
X122864319Y-103074500D01*
X122655681Y-103074500D01*
X122655676Y-103074500D01*
X122449610Y-103107137D01*
X122251179Y-103171612D01*
X122065285Y-103266330D01*
X121896493Y-103388966D01*
X121896492Y-103388967D01*
X121748970Y-103536490D01*
X121748966Y-103536493D01*
X121626330Y-103705285D01*
X121600485Y-103756010D01*
X121552510Y-103806806D01*
X121484690Y-103823601D01*
X121418555Y-103801064D01*
X121379515Y-103756010D01*
X121353669Y-103705285D01*
X121251738Y-103564990D01*
X121231035Y-103536495D01*
X121083505Y-103388965D01*
X120914714Y-103266330D01*
X120728820Y-103171612D01*
X120530389Y-103107137D01*
X120324324Y-103074500D01*
X120324319Y-103074500D01*
X120115681Y-103074500D01*
X120115676Y-103074500D01*
X119909610Y-103107137D01*
X119711179Y-103171612D01*
X119525285Y-103266330D01*
X119356493Y-103388966D01*
X119356492Y-103388967D01*
X119208970Y-103536490D01*
X119208966Y-103536493D01*
X119086330Y-103705285D01*
X119060485Y-103756010D01*
X119012510Y-103806806D01*
X118944690Y-103823601D01*
X118878555Y-103801064D01*
X118839515Y-103756010D01*
X118813669Y-103705285D01*
X118711738Y-103564990D01*
X118691035Y-103536495D01*
X118543505Y-103388965D01*
X118374714Y-103266330D01*
X118188820Y-103171612D01*
X117990389Y-103107137D01*
X117784324Y-103074500D01*
X117784319Y-103074500D01*
X117575681Y-103074500D01*
X117575676Y-103074500D01*
X117369610Y-103107137D01*
X117171179Y-103171612D01*
X116985285Y-103266330D01*
X116816493Y-103388966D01*
X116816492Y-103388967D01*
X116668970Y-103536490D01*
X116668966Y-103536493D01*
X116546330Y-103705285D01*
X116520485Y-103756010D01*
X116472510Y-103806806D01*
X116404690Y-103823601D01*
X116338555Y-103801064D01*
X116299515Y-103756010D01*
X116273669Y-103705285D01*
X116171738Y-103564990D01*
X116151035Y-103536495D01*
X116003505Y-103388965D01*
X115834714Y-103266330D01*
X115648820Y-103171612D01*
X115450389Y-103107137D01*
X115244324Y-103074500D01*
X115244319Y-103074500D01*
X115035681Y-103074500D01*
X115035676Y-103074500D01*
X114829610Y-103107137D01*
X114631179Y-103171612D01*
X114445285Y-103266330D01*
X114276496Y-103388964D01*
X114128970Y-103536490D01*
X114067647Y-103569974D01*
X113997955Y-103564990D01*
X113942022Y-103523118D01*
X113922922Y-103474567D01*
X113920380Y-103475168D01*
X113918596Y-103467620D01*
X113868354Y-103332913D01*
X113868350Y-103332906D01*
X113782190Y-103217812D01*
X113782187Y-103217809D01*
X113667093Y-103131649D01*
X113667086Y-103131645D01*
X113532379Y-103081403D01*
X113532372Y-103081401D01*
X113472844Y-103075000D01*
X112850000Y-103075000D01*
X112850000Y-103909252D01*
X112812292Y-103887482D01*
X112672409Y-103850000D01*
X112527591Y-103850000D01*
X112387708Y-103887482D01*
X112350000Y-103909252D01*
X112350000Y-103075000D01*
X111727155Y-103075000D01*
X111667627Y-103081401D01*
X111667620Y-103081403D01*
X111532913Y-103131645D01*
X111532906Y-103131649D01*
X111417812Y-103217809D01*
X111417809Y-103217812D01*
X111331649Y-103332906D01*
X111331645Y-103332913D01*
X111281403Y-103467620D01*
X111281401Y-103467627D01*
X111275000Y-103527155D01*
X100500500Y-103527155D01*
X100500500Y-99921154D01*
X117199500Y-99921154D01*
X117199500Y-100078847D01*
X117230261Y-100233490D01*
X117230264Y-100233502D01*
X117290602Y-100379173D01*
X117290609Y-100379186D01*
X117378210Y-100510289D01*
X117378213Y-100510293D01*
X117489707Y-100621787D01*
X117489711Y-100621790D01*
X117620814Y-100709391D01*
X117620827Y-100709398D01*
X117766496Y-100769735D01*
X117766503Y-100769738D01*
X117921148Y-100800499D01*
X117921153Y-100800500D01*
X117921156Y-100800501D01*
X117921158Y-100800501D01*
X118078844Y-100800501D01*
X118078845Y-100800500D01*
X118233497Y-100769738D01*
X118379179Y-100709395D01*
X118510289Y-100621790D01*
X118621789Y-100510290D01*
X118709394Y-100379180D01*
X118769737Y-100233498D01*
X118800500Y-100078843D01*
X118800500Y-99921159D01*
X118800499Y-99921153D01*
X120999500Y-99921153D01*
X120999500Y-100078846D01*
X121030261Y-100233489D01*
X121030264Y-100233501D01*
X121090602Y-100379172D01*
X121090609Y-100379185D01*
X121178210Y-100510288D01*
X121178213Y-100510292D01*
X121289707Y-100621786D01*
X121289711Y-100621789D01*
X121420814Y-100709390D01*
X121420827Y-100709397D01*
X121566498Y-100769735D01*
X121566503Y-100769737D01*
X121721153Y-100800499D01*
X121721156Y-100800500D01*
X121721158Y-100800500D01*
X121878844Y-100800500D01*
X121878845Y-100800499D01*
X122033497Y-100769737D01*
X122146166Y-100723067D01*
X122179172Y-100709397D01*
X122179172Y-100709396D01*
X122179179Y-100709394D01*
X122310289Y-100621789D01*
X122421789Y-100510289D01*
X122509394Y-100379179D01*
X122569737Y-100233497D01*
X122600500Y-100078842D01*
X122600500Y-99921158D01*
X122600500Y-99921157D01*
X122600500Y-99921155D01*
X122600499Y-99921153D01*
X122569737Y-99766503D01*
X122509397Y-99620828D01*
X122509397Y-99620827D01*
X122509390Y-99620814D01*
X122421789Y-99489711D01*
X122421786Y-99489707D01*
X122310292Y-99378213D01*
X122310288Y-99378210D01*
X122179185Y-99290609D01*
X122179172Y-99290602D01*
X122033501Y-99230264D01*
X122033489Y-99230261D01*
X121878845Y-99199500D01*
X121878842Y-99199500D01*
X121721158Y-99199500D01*
X121721155Y-99199500D01*
X121566510Y-99230261D01*
X121566498Y-99230264D01*
X121420827Y-99290602D01*
X121420814Y-99290609D01*
X121289711Y-99378210D01*
X121289707Y-99378213D01*
X121178213Y-99489707D01*
X121178210Y-99489711D01*
X121090609Y-99620814D01*
X121090602Y-99620827D01*
X121030264Y-99766498D01*
X121030261Y-99766510D01*
X120999500Y-99921153D01*
X118800499Y-99921153D01*
X118769737Y-99766504D01*
X118769735Y-99766498D01*
X118709397Y-99620828D01*
X118709390Y-99620815D01*
X118621789Y-99489712D01*
X118621786Y-99489708D01*
X118510292Y-99378214D01*
X118510288Y-99378211D01*
X118379185Y-99290610D01*
X118379172Y-99290603D01*
X118233501Y-99230265D01*
X118233489Y-99230262D01*
X118078845Y-99199501D01*
X118078842Y-99199501D01*
X117921158Y-99199501D01*
X117921155Y-99199501D01*
X117766510Y-99230262D01*
X117766498Y-99230265D01*
X117620827Y-99290603D01*
X117620814Y-99290610D01*
X117489711Y-99378211D01*
X117489707Y-99378214D01*
X117378213Y-99489708D01*
X117378210Y-99489712D01*
X117290609Y-99620815D01*
X117290602Y-99620828D01*
X117230264Y-99766499D01*
X117230261Y-99766511D01*
X117199500Y-99921154D01*
X100500500Y-99921154D01*
X100500500Y-98121153D01*
X135799500Y-98121153D01*
X135799500Y-98278846D01*
X135830261Y-98433489D01*
X135830264Y-98433501D01*
X135890602Y-98579172D01*
X135890609Y-98579185D01*
X135978210Y-98710288D01*
X135978213Y-98710292D01*
X136089707Y-98821786D01*
X136089711Y-98821789D01*
X136220814Y-98909390D01*
X136220827Y-98909397D01*
X136366498Y-98969735D01*
X136366503Y-98969737D01*
X136521153Y-99000499D01*
X136521156Y-99000500D01*
X136521158Y-99000500D01*
X136678844Y-99000500D01*
X136678845Y-99000499D01*
X136833497Y-98969737D01*
X136979179Y-98909394D01*
X137110289Y-98821789D01*
X137221789Y-98710289D01*
X137309394Y-98579179D01*
X137369737Y-98433497D01*
X137400500Y-98278842D01*
X137400500Y-98121158D01*
X137400500Y-98121155D01*
X137400499Y-98121153D01*
X137369738Y-97966510D01*
X137369737Y-97966503D01*
X137369735Y-97966498D01*
X137309397Y-97820827D01*
X137309390Y-97820814D01*
X137221789Y-97689711D01*
X137221786Y-97689707D01*
X137110292Y-97578213D01*
X137110288Y-97578210D01*
X136979185Y-97490609D01*
X136979172Y-97490602D01*
X136833501Y-97430264D01*
X136833489Y-97430261D01*
X136678845Y-97399500D01*
X136678842Y-97399500D01*
X136521158Y-97399500D01*
X136521155Y-97399500D01*
X136366510Y-97430261D01*
X136366498Y-97430264D01*
X136220827Y-97490602D01*
X136220814Y-97490609D01*
X136089711Y-97578210D01*
X136089707Y-97578213D01*
X135978213Y-97689707D01*
X135978210Y-97689711D01*
X135890609Y-97820814D01*
X135890602Y-97820827D01*
X135830264Y-97966498D01*
X135830261Y-97966510D01*
X135799500Y-98121153D01*
X100500500Y-98121153D01*
X100500500Y-91821153D01*
X106999500Y-91821153D01*
X106999500Y-91978846D01*
X107030261Y-92133489D01*
X107030264Y-92133501D01*
X107090602Y-92279172D01*
X107090609Y-92279185D01*
X107178210Y-92410288D01*
X107178213Y-92410292D01*
X107289707Y-92521786D01*
X107289711Y-92521789D01*
X107420814Y-92609390D01*
X107420827Y-92609397D01*
X107566498Y-92669735D01*
X107566503Y-92669737D01*
X107716131Y-92699500D01*
X107721153Y-92700499D01*
X107721156Y-92700500D01*
X107721158Y-92700500D01*
X107878844Y-92700500D01*
X107878845Y-92700499D01*
X108033497Y-92669737D01*
X108136037Y-92627263D01*
X108205504Y-92619795D01*
X108267984Y-92651070D01*
X108286232Y-92674774D01*
X108287221Y-92674114D01*
X108378210Y-92810288D01*
X108378213Y-92810292D01*
X108489707Y-92921786D01*
X108489711Y-92921789D01*
X108620814Y-93009390D01*
X108620827Y-93009397D01*
X108766498Y-93069735D01*
X108766503Y-93069737D01*
X108921153Y-93100499D01*
X108921156Y-93100500D01*
X108921158Y-93100500D01*
X109078844Y-93100500D01*
X109200241Y-93076352D01*
X109269833Y-93082579D01*
X109325010Y-93125442D01*
X109348255Y-93191331D01*
X109338996Y-93245417D01*
X109330264Y-93266499D01*
X109330261Y-93266510D01*
X109299500Y-93421153D01*
X109299500Y-93578846D01*
X109330261Y-93733489D01*
X109330264Y-93733501D01*
X109390602Y-93879172D01*
X109390609Y-93879185D01*
X109478210Y-94010288D01*
X109478213Y-94010292D01*
X109589707Y-94121786D01*
X109589711Y-94121789D01*
X109720814Y-94209390D01*
X109720827Y-94209397D01*
X109858683Y-94266498D01*
X109866503Y-94269737D01*
X109976987Y-94291713D01*
X109999691Y-94296230D01*
X110061602Y-94328615D01*
X110096176Y-94389330D01*
X110099500Y-94417847D01*
X110099500Y-94578846D01*
X110130261Y-94733489D01*
X110130264Y-94733501D01*
X110190602Y-94879172D01*
X110190609Y-94879185D01*
X110278210Y-95010288D01*
X110278213Y-95010292D01*
X110389707Y-95121786D01*
X110389711Y-95121789D01*
X110520814Y-95209390D01*
X110520827Y-95209397D01*
X110666498Y-95269735D01*
X110666503Y-95269737D01*
X110821153Y-95300499D01*
X110821156Y-95300500D01*
X110821158Y-95300500D01*
X110978844Y-95300500D01*
X110978845Y-95300499D01*
X111133497Y-95269737D01*
X111279179Y-95209394D01*
X111410289Y-95121789D01*
X111521789Y-95010289D01*
X111609394Y-94879179D01*
X111669737Y-94733497D01*
X111672192Y-94721153D01*
X127099500Y-94721153D01*
X127099500Y-94878846D01*
X127130261Y-95033489D01*
X127130264Y-95033501D01*
X127190602Y-95179172D01*
X127190609Y-95179185D01*
X127278210Y-95310288D01*
X127278213Y-95310292D01*
X127389707Y-95421786D01*
X127389711Y-95421789D01*
X127520814Y-95509390D01*
X127520827Y-95509397D01*
X127666498Y-95569735D01*
X127666503Y-95569737D01*
X127821153Y-95600499D01*
X127821156Y-95600500D01*
X127821158Y-95600500D01*
X127978844Y-95600500D01*
X127978845Y-95600499D01*
X128133497Y-95569737D01*
X128279179Y-95509394D01*
X128410289Y-95421789D01*
X128521789Y-95310289D01*
X128609394Y-95179179D01*
X128669737Y-95033497D01*
X128700500Y-94878842D01*
X128700500Y-94721158D01*
X128700500Y-94721155D01*
X128700499Y-94721153D01*
X128672192Y-94578846D01*
X128669737Y-94566503D01*
X128609534Y-94421158D01*
X128609397Y-94420827D01*
X128609390Y-94420814D01*
X128521789Y-94289711D01*
X128521786Y-94289707D01*
X128410292Y-94178213D01*
X128410288Y-94178210D01*
X128279185Y-94090609D01*
X128279172Y-94090602D01*
X128133501Y-94030264D01*
X128133489Y-94030261D01*
X127978845Y-93999500D01*
X127978842Y-93999500D01*
X127821158Y-93999500D01*
X127821155Y-93999500D01*
X127666510Y-94030261D01*
X127666498Y-94030264D01*
X127520827Y-94090602D01*
X127520814Y-94090609D01*
X127389711Y-94178210D01*
X127389707Y-94178213D01*
X127278213Y-94289707D01*
X127278210Y-94289711D01*
X127190609Y-94420814D01*
X127190602Y-94420827D01*
X127130264Y-94566498D01*
X127130261Y-94566510D01*
X127099500Y-94721153D01*
X111672192Y-94721153D01*
X111678216Y-94690874D01*
X111678216Y-94690873D01*
X111700499Y-94578846D01*
X111700500Y-94578844D01*
X111700500Y-94421155D01*
X111700499Y-94421153D01*
X111674353Y-94289711D01*
X111669737Y-94266503D01*
X111646080Y-94209390D01*
X111609397Y-94120827D01*
X111609390Y-94120814D01*
X111521789Y-93989711D01*
X111521786Y-93989707D01*
X111410292Y-93878213D01*
X111410288Y-93878210D01*
X111279185Y-93790609D01*
X111279172Y-93790602D01*
X111133501Y-93730264D01*
X111133491Y-93730261D01*
X111000308Y-93703769D01*
X110938397Y-93671384D01*
X110903823Y-93610668D01*
X110900500Y-93582152D01*
X110900500Y-93421155D01*
X110900499Y-93421153D01*
X110869738Y-93266510D01*
X110869737Y-93266503D01*
X110838600Y-93191331D01*
X110809397Y-93120827D01*
X110809390Y-93120814D01*
X110721789Y-92989711D01*
X110721786Y-92989707D01*
X110610292Y-92878213D01*
X110610288Y-92878210D01*
X110479185Y-92790609D01*
X110479172Y-92790602D01*
X110333501Y-92730264D01*
X110333489Y-92730261D01*
X110178845Y-92699500D01*
X110178842Y-92699500D01*
X110021158Y-92699500D01*
X110021153Y-92699500D01*
X109899757Y-92723647D01*
X109830165Y-92717420D01*
X109774988Y-92674556D01*
X109751744Y-92608667D01*
X109761005Y-92554577D01*
X109769737Y-92533497D01*
X109800500Y-92378842D01*
X109800500Y-92221158D01*
X109800500Y-92221155D01*
X109800499Y-92221153D01*
X109783061Y-92133489D01*
X109769737Y-92066503D01*
X109733427Y-91978842D01*
X109709397Y-91920827D01*
X109709390Y-91920814D01*
X109621789Y-91789711D01*
X109621786Y-91789707D01*
X109510292Y-91678213D01*
X109510288Y-91678210D01*
X109379185Y-91590609D01*
X109379172Y-91590602D01*
X109233501Y-91530264D01*
X109233489Y-91530261D01*
X109078845Y-91499500D01*
X109078842Y-91499500D01*
X108921158Y-91499500D01*
X108921155Y-91499500D01*
X108766510Y-91530261D01*
X108766507Y-91530262D01*
X108766506Y-91530262D01*
X108766503Y-91530263D01*
X108681421Y-91565504D01*
X108663963Y-91572736D01*
X108594493Y-91580204D01*
X108532014Y-91548928D01*
X108513767Y-91525226D01*
X108512779Y-91525887D01*
X108421789Y-91389710D01*
X108310292Y-91278213D01*
X108310288Y-91278210D01*
X108179185Y-91190609D01*
X108179172Y-91190602D01*
X108033501Y-91130264D01*
X108033489Y-91130261D01*
X107878845Y-91099500D01*
X107878842Y-91099500D01*
X107721158Y-91099500D01*
X107721155Y-91099500D01*
X107566510Y-91130261D01*
X107566498Y-91130264D01*
X107420827Y-91190602D01*
X107420814Y-91190609D01*
X107289711Y-91278210D01*
X107289707Y-91278213D01*
X107178213Y-91389707D01*
X107178210Y-91389711D01*
X107090609Y-91520814D01*
X107090602Y-91520827D01*
X107030264Y-91666498D01*
X107030261Y-91666510D01*
X106999500Y-91821153D01*
X100500500Y-91821153D01*
X100500500Y-90821153D01*
X112399500Y-90821153D01*
X112399500Y-90978846D01*
X112430261Y-91133489D01*
X112430264Y-91133501D01*
X112490602Y-91279172D01*
X112490609Y-91279185D01*
X112578210Y-91410288D01*
X112578213Y-91410292D01*
X112689707Y-91521786D01*
X112689711Y-91521789D01*
X112820814Y-91609390D01*
X112820827Y-91609397D01*
X112879723Y-91633792D01*
X112966503Y-91669737D01*
X113121153Y-91700499D01*
X113121156Y-91700500D01*
X113121158Y-91700500D01*
X113278844Y-91700500D01*
X113278845Y-91700499D01*
X113433497Y-91669737D01*
X113550790Y-91621153D01*
X126999500Y-91621153D01*
X126999500Y-91778846D01*
X127030261Y-91933489D01*
X127030264Y-91933501D01*
X127090602Y-92079172D01*
X127090609Y-92079185D01*
X127178210Y-92210288D01*
X127178213Y-92210292D01*
X127289707Y-92321786D01*
X127289711Y-92321789D01*
X127420814Y-92409390D01*
X127420827Y-92409397D01*
X127566498Y-92469735D01*
X127566503Y-92469737D01*
X127721153Y-92500499D01*
X127721156Y-92500500D01*
X127721158Y-92500500D01*
X127878844Y-92500500D01*
X127878845Y-92500499D01*
X128033497Y-92469737D01*
X128179179Y-92409394D01*
X128310289Y-92321789D01*
X128421789Y-92210289D01*
X128509394Y-92079179D01*
X128569737Y-91933497D01*
X128600500Y-91778842D01*
X128600500Y-91621158D01*
X128600500Y-91621155D01*
X128600499Y-91621153D01*
X128582420Y-91530263D01*
X128569737Y-91466503D01*
X128537929Y-91389710D01*
X128509397Y-91320827D01*
X128509390Y-91320814D01*
X128421789Y-91189711D01*
X128421786Y-91189707D01*
X128310292Y-91078213D01*
X128310288Y-91078210D01*
X128179185Y-90990609D01*
X128179172Y-90990602D01*
X128033501Y-90930264D01*
X128033489Y-90930261D01*
X127878845Y-90899500D01*
X127878842Y-90899500D01*
X127721158Y-90899500D01*
X127721155Y-90899500D01*
X127566510Y-90930261D01*
X127566498Y-90930264D01*
X127420827Y-90990602D01*
X127420814Y-90990609D01*
X127289711Y-91078210D01*
X127289707Y-91078213D01*
X127178213Y-91189707D01*
X127178210Y-91189711D01*
X127090609Y-91320814D01*
X127090602Y-91320827D01*
X127030264Y-91466498D01*
X127030261Y-91466510D01*
X126999500Y-91621153D01*
X113550790Y-91621153D01*
X113579179Y-91609394D01*
X113710289Y-91521789D01*
X113821789Y-91410289D01*
X113909394Y-91279179D01*
X113969737Y-91133497D01*
X114000500Y-90978842D01*
X114000500Y-90821158D01*
X114000500Y-90821155D01*
X114000499Y-90821153D01*
X113969738Y-90666510D01*
X113969737Y-90666503D01*
X113969735Y-90666498D01*
X113907063Y-90515192D01*
X113909657Y-90514117D01*
X113897904Y-90457466D01*
X113922950Y-90392240D01*
X113974042Y-90352942D01*
X114079179Y-90309394D01*
X114210289Y-90221789D01*
X114321789Y-90110289D01*
X114409394Y-89979179D01*
X114469737Y-89833497D01*
X114500500Y-89678842D01*
X114500500Y-89521158D01*
X114500500Y-89521155D01*
X114500499Y-89521153D01*
X114484209Y-89439257D01*
X114469737Y-89366503D01*
X114428314Y-89266498D01*
X114409397Y-89220827D01*
X114409390Y-89220814D01*
X114321789Y-89089711D01*
X114321786Y-89089707D01*
X114210292Y-88978213D01*
X114210288Y-88978210D01*
X114079185Y-88890609D01*
X114079172Y-88890602D01*
X113933501Y-88830264D01*
X113933489Y-88830261D01*
X113778845Y-88799500D01*
X113778842Y-88799500D01*
X113621158Y-88799500D01*
X113621155Y-88799500D01*
X113466510Y-88830261D01*
X113466498Y-88830264D01*
X113320827Y-88890602D01*
X113320814Y-88890609D01*
X113189711Y-88978210D01*
X113189707Y-88978213D01*
X113078213Y-89089707D01*
X113078210Y-89089711D01*
X112990609Y-89220814D01*
X112990602Y-89220827D01*
X112930264Y-89366498D01*
X112930261Y-89366510D01*
X112899500Y-89521153D01*
X112899500Y-89678846D01*
X112930261Y-89833489D01*
X112930264Y-89833501D01*
X112992937Y-89984808D01*
X112990374Y-89985869D01*
X113002080Y-90042722D01*
X112976934Y-90107910D01*
X112925955Y-90147058D01*
X112820823Y-90190604D01*
X112820814Y-90190609D01*
X112689711Y-90278210D01*
X112689707Y-90278213D01*
X112578213Y-90389707D01*
X112578210Y-90389711D01*
X112490609Y-90520814D01*
X112490602Y-90520827D01*
X112430264Y-90666498D01*
X112430261Y-90666510D01*
X112399500Y-90821153D01*
X100500500Y-90821153D01*
X100500500Y-86121153D01*
X101699500Y-86121153D01*
X101699500Y-86278846D01*
X101730261Y-86433489D01*
X101730264Y-86433501D01*
X101790602Y-86579172D01*
X101790609Y-86579185D01*
X101878210Y-86710288D01*
X101878213Y-86710292D01*
X101989707Y-86821786D01*
X101989711Y-86821789D01*
X102120814Y-86909390D01*
X102120827Y-86909397D01*
X102266498Y-86969735D01*
X102266503Y-86969737D01*
X102421153Y-87000499D01*
X102421156Y-87000500D01*
X102421158Y-87000500D01*
X102578844Y-87000500D01*
X102578845Y-87000499D01*
X102733497Y-86969737D01*
X102850790Y-86921153D01*
X131799500Y-86921153D01*
X131799500Y-87078846D01*
X131830261Y-87233489D01*
X131830264Y-87233501D01*
X131890602Y-87379172D01*
X131890609Y-87379185D01*
X131978210Y-87510288D01*
X131978213Y-87510292D01*
X132030240Y-87562319D01*
X132063725Y-87623642D01*
X132058741Y-87693334D01*
X132030240Y-87737681D01*
X131978213Y-87789707D01*
X131978210Y-87789711D01*
X131890609Y-87920814D01*
X131890602Y-87920827D01*
X131830264Y-88066498D01*
X131830261Y-88066510D01*
X131799500Y-88221153D01*
X131799500Y-88378846D01*
X131830261Y-88533489D01*
X131830264Y-88533501D01*
X131890602Y-88679172D01*
X131890609Y-88679185D01*
X131978210Y-88810288D01*
X131978213Y-88810292D01*
X132080240Y-88912319D01*
X132113725Y-88973642D01*
X132108741Y-89043334D01*
X132081999Y-89084947D01*
X132082072Y-89085007D01*
X132081559Y-89085630D01*
X132080247Y-89087674D01*
X132078215Y-89089706D01*
X132078208Y-89089714D01*
X131990609Y-89220814D01*
X131990602Y-89220827D01*
X131930264Y-89366498D01*
X131930261Y-89366510D01*
X131899500Y-89521153D01*
X131899500Y-89678846D01*
X131930261Y-89833489D01*
X131930264Y-89833501D01*
X131990602Y-89979172D01*
X131990609Y-89979185D01*
X132078210Y-90110288D01*
X132078213Y-90110292D01*
X132189707Y-90221786D01*
X132189711Y-90221789D01*
X132320814Y-90309390D01*
X132320827Y-90309397D01*
X132425951Y-90352940D01*
X132466503Y-90369737D01*
X132621153Y-90400499D01*
X132621156Y-90400500D01*
X132621158Y-90400500D01*
X132778844Y-90400500D01*
X132778845Y-90400499D01*
X132933497Y-90369737D01*
X133079179Y-90309394D01*
X133210289Y-90221789D01*
X133321789Y-90110289D01*
X133409394Y-89979179D01*
X133469737Y-89833497D01*
X133500500Y-89678842D01*
X133500500Y-89521158D01*
X133500500Y-89521155D01*
X133484209Y-89439258D01*
X133484209Y-89439257D01*
X133480608Y-89421153D01*
X142624500Y-89421153D01*
X142624500Y-89578846D01*
X142655261Y-89733489D01*
X142655264Y-89733501D01*
X142715602Y-89879172D01*
X142715609Y-89879185D01*
X142803210Y-90010288D01*
X142803213Y-90010292D01*
X142914707Y-90121786D01*
X142914711Y-90121789D01*
X143045814Y-90209390D01*
X143045827Y-90209397D01*
X143191498Y-90269735D01*
X143191503Y-90269737D01*
X143346153Y-90300499D01*
X143346156Y-90300500D01*
X143346158Y-90300500D01*
X143503844Y-90300500D01*
X143503845Y-90300499D01*
X143658497Y-90269737D01*
X143804179Y-90209394D01*
X143935289Y-90121789D01*
X144046789Y-90010289D01*
X144134394Y-89879179D01*
X144194737Y-89733497D01*
X144225500Y-89578842D01*
X144225500Y-89421158D01*
X144225500Y-89421155D01*
X144225499Y-89421153D01*
X144194738Y-89266510D01*
X144194737Y-89266503D01*
X144175812Y-89220814D01*
X144134397Y-89120827D01*
X144134390Y-89120814D01*
X144046789Y-88989711D01*
X144046786Y-88989707D01*
X143935292Y-88878213D01*
X143935288Y-88878210D01*
X143804185Y-88790609D01*
X143804172Y-88790602D01*
X143658501Y-88730264D01*
X143658489Y-88730261D01*
X143503845Y-88699500D01*
X143503842Y-88699500D01*
X143346158Y-88699500D01*
X143346155Y-88699500D01*
X143191510Y-88730261D01*
X143191498Y-88730264D01*
X143045827Y-88790602D01*
X143045814Y-88790609D01*
X142914711Y-88878210D01*
X142914707Y-88878213D01*
X142803213Y-88989707D01*
X142803210Y-88989711D01*
X142715609Y-89120814D01*
X142715602Y-89120827D01*
X142655264Y-89266498D01*
X142655261Y-89266510D01*
X142624500Y-89421153D01*
X133480608Y-89421153D01*
X133469738Y-89366510D01*
X133469737Y-89366503D01*
X133428314Y-89266498D01*
X133409397Y-89220827D01*
X133409390Y-89220814D01*
X133321789Y-89089711D01*
X133321786Y-89089707D01*
X133219759Y-88987680D01*
X133186274Y-88926357D01*
X133191258Y-88856665D01*
X133218002Y-88815054D01*
X133217928Y-88814993D01*
X133218454Y-88814351D01*
X133219764Y-88812313D01*
X133221789Y-88810289D01*
X133309394Y-88679179D01*
X133369737Y-88533497D01*
X133400500Y-88378842D01*
X133400500Y-88221158D01*
X133400500Y-88221155D01*
X133400499Y-88221153D01*
X133369738Y-88066510D01*
X133369737Y-88066503D01*
X133369735Y-88066498D01*
X133309397Y-87920827D01*
X133309390Y-87920814D01*
X133221789Y-87789711D01*
X133221786Y-87789707D01*
X133169760Y-87737681D01*
X133136275Y-87676358D01*
X133141259Y-87606666D01*
X133169760Y-87562319D01*
X133221786Y-87510292D01*
X133221789Y-87510289D01*
X133309394Y-87379179D01*
X133369737Y-87233497D01*
X133400500Y-87078842D01*
X133400500Y-86921158D01*
X133400500Y-86921155D01*
X133400499Y-86921153D01*
X133380734Y-86821788D01*
X133369737Y-86766503D01*
X133346452Y-86710288D01*
X133309397Y-86620827D01*
X133309390Y-86620814D01*
X133221789Y-86489711D01*
X133221786Y-86489707D01*
X133110292Y-86378213D01*
X133110288Y-86378210D01*
X132979185Y-86290609D01*
X132979172Y-86290602D01*
X132833501Y-86230264D01*
X132833489Y-86230261D01*
X132678845Y-86199500D01*
X132678842Y-86199500D01*
X132521158Y-86199500D01*
X132521155Y-86199500D01*
X132366510Y-86230261D01*
X132366498Y-86230264D01*
X132220827Y-86290602D01*
X132220814Y-86290609D01*
X132089711Y-86378210D01*
X132089707Y-86378213D01*
X131978213Y-86489707D01*
X131978210Y-86489711D01*
X131890609Y-86620814D01*
X131890602Y-86620827D01*
X131830264Y-86766498D01*
X131830261Y-86766510D01*
X131799500Y-86921153D01*
X102850790Y-86921153D01*
X102879179Y-86909394D01*
X103010289Y-86821789D01*
X103121789Y-86710289D01*
X103209394Y-86579179D01*
X103269737Y-86433497D01*
X103300500Y-86278842D01*
X103300500Y-86121158D01*
X103300500Y-86121155D01*
X103300499Y-86121153D01*
X103269738Y-85966510D01*
X103269737Y-85966503D01*
X103256062Y-85933489D01*
X103209397Y-85820827D01*
X103209390Y-85820814D01*
X103121790Y-85689712D01*
X103121784Y-85689705D01*
X103053232Y-85621153D01*
X117299500Y-85621153D01*
X117299500Y-85778846D01*
X117330261Y-85933489D01*
X117330264Y-85933501D01*
X117390602Y-86079172D01*
X117390609Y-86079185D01*
X117478210Y-86210288D01*
X117478213Y-86210292D01*
X117589707Y-86321786D01*
X117589711Y-86321789D01*
X117720814Y-86409390D01*
X117720827Y-86409397D01*
X117866498Y-86469735D01*
X117866503Y-86469737D01*
X118021153Y-86500499D01*
X118021156Y-86500500D01*
X118021158Y-86500500D01*
X118178844Y-86500500D01*
X118178845Y-86500499D01*
X118333497Y-86469737D01*
X118479179Y-86409394D01*
X118610289Y-86321789D01*
X118721789Y-86210289D01*
X118809394Y-86079179D01*
X118869737Y-85933497D01*
X118900500Y-85778842D01*
X118900500Y-85621158D01*
X118900500Y-85621155D01*
X118900499Y-85621153D01*
X118874531Y-85490606D01*
X118869737Y-85466503D01*
X118869735Y-85466498D01*
X118809397Y-85320827D01*
X118809395Y-85320823D01*
X118809394Y-85320821D01*
X118778956Y-85275267D01*
X118758078Y-85208590D01*
X118776562Y-85141210D01*
X118813167Y-85103274D01*
X118860289Y-85071789D01*
X118971789Y-84960289D01*
X119059394Y-84829179D01*
X119119737Y-84683497D01*
X119150500Y-84528842D01*
X119150500Y-84371158D01*
X119150500Y-84371155D01*
X119150499Y-84371153D01*
X119119738Y-84216510D01*
X119119737Y-84216503D01*
X119119735Y-84216498D01*
X119059397Y-84070827D01*
X119059390Y-84070814D01*
X118971789Y-83939711D01*
X118971786Y-83939707D01*
X118860292Y-83828213D01*
X118860288Y-83828210D01*
X118729185Y-83740609D01*
X118729172Y-83740602D01*
X118583501Y-83680264D01*
X118583489Y-83680261D01*
X118428845Y-83649500D01*
X118428842Y-83649500D01*
X118271158Y-83649500D01*
X118271155Y-83649500D01*
X118116510Y-83680261D01*
X118116498Y-83680264D01*
X117970827Y-83740602D01*
X117970814Y-83740609D01*
X117839711Y-83828210D01*
X117839707Y-83828213D01*
X117728213Y-83939707D01*
X117728210Y-83939711D01*
X117640609Y-84070814D01*
X117640602Y-84070827D01*
X117580264Y-84216498D01*
X117580261Y-84216510D01*
X117549500Y-84371153D01*
X117549500Y-84528846D01*
X117580261Y-84683489D01*
X117580264Y-84683501D01*
X117640602Y-84829172D01*
X117640609Y-84829185D01*
X117671043Y-84874732D01*
X117691921Y-84941409D01*
X117673437Y-85008790D01*
X117636832Y-85046725D01*
X117589711Y-85078210D01*
X117589707Y-85078213D01*
X117478213Y-85189707D01*
X117478210Y-85189711D01*
X117390609Y-85320814D01*
X117390602Y-85320827D01*
X117330264Y-85466498D01*
X117330261Y-85466510D01*
X117299500Y-85621153D01*
X103053232Y-85621153D01*
X103010292Y-85578213D01*
X103010288Y-85578210D01*
X102879185Y-85490609D01*
X102879172Y-85490602D01*
X102733501Y-85430264D01*
X102733489Y-85430261D01*
X102578845Y-85399500D01*
X102578842Y-85399500D01*
X102421158Y-85399500D01*
X102421155Y-85399500D01*
X102266510Y-85430261D01*
X102266498Y-85430264D01*
X102120827Y-85490602D01*
X102120814Y-85490609D01*
X101989711Y-85578210D01*
X101989707Y-85578213D01*
X101878213Y-85689707D01*
X101878210Y-85689711D01*
X101790609Y-85820814D01*
X101790602Y-85820827D01*
X101730264Y-85966498D01*
X101730261Y-85966510D01*
X101699500Y-86121153D01*
X100500500Y-86121153D01*
X100500500Y-80821153D01*
X112499500Y-80821153D01*
X112499500Y-80978846D01*
X112530261Y-81133489D01*
X112530264Y-81133501D01*
X112590602Y-81279172D01*
X112590609Y-81279185D01*
X112678210Y-81410288D01*
X112678213Y-81410292D01*
X112789707Y-81521786D01*
X112789711Y-81521789D01*
X112920817Y-81609392D01*
X112920819Y-81609393D01*
X112920821Y-81609394D01*
X112938409Y-81616679D01*
X112992812Y-81660520D01*
X113014877Y-81726814D01*
X113012573Y-81755431D01*
X112999500Y-81821153D01*
X112999500Y-81978846D01*
X113030261Y-82133489D01*
X113030264Y-82133501D01*
X113090602Y-82279172D01*
X113090609Y-82279185D01*
X113178210Y-82410288D01*
X113178213Y-82410292D01*
X113289707Y-82521786D01*
X113289711Y-82521789D01*
X113420814Y-82609390D01*
X113420827Y-82609397D01*
X113489112Y-82637681D01*
X113566503Y-82669737D01*
X113721153Y-82700499D01*
X113721156Y-82700500D01*
X113721158Y-82700500D01*
X113878844Y-82700500D01*
X113878845Y-82700499D01*
X114033497Y-82669737D01*
X114179179Y-82609394D01*
X114310289Y-82521789D01*
X114421789Y-82410289D01*
X114509394Y-82279179D01*
X114569737Y-82133497D01*
X114600500Y-81978842D01*
X114600500Y-81821158D01*
X114600500Y-81821155D01*
X114600499Y-81821153D01*
X114585152Y-81743998D01*
X114569737Y-81666503D01*
X114556804Y-81635279D01*
X114509397Y-81520827D01*
X114509390Y-81520814D01*
X114421789Y-81389711D01*
X114421786Y-81389707D01*
X114310292Y-81278213D01*
X114310288Y-81278210D01*
X114179185Y-81190609D01*
X114179179Y-81190606D01*
X114161589Y-81183320D01*
X114107186Y-81139478D01*
X114085122Y-81073184D01*
X114087425Y-81044571D01*
X114100500Y-80978842D01*
X114100500Y-80821158D01*
X114100500Y-80821155D01*
X114084209Y-80739258D01*
X114084209Y-80739257D01*
X114080608Y-80721153D01*
X118799500Y-80721153D01*
X118799500Y-80878846D01*
X118830261Y-81033489D01*
X118830264Y-81033501D01*
X118890602Y-81179172D01*
X118890609Y-81179185D01*
X118978210Y-81310288D01*
X118978213Y-81310292D01*
X119089707Y-81421786D01*
X119089711Y-81421789D01*
X119220814Y-81509390D01*
X119220827Y-81509397D01*
X119366498Y-81569735D01*
X119366503Y-81569737D01*
X119510168Y-81598314D01*
X119521153Y-81600499D01*
X119521156Y-81600500D01*
X119521158Y-81600500D01*
X119678844Y-81600500D01*
X119678845Y-81600499D01*
X119833497Y-81569737D01*
X119951592Y-81520821D01*
X119979172Y-81509397D01*
X119979172Y-81509396D01*
X119979179Y-81509394D01*
X120110289Y-81421789D01*
X120221789Y-81310289D01*
X120309394Y-81179179D01*
X120369737Y-81033497D01*
X120400500Y-80878842D01*
X120400500Y-80721158D01*
X120400500Y-80721155D01*
X120400499Y-80721153D01*
X120384707Y-80641757D01*
X120381106Y-80623653D01*
X125597000Y-80623653D01*
X125597000Y-80781346D01*
X125627761Y-80935989D01*
X125627764Y-80936001D01*
X125688102Y-81081672D01*
X125688109Y-81081685D01*
X125775710Y-81212788D01*
X125775713Y-81212792D01*
X125827740Y-81264819D01*
X125861225Y-81326142D01*
X125856241Y-81395834D01*
X125827740Y-81440181D01*
X125800713Y-81467207D01*
X125800710Y-81467211D01*
X125713109Y-81598314D01*
X125713102Y-81598327D01*
X125652764Y-81743998D01*
X125652761Y-81744010D01*
X125622000Y-81898653D01*
X125622000Y-82056346D01*
X125652761Y-82210989D01*
X125652764Y-82211001D01*
X125713102Y-82356672D01*
X125713109Y-82356685D01*
X125800710Y-82487788D01*
X125800713Y-82487792D01*
X125912207Y-82599286D01*
X125912211Y-82599289D01*
X126043314Y-82686890D01*
X126043327Y-82686897D01*
X126188998Y-82747235D01*
X126189003Y-82747237D01*
X126343653Y-82777999D01*
X126343656Y-82778000D01*
X126343658Y-82778000D01*
X126501344Y-82778000D01*
X126501345Y-82777999D01*
X126655997Y-82747237D01*
X126789608Y-82691894D01*
X126801672Y-82686897D01*
X126801672Y-82686896D01*
X126801679Y-82686894D01*
X126929868Y-82601240D01*
X126996544Y-82580363D01*
X127063924Y-82598847D01*
X127067649Y-82601241D01*
X127203314Y-82691890D01*
X127203327Y-82691897D01*
X127336927Y-82747235D01*
X127349003Y-82752237D01*
X127503653Y-82782999D01*
X127503656Y-82783000D01*
X127503658Y-82783000D01*
X127661344Y-82783000D01*
X127661345Y-82782999D01*
X127815997Y-82752237D01*
X127961679Y-82691894D01*
X128092789Y-82604289D01*
X128204289Y-82492789D01*
X128291894Y-82361679D01*
X128352237Y-82215997D01*
X128383000Y-82061342D01*
X128383000Y-81903658D01*
X128383000Y-81903655D01*
X128382999Y-81903653D01*
X128382004Y-81898653D01*
X128352237Y-81749003D01*
X128318065Y-81666503D01*
X128291897Y-81603327D01*
X128291890Y-81603314D01*
X128204289Y-81472211D01*
X128204286Y-81472207D01*
X128177259Y-81445180D01*
X128143774Y-81383857D01*
X128148758Y-81314165D01*
X128177256Y-81269821D01*
X128229289Y-81217789D01*
X128316894Y-81086679D01*
X128320004Y-81079172D01*
X128338921Y-81033501D01*
X128377237Y-80940997D01*
X128408000Y-80786342D01*
X128408000Y-80628658D01*
X128408000Y-80628655D01*
X128407999Y-80628653D01*
X128406507Y-80621153D01*
X136399500Y-80621153D01*
X136399500Y-80778846D01*
X136430261Y-80933489D01*
X136430264Y-80933501D01*
X136490602Y-81079172D01*
X136490609Y-81079185D01*
X136578210Y-81210288D01*
X136578213Y-81210292D01*
X136689707Y-81321786D01*
X136689711Y-81321789D01*
X136820814Y-81409390D01*
X136820827Y-81409397D01*
X136933554Y-81456089D01*
X136966498Y-81469735D01*
X136972131Y-81472068D01*
X136971472Y-81473657D01*
X137023054Y-81507449D01*
X137051522Y-81571256D01*
X137043196Y-81635279D01*
X137030263Y-81666502D01*
X137030261Y-81666510D01*
X136999500Y-81821153D01*
X136999500Y-81978846D01*
X137030261Y-82133489D01*
X137030264Y-82133501D01*
X137090602Y-82279172D01*
X137090609Y-82279185D01*
X137178210Y-82410288D01*
X137178213Y-82410292D01*
X137230240Y-82462319D01*
X137263725Y-82523642D01*
X137258741Y-82593334D01*
X137230240Y-82637681D01*
X137178213Y-82689707D01*
X137178210Y-82689711D01*
X137090609Y-82820814D01*
X137090602Y-82820827D01*
X137030264Y-82966498D01*
X137030261Y-82966510D01*
X136999500Y-83121153D01*
X136999500Y-83278846D01*
X137030261Y-83433489D01*
X137030264Y-83433501D01*
X137090602Y-83579172D01*
X137090609Y-83579185D01*
X137178210Y-83710288D01*
X137178213Y-83710292D01*
X137289707Y-83821786D01*
X137289711Y-83821789D01*
X137420814Y-83909390D01*
X137420827Y-83909397D01*
X137494013Y-83939711D01*
X137566503Y-83969737D01*
X137721153Y-84000499D01*
X137721156Y-84000500D01*
X137721158Y-84000500D01*
X137878844Y-84000500D01*
X137878845Y-84000499D01*
X138033497Y-83969737D01*
X138179179Y-83909394D01*
X138310289Y-83821789D01*
X138421789Y-83710289D01*
X138509394Y-83579179D01*
X138569737Y-83433497D01*
X138600500Y-83278842D01*
X138600500Y-83121158D01*
X138600500Y-83121155D01*
X138600499Y-83121153D01*
X138569738Y-82966510D01*
X138569737Y-82966503D01*
X138569735Y-82966498D01*
X138509397Y-82820827D01*
X138509390Y-82820814D01*
X138421789Y-82689711D01*
X138421786Y-82689707D01*
X138369760Y-82637681D01*
X138336275Y-82576358D01*
X138341259Y-82506666D01*
X138369760Y-82462319D01*
X138421786Y-82410292D01*
X138421789Y-82410289D01*
X138509394Y-82279179D01*
X138569737Y-82133497D01*
X138600500Y-81978842D01*
X138600500Y-81821158D01*
X138600500Y-81821155D01*
X138600499Y-81821153D01*
X138585152Y-81743998D01*
X138569737Y-81666503D01*
X138556804Y-81635279D01*
X138509397Y-81520827D01*
X138509390Y-81520814D01*
X138421789Y-81389711D01*
X138421786Y-81389707D01*
X138310292Y-81278213D01*
X138310288Y-81278210D01*
X138179185Y-81190609D01*
X138179172Y-81190602D01*
X138027870Y-81127932D01*
X138028525Y-81126349D01*
X137976919Y-81092519D01*
X137948472Y-81028702D01*
X137956804Y-80964719D01*
X137969737Y-80933497D01*
X138000500Y-80778842D01*
X138000500Y-80621158D01*
X138000500Y-80621155D01*
X138000499Y-80621153D01*
X142599500Y-80621153D01*
X142599500Y-80778846D01*
X142630261Y-80933489D01*
X142630264Y-80933501D01*
X142690602Y-81079172D01*
X142690609Y-81079185D01*
X142778210Y-81210288D01*
X142778213Y-81210292D01*
X142889707Y-81321786D01*
X142889711Y-81321789D01*
X143020814Y-81409390D01*
X143020827Y-81409397D01*
X143166498Y-81469735D01*
X143166503Y-81469737D01*
X143306172Y-81497519D01*
X143321153Y-81500499D01*
X143321156Y-81500500D01*
X143321158Y-81500500D01*
X143478844Y-81500500D01*
X143478845Y-81500499D01*
X143633497Y-81469737D01*
X143779179Y-81409394D01*
X143910289Y-81321789D01*
X144021789Y-81210289D01*
X144109394Y-81079179D01*
X144169737Y-80933497D01*
X144200500Y-80778842D01*
X144200500Y-80621158D01*
X144200500Y-80621155D01*
X144200499Y-80621153D01*
X144180543Y-80520827D01*
X144169737Y-80466503D01*
X144137929Y-80389711D01*
X144109397Y-80320827D01*
X144109390Y-80320814D01*
X144021789Y-80189711D01*
X144021786Y-80189707D01*
X143910292Y-80078213D01*
X143910288Y-80078210D01*
X143779185Y-79990609D01*
X143779172Y-79990602D01*
X143633501Y-79930264D01*
X143633489Y-79930261D01*
X143478845Y-79899500D01*
X143478842Y-79899500D01*
X143321158Y-79899500D01*
X143321155Y-79899500D01*
X143166510Y-79930261D01*
X143166498Y-79930264D01*
X143020827Y-79990602D01*
X143020814Y-79990609D01*
X142889711Y-80078210D01*
X142889707Y-80078213D01*
X142778213Y-80189707D01*
X142778210Y-80189711D01*
X142690609Y-80320814D01*
X142690602Y-80320827D01*
X142630264Y-80466498D01*
X142630261Y-80466510D01*
X142599500Y-80621153D01*
X138000499Y-80621153D01*
X137980543Y-80520827D01*
X137969737Y-80466503D01*
X137937929Y-80389711D01*
X137909397Y-80320827D01*
X137909390Y-80320814D01*
X137821789Y-80189711D01*
X137821786Y-80189707D01*
X137710292Y-80078213D01*
X137710288Y-80078210D01*
X137579185Y-79990609D01*
X137579172Y-79990602D01*
X137433501Y-79930264D01*
X137433489Y-79930261D01*
X137278845Y-79899500D01*
X137278842Y-79899500D01*
X137121158Y-79899500D01*
X137121155Y-79899500D01*
X136966510Y-79930261D01*
X136966498Y-79930264D01*
X136820827Y-79990602D01*
X136820814Y-79990609D01*
X136689711Y-80078210D01*
X136689707Y-80078213D01*
X136578213Y-80189707D01*
X136578210Y-80189711D01*
X136490609Y-80320814D01*
X136490602Y-80320827D01*
X136430264Y-80466498D01*
X136430261Y-80466510D01*
X136399500Y-80621153D01*
X128406507Y-80621153D01*
X128395638Y-80566510D01*
X128377237Y-80474003D01*
X128374133Y-80466510D01*
X128316897Y-80328327D01*
X128316890Y-80328314D01*
X128229289Y-80197211D01*
X128229286Y-80197207D01*
X128117792Y-80085713D01*
X128117788Y-80085710D01*
X127986685Y-79998109D01*
X127986672Y-79998102D01*
X127841001Y-79937764D01*
X127840989Y-79937761D01*
X127686345Y-79907000D01*
X127686342Y-79907000D01*
X127528658Y-79907000D01*
X127528655Y-79907000D01*
X127374010Y-79937761D01*
X127373998Y-79937764D01*
X127228327Y-79998102D01*
X127228314Y-79998109D01*
X127097211Y-80085710D01*
X127097204Y-80085716D01*
X127092675Y-80090245D01*
X127031350Y-80123727D01*
X126961659Y-80118738D01*
X126917315Y-80090237D01*
X126907791Y-80080712D01*
X126907788Y-80080710D01*
X126776685Y-79993109D01*
X126776672Y-79993102D01*
X126631001Y-79932764D01*
X126630989Y-79932761D01*
X126476345Y-79902000D01*
X126476342Y-79902000D01*
X126318658Y-79902000D01*
X126318655Y-79902000D01*
X126164010Y-79932761D01*
X126163998Y-79932764D01*
X126018327Y-79993102D01*
X126018314Y-79993109D01*
X125887211Y-80080710D01*
X125887207Y-80080713D01*
X125775713Y-80192207D01*
X125775710Y-80192211D01*
X125688109Y-80323314D01*
X125688102Y-80323327D01*
X125627764Y-80468998D01*
X125627761Y-80469010D01*
X125597000Y-80623653D01*
X120381106Y-80623653D01*
X120369738Y-80566508D01*
X120369737Y-80566507D01*
X120369737Y-80566503D01*
X120350812Y-80520814D01*
X120309397Y-80420827D01*
X120309390Y-80420814D01*
X120221789Y-80289711D01*
X120221786Y-80289707D01*
X120110292Y-80178213D01*
X120110288Y-80178210D01*
X119979185Y-80090609D01*
X119979172Y-80090602D01*
X119833501Y-80030264D01*
X119833489Y-80030261D01*
X119678845Y-79999500D01*
X119678842Y-79999500D01*
X119521158Y-79999500D01*
X119521155Y-79999500D01*
X119366510Y-80030261D01*
X119366498Y-80030264D01*
X119220827Y-80090602D01*
X119220814Y-80090609D01*
X119089711Y-80178210D01*
X119089707Y-80178213D01*
X118978213Y-80289707D01*
X118978210Y-80289711D01*
X118890609Y-80420814D01*
X118890602Y-80420827D01*
X118830264Y-80566498D01*
X118830261Y-80566510D01*
X118799500Y-80721153D01*
X114080608Y-80721153D01*
X114069738Y-80666510D01*
X114069737Y-80666503D01*
X114050955Y-80621158D01*
X114009397Y-80520827D01*
X114009390Y-80520814D01*
X113921789Y-80389711D01*
X113921786Y-80389707D01*
X113810292Y-80278213D01*
X113810288Y-80278210D01*
X113679185Y-80190609D01*
X113679172Y-80190602D01*
X113533501Y-80130264D01*
X113533489Y-80130261D01*
X113378845Y-80099500D01*
X113378842Y-80099500D01*
X113221158Y-80099500D01*
X113221155Y-80099500D01*
X113066510Y-80130261D01*
X113066498Y-80130264D01*
X112920827Y-80190602D01*
X112920814Y-80190609D01*
X112789711Y-80278210D01*
X112789707Y-80278213D01*
X112678213Y-80389707D01*
X112678210Y-80389711D01*
X112590609Y-80520814D01*
X112590602Y-80520827D01*
X112530264Y-80666498D01*
X112530261Y-80666510D01*
X112499500Y-80821153D01*
X100500500Y-80821153D01*
X100500500Y-76721153D01*
X112599500Y-76721153D01*
X112599500Y-76878846D01*
X112630261Y-77033489D01*
X112630264Y-77033501D01*
X112690602Y-77179172D01*
X112690609Y-77179185D01*
X112778210Y-77310288D01*
X112778213Y-77310292D01*
X112880240Y-77412319D01*
X112913725Y-77473642D01*
X112908741Y-77543334D01*
X112881999Y-77584947D01*
X112882072Y-77585007D01*
X112881559Y-77585630D01*
X112880247Y-77587674D01*
X112878215Y-77589706D01*
X112878208Y-77589714D01*
X112790609Y-77720814D01*
X112790602Y-77720827D01*
X112730264Y-77866498D01*
X112730261Y-77866510D01*
X112699500Y-78021153D01*
X112699500Y-78178846D01*
X112730261Y-78333489D01*
X112730264Y-78333501D01*
X112790602Y-78479172D01*
X112790609Y-78479185D01*
X112878210Y-78610288D01*
X112878213Y-78610292D01*
X112989707Y-78721786D01*
X112989711Y-78721789D01*
X113120814Y-78809390D01*
X113120827Y-78809397D01*
X113266498Y-78869735D01*
X113266503Y-78869737D01*
X113421153Y-78900499D01*
X113421156Y-78900500D01*
X113421158Y-78900500D01*
X113578844Y-78900500D01*
X113578845Y-78900499D01*
X113733497Y-78869737D01*
X113879179Y-78809394D01*
X114010289Y-78721789D01*
X114121789Y-78610289D01*
X114209394Y-78479179D01*
X114269737Y-78333497D01*
X114300500Y-78178842D01*
X114300500Y-78021158D01*
X114300500Y-78021155D01*
X114284209Y-77939258D01*
X114284209Y-77939257D01*
X114280608Y-77921153D01*
X131799500Y-77921153D01*
X131799500Y-78078846D01*
X131830261Y-78233489D01*
X131830264Y-78233501D01*
X131890602Y-78379172D01*
X131890609Y-78379185D01*
X131978210Y-78510288D01*
X131978213Y-78510292D01*
X132089707Y-78621786D01*
X132089711Y-78621789D01*
X132220814Y-78709390D01*
X132220827Y-78709397D01*
X132366498Y-78769735D01*
X132366503Y-78769737D01*
X132521153Y-78800499D01*
X132521156Y-78800500D01*
X132521158Y-78800500D01*
X132678844Y-78800500D01*
X132678845Y-78800499D01*
X132833497Y-78769737D01*
X132979179Y-78709394D01*
X133110289Y-78621789D01*
X133221789Y-78510289D01*
X133309394Y-78379179D01*
X133369737Y-78233497D01*
X133400500Y-78078842D01*
X133400500Y-77921158D01*
X133400500Y-77921155D01*
X133400499Y-77921153D01*
X133369738Y-77766510D01*
X133369737Y-77766503D01*
X133350812Y-77720814D01*
X133309397Y-77620827D01*
X133309390Y-77620814D01*
X133221789Y-77489711D01*
X133221786Y-77489707D01*
X133110292Y-77378213D01*
X133110288Y-77378210D01*
X132979185Y-77290609D01*
X132979172Y-77290602D01*
X132833501Y-77230264D01*
X132833489Y-77230261D01*
X132678845Y-77199500D01*
X132678842Y-77199500D01*
X132521158Y-77199500D01*
X132521155Y-77199500D01*
X132366510Y-77230261D01*
X132366498Y-77230264D01*
X132220827Y-77290602D01*
X132220814Y-77290609D01*
X132089711Y-77378210D01*
X132089707Y-77378213D01*
X131978213Y-77489707D01*
X131978210Y-77489711D01*
X131890609Y-77620814D01*
X131890602Y-77620827D01*
X131830264Y-77766498D01*
X131830261Y-77766510D01*
X131799500Y-77921153D01*
X114280608Y-77921153D01*
X114269738Y-77866510D01*
X114269737Y-77866503D01*
X114228314Y-77766498D01*
X114209397Y-77720827D01*
X114209390Y-77720814D01*
X114121789Y-77589711D01*
X114121786Y-77589707D01*
X114019759Y-77487680D01*
X113986274Y-77426357D01*
X113991258Y-77356665D01*
X114018002Y-77315054D01*
X114017928Y-77314993D01*
X114018454Y-77314351D01*
X114019764Y-77312313D01*
X114021789Y-77310289D01*
X114109394Y-77179179D01*
X114169737Y-77033497D01*
X114200500Y-76878842D01*
X114200500Y-76721158D01*
X114200500Y-76721155D01*
X114200499Y-76721153D01*
X114169738Y-76566510D01*
X114169737Y-76566503D01*
X114169735Y-76566498D01*
X114109397Y-76420827D01*
X114109390Y-76420814D01*
X114021789Y-76289711D01*
X114021786Y-76289707D01*
X113910292Y-76178213D01*
X113910288Y-76178210D01*
X113779185Y-76090609D01*
X113779172Y-76090602D01*
X113633501Y-76030264D01*
X113633489Y-76030261D01*
X113478845Y-75999500D01*
X113478842Y-75999500D01*
X113321158Y-75999500D01*
X113321155Y-75999500D01*
X113166510Y-76030261D01*
X113166498Y-76030264D01*
X113020827Y-76090602D01*
X113020814Y-76090609D01*
X112889711Y-76178210D01*
X112889707Y-76178213D01*
X112778213Y-76289707D01*
X112778210Y-76289711D01*
X112690609Y-76420814D01*
X112690602Y-76420827D01*
X112630264Y-76566498D01*
X112630261Y-76566510D01*
X112599500Y-76721153D01*
X100500500Y-76721153D01*
X100500500Y-75521153D01*
X117399500Y-75521153D01*
X117399500Y-75678846D01*
X117430261Y-75833489D01*
X117430264Y-75833501D01*
X117490602Y-75979172D01*
X117490609Y-75979185D01*
X117578210Y-76110288D01*
X117578213Y-76110292D01*
X117689707Y-76221786D01*
X117689711Y-76221789D01*
X117820814Y-76309390D01*
X117820827Y-76309397D01*
X117966498Y-76369735D01*
X117966503Y-76369737D01*
X118121153Y-76400499D01*
X118121156Y-76400500D01*
X118121158Y-76400500D01*
X118278844Y-76400500D01*
X118278845Y-76400499D01*
X118433497Y-76369737D01*
X118579179Y-76309394D01*
X118710289Y-76221789D01*
X118821789Y-76110289D01*
X118909394Y-75979179D01*
X118969737Y-75833497D01*
X119000500Y-75678842D01*
X119000500Y-75521158D01*
X119000500Y-75521155D01*
X119000499Y-75521153D01*
X131799500Y-75521153D01*
X131799500Y-75678846D01*
X131830261Y-75833489D01*
X131830264Y-75833501D01*
X131890602Y-75979172D01*
X131890609Y-75979185D01*
X131978210Y-76110288D01*
X131978213Y-76110292D01*
X132089707Y-76221786D01*
X132089711Y-76221789D01*
X132220814Y-76309390D01*
X132220827Y-76309397D01*
X132366498Y-76369735D01*
X132366503Y-76369737D01*
X132521153Y-76400499D01*
X132521156Y-76400500D01*
X132521158Y-76400500D01*
X132678844Y-76400500D01*
X132678845Y-76400499D01*
X132833497Y-76369737D01*
X132979179Y-76309394D01*
X133110289Y-76221789D01*
X133221789Y-76110289D01*
X133309394Y-75979179D01*
X133369737Y-75833497D01*
X133400500Y-75678842D01*
X133400500Y-75521158D01*
X133400500Y-75521155D01*
X133400499Y-75521153D01*
X133369738Y-75366510D01*
X133369737Y-75366503D01*
X133342398Y-75300500D01*
X133309397Y-75220827D01*
X133309390Y-75220814D01*
X133221789Y-75089711D01*
X133221786Y-75089707D01*
X133110292Y-74978213D01*
X133110288Y-74978210D01*
X132979185Y-74890609D01*
X132979172Y-74890602D01*
X132833501Y-74830264D01*
X132833489Y-74830261D01*
X132678845Y-74799500D01*
X132678842Y-74799500D01*
X132521158Y-74799500D01*
X132521155Y-74799500D01*
X132366510Y-74830261D01*
X132366498Y-74830264D01*
X132220827Y-74890602D01*
X132220814Y-74890609D01*
X132089711Y-74978210D01*
X132089707Y-74978213D01*
X131978213Y-75089707D01*
X131978210Y-75089711D01*
X131890609Y-75220814D01*
X131890602Y-75220827D01*
X131830264Y-75366498D01*
X131830261Y-75366510D01*
X131799500Y-75521153D01*
X119000499Y-75521153D01*
X118969738Y-75366510D01*
X118969737Y-75366503D01*
X118942398Y-75300500D01*
X118909397Y-75220827D01*
X118909390Y-75220814D01*
X118821789Y-75089711D01*
X118821786Y-75089707D01*
X118710292Y-74978213D01*
X118710288Y-74978210D01*
X118579185Y-74890609D01*
X118579172Y-74890602D01*
X118433501Y-74830264D01*
X118433489Y-74830261D01*
X118278845Y-74799500D01*
X118278842Y-74799500D01*
X118121158Y-74799500D01*
X118121155Y-74799500D01*
X117966510Y-74830261D01*
X117966498Y-74830264D01*
X117820827Y-74890602D01*
X117820814Y-74890609D01*
X117689711Y-74978210D01*
X117689707Y-74978213D01*
X117578213Y-75089707D01*
X117578210Y-75089711D01*
X117490609Y-75220814D01*
X117490602Y-75220827D01*
X117430264Y-75366498D01*
X117430261Y-75366510D01*
X117399500Y-75521153D01*
X100500500Y-75521153D01*
X100500500Y-74421153D01*
X109299500Y-74421153D01*
X109299500Y-74578846D01*
X109330261Y-74733489D01*
X109330264Y-74733501D01*
X109390602Y-74879172D01*
X109390609Y-74879185D01*
X109478210Y-75010288D01*
X109478213Y-75010292D01*
X109589707Y-75121786D01*
X109589711Y-75121789D01*
X109720814Y-75209390D01*
X109720827Y-75209397D01*
X109866498Y-75269735D01*
X109866503Y-75269737D01*
X110021153Y-75300499D01*
X110021156Y-75300500D01*
X110021158Y-75300500D01*
X110178844Y-75300500D01*
X110178845Y-75300499D01*
X110333497Y-75269737D01*
X110451592Y-75220821D01*
X110479172Y-75209397D01*
X110479172Y-75209396D01*
X110479179Y-75209394D01*
X110610289Y-75121789D01*
X110721789Y-75010289D01*
X110809394Y-74879179D01*
X110869737Y-74733497D01*
X110900500Y-74578842D01*
X110900500Y-74421158D01*
X110900500Y-74421155D01*
X110900499Y-74421153D01*
X110869738Y-74266510D01*
X110869737Y-74266503D01*
X110869735Y-74266498D01*
X110809397Y-74120827D01*
X110809390Y-74120814D01*
X110721789Y-73989711D01*
X110721786Y-73989707D01*
X110610292Y-73878213D01*
X110610288Y-73878210D01*
X110479185Y-73790609D01*
X110479172Y-73790602D01*
X110333501Y-73730264D01*
X110333489Y-73730261D01*
X110178845Y-73699500D01*
X110178842Y-73699500D01*
X110021158Y-73699500D01*
X110021155Y-73699500D01*
X109866510Y-73730261D01*
X109866498Y-73730264D01*
X109720827Y-73790602D01*
X109720814Y-73790609D01*
X109589711Y-73878210D01*
X109589707Y-73878213D01*
X109478213Y-73989707D01*
X109478210Y-73989711D01*
X109390609Y-74120814D01*
X109390602Y-74120827D01*
X109330264Y-74266498D01*
X109330261Y-74266510D01*
X109299500Y-74421153D01*
X100500500Y-74421153D01*
X100500500Y-71071153D01*
X102699500Y-71071153D01*
X102699500Y-71228846D01*
X102730261Y-71383489D01*
X102730264Y-71383501D01*
X102790602Y-71529172D01*
X102790609Y-71529185D01*
X102878210Y-71660288D01*
X102878213Y-71660292D01*
X102989707Y-71771786D01*
X102989711Y-71771789D01*
X103120814Y-71859390D01*
X103120827Y-71859397D01*
X103266498Y-71919735D01*
X103266503Y-71919737D01*
X103421153Y-71950499D01*
X103421156Y-71950500D01*
X103421158Y-71950500D01*
X103578844Y-71950500D01*
X103578845Y-71950499D01*
X103733497Y-71919737D01*
X103879179Y-71859394D01*
X104010289Y-71771789D01*
X104121789Y-71660289D01*
X104209394Y-71529179D01*
X104269737Y-71383497D01*
X104300500Y-71228842D01*
X104300500Y-71071158D01*
X104300500Y-71071155D01*
X104300499Y-71071153D01*
X104274264Y-70939257D01*
X104270662Y-70921153D01*
X106699500Y-70921153D01*
X106699500Y-71078846D01*
X106730261Y-71233489D01*
X106730264Y-71233501D01*
X106790602Y-71379172D01*
X106790609Y-71379185D01*
X106878210Y-71510288D01*
X106878213Y-71510292D01*
X106989707Y-71621786D01*
X106989711Y-71621789D01*
X107120814Y-71709390D01*
X107120827Y-71709397D01*
X107212576Y-71747400D01*
X107266503Y-71769737D01*
X107421153Y-71800499D01*
X107421156Y-71800500D01*
X107421158Y-71800500D01*
X107578844Y-71800500D01*
X107578845Y-71800499D01*
X107733497Y-71769737D01*
X107879179Y-71709394D01*
X107896501Y-71697819D01*
X107963176Y-71676940D01*
X108030557Y-71695422D01*
X108077249Y-71747400D01*
X108079954Y-71753466D01*
X108090601Y-71779170D01*
X108090609Y-71779185D01*
X108178210Y-71910288D01*
X108178213Y-71910292D01*
X108289707Y-72021786D01*
X108289711Y-72021789D01*
X108420814Y-72109390D01*
X108420827Y-72109397D01*
X108566498Y-72169735D01*
X108566503Y-72169737D01*
X108721153Y-72200499D01*
X108721156Y-72200500D01*
X108721158Y-72200500D01*
X108878844Y-72200500D01*
X108878845Y-72200499D01*
X109033497Y-72169737D01*
X109179179Y-72109394D01*
X109310289Y-72021789D01*
X109421789Y-71910289D01*
X109509394Y-71779179D01*
X109569737Y-71633497D01*
X109600500Y-71478842D01*
X109600500Y-71321158D01*
X109600500Y-71321155D01*
X109600499Y-71321153D01*
X115449500Y-71321153D01*
X115449500Y-71478846D01*
X115480261Y-71633489D01*
X115480264Y-71633501D01*
X115540602Y-71779172D01*
X115540609Y-71779185D01*
X115628210Y-71910288D01*
X115628213Y-71910292D01*
X115739707Y-72021786D01*
X115739711Y-72021789D01*
X115870814Y-72109390D01*
X115870827Y-72109397D01*
X116016498Y-72169735D01*
X116016503Y-72169737D01*
X116171153Y-72200499D01*
X116171156Y-72200500D01*
X116171158Y-72200500D01*
X116328844Y-72200500D01*
X116328845Y-72200499D01*
X116483497Y-72169737D01*
X116629179Y-72109394D01*
X116760289Y-72021789D01*
X116871789Y-71910289D01*
X116959394Y-71779179D01*
X117019737Y-71633497D01*
X117050500Y-71478842D01*
X117050500Y-71321158D01*
X117050500Y-71321155D01*
X117050499Y-71321153D01*
X117028269Y-71209397D01*
X117019737Y-71166503D01*
X116980242Y-71071153D01*
X116959397Y-71020827D01*
X116959390Y-71020814D01*
X116871789Y-70889711D01*
X116871786Y-70889707D01*
X116760292Y-70778213D01*
X116760288Y-70778210D01*
X116629185Y-70690609D01*
X116629172Y-70690602D01*
X116483501Y-70630264D01*
X116483489Y-70630261D01*
X116328845Y-70599500D01*
X116328842Y-70599500D01*
X116171158Y-70599500D01*
X116171155Y-70599500D01*
X116016510Y-70630261D01*
X116016498Y-70630264D01*
X115870827Y-70690602D01*
X115870814Y-70690609D01*
X115739711Y-70778210D01*
X115739707Y-70778213D01*
X115628213Y-70889707D01*
X115628210Y-70889711D01*
X115540609Y-71020814D01*
X115540602Y-71020827D01*
X115480264Y-71166498D01*
X115480261Y-71166510D01*
X115449500Y-71321153D01*
X109600499Y-71321153D01*
X109578269Y-71209397D01*
X109569737Y-71166503D01*
X109530242Y-71071153D01*
X109509397Y-71020827D01*
X109509390Y-71020814D01*
X109421789Y-70889711D01*
X109421786Y-70889707D01*
X109310292Y-70778213D01*
X109310288Y-70778210D01*
X109179185Y-70690609D01*
X109179172Y-70690602D01*
X109033501Y-70630264D01*
X109033489Y-70630261D01*
X108878845Y-70599500D01*
X108878842Y-70599500D01*
X108721158Y-70599500D01*
X108721155Y-70599500D01*
X108566510Y-70630261D01*
X108566498Y-70630264D01*
X108420827Y-70690602D01*
X108420811Y-70690611D01*
X108403494Y-70702182D01*
X108336816Y-70723059D01*
X108269436Y-70704573D01*
X108229108Y-70664243D01*
X108223861Y-70655750D01*
X108209394Y-70620821D01*
X108121789Y-70489711D01*
X108120512Y-70488434D01*
X108120511Y-70488432D01*
X108053232Y-70421153D01*
X117399500Y-70421153D01*
X117399500Y-70578846D01*
X117430261Y-70733489D01*
X117430264Y-70733501D01*
X117490602Y-70879172D01*
X117490609Y-70879185D01*
X117578210Y-71010288D01*
X117578213Y-71010292D01*
X117689707Y-71121786D01*
X117689711Y-71121789D01*
X117820814Y-71209390D01*
X117820827Y-71209397D01*
X117966498Y-71269735D01*
X117966503Y-71269737D01*
X118121153Y-71300499D01*
X118121156Y-71300500D01*
X118121158Y-71300500D01*
X118278844Y-71300500D01*
X118278845Y-71300499D01*
X118433497Y-71269737D01*
X118579179Y-71209394D01*
X118710289Y-71121789D01*
X118821789Y-71010289D01*
X118909394Y-70879179D01*
X118969737Y-70733497D01*
X119000500Y-70578842D01*
X119000500Y-70421158D01*
X119000500Y-70421155D01*
X119000499Y-70421153D01*
X118974531Y-70290606D01*
X118969737Y-70266503D01*
X118969735Y-70266498D01*
X118909397Y-70120827D01*
X118909390Y-70120814D01*
X118821789Y-69989711D01*
X118821786Y-69989707D01*
X118710292Y-69878213D01*
X118710288Y-69878210D01*
X118579185Y-69790609D01*
X118579172Y-69790602D01*
X118433501Y-69730264D01*
X118433489Y-69730261D01*
X118278845Y-69699500D01*
X118278842Y-69699500D01*
X118121158Y-69699500D01*
X118121155Y-69699500D01*
X117966510Y-69730261D01*
X117966498Y-69730264D01*
X117820827Y-69790602D01*
X117820814Y-69790609D01*
X117689711Y-69878210D01*
X117689707Y-69878213D01*
X117578213Y-69989707D01*
X117578210Y-69989711D01*
X117490609Y-70120814D01*
X117490602Y-70120827D01*
X117430264Y-70266498D01*
X117430261Y-70266510D01*
X117399500Y-70421153D01*
X108053232Y-70421153D01*
X108010292Y-70378213D01*
X108010288Y-70378210D01*
X107879185Y-70290609D01*
X107879172Y-70290602D01*
X107733501Y-70230264D01*
X107733489Y-70230261D01*
X107578845Y-70199500D01*
X107578842Y-70199500D01*
X107421158Y-70199500D01*
X107421155Y-70199500D01*
X107266510Y-70230261D01*
X107266498Y-70230264D01*
X107120827Y-70290602D01*
X107120814Y-70290609D01*
X106989711Y-70378210D01*
X106989707Y-70378213D01*
X106878213Y-70489707D01*
X106878210Y-70489711D01*
X106790609Y-70620814D01*
X106790602Y-70620827D01*
X106730264Y-70766498D01*
X106730261Y-70766510D01*
X106699500Y-70921153D01*
X104270662Y-70921153D01*
X104269738Y-70916507D01*
X104269735Y-70916498D01*
X104209397Y-70770827D01*
X104209390Y-70770814D01*
X104121789Y-70639711D01*
X104121786Y-70639707D01*
X104010292Y-70528213D01*
X104010288Y-70528210D01*
X103879185Y-70440609D01*
X103879172Y-70440602D01*
X103733501Y-70380264D01*
X103733489Y-70380261D01*
X103578845Y-70349500D01*
X103578842Y-70349500D01*
X103421158Y-70349500D01*
X103421155Y-70349500D01*
X103266510Y-70380261D01*
X103266498Y-70380264D01*
X103120827Y-70440602D01*
X103120814Y-70440609D01*
X102989711Y-70528210D01*
X102989707Y-70528213D01*
X102878213Y-70639707D01*
X102878210Y-70639711D01*
X102790609Y-70770814D01*
X102790602Y-70770827D01*
X102730264Y-70916498D01*
X102730261Y-70916510D01*
X102699500Y-71071153D01*
X100500500Y-71071153D01*
X100500500Y-69907702D01*
X100520185Y-69840663D01*
X100572989Y-69794908D01*
X100642147Y-69784964D01*
X100648667Y-69786080D01*
X100705435Y-69797372D01*
X100721157Y-69800500D01*
X100721158Y-69800500D01*
X100878844Y-69800500D01*
X100878845Y-69800499D01*
X101033497Y-69769737D01*
X101179179Y-69709394D01*
X101310289Y-69621789D01*
X101421789Y-69510289D01*
X101509394Y-69379179D01*
X101569737Y-69233497D01*
X101600500Y-69078842D01*
X101600500Y-68921158D01*
X101600500Y-68921155D01*
X101600499Y-68921153D01*
X101576499Y-68800499D01*
X101569737Y-68766503D01*
X101546080Y-68709390D01*
X101509397Y-68620827D01*
X101509390Y-68620814D01*
X101421789Y-68489711D01*
X101421786Y-68489707D01*
X101310292Y-68378213D01*
X101310288Y-68378210D01*
X101224897Y-68321153D01*
X107699500Y-68321153D01*
X107699500Y-68478846D01*
X107730261Y-68633489D01*
X107730264Y-68633501D01*
X107790602Y-68779172D01*
X107790609Y-68779185D01*
X107878210Y-68910288D01*
X107878213Y-68910292D01*
X107989707Y-69021786D01*
X107989711Y-69021789D01*
X108120814Y-69109390D01*
X108120827Y-69109397D01*
X108266498Y-69169735D01*
X108266503Y-69169737D01*
X108421153Y-69200499D01*
X108421156Y-69200500D01*
X108421158Y-69200500D01*
X108578844Y-69200500D01*
X108578845Y-69200499D01*
X108733497Y-69169737D01*
X108879179Y-69109394D01*
X109010289Y-69021789D01*
X109121789Y-68910289D01*
X109209394Y-68779179D01*
X109269737Y-68633497D01*
X109272193Y-68621152D01*
X134299501Y-68621152D01*
X134299501Y-68778845D01*
X134330262Y-68933488D01*
X134330265Y-68933500D01*
X134390603Y-69079171D01*
X134390610Y-69079184D01*
X134478211Y-69210287D01*
X134478214Y-69210291D01*
X134589708Y-69321785D01*
X134589712Y-69321788D01*
X134720815Y-69409389D01*
X134720828Y-69409396D01*
X134866499Y-69469734D01*
X134866504Y-69469736D01*
X135021154Y-69500498D01*
X135021157Y-69500499D01*
X135021159Y-69500499D01*
X135178845Y-69500499D01*
X135178846Y-69500498D01*
X135333498Y-69469736D01*
X135479180Y-69409393D01*
X135610290Y-69321788D01*
X135721790Y-69210288D01*
X135809395Y-69079178D01*
X135869738Y-68933496D01*
X135900501Y-68778841D01*
X135900501Y-68621157D01*
X135900501Y-68621154D01*
X135900500Y-68621152D01*
X135878448Y-68510289D01*
X135869738Y-68466502D01*
X135846085Y-68409397D01*
X135809398Y-68320826D01*
X135809391Y-68320813D01*
X135721790Y-68189710D01*
X135721787Y-68189706D01*
X135610293Y-68078212D01*
X135610289Y-68078209D01*
X135520432Y-68018168D01*
X135479186Y-67990608D01*
X135479173Y-67990601D01*
X135333502Y-67930263D01*
X135333490Y-67930260D01*
X135287707Y-67921153D01*
X142799500Y-67921153D01*
X142799500Y-68078846D01*
X142830261Y-68233489D01*
X142830264Y-68233501D01*
X142890602Y-68379172D01*
X142890609Y-68379185D01*
X142978210Y-68510288D01*
X142978213Y-68510292D01*
X143089707Y-68621786D01*
X143089711Y-68621789D01*
X143220814Y-68709390D01*
X143220827Y-68709397D01*
X143358683Y-68766498D01*
X143366503Y-68769737D01*
X143521153Y-68800499D01*
X143521156Y-68800500D01*
X143521158Y-68800500D01*
X143678844Y-68800500D01*
X143678845Y-68800499D01*
X143833497Y-68769737D01*
X143979179Y-68709394D01*
X144110289Y-68621789D01*
X144221789Y-68510289D01*
X144309394Y-68379179D01*
X144369737Y-68233497D01*
X144400500Y-68078842D01*
X144400500Y-67921158D01*
X144400500Y-67921155D01*
X144400499Y-67921153D01*
X144372192Y-67778846D01*
X144369737Y-67766503D01*
X144338298Y-67690602D01*
X144309397Y-67620827D01*
X144309390Y-67620814D01*
X144221789Y-67489711D01*
X144221786Y-67489707D01*
X144110292Y-67378213D01*
X144110288Y-67378210D01*
X143979185Y-67290609D01*
X143979172Y-67290602D01*
X143833501Y-67230264D01*
X143833489Y-67230261D01*
X143678845Y-67199500D01*
X143678842Y-67199500D01*
X143521158Y-67199500D01*
X143521155Y-67199500D01*
X143366510Y-67230261D01*
X143366498Y-67230264D01*
X143220827Y-67290602D01*
X143220814Y-67290609D01*
X143089711Y-67378210D01*
X143089707Y-67378213D01*
X142978213Y-67489707D01*
X142978210Y-67489711D01*
X142890609Y-67620814D01*
X142890602Y-67620827D01*
X142830264Y-67766498D01*
X142830261Y-67766510D01*
X142799500Y-67921153D01*
X135287707Y-67921153D01*
X135178846Y-67899499D01*
X135178843Y-67899499D01*
X135021159Y-67899499D01*
X135021156Y-67899499D01*
X134866511Y-67930260D01*
X134866499Y-67930263D01*
X134720828Y-67990601D01*
X134720815Y-67990608D01*
X134589712Y-68078209D01*
X134589708Y-68078212D01*
X134478214Y-68189706D01*
X134478211Y-68189710D01*
X134390610Y-68320813D01*
X134390603Y-68320826D01*
X134330265Y-68466497D01*
X134330262Y-68466509D01*
X134299501Y-68621152D01*
X109272193Y-68621152D01*
X109300500Y-68478842D01*
X109300500Y-68321158D01*
X109300500Y-68321155D01*
X109300499Y-68321153D01*
X109282419Y-68230261D01*
X109269737Y-68166503D01*
X109233569Y-68079185D01*
X109209397Y-68020827D01*
X109209390Y-68020814D01*
X109121789Y-67889711D01*
X109121786Y-67889707D01*
X109010292Y-67778213D01*
X109010288Y-67778210D01*
X108879185Y-67690609D01*
X108879172Y-67690602D01*
X108733501Y-67630264D01*
X108733489Y-67630261D01*
X108578845Y-67599500D01*
X108578842Y-67599500D01*
X108421158Y-67599500D01*
X108421155Y-67599500D01*
X108266510Y-67630261D01*
X108266498Y-67630264D01*
X108120827Y-67690602D01*
X108120814Y-67690609D01*
X107989711Y-67778210D01*
X107989707Y-67778213D01*
X107878213Y-67889707D01*
X107878210Y-67889711D01*
X107790609Y-68020814D01*
X107790602Y-68020827D01*
X107730264Y-68166498D01*
X107730261Y-68166510D01*
X107699500Y-68321153D01*
X101224897Y-68321153D01*
X101179185Y-68290609D01*
X101179172Y-68290602D01*
X101033501Y-68230264D01*
X101033489Y-68230261D01*
X100878845Y-68199500D01*
X100878842Y-68199500D01*
X100721158Y-68199500D01*
X100721155Y-68199500D01*
X100648691Y-68213914D01*
X100579100Y-68207687D01*
X100523922Y-68164824D01*
X100500678Y-68098934D01*
X100500500Y-68092297D01*
X100500500Y-67495134D01*
X100520185Y-67428095D01*
X100572989Y-67382340D01*
X100642147Y-67372396D01*
X100671950Y-67380572D01*
X100766503Y-67419737D01*
X100921153Y-67450499D01*
X100921156Y-67450500D01*
X100921158Y-67450500D01*
X101078844Y-67450500D01*
X101078845Y-67450499D01*
X101233497Y-67419737D01*
X101379179Y-67359394D01*
X101510289Y-67271789D01*
X101621789Y-67160289D01*
X101709394Y-67029179D01*
X101754139Y-66921153D01*
X118099500Y-66921153D01*
X118099500Y-67078846D01*
X118130261Y-67233489D01*
X118130264Y-67233501D01*
X118190602Y-67379172D01*
X118190609Y-67379185D01*
X118278210Y-67510288D01*
X118278213Y-67510292D01*
X118389707Y-67621786D01*
X118389711Y-67621789D01*
X118520814Y-67709390D01*
X118520827Y-67709397D01*
X118658683Y-67766498D01*
X118666503Y-67769737D01*
X118821153Y-67800499D01*
X118821156Y-67800500D01*
X118821158Y-67800500D01*
X118978844Y-67800500D01*
X118978845Y-67800499D01*
X119133497Y-67769737D01*
X119279179Y-67709394D01*
X119410289Y-67621789D01*
X119410925Y-67621153D01*
X127399500Y-67621153D01*
X127399500Y-67778846D01*
X127430261Y-67933489D01*
X127430264Y-67933501D01*
X127490602Y-68079172D01*
X127490609Y-68079185D01*
X127578210Y-68210288D01*
X127578213Y-68210292D01*
X127689707Y-68321786D01*
X127689711Y-68321789D01*
X127820814Y-68409390D01*
X127820827Y-68409397D01*
X127958681Y-68466497D01*
X127966503Y-68469737D01*
X128121153Y-68500499D01*
X128121156Y-68500500D01*
X128121158Y-68500500D01*
X128278844Y-68500500D01*
X128278845Y-68500499D01*
X128289261Y-68498427D01*
X128314292Y-68493449D01*
X128314297Y-68493448D01*
X128399532Y-68476493D01*
X128433497Y-68469737D01*
X128579179Y-68409394D01*
X128710289Y-68321789D01*
X128821789Y-68210289D01*
X128909394Y-68079179D01*
X128969737Y-67933497D01*
X129000500Y-67778842D01*
X129000500Y-67621158D01*
X129000500Y-67621155D01*
X129000499Y-67621153D01*
X128978447Y-67510292D01*
X128969737Y-67466503D01*
X128969735Y-67466498D01*
X128909397Y-67320827D01*
X128909390Y-67320814D01*
X128821789Y-67189711D01*
X128821786Y-67189707D01*
X128710292Y-67078213D01*
X128710288Y-67078210D01*
X128579185Y-66990609D01*
X128579172Y-66990602D01*
X128433501Y-66930264D01*
X128433489Y-66930261D01*
X128278845Y-66899500D01*
X128278842Y-66899500D01*
X128121158Y-66899500D01*
X128121155Y-66899500D01*
X127966510Y-66930261D01*
X127966498Y-66930264D01*
X127820827Y-66990602D01*
X127820814Y-66990609D01*
X127689711Y-67078210D01*
X127689707Y-67078213D01*
X127578213Y-67189707D01*
X127578210Y-67189711D01*
X127490609Y-67320814D01*
X127490602Y-67320827D01*
X127430264Y-67466498D01*
X127430261Y-67466510D01*
X127399500Y-67621153D01*
X119410925Y-67621153D01*
X119432578Y-67599500D01*
X119504694Y-67527385D01*
X119521786Y-67510292D01*
X119521789Y-67510289D01*
X119609394Y-67379179D01*
X119669737Y-67233497D01*
X119700500Y-67078842D01*
X119700500Y-66921158D01*
X119700500Y-66921155D01*
X119700499Y-66921153D01*
X119696192Y-66899500D01*
X119669737Y-66766503D01*
X119654138Y-66728844D01*
X119609397Y-66620827D01*
X119609390Y-66620814D01*
X119521789Y-66489711D01*
X119521786Y-66489707D01*
X119410292Y-66378213D01*
X119410288Y-66378210D01*
X119279185Y-66290609D01*
X119279172Y-66290602D01*
X119133501Y-66230264D01*
X119133489Y-66230261D01*
X118978845Y-66199500D01*
X118978842Y-66199500D01*
X118821158Y-66199500D01*
X118821155Y-66199500D01*
X118666510Y-66230261D01*
X118666498Y-66230264D01*
X118520827Y-66290602D01*
X118520814Y-66290609D01*
X118389711Y-66378210D01*
X118389707Y-66378213D01*
X118278213Y-66489707D01*
X118278210Y-66489711D01*
X118190609Y-66620814D01*
X118190602Y-66620827D01*
X118130264Y-66766498D01*
X118130261Y-66766510D01*
X118099500Y-66921153D01*
X101754139Y-66921153D01*
X101769737Y-66883497D01*
X101800500Y-66728842D01*
X101800500Y-66571158D01*
X101800500Y-66571155D01*
X101800499Y-66571153D01*
X101769738Y-66416510D01*
X101769737Y-66416503D01*
X101746080Y-66359390D01*
X101709397Y-66270827D01*
X101709390Y-66270814D01*
X101621789Y-66139711D01*
X101621786Y-66139707D01*
X101510292Y-66028213D01*
X101510288Y-66028210D01*
X101379185Y-65940609D01*
X101379172Y-65940602D01*
X101233501Y-65880264D01*
X101233489Y-65880261D01*
X101078845Y-65849500D01*
X101078842Y-65849500D01*
X100921158Y-65849500D01*
X100921155Y-65849500D01*
X100766510Y-65880261D01*
X100766507Y-65880261D01*
X100671952Y-65919427D01*
X100639313Y-65922935D01*
X100606853Y-65927603D01*
X100604765Y-65926649D01*
X100602482Y-65926895D01*
X100573139Y-65912206D01*
X100543297Y-65898578D01*
X100542055Y-65896646D01*
X100540003Y-65895619D01*
X100523257Y-65867396D01*
X100505523Y-65839800D01*
X100505087Y-65836771D01*
X100504351Y-65835530D01*
X100500500Y-65804865D01*
X100500500Y-65571153D01*
X106449500Y-65571153D01*
X106449500Y-65728846D01*
X106480261Y-65883489D01*
X106480264Y-65883501D01*
X106540602Y-66029172D01*
X106540609Y-66029185D01*
X106628210Y-66160288D01*
X106628213Y-66160292D01*
X106739707Y-66271786D01*
X106739711Y-66271789D01*
X106870814Y-66359390D01*
X106870827Y-66359397D01*
X106916254Y-66378213D01*
X107016503Y-66419737D01*
X107171153Y-66450499D01*
X107171156Y-66450500D01*
X107171158Y-66450500D01*
X107328844Y-66450500D01*
X107328845Y-66450499D01*
X107483497Y-66419737D01*
X107629179Y-66359394D01*
X107760289Y-66271789D01*
X107871789Y-66160289D01*
X107959394Y-66029179D01*
X108019737Y-65883497D01*
X108050500Y-65728842D01*
X108050500Y-65571158D01*
X108050500Y-65571155D01*
X108050499Y-65571153D01*
X109499500Y-65571153D01*
X109499500Y-65728846D01*
X109530261Y-65883489D01*
X109530264Y-65883501D01*
X109590602Y-66029172D01*
X109590609Y-66029185D01*
X109678210Y-66160288D01*
X109678213Y-66160292D01*
X109789707Y-66271786D01*
X109789711Y-66271789D01*
X109920814Y-66359390D01*
X109920827Y-66359397D01*
X109966254Y-66378213D01*
X110066503Y-66419737D01*
X110221153Y-66450499D01*
X110221156Y-66450500D01*
X110221158Y-66450500D01*
X110378844Y-66450500D01*
X110378845Y-66450499D01*
X110533497Y-66419737D01*
X110679179Y-66359394D01*
X110810289Y-66271789D01*
X110921789Y-66160289D01*
X111009394Y-66029179D01*
X111069737Y-65883497D01*
X111100500Y-65728842D01*
X111100500Y-65571158D01*
X111100500Y-65571155D01*
X111100499Y-65571153D01*
X111069737Y-65416503D01*
X111054138Y-65378844D01*
X111009394Y-65270820D01*
X110976207Y-65221153D01*
X142999500Y-65221153D01*
X142999500Y-65378846D01*
X143030261Y-65533489D01*
X143030264Y-65533501D01*
X143090602Y-65679172D01*
X143090609Y-65679185D01*
X143178210Y-65810288D01*
X143178213Y-65810292D01*
X143289707Y-65921786D01*
X143289711Y-65921789D01*
X143420814Y-66009390D01*
X143420827Y-66009397D01*
X143566498Y-66069735D01*
X143566503Y-66069737D01*
X143721153Y-66100499D01*
X143721156Y-66100500D01*
X143721158Y-66100500D01*
X143878844Y-66100500D01*
X143878845Y-66100499D01*
X144033497Y-66069737D01*
X144179179Y-66009394D01*
X144310289Y-65921789D01*
X144421789Y-65810289D01*
X144509394Y-65679179D01*
X144569737Y-65533497D01*
X144600500Y-65378842D01*
X144600500Y-65221158D01*
X144600500Y-65221155D01*
X144600499Y-65221153D01*
X144569738Y-65066510D01*
X144569737Y-65066503D01*
X144553876Y-65028210D01*
X144509397Y-64920827D01*
X144509390Y-64920814D01*
X144421789Y-64789711D01*
X144421786Y-64789707D01*
X144310292Y-64678213D01*
X144310288Y-64678210D01*
X144179185Y-64590609D01*
X144179172Y-64590602D01*
X144033501Y-64530264D01*
X144033489Y-64530261D01*
X143878845Y-64499500D01*
X143878842Y-64499500D01*
X143721158Y-64499500D01*
X143721155Y-64499500D01*
X143566510Y-64530261D01*
X143566498Y-64530264D01*
X143420827Y-64590602D01*
X143420814Y-64590609D01*
X143289711Y-64678210D01*
X143289707Y-64678213D01*
X143178213Y-64789707D01*
X143178210Y-64789711D01*
X143090609Y-64920814D01*
X143090602Y-64920827D01*
X143030264Y-65066498D01*
X143030261Y-65066510D01*
X142999500Y-65221153D01*
X110976207Y-65221153D01*
X110921789Y-65139711D01*
X110921786Y-65139707D01*
X110810292Y-65028213D01*
X110810288Y-65028210D01*
X110679185Y-64940609D01*
X110679172Y-64940602D01*
X110533501Y-64880264D01*
X110533489Y-64880261D01*
X110378845Y-64849500D01*
X110378842Y-64849500D01*
X110221158Y-64849500D01*
X110221155Y-64849500D01*
X110066510Y-64880261D01*
X110066498Y-64880264D01*
X109920827Y-64940602D01*
X109920814Y-64940609D01*
X109789711Y-65028210D01*
X109789707Y-65028213D01*
X109678213Y-65139707D01*
X109678210Y-65139711D01*
X109590609Y-65270814D01*
X109590602Y-65270827D01*
X109530264Y-65416498D01*
X109530261Y-65416510D01*
X109499500Y-65571153D01*
X108050499Y-65571153D01*
X108019737Y-65416503D01*
X108004138Y-65378844D01*
X107959397Y-65270827D01*
X107959390Y-65270814D01*
X107871789Y-65139711D01*
X107871786Y-65139707D01*
X107760292Y-65028213D01*
X107760288Y-65028210D01*
X107629185Y-64940609D01*
X107629172Y-64940602D01*
X107483501Y-64880264D01*
X107483489Y-64880261D01*
X107328845Y-64849500D01*
X107328842Y-64849500D01*
X107171158Y-64849500D01*
X107171155Y-64849500D01*
X107016510Y-64880261D01*
X107016498Y-64880264D01*
X106870827Y-64940602D01*
X106870814Y-64940609D01*
X106739711Y-65028210D01*
X106739707Y-65028213D01*
X106628213Y-65139707D01*
X106628210Y-65139711D01*
X106540609Y-65270814D01*
X106540602Y-65270827D01*
X106480264Y-65416498D01*
X106480261Y-65416510D01*
X106449500Y-65571153D01*
X100500500Y-65571153D01*
X100500500Y-63279500D01*
X100520185Y-63212461D01*
X100572989Y-63166706D01*
X100624500Y-63155500D01*
X101710415Y-63155500D01*
X101710425Y-63155500D01*
X101723977Y-63155318D01*
X101730614Y-63155140D01*
X101744114Y-63154598D01*
X101885230Y-63126529D01*
X101951120Y-63103285D01*
X101951123Y-63103284D01*
X102041105Y-63056215D01*
X102041648Y-63055940D01*
X102075277Y-63049665D01*
X102108865Y-63042984D01*
X102109634Y-63043255D01*
X102110333Y-63043125D01*
X102117254Y-63045943D01*
X102166705Y-63063389D01*
X102314762Y-63162318D01*
X102314771Y-63162323D01*
X102343949Y-63174409D01*
X102487749Y-63233973D01*
X102671379Y-63270499D01*
X102671383Y-63270500D01*
X102671384Y-63270500D01*
X103758617Y-63270500D01*
X103758618Y-63270499D01*
X103942251Y-63233973D01*
X104115231Y-63162322D01*
X104259824Y-63065707D01*
X104326498Y-63044831D01*
X104380223Y-63056016D01*
X104510116Y-63115338D01*
X104577155Y-63135023D01*
X104577159Y-63135024D01*
X104719575Y-63155500D01*
X104719578Y-63155500D01*
X105738946Y-63155500D01*
X105738956Y-63155500D01*
X105752508Y-63155318D01*
X105759145Y-63155140D01*
X105772645Y-63154598D01*
X105913761Y-63126529D01*
X105979651Y-63103285D01*
X105979658Y-63103283D01*
X106046602Y-63068264D01*
X106047642Y-63067745D01*
X106080900Y-63061776D01*
X106114092Y-63055174D01*
X106115220Y-63055617D01*
X106116413Y-63055404D01*
X106147633Y-63068370D01*
X106179111Y-63080755D01*
X106180586Y-63082056D01*
X106180939Y-63082203D01*
X106181232Y-63082627D01*
X106190723Y-63091000D01*
X106216281Y-63116558D01*
X106384237Y-63228782D01*
X106384241Y-63228784D01*
X106384244Y-63228786D01*
X106570873Y-63306091D01*
X106768992Y-63345499D01*
X106768996Y-63345500D01*
X106768997Y-63345500D01*
X108021004Y-63345500D01*
X108021005Y-63345499D01*
X108219127Y-63306091D01*
X108405756Y-63228786D01*
X108573718Y-63116558D01*
X108597658Y-63092616D01*
X108658978Y-63059133D01*
X108728670Y-63064116D01*
X108736831Y-63067497D01*
X108841585Y-63115338D01*
X108908624Y-63135023D01*
X108908628Y-63135024D01*
X109051044Y-63155500D01*
X109051047Y-63155500D01*
X121370490Y-63155500D01*
X121370500Y-63155500D01*
X121477956Y-63143947D01*
X121529467Y-63132741D01*
X121563749Y-63121330D01*
X121632000Y-63098615D01*
X121632002Y-63098613D01*
X121632004Y-63098613D01*
X121647941Y-63088370D01*
X121714978Y-63068683D01*
X121775674Y-63086483D01*
X121775918Y-63085949D01*
X121779645Y-63087648D01*
X121781962Y-63088328D01*
X121783989Y-63089629D01*
X121914895Y-63149317D01*
X121914901Y-63149319D01*
X121981952Y-63168963D01*
X122124380Y-63189353D01*
X123080864Y-63188775D01*
X123147914Y-63208419D01*
X123193701Y-63261195D01*
X123203687Y-63330348D01*
X123180197Y-63383712D01*
X123181595Y-63384646D01*
X123090609Y-63520814D01*
X123090602Y-63520827D01*
X123030264Y-63666498D01*
X123030261Y-63666510D01*
X122999500Y-63821153D01*
X122999500Y-63978846D01*
X123030261Y-64133489D01*
X123030264Y-64133501D01*
X123090602Y-64279172D01*
X123090609Y-64279185D01*
X123178210Y-64410288D01*
X123178213Y-64410292D01*
X123289707Y-64521786D01*
X123289711Y-64521789D01*
X123420814Y-64609390D01*
X123420827Y-64609397D01*
X123566498Y-64669735D01*
X123566503Y-64669737D01*
X123721153Y-64700499D01*
X123721156Y-64700500D01*
X123721158Y-64700500D01*
X123878844Y-64700500D01*
X123878845Y-64700499D01*
X124033497Y-64669737D01*
X124179179Y-64609394D01*
X124310289Y-64521789D01*
X124421789Y-64410289D01*
X124509394Y-64279179D01*
X124569737Y-64133497D01*
X124600500Y-63978842D01*
X124600500Y-63821158D01*
X124600500Y-63821155D01*
X124600499Y-63821153D01*
X124569738Y-63666510D01*
X124569737Y-63666503D01*
X124569735Y-63666498D01*
X124509397Y-63520827D01*
X124509390Y-63520814D01*
X124418405Y-63384646D01*
X124419631Y-63383826D01*
X124395183Y-63326262D01*
X124406974Y-63257395D01*
X124454126Y-63205834D01*
X124518271Y-63187907D01*
X146876380Y-63174409D01*
X146983681Y-63162823D01*
X147035117Y-63151617D01*
X147137504Y-63117522D01*
X147214958Y-63067745D01*
X147258531Y-63039742D01*
X147258533Y-63039740D01*
X147258543Y-63039734D01*
X147311347Y-62993979D01*
X147405567Y-62885245D01*
X147465338Y-62754368D01*
X147485023Y-62687329D01*
X147485024Y-62687325D01*
X147505500Y-62544909D01*
X147505500Y-53529500D01*
X147525185Y-53462461D01*
X147577989Y-53416706D01*
X147629500Y-53405500D01*
X147703039Y-53405500D01*
X147733503Y-53414445D01*
G37*
%TD.AperFunction*%
%TD*%
%TA.AperFunction,Conductor*%
%TO.N,Vsys*%
G36*
X144321818Y-46481342D02*
G01*
X144343524Y-46482487D01*
X144354792Y-46490597D01*
X144368160Y-46494349D01*
X144382589Y-46510604D01*
X144400232Y-46523302D01*
X144411695Y-46543392D01*
X144414544Y-46546601D01*
X144416856Y-46552437D01*
X144417724Y-46553957D01*
X144419129Y-46557519D01*
X144455083Y-46668174D01*
X144489174Y-46735082D01*
X144491349Y-46740595D01*
X144500000Y-46786098D01*
X144500000Y-46900000D01*
X144500000Y-47400000D01*
X149500000Y-47400000D01*
X150175500Y-47400000D01*
X150242539Y-47419685D01*
X150288294Y-47472489D01*
X150299500Y-47524000D01*
X150299500Y-52776000D01*
X150279815Y-52843039D01*
X150227011Y-52888794D01*
X150175500Y-52900000D01*
X149361761Y-52900000D01*
X149294722Y-52880315D01*
X149258658Y-52844890D01*
X149257421Y-52843039D01*
X149221789Y-52789711D01*
X149221787Y-52789708D01*
X149110292Y-52678213D01*
X149110288Y-52678210D01*
X148979185Y-52590609D01*
X148979172Y-52590602D01*
X148833501Y-52530264D01*
X148833489Y-52530261D01*
X148678845Y-52499500D01*
X148678842Y-52499500D01*
X148521158Y-52499500D01*
X148521155Y-52499500D01*
X148366510Y-52530261D01*
X148366498Y-52530264D01*
X148220827Y-52590602D01*
X148220814Y-52590609D01*
X148089711Y-52678210D01*
X148089707Y-52678213D01*
X147978212Y-52789708D01*
X147953104Y-52827284D01*
X147942579Y-52843039D01*
X147941342Y-52844890D01*
X147887730Y-52889696D01*
X147838239Y-52900000D01*
X147000000Y-52900000D01*
X147000000Y-62544909D01*
X146980315Y-62611948D01*
X146927511Y-62657703D01*
X146876075Y-62668909D01*
X122124075Y-62683853D01*
X122057024Y-62664209D01*
X122011237Y-62611433D01*
X122000000Y-62559853D01*
X122000000Y-58221153D01*
X124499500Y-58221153D01*
X124499500Y-58378846D01*
X124530261Y-58533489D01*
X124530264Y-58533501D01*
X124590602Y-58679172D01*
X124590609Y-58679185D01*
X124678210Y-58810288D01*
X124678213Y-58810292D01*
X124789707Y-58921786D01*
X124789711Y-58921789D01*
X124920814Y-59009390D01*
X124920827Y-59009397D01*
X125066498Y-59069735D01*
X125066503Y-59069737D01*
X125221153Y-59100499D01*
X125221156Y-59100500D01*
X125221158Y-59100500D01*
X125378844Y-59100500D01*
X125378845Y-59100499D01*
X125533497Y-59069737D01*
X125652548Y-59020425D01*
X125722017Y-59012956D01*
X125747453Y-59020425D01*
X125866503Y-59069737D01*
X126021153Y-59100499D01*
X126021156Y-59100500D01*
X126054866Y-59100500D01*
X126121905Y-59120185D01*
X126167660Y-59172989D01*
X126177604Y-59242147D01*
X126169427Y-59271953D01*
X126130263Y-59366502D01*
X126130261Y-59366510D01*
X126099500Y-59521153D01*
X126099500Y-59678846D01*
X126130261Y-59833489D01*
X126130264Y-59833501D01*
X126190602Y-59979172D01*
X126190609Y-59979185D01*
X126278210Y-60110288D01*
X126278213Y-60110292D01*
X126389707Y-60221786D01*
X126389711Y-60221789D01*
X126520814Y-60309390D01*
X126520827Y-60309397D01*
X126666498Y-60369735D01*
X126666503Y-60369737D01*
X126821153Y-60400499D01*
X126821156Y-60400500D01*
X126821158Y-60400500D01*
X126978844Y-60400500D01*
X126978845Y-60400499D01*
X127133497Y-60369737D01*
X127250790Y-60321153D01*
X137399500Y-60321153D01*
X137399500Y-60478846D01*
X137430261Y-60633489D01*
X137430264Y-60633501D01*
X137490602Y-60779172D01*
X137490609Y-60779185D01*
X137578210Y-60910288D01*
X137578213Y-60910292D01*
X137689707Y-61021786D01*
X137689711Y-61021789D01*
X137820814Y-61109390D01*
X137820827Y-61109397D01*
X137966498Y-61169735D01*
X137966503Y-61169737D01*
X138121153Y-61200499D01*
X138121156Y-61200500D01*
X138121158Y-61200500D01*
X138278844Y-61200500D01*
X138278845Y-61200499D01*
X138433497Y-61169737D01*
X138579179Y-61109394D01*
X138710289Y-61021789D01*
X138821789Y-60910289D01*
X138909394Y-60779179D01*
X138969737Y-60633497D01*
X139000500Y-60478842D01*
X139000500Y-60321158D01*
X139000500Y-60321155D01*
X139000499Y-60321153D01*
X138980734Y-60221788D01*
X138969737Y-60166503D01*
X138946452Y-60110288D01*
X138909397Y-60020827D01*
X138909390Y-60020814D01*
X138821789Y-59889711D01*
X138821786Y-59889707D01*
X138710292Y-59778213D01*
X138710288Y-59778210D01*
X138579185Y-59690609D01*
X138579172Y-59690602D01*
X138433501Y-59630264D01*
X138433489Y-59630261D01*
X138278845Y-59599500D01*
X138278842Y-59599500D01*
X138121158Y-59599500D01*
X138121155Y-59599500D01*
X137966510Y-59630261D01*
X137966498Y-59630264D01*
X137820827Y-59690602D01*
X137820814Y-59690609D01*
X137689711Y-59778210D01*
X137689707Y-59778213D01*
X137578213Y-59889707D01*
X137578210Y-59889711D01*
X137490609Y-60020814D01*
X137490602Y-60020827D01*
X137430264Y-60166498D01*
X137430261Y-60166510D01*
X137399500Y-60321153D01*
X127250790Y-60321153D01*
X127279179Y-60309394D01*
X127410289Y-60221789D01*
X127521789Y-60110289D01*
X127609394Y-59979179D01*
X127669737Y-59833497D01*
X127700500Y-59678842D01*
X127700500Y-59521158D01*
X127700500Y-59521155D01*
X127700499Y-59521153D01*
X127669738Y-59366510D01*
X127669737Y-59366503D01*
X127669735Y-59366498D01*
X127609397Y-59220827D01*
X127609390Y-59220814D01*
X127521789Y-59089711D01*
X127521786Y-59089707D01*
X127419759Y-58987680D01*
X127386274Y-58926357D01*
X127391258Y-58856665D01*
X127418002Y-58815054D01*
X127417928Y-58814993D01*
X127418454Y-58814351D01*
X127419764Y-58812313D01*
X127421789Y-58810289D01*
X127509394Y-58679179D01*
X127569737Y-58533497D01*
X127600500Y-58378842D01*
X127600500Y-58221158D01*
X127600500Y-58221155D01*
X127600499Y-58221153D01*
X127578269Y-58109397D01*
X127569737Y-58066503D01*
X127541134Y-57997450D01*
X127533666Y-57927984D01*
X127541133Y-57902552D01*
X127569737Y-57833497D01*
X127600500Y-57678842D01*
X127600500Y-57521158D01*
X127600500Y-57521155D01*
X127600499Y-57521153D01*
X127569737Y-57366503D01*
X127550955Y-57321158D01*
X127550953Y-57321153D01*
X134299500Y-57321153D01*
X134299500Y-57478846D01*
X134330261Y-57633489D01*
X134330264Y-57633501D01*
X134390602Y-57779172D01*
X134390609Y-57779185D01*
X134478210Y-57910288D01*
X134478213Y-57910292D01*
X134589707Y-58021786D01*
X134589711Y-58021789D01*
X134720814Y-58109390D01*
X134720827Y-58109397D01*
X134866498Y-58169735D01*
X134866503Y-58169737D01*
X135021153Y-58200499D01*
X135021156Y-58200500D01*
X135021158Y-58200500D01*
X135178844Y-58200500D01*
X135178845Y-58200499D01*
X135333497Y-58169737D01*
X135479179Y-58109394D01*
X135610289Y-58021789D01*
X135721789Y-57910289D01*
X135809394Y-57779179D01*
X135869737Y-57633497D01*
X135900500Y-57478842D01*
X135900500Y-57321158D01*
X135900500Y-57321155D01*
X135900499Y-57321153D01*
X135880543Y-57220827D01*
X135869737Y-57166503D01*
X135837929Y-57089711D01*
X135809397Y-57020827D01*
X135809390Y-57020814D01*
X135721789Y-56889711D01*
X135721786Y-56889707D01*
X135610292Y-56778213D01*
X135610288Y-56778210D01*
X135479185Y-56690609D01*
X135479172Y-56690602D01*
X135333501Y-56630264D01*
X135333489Y-56630261D01*
X135178845Y-56599500D01*
X135178842Y-56599500D01*
X135021158Y-56599500D01*
X135021155Y-56599500D01*
X134866510Y-56630261D01*
X134866498Y-56630264D01*
X134720827Y-56690602D01*
X134720814Y-56690609D01*
X134589711Y-56778210D01*
X134589707Y-56778213D01*
X134478213Y-56889707D01*
X134478210Y-56889711D01*
X134390609Y-57020814D01*
X134390602Y-57020827D01*
X134330264Y-57166498D01*
X134330261Y-57166510D01*
X134299500Y-57321153D01*
X127550953Y-57321153D01*
X127509397Y-57220827D01*
X127509390Y-57220814D01*
X127421789Y-57089711D01*
X127421786Y-57089707D01*
X127310292Y-56978213D01*
X127310288Y-56978210D01*
X127179185Y-56890609D01*
X127179172Y-56890602D01*
X127033501Y-56830264D01*
X127033489Y-56830261D01*
X126878845Y-56799500D01*
X126878842Y-56799500D01*
X126721158Y-56799500D01*
X126721155Y-56799500D01*
X126566511Y-56830260D01*
X126566506Y-56830262D01*
X126566504Y-56830262D01*
X126566503Y-56830263D01*
X126497449Y-56858865D01*
X126427982Y-56866333D01*
X126402552Y-56858865D01*
X126333497Y-56830263D01*
X126333493Y-56830262D01*
X126333488Y-56830260D01*
X126178845Y-56799500D01*
X126178842Y-56799500D01*
X126021158Y-56799500D01*
X126021155Y-56799500D01*
X125866510Y-56830261D01*
X125866498Y-56830264D01*
X125759952Y-56874397D01*
X125690483Y-56881866D01*
X125665048Y-56874397D01*
X125558501Y-56830264D01*
X125558489Y-56830261D01*
X125403845Y-56799500D01*
X125403842Y-56799500D01*
X125246158Y-56799500D01*
X125246155Y-56799500D01*
X125091510Y-56830261D01*
X125091498Y-56830264D01*
X124945827Y-56890602D01*
X124945814Y-56890609D01*
X124814711Y-56978210D01*
X124814707Y-56978213D01*
X124703213Y-57089707D01*
X124703210Y-57089711D01*
X124615609Y-57220814D01*
X124615602Y-57220827D01*
X124555264Y-57366498D01*
X124555261Y-57366510D01*
X124524500Y-57521153D01*
X124524500Y-57678846D01*
X124555261Y-57833494D01*
X124555263Y-57833498D01*
X124571364Y-57872369D01*
X124578833Y-57941838D01*
X124571364Y-57967274D01*
X124530264Y-58066498D01*
X124530261Y-58066510D01*
X124499500Y-58221153D01*
X122000000Y-58221153D01*
X122000000Y-55024000D01*
X122019685Y-54956961D01*
X122072489Y-54911206D01*
X122124000Y-54900000D01*
X129750000Y-54900000D01*
X129750000Y-50843213D01*
X139700500Y-50843213D01*
X139700500Y-51055786D01*
X139713792Y-51139712D01*
X139733754Y-51265743D01*
X139782739Y-51416504D01*
X139799444Y-51467914D01*
X139895951Y-51657320D01*
X140020890Y-51829286D01*
X140171213Y-51979609D01*
X140343179Y-52104548D01*
X140343181Y-52104549D01*
X140343184Y-52104551D01*
X140532588Y-52201057D01*
X140734757Y-52266746D01*
X140944713Y-52300000D01*
X140944714Y-52300000D01*
X141157286Y-52300000D01*
X141157287Y-52300000D01*
X141367243Y-52266746D01*
X141569412Y-52201057D01*
X141758816Y-52104551D01*
X141863890Y-52028211D01*
X141930786Y-51979609D01*
X141930788Y-51979606D01*
X141930792Y-51979604D01*
X142081104Y-51829292D01*
X142081106Y-51829288D01*
X142081109Y-51829286D01*
X142206048Y-51657320D01*
X142206047Y-51657320D01*
X142206051Y-51657316D01*
X142302557Y-51467912D01*
X142368246Y-51265743D01*
X142401500Y-51055787D01*
X142401500Y-50843213D01*
X142368246Y-50633257D01*
X142302557Y-50431088D01*
X142206051Y-50241684D01*
X142206049Y-50241681D01*
X142206048Y-50241679D01*
X142081109Y-50069713D01*
X141930786Y-49919390D01*
X141758820Y-49794451D01*
X141569414Y-49697944D01*
X141569413Y-49697943D01*
X141569412Y-49697943D01*
X141367243Y-49632254D01*
X141367241Y-49632253D01*
X141367240Y-49632253D01*
X141205957Y-49606708D01*
X141157287Y-49599000D01*
X140944713Y-49599000D01*
X140896042Y-49606708D01*
X140734760Y-49632253D01*
X140532585Y-49697944D01*
X140343179Y-49794451D01*
X140171213Y-49919390D01*
X140020890Y-50069713D01*
X139895951Y-50241679D01*
X139799444Y-50431085D01*
X139733753Y-50633260D01*
X139700500Y-50843213D01*
X129750000Y-50843213D01*
X129750000Y-46772271D01*
X129769685Y-46705232D01*
X129822489Y-46659477D01*
X129872512Y-46648280D01*
X144300892Y-46475469D01*
X144321818Y-46481342D01*
G37*
%TD.AperFunction*%
%TD*%
%TA.AperFunction,Conductor*%
%TO.N,Vbus*%
G36*
X118972871Y-37020185D02*
G01*
X119018626Y-37072989D01*
X119028570Y-37142147D01*
X119008933Y-37193392D01*
X118990610Y-37220812D01*
X118990602Y-37220827D01*
X118930264Y-37366498D01*
X118930261Y-37366510D01*
X118899500Y-37521153D01*
X118899500Y-37678846D01*
X118930261Y-37833489D01*
X118930264Y-37833501D01*
X118990602Y-37979172D01*
X118990609Y-37979185D01*
X119078210Y-38110288D01*
X119078213Y-38110292D01*
X119189707Y-38221786D01*
X119189711Y-38221789D01*
X119320814Y-38309390D01*
X119320827Y-38309397D01*
X119417952Y-38349627D01*
X119472356Y-38393467D01*
X119494421Y-38459762D01*
X119494500Y-38464188D01*
X119494500Y-43332065D01*
X119496556Y-43367471D01*
X119496557Y-43367480D01*
X119496758Y-43370941D01*
X119497898Y-43390564D01*
X119501221Y-43419080D01*
X119504483Y-43437642D01*
X119504676Y-43438980D01*
X119504818Y-43439637D01*
X119504861Y-43440008D01*
X119505004Y-43440799D01*
X119505320Y-43442409D01*
X119511361Y-43476773D01*
X119511970Y-43478937D01*
X119516915Y-43495234D01*
X119519997Y-43509396D01*
X119520003Y-43509409D01*
X119521419Y-43515909D01*
X119519336Y-43545141D01*
X119520020Y-43574450D01*
X119516857Y-43579924D01*
X119516453Y-43585602D01*
X119503835Y-43602467D01*
X119487941Y-43629981D01*
X119378213Y-43739708D01*
X119378210Y-43739712D01*
X119290609Y-43870815D01*
X119290602Y-43870828D01*
X119230264Y-44016499D01*
X119230261Y-44016511D01*
X119199500Y-44171154D01*
X119199500Y-44328847D01*
X119230261Y-44483490D01*
X119230264Y-44483502D01*
X119290602Y-44629173D01*
X119290609Y-44629186D01*
X119378210Y-44760289D01*
X119378213Y-44760293D01*
X119492113Y-44874193D01*
X119525598Y-44935516D01*
X119523409Y-44996809D01*
X119514976Y-45025525D01*
X119494500Y-45167949D01*
X119494500Y-51075500D01*
X119474815Y-51142539D01*
X119422011Y-51188294D01*
X119370500Y-51199500D01*
X119321155Y-51199500D01*
X119166510Y-51230261D01*
X119166498Y-51230264D01*
X119020827Y-51290602D01*
X119020814Y-51290609D01*
X118889711Y-51378210D01*
X118889707Y-51378213D01*
X118778213Y-51489707D01*
X118778210Y-51489711D01*
X118690609Y-51620814D01*
X118690602Y-51620827D01*
X118630264Y-51766498D01*
X118630261Y-51766510D01*
X118599500Y-51921153D01*
X118599500Y-52078846D01*
X118630261Y-52233489D01*
X118630264Y-52233501D01*
X118690602Y-52379172D01*
X118690609Y-52379185D01*
X118778210Y-52510288D01*
X118778213Y-52510292D01*
X118889707Y-52621786D01*
X118889711Y-52621789D01*
X119020814Y-52709390D01*
X119020827Y-52709397D01*
X119157541Y-52766025D01*
X119166503Y-52769737D01*
X119305498Y-52797385D01*
X119321153Y-52800499D01*
X119321156Y-52800500D01*
X119370500Y-52800500D01*
X119437539Y-52820185D01*
X119483294Y-52872989D01*
X119494500Y-52924500D01*
X119494500Y-54276000D01*
X119494501Y-54276009D01*
X119506052Y-54383450D01*
X119506054Y-54383462D01*
X119517260Y-54434972D01*
X119551383Y-54537497D01*
X119551386Y-54537503D01*
X119629171Y-54658537D01*
X119629179Y-54658548D01*
X119674923Y-54711340D01*
X119674926Y-54711343D01*
X119674930Y-54711347D01*
X119783664Y-54805567D01*
X119914541Y-54865338D01*
X119981580Y-54885023D01*
X119981584Y-54885024D01*
X120124000Y-54905500D01*
X121370500Y-54905500D01*
X121437539Y-54925185D01*
X121483294Y-54977989D01*
X121494500Y-55029500D01*
X121494500Y-57952797D01*
X121474815Y-58019836D01*
X121422011Y-58065591D01*
X121352853Y-58075535D01*
X121323048Y-58067358D01*
X121233501Y-58030267D01*
X121233489Y-58030264D01*
X121078845Y-57999503D01*
X121078842Y-57999503D01*
X120921158Y-57999503D01*
X120921155Y-57999503D01*
X120766510Y-58030264D01*
X120766498Y-58030267D01*
X120620827Y-58090605D01*
X120620814Y-58090612D01*
X120489711Y-58178213D01*
X120489707Y-58178216D01*
X120378213Y-58289710D01*
X120378210Y-58289714D01*
X120290609Y-58420817D01*
X120290602Y-58420830D01*
X120230264Y-58566501D01*
X120230261Y-58566513D01*
X120199500Y-58721156D01*
X120199500Y-58878849D01*
X120230261Y-59033492D01*
X120230264Y-59033504D01*
X120290602Y-59179175D01*
X120290609Y-59179188D01*
X120378210Y-59310291D01*
X120378213Y-59310295D01*
X120489707Y-59421789D01*
X120489711Y-59421792D01*
X120620814Y-59509393D01*
X120620827Y-59509400D01*
X120734425Y-59556453D01*
X120766503Y-59569740D01*
X120921153Y-59600502D01*
X120921156Y-59600503D01*
X120921158Y-59600503D01*
X121078844Y-59600503D01*
X121078845Y-59600502D01*
X121233497Y-59569740D01*
X121323048Y-59532646D01*
X121392517Y-59525178D01*
X121454996Y-59556453D01*
X121490648Y-59616542D01*
X121494500Y-59647208D01*
X121494500Y-60607466D01*
X121485061Y-60654920D01*
X121480262Y-60666505D01*
X121480261Y-60666505D01*
X121449500Y-60821153D01*
X121449500Y-60978846D01*
X121480261Y-61133489D01*
X121480263Y-61133497D01*
X121485061Y-61145080D01*
X121494500Y-61192533D01*
X121494500Y-62526000D01*
X121474815Y-62593039D01*
X121422011Y-62638794D01*
X121370500Y-62650000D01*
X109051044Y-62650000D01*
X108984005Y-62630315D01*
X108938250Y-62577511D01*
X108928306Y-62508353D01*
X108929427Y-62501809D01*
X108945499Y-62421006D01*
X108945500Y-62421004D01*
X108945500Y-62218996D01*
X108945499Y-62218992D01*
X108931516Y-62148691D01*
X108937743Y-62079099D01*
X108980607Y-62023922D01*
X109046496Y-62000678D01*
X109053133Y-62000500D01*
X109178844Y-62000500D01*
X109178845Y-62000499D01*
X109333497Y-61969737D01*
X109479179Y-61909394D01*
X109610289Y-61821789D01*
X109721789Y-61710289D01*
X109809394Y-61579179D01*
X109869737Y-61433497D01*
X109900500Y-61278842D01*
X109900500Y-61121158D01*
X109900500Y-61121155D01*
X109900499Y-61121153D01*
X109869738Y-60966510D01*
X109869737Y-60966503D01*
X109809532Y-60821153D01*
X109809397Y-60820827D01*
X109809390Y-60820814D01*
X109721789Y-60689711D01*
X109721786Y-60689707D01*
X109610292Y-60578213D01*
X109610288Y-60578210D01*
X109479185Y-60490609D01*
X109479172Y-60490602D01*
X109333501Y-60430264D01*
X109333489Y-60430261D01*
X109178845Y-60399500D01*
X109178842Y-60399500D01*
X109021158Y-60399500D01*
X109021155Y-60399500D01*
X108866510Y-60430261D01*
X108866498Y-60430264D01*
X108720827Y-60490602D01*
X108720814Y-60490609D01*
X108589711Y-60578210D01*
X108589707Y-60578213D01*
X108478213Y-60689707D01*
X108478210Y-60689711D01*
X108390609Y-60820814D01*
X108390602Y-60820827D01*
X108330264Y-60966498D01*
X108330261Y-60966510D01*
X108299500Y-61121153D01*
X108299500Y-61198801D01*
X108279815Y-61265840D01*
X108227011Y-61311595D01*
X108157853Y-61321539D01*
X108151310Y-61320419D01*
X108059901Y-61302237D01*
X108021003Y-61294500D01*
X108021002Y-61294500D01*
X107540767Y-61294500D01*
X107473728Y-61274815D01*
X107427973Y-61222011D01*
X107418029Y-61152853D01*
X107429352Y-61120139D01*
X107428169Y-61119649D01*
X107431279Y-61112138D01*
X107431281Y-61112135D01*
X107470500Y-60965766D01*
X107470500Y-60814234D01*
X107431281Y-60667865D01*
X107355515Y-60536635D01*
X107248365Y-60429485D01*
X107182750Y-60391602D01*
X107117136Y-60353719D01*
X107053038Y-60336544D01*
X106970766Y-60314500D01*
X106970765Y-60314500D01*
X106962916Y-60312397D01*
X106963570Y-60309954D01*
X106911252Y-60286804D01*
X106872786Y-60228476D01*
X106871962Y-60158611D01*
X106881987Y-60133681D01*
X106884390Y-60129185D01*
X106884394Y-60129179D01*
X106944737Y-59983497D01*
X106975500Y-59828842D01*
X106975500Y-59671158D01*
X106975500Y-59671155D01*
X106975499Y-59671153D01*
X106970736Y-59647208D01*
X106944737Y-59516503D01*
X106941792Y-59509393D01*
X106884397Y-59370827D01*
X106884390Y-59370814D01*
X106796789Y-59239711D01*
X106796786Y-59239707D01*
X106791737Y-59234658D01*
X106758252Y-59173335D01*
X106763236Y-59103643D01*
X106805108Y-59047710D01*
X106855225Y-59025360D01*
X106883497Y-59019737D01*
X107029179Y-58959394D01*
X107160289Y-58871789D01*
X107271789Y-58760289D01*
X107359394Y-58629179D01*
X107419737Y-58483497D01*
X107450500Y-58328842D01*
X107450500Y-58171158D01*
X107450500Y-58171155D01*
X107450499Y-58171153D01*
X107434478Y-58090612D01*
X107419737Y-58016503D01*
X107419735Y-58016498D01*
X107359397Y-57870827D01*
X107359390Y-57870814D01*
X107271789Y-57739711D01*
X107271786Y-57739707D01*
X107241791Y-57709712D01*
X107208306Y-57648389D01*
X107213290Y-57578697D01*
X107226367Y-57553144D01*
X107309867Y-57428179D01*
X107316591Y-57411947D01*
X107337499Y-57361469D01*
X107370210Y-57282497D01*
X107400973Y-57127842D01*
X107400973Y-56970158D01*
X107400973Y-56970155D01*
X107400972Y-56970153D01*
X107385217Y-56890948D01*
X107370210Y-56815503D01*
X107351253Y-56769737D01*
X107309870Y-56669827D01*
X107309863Y-56669814D01*
X107222262Y-56538711D01*
X107222259Y-56538707D01*
X107110765Y-56427213D01*
X107110761Y-56427210D01*
X106979658Y-56339609D01*
X106979645Y-56339602D01*
X106833974Y-56279264D01*
X106833964Y-56279261D01*
X106692653Y-56251152D01*
X106630742Y-56218767D01*
X106596168Y-56158051D01*
X106595228Y-56105345D01*
X106600500Y-56078842D01*
X106600500Y-55921158D01*
X106600500Y-55921155D01*
X106600499Y-55921153D01*
X106577574Y-55805899D01*
X106583801Y-55736308D01*
X106626664Y-55681130D01*
X106692554Y-55657886D01*
X106731276Y-55661932D01*
X106819234Y-55685500D01*
X106819237Y-55685500D01*
X106970764Y-55685500D01*
X106970766Y-55685500D01*
X107117135Y-55646281D01*
X107248365Y-55570515D01*
X107355515Y-55463365D01*
X107431281Y-55332135D01*
X107470500Y-55185766D01*
X107470500Y-55034234D01*
X107431281Y-54887865D01*
X107431278Y-54887860D01*
X107428169Y-54880351D01*
X107430447Y-54879407D01*
X107416907Y-54823607D01*
X107439755Y-54757579D01*
X107494674Y-54714385D01*
X107540767Y-54705500D01*
X108021004Y-54705500D01*
X108021004Y-54705499D01*
X108099226Y-54689940D01*
X108151309Y-54679581D01*
X108220900Y-54685808D01*
X108276078Y-54728671D01*
X108299322Y-54794561D01*
X108299500Y-54801198D01*
X108299500Y-54878846D01*
X108330261Y-55033489D01*
X108330264Y-55033501D01*
X108390602Y-55179172D01*
X108390609Y-55179185D01*
X108478210Y-55310288D01*
X108478213Y-55310292D01*
X108589707Y-55421786D01*
X108589711Y-55421789D01*
X108720814Y-55509390D01*
X108720827Y-55509397D01*
X108866498Y-55569735D01*
X108866503Y-55569737D01*
X109021153Y-55600499D01*
X109021156Y-55600500D01*
X109021158Y-55600500D01*
X109178844Y-55600500D01*
X109178845Y-55600499D01*
X109333497Y-55569737D01*
X109479179Y-55509394D01*
X109610289Y-55421789D01*
X109721789Y-55310289D01*
X109809394Y-55179179D01*
X109869737Y-55033497D01*
X109900500Y-54878842D01*
X109900500Y-54721158D01*
X109900500Y-54721155D01*
X109900499Y-54721153D01*
X109882467Y-54630500D01*
X109869737Y-54566503D01*
X109857725Y-54537503D01*
X109809397Y-54420827D01*
X109809390Y-54420814D01*
X109721789Y-54289711D01*
X109721786Y-54289707D01*
X109610292Y-54178213D01*
X109610288Y-54178210D01*
X109479185Y-54090609D01*
X109479172Y-54090602D01*
X109333501Y-54030264D01*
X109333489Y-54030261D01*
X109178845Y-53999500D01*
X109178842Y-53999500D01*
X109053133Y-53999500D01*
X108986094Y-53979815D01*
X108940339Y-53927011D01*
X108930395Y-53857853D01*
X108931516Y-53851309D01*
X108945499Y-53781007D01*
X108945500Y-53781004D01*
X108945500Y-53578996D01*
X108945499Y-53578992D01*
X108906091Y-53380873D01*
X108828786Y-53194244D01*
X108828784Y-53194241D01*
X108828782Y-53194237D01*
X108716558Y-53026281D01*
X108573718Y-52883441D01*
X108405762Y-52771217D01*
X108405752Y-52771212D01*
X108219127Y-52693909D01*
X108219119Y-52693907D01*
X108021007Y-52654500D01*
X108021003Y-52654500D01*
X106768997Y-52654500D01*
X106768992Y-52654500D01*
X106570880Y-52693907D01*
X106570872Y-52693909D01*
X106384247Y-52771212D01*
X106384237Y-52771217D01*
X106216281Y-52883441D01*
X106073441Y-53026281D01*
X105961217Y-53194237D01*
X105961212Y-53194247D01*
X105883909Y-53380872D01*
X105883907Y-53380880D01*
X105844500Y-53578992D01*
X105844500Y-53781007D01*
X105883907Y-53979119D01*
X105883909Y-53979127D01*
X105961212Y-54165752D01*
X105961217Y-54165762D01*
X106073441Y-54333718D01*
X106216278Y-54476555D01*
X106216286Y-54476561D01*
X106389309Y-54592171D01*
X106388567Y-54593281D01*
X106433534Y-54637447D01*
X106449000Y-54705584D01*
X106432628Y-54759850D01*
X106358720Y-54887861D01*
X106358720Y-54887862D01*
X106319500Y-55034234D01*
X106319500Y-55163149D01*
X106299815Y-55230188D01*
X106247011Y-55275943D01*
X106177853Y-55285887D01*
X106148048Y-55277711D01*
X106128827Y-55269750D01*
X106033497Y-55230263D01*
X106033492Y-55230262D01*
X106033489Y-55230261D01*
X105878845Y-55199500D01*
X105878842Y-55199500D01*
X105721158Y-55199500D01*
X105721155Y-55199500D01*
X105566510Y-55230261D01*
X105566498Y-55230264D01*
X105420827Y-55290602D01*
X105420814Y-55290609D01*
X105289711Y-55378210D01*
X105289707Y-55378213D01*
X105178213Y-55489707D01*
X105178210Y-55489711D01*
X105090609Y-55620814D01*
X105090602Y-55620827D01*
X105030264Y-55766498D01*
X105030261Y-55766510D01*
X104999500Y-55921153D01*
X104999500Y-56078846D01*
X105030261Y-56233489D01*
X105030264Y-56233501D01*
X105090602Y-56379172D01*
X105090609Y-56379185D01*
X105178210Y-56510288D01*
X105178213Y-56510292D01*
X105289707Y-56621786D01*
X105289711Y-56621789D01*
X105420814Y-56709390D01*
X105420827Y-56709397D01*
X105566498Y-56769735D01*
X105566503Y-56769737D01*
X105628030Y-56781975D01*
X105707818Y-56797847D01*
X105769729Y-56830232D01*
X105804303Y-56890948D01*
X105805244Y-56943655D01*
X105799973Y-56970153D01*
X105799973Y-57127846D01*
X105830734Y-57282489D01*
X105830737Y-57282501D01*
X105891075Y-57428172D01*
X105891082Y-57428185D01*
X105978683Y-57559288D01*
X105978686Y-57559292D01*
X106008681Y-57589287D01*
X106042166Y-57650610D01*
X106037182Y-57720302D01*
X106024102Y-57745859D01*
X105940609Y-57870814D01*
X105940602Y-57870827D01*
X105880264Y-58016498D01*
X105880261Y-58016510D01*
X105849500Y-58171153D01*
X105849500Y-58328846D01*
X105880261Y-58483489D01*
X105880264Y-58483501D01*
X105940602Y-58629172D01*
X105940609Y-58629185D01*
X106028210Y-58760288D01*
X106028213Y-58760292D01*
X106033262Y-58765341D01*
X106066747Y-58826664D01*
X106061763Y-58896356D01*
X106019891Y-58952289D01*
X105969774Y-58974639D01*
X105941507Y-58980261D01*
X105941498Y-58980264D01*
X105795827Y-59040602D01*
X105795814Y-59040609D01*
X105664711Y-59128210D01*
X105664707Y-59128213D01*
X105553213Y-59239707D01*
X105553210Y-59239711D01*
X105465609Y-59370814D01*
X105465602Y-59370827D01*
X105405264Y-59516498D01*
X105405261Y-59516510D01*
X105374500Y-59671153D01*
X105374500Y-59828846D01*
X105405261Y-59983489D01*
X105405264Y-59983501D01*
X105465602Y-60129172D01*
X105465609Y-60129185D01*
X105553210Y-60260288D01*
X105553213Y-60260292D01*
X105664707Y-60371786D01*
X105664711Y-60371789D01*
X105795814Y-60459390D01*
X105795827Y-60459397D01*
X105871181Y-60490609D01*
X105941503Y-60519737D01*
X106096153Y-60550499D01*
X106096156Y-60550500D01*
X106228567Y-60550500D01*
X106295606Y-60570185D01*
X106341361Y-60622989D01*
X106351305Y-60692147D01*
X106348342Y-60706592D01*
X106319500Y-60814234D01*
X106319500Y-60965766D01*
X106319699Y-60966510D01*
X106358720Y-61112137D01*
X106358720Y-61112138D01*
X106432628Y-61240149D01*
X106449101Y-61308049D01*
X106426249Y-61374076D01*
X106388778Y-61407035D01*
X106389309Y-61407829D01*
X106216281Y-61523441D01*
X106073441Y-61666281D01*
X105961217Y-61834237D01*
X105961212Y-61834247D01*
X105883909Y-62020872D01*
X105883907Y-62020880D01*
X105844500Y-62218992D01*
X105844500Y-62421006D01*
X105860573Y-62501809D01*
X105854346Y-62571400D01*
X105811483Y-62626578D01*
X105745593Y-62649822D01*
X105738956Y-62650000D01*
X104719575Y-62650000D01*
X104652536Y-62630315D01*
X104606781Y-62577511D01*
X104596837Y-62508353D01*
X104597958Y-62501809D01*
X104615499Y-62413620D01*
X104615500Y-62413617D01*
X104615500Y-62226383D01*
X104615499Y-62226379D01*
X104578974Y-62042756D01*
X104578973Y-62042749D01*
X104507322Y-61869769D01*
X104507321Y-61869768D01*
X104507318Y-61869762D01*
X104403302Y-61714092D01*
X104403299Y-61714088D01*
X104270911Y-61581700D01*
X104270907Y-61581697D01*
X104115237Y-61477681D01*
X104115228Y-61477676D01*
X103942251Y-61406027D01*
X103942243Y-61406025D01*
X103758620Y-61369500D01*
X103758616Y-61369500D01*
X102671384Y-61369500D01*
X102671379Y-61369500D01*
X102487756Y-61406025D01*
X102487748Y-61406027D01*
X102314771Y-61477676D01*
X102314762Y-61477681D01*
X102159092Y-61581697D01*
X102159088Y-61581700D01*
X102026700Y-61714088D01*
X102026697Y-61714092D01*
X101922681Y-61869762D01*
X101922676Y-61869771D01*
X101851027Y-62042748D01*
X101851025Y-62042756D01*
X101814500Y-62226379D01*
X101814500Y-62413620D01*
X101832042Y-62501809D01*
X101825815Y-62571401D01*
X101782952Y-62626578D01*
X101717062Y-62649822D01*
X101710425Y-62650000D01*
X100624500Y-62650000D01*
X100557461Y-62630315D01*
X100511706Y-62577511D01*
X100500500Y-62526000D01*
X100500500Y-53586379D01*
X101814500Y-53586379D01*
X101814500Y-53773620D01*
X101851025Y-53957243D01*
X101851027Y-53957251D01*
X101922676Y-54130228D01*
X101922681Y-54130237D01*
X102026697Y-54285907D01*
X102026700Y-54285911D01*
X102159088Y-54418299D01*
X102159092Y-54418302D01*
X102314762Y-54522318D01*
X102314771Y-54522323D01*
X102351419Y-54537503D01*
X102487749Y-54593973D01*
X102643055Y-54624865D01*
X102671379Y-54630499D01*
X102671383Y-54630500D01*
X102671384Y-54630500D01*
X103758617Y-54630500D01*
X103758618Y-54630499D01*
X103942251Y-54593973D01*
X104115231Y-54522322D01*
X104270908Y-54418302D01*
X104403302Y-54285908D01*
X104507322Y-54130231D01*
X104578973Y-53957251D01*
X104615500Y-53773616D01*
X104615500Y-53586384D01*
X104578973Y-53402749D01*
X104507322Y-53229769D01*
X104507321Y-53229768D01*
X104507318Y-53229762D01*
X104403302Y-53074092D01*
X104403299Y-53074088D01*
X104270911Y-52941700D01*
X104270907Y-52941697D01*
X104115237Y-52837681D01*
X104115228Y-52837676D01*
X103942251Y-52766027D01*
X103942243Y-52766025D01*
X103758620Y-52729500D01*
X103758616Y-52729500D01*
X102671384Y-52729500D01*
X102671379Y-52729500D01*
X102487756Y-52766025D01*
X102487748Y-52766027D01*
X102314771Y-52837676D01*
X102314762Y-52837681D01*
X102159092Y-52941697D01*
X102159088Y-52941700D01*
X102026700Y-53074088D01*
X102026697Y-53074092D01*
X101922681Y-53229762D01*
X101922676Y-53229771D01*
X101851027Y-53402748D01*
X101851025Y-53402756D01*
X101814500Y-53586379D01*
X100500500Y-53586379D01*
X100500500Y-50843213D01*
X108200500Y-50843213D01*
X108200500Y-51055786D01*
X108228134Y-51230264D01*
X108233754Y-51265743D01*
X108297505Y-51461949D01*
X108299444Y-51467914D01*
X108395951Y-51657320D01*
X108520890Y-51829286D01*
X108671213Y-51979609D01*
X108843179Y-52104548D01*
X108843181Y-52104549D01*
X108843184Y-52104551D01*
X109032588Y-52201057D01*
X109234757Y-52266746D01*
X109444713Y-52300000D01*
X109444714Y-52300000D01*
X109657286Y-52300000D01*
X109657287Y-52300000D01*
X109867243Y-52266746D01*
X110069412Y-52201057D01*
X110258816Y-52104551D01*
X110294202Y-52078842D01*
X110430786Y-51979609D01*
X110430788Y-51979606D01*
X110430792Y-51979604D01*
X110581104Y-51829292D01*
X110581106Y-51829288D01*
X110581109Y-51829286D01*
X110706048Y-51657320D01*
X110706047Y-51657320D01*
X110706051Y-51657316D01*
X110802557Y-51467912D01*
X110868246Y-51265743D01*
X110901500Y-51055787D01*
X110901500Y-50843213D01*
X110868246Y-50633257D01*
X110802557Y-50431088D01*
X110706051Y-50241684D01*
X110706049Y-50241681D01*
X110706048Y-50241679D01*
X110581109Y-50069713D01*
X110430786Y-49919390D01*
X110258820Y-49794451D01*
X110069414Y-49697944D01*
X110069413Y-49697943D01*
X110069412Y-49697943D01*
X109867243Y-49632254D01*
X109867241Y-49632253D01*
X109867240Y-49632253D01*
X109705957Y-49606708D01*
X109657287Y-49599000D01*
X109444713Y-49599000D01*
X109396042Y-49606708D01*
X109234760Y-49632253D01*
X109032585Y-49697944D01*
X108843179Y-49794451D01*
X108671213Y-49919390D01*
X108520890Y-50069713D01*
X108395951Y-50241679D01*
X108299444Y-50431085D01*
X108233753Y-50633260D01*
X108200500Y-50843213D01*
X100500500Y-50843213D01*
X100500500Y-44121153D01*
X111799500Y-44121153D01*
X111799500Y-44278846D01*
X111830261Y-44433489D01*
X111830264Y-44433501D01*
X111890602Y-44579172D01*
X111890609Y-44579185D01*
X111978210Y-44710288D01*
X111978213Y-44710292D01*
X112089707Y-44821786D01*
X112089711Y-44821789D01*
X112220814Y-44909390D01*
X112220827Y-44909397D01*
X112366498Y-44969735D01*
X112366503Y-44969737D01*
X112502602Y-44996809D01*
X112521153Y-45000499D01*
X112521156Y-45000500D01*
X112521158Y-45000500D01*
X112678844Y-45000500D01*
X112678845Y-45000499D01*
X112833497Y-44969737D01*
X112979179Y-44909394D01*
X113110289Y-44821789D01*
X113221789Y-44710289D01*
X113309394Y-44579179D01*
X113369737Y-44433497D01*
X113400500Y-44278842D01*
X113400500Y-44121158D01*
X113400500Y-44121155D01*
X113400499Y-44121153D01*
X113390494Y-44070857D01*
X113369737Y-43966503D01*
X113364973Y-43955001D01*
X113309397Y-43820827D01*
X113309390Y-43820814D01*
X113221789Y-43689711D01*
X113221786Y-43689707D01*
X113110292Y-43578213D01*
X113110288Y-43578210D01*
X112979185Y-43490609D01*
X112979172Y-43490602D01*
X112833501Y-43430264D01*
X112833489Y-43430261D01*
X112678845Y-43399500D01*
X112678842Y-43399500D01*
X112521158Y-43399500D01*
X112521155Y-43399500D01*
X112366510Y-43430261D01*
X112366498Y-43430264D01*
X112220827Y-43490602D01*
X112220814Y-43490609D01*
X112089711Y-43578210D01*
X112089707Y-43578213D01*
X111978213Y-43689707D01*
X111978210Y-43689711D01*
X111890609Y-43820814D01*
X111890602Y-43820827D01*
X111830264Y-43966498D01*
X111830261Y-43966510D01*
X111799500Y-44121153D01*
X100500500Y-44121153D01*
X100500500Y-38938226D01*
X100520185Y-38871187D01*
X100572989Y-38825432D01*
X100642147Y-38815488D01*
X100705703Y-38844513D01*
X100742431Y-38899908D01*
X100748444Y-38918414D01*
X100844951Y-39107820D01*
X100969890Y-39279786D01*
X101120213Y-39430109D01*
X101292179Y-39555048D01*
X101292181Y-39555049D01*
X101292184Y-39555051D01*
X101481588Y-39651557D01*
X101683757Y-39717246D01*
X101893713Y-39750500D01*
X101893714Y-39750500D01*
X102106286Y-39750500D01*
X102106287Y-39750500D01*
X102316243Y-39717246D01*
X102518412Y-39651557D01*
X102707816Y-39555051D01*
X102729789Y-39539086D01*
X102879786Y-39430109D01*
X102879788Y-39430106D01*
X102879792Y-39430104D01*
X103030104Y-39279792D01*
X103030106Y-39279788D01*
X103030109Y-39279786D01*
X103155048Y-39107820D01*
X103155047Y-39107820D01*
X103155051Y-39107816D01*
X103251557Y-38918412D01*
X103317246Y-38716243D01*
X103350500Y-38506287D01*
X103350500Y-38293713D01*
X103317246Y-38083757D01*
X103251557Y-37881588D01*
X103155051Y-37692184D01*
X103155049Y-37692181D01*
X103155048Y-37692179D01*
X103030109Y-37520213D01*
X102879786Y-37369890D01*
X102707817Y-37244949D01*
X102688261Y-37234985D01*
X102637464Y-37187011D01*
X102620669Y-37119190D01*
X102643206Y-37053055D01*
X102697921Y-37009603D01*
X102744555Y-37000500D01*
X118905832Y-37000500D01*
X118972871Y-37020185D01*
G37*
%TD.AperFunction*%
%TD*%
%TA.AperFunction,Conductor*%
%TO.N,Vbat*%
G36*
X129972871Y-37020185D02*
G01*
X130018626Y-37072989D01*
X130028570Y-37142147D01*
X130008933Y-37193392D01*
X129990610Y-37220812D01*
X129990602Y-37220827D01*
X129930264Y-37366498D01*
X129930261Y-37366510D01*
X129899500Y-37521153D01*
X129899500Y-37678846D01*
X129930261Y-37833489D01*
X129930264Y-37833501D01*
X129990602Y-37979172D01*
X129990609Y-37979185D01*
X130078210Y-38110288D01*
X130078213Y-38110292D01*
X130189707Y-38221786D01*
X130189711Y-38221789D01*
X130320814Y-38309390D01*
X130320827Y-38309397D01*
X130438179Y-38358005D01*
X130466503Y-38369737D01*
X130621153Y-38400499D01*
X130621156Y-38400500D01*
X130621158Y-38400500D01*
X130778844Y-38400500D01*
X130778845Y-38400499D01*
X130933497Y-38369737D01*
X131079179Y-38309394D01*
X131210289Y-38221789D01*
X131321789Y-38110289D01*
X131409394Y-37979179D01*
X131469737Y-37833497D01*
X131500500Y-37678842D01*
X131500500Y-37521158D01*
X131500500Y-37521155D01*
X131500499Y-37521153D01*
X131498154Y-37509366D01*
X131469737Y-37366503D01*
X131428316Y-37266502D01*
X131409397Y-37220827D01*
X131409389Y-37220812D01*
X131391067Y-37193392D01*
X131370188Y-37126715D01*
X131388672Y-37059334D01*
X131440650Y-37012644D01*
X131494168Y-37000500D01*
X141154866Y-37000500D01*
X141221905Y-37020185D01*
X141267660Y-37072989D01*
X141277604Y-37142147D01*
X141269427Y-37171950D01*
X141255447Y-37205703D01*
X141230263Y-37266502D01*
X141230261Y-37266510D01*
X141199500Y-37421153D01*
X141199500Y-37578846D01*
X141230261Y-37733489D01*
X141230264Y-37733501D01*
X141290602Y-37879172D01*
X141290609Y-37879185D01*
X141378210Y-38010288D01*
X141378213Y-38010292D01*
X141489707Y-38121786D01*
X141489711Y-38121789D01*
X141620814Y-38209390D01*
X141620827Y-38209397D01*
X141766498Y-38269735D01*
X141766503Y-38269737D01*
X141887038Y-38293713D01*
X141921153Y-38300499D01*
X141921156Y-38300500D01*
X141921158Y-38300500D01*
X142078844Y-38300500D01*
X142078845Y-38300499D01*
X142233497Y-38269737D01*
X142379179Y-38209394D01*
X142510289Y-38121789D01*
X142621789Y-38010289D01*
X142709394Y-37879179D01*
X142769737Y-37733497D01*
X142800500Y-37578842D01*
X142800500Y-37421158D01*
X142800500Y-37421155D01*
X142800499Y-37421153D01*
X142769738Y-37266510D01*
X142769737Y-37266503D01*
X142730572Y-37171951D01*
X142723104Y-37102483D01*
X142754379Y-37040004D01*
X142814468Y-37004352D01*
X142845134Y-37000500D01*
X148255445Y-37000500D01*
X148322484Y-37020185D01*
X148368239Y-37072989D01*
X148378183Y-37142147D01*
X148349158Y-37205703D01*
X148311739Y-37234985D01*
X148292182Y-37244949D01*
X148120213Y-37369890D01*
X147969890Y-37520213D01*
X147844951Y-37692179D01*
X147748444Y-37881585D01*
X147682753Y-38083760D01*
X147649500Y-38293713D01*
X147649500Y-38506286D01*
X147682753Y-38716239D01*
X147748444Y-38918414D01*
X147844951Y-39107820D01*
X147969890Y-39279786D01*
X148120213Y-39430109D01*
X148292179Y-39555048D01*
X148292181Y-39555049D01*
X148292184Y-39555051D01*
X148481588Y-39651557D01*
X148683757Y-39717246D01*
X148893713Y-39750500D01*
X148893714Y-39750500D01*
X149106286Y-39750500D01*
X149106287Y-39750500D01*
X149316243Y-39717246D01*
X149518412Y-39651557D01*
X149707816Y-39555051D01*
X149729789Y-39539086D01*
X149879786Y-39430109D01*
X149879788Y-39430106D01*
X149879792Y-39430104D01*
X150030104Y-39279792D01*
X150075181Y-39217747D01*
X150130511Y-39175082D01*
X150200124Y-39169103D01*
X150261920Y-39201708D01*
X150296277Y-39262547D01*
X150299500Y-39290633D01*
X150299500Y-42526000D01*
X150279815Y-42593039D01*
X150227011Y-42638794D01*
X150175500Y-42650000D01*
X149172170Y-42650000D01*
X149133852Y-42643931D01*
X148995348Y-42598928D01*
X148875689Y-42579976D01*
X148815861Y-42570500D01*
X148634139Y-42570500D01*
X148574310Y-42579976D01*
X148454652Y-42598928D01*
X148454649Y-42598928D01*
X148316148Y-42643931D01*
X148277830Y-42650000D01*
X145972170Y-42650000D01*
X145933852Y-42643931D01*
X145795348Y-42598928D01*
X145675689Y-42579976D01*
X145615861Y-42570500D01*
X145434139Y-42570500D01*
X145374310Y-42579976D01*
X145254652Y-42598928D01*
X145254649Y-42598928D01*
X145116148Y-42643931D01*
X145077830Y-42650000D01*
X144500000Y-42650000D01*
X144500000Y-43163900D01*
X144486485Y-43220194D01*
X144455085Y-43281820D01*
X144455081Y-43281828D01*
X144398928Y-43454649D01*
X144398928Y-43454652D01*
X144370500Y-43634139D01*
X144370500Y-43815860D01*
X144398927Y-43995346D01*
X144455085Y-44168180D01*
X144486484Y-44229802D01*
X144500000Y-44286098D01*
X144500000Y-45663900D01*
X144498646Y-45670990D01*
X144499481Y-45675234D01*
X144494643Y-45691969D01*
X144491286Y-45709564D01*
X144489134Y-45714996D01*
X144455083Y-45781826D01*
X144420474Y-45888341D01*
X144419033Y-45891980D01*
X144399841Y-45916569D01*
X144382240Y-45942310D01*
X144378525Y-45943879D01*
X144376044Y-45947059D01*
X144346611Y-45957366D01*
X144317882Y-45969508D01*
X144311439Y-45969684D01*
X144310102Y-45970153D01*
X144308479Y-45969765D01*
X144296382Y-45970097D01*
X144294839Y-45970005D01*
X144294838Y-45970005D01*
X144294836Y-45970005D01*
X141425575Y-46004370D01*
X141358305Y-45985490D01*
X141311921Y-45933238D01*
X141301150Y-45864203D01*
X141320988Y-45811488D01*
X141409390Y-45679185D01*
X141409390Y-45679184D01*
X141409394Y-45679179D01*
X141469737Y-45533497D01*
X141500500Y-45378842D01*
X141500500Y-45221158D01*
X141500500Y-45221155D01*
X141500499Y-45221153D01*
X141478447Y-45110292D01*
X141469737Y-45066503D01*
X141463109Y-45050501D01*
X141409397Y-44920827D01*
X141409390Y-44920814D01*
X141321789Y-44789711D01*
X141321786Y-44789707D01*
X141210292Y-44678213D01*
X141210288Y-44678210D01*
X141120429Y-44618168D01*
X141079185Y-44590609D01*
X141079172Y-44590602D01*
X140933501Y-44530264D01*
X140933489Y-44530261D01*
X140887701Y-44521153D01*
X141799500Y-44521153D01*
X141799500Y-44678846D01*
X141830261Y-44833489D01*
X141830264Y-44833501D01*
X141890602Y-44979172D01*
X141890609Y-44979185D01*
X141978210Y-45110288D01*
X141978213Y-45110292D01*
X142089707Y-45221786D01*
X142089711Y-45221789D01*
X142220814Y-45309390D01*
X142220827Y-45309397D01*
X142305326Y-45344397D01*
X142366503Y-45369737D01*
X142521153Y-45400499D01*
X142521156Y-45400500D01*
X142521158Y-45400500D01*
X142678844Y-45400500D01*
X142678845Y-45400499D01*
X142833497Y-45369737D01*
X142979179Y-45309394D01*
X143110289Y-45221789D01*
X143221789Y-45110289D01*
X143309394Y-44979179D01*
X143317588Y-44959398D01*
X143323067Y-44946166D01*
X143369737Y-44833497D01*
X143400500Y-44678842D01*
X143400500Y-44521158D01*
X143400500Y-44521155D01*
X143400499Y-44521153D01*
X143372192Y-44378846D01*
X143369737Y-44366503D01*
X143369735Y-44366498D01*
X143309397Y-44220827D01*
X143309390Y-44220814D01*
X143221789Y-44089711D01*
X143221786Y-44089707D01*
X143110292Y-43978213D01*
X143110288Y-43978210D01*
X142979185Y-43890609D01*
X142979172Y-43890602D01*
X142833501Y-43830264D01*
X142833489Y-43830261D01*
X142678845Y-43799500D01*
X142678842Y-43799500D01*
X142521158Y-43799500D01*
X142521155Y-43799500D01*
X142366510Y-43830261D01*
X142366498Y-43830264D01*
X142220827Y-43890602D01*
X142220814Y-43890609D01*
X142089711Y-43978210D01*
X142089707Y-43978213D01*
X141978213Y-44089707D01*
X141978210Y-44089711D01*
X141890609Y-44220814D01*
X141890602Y-44220827D01*
X141830264Y-44366498D01*
X141830261Y-44366510D01*
X141799500Y-44521153D01*
X140887701Y-44521153D01*
X140778845Y-44499500D01*
X140778842Y-44499500D01*
X140621158Y-44499500D01*
X140621155Y-44499500D01*
X140466510Y-44530261D01*
X140466498Y-44530264D01*
X140320827Y-44590602D01*
X140320814Y-44590609D01*
X140189711Y-44678210D01*
X140189707Y-44678213D01*
X140078213Y-44789707D01*
X140078210Y-44789711D01*
X139990609Y-44920814D01*
X139990602Y-44920827D01*
X139930264Y-45066498D01*
X139930261Y-45066510D01*
X139899500Y-45221153D01*
X139899500Y-45378846D01*
X139930261Y-45533489D01*
X139930264Y-45533501D01*
X139990602Y-45679172D01*
X139990609Y-45679185D01*
X140078210Y-45810288D01*
X140082076Y-45814999D01*
X140081051Y-45815839D01*
X140111278Y-45871195D01*
X140106294Y-45940887D01*
X140064422Y-45996820D01*
X139998958Y-46021237D01*
X139991597Y-46021544D01*
X129866456Y-46142816D01*
X129866453Y-46142816D01*
X129762103Y-46154986D01*
X129762101Y-46154986D01*
X129762095Y-46154987D01*
X129762086Y-46154988D01*
X129762086Y-46154989D01*
X129712069Y-46166184D01*
X129612500Y-46199656D01*
X129612492Y-46199660D01*
X129491462Y-46277442D01*
X129491451Y-46277450D01*
X129438659Y-46323194D01*
X129344433Y-46431935D01*
X129344430Y-46431939D01*
X129284660Y-46562813D01*
X129283116Y-46566956D01*
X129281126Y-46566214D01*
X129247840Y-46617703D01*
X129184207Y-46646557D01*
X129168537Y-46647761D01*
X129000000Y-46650000D01*
X129000000Y-51718559D01*
X128980315Y-51785598D01*
X128927511Y-51831353D01*
X128858353Y-51841297D01*
X128794797Y-51812272D01*
X128788319Y-51806240D01*
X128760292Y-51778213D01*
X128760288Y-51778210D01*
X128629185Y-51690609D01*
X128629172Y-51690602D01*
X128483501Y-51630264D01*
X128483489Y-51630261D01*
X128328845Y-51599500D01*
X128328842Y-51599500D01*
X128171158Y-51599500D01*
X128171155Y-51599500D01*
X128016510Y-51630261D01*
X128016503Y-51630263D01*
X127920984Y-51669827D01*
X127851515Y-51677294D01*
X127789036Y-51646019D01*
X127753384Y-51585929D01*
X127751834Y-51577103D01*
X127751688Y-51577133D01*
X127731325Y-51474768D01*
X127719736Y-51416504D01*
X127667588Y-51290606D01*
X127659396Y-51270828D01*
X127659389Y-51270815D01*
X127571788Y-51139712D01*
X127571785Y-51139708D01*
X127460291Y-51028214D01*
X127460287Y-51028211D01*
X127329184Y-50940610D01*
X127329171Y-50940603D01*
X127183500Y-50880265D01*
X127183488Y-50880262D01*
X127028844Y-50849501D01*
X127028841Y-50849501D01*
X126871157Y-50849501D01*
X126871154Y-50849501D01*
X126716509Y-50880262D01*
X126716497Y-50880265D01*
X126570826Y-50940603D01*
X126570813Y-50940610D01*
X126439710Y-51028211D01*
X126439706Y-51028214D01*
X126328212Y-51139708D01*
X126328209Y-51139712D01*
X126240608Y-51270815D01*
X126240601Y-51270828D01*
X126180263Y-51416499D01*
X126180260Y-51416511D01*
X126149499Y-51571154D01*
X126149499Y-51728847D01*
X126180260Y-51883490D01*
X126180263Y-51883502D01*
X126240601Y-52029173D01*
X126240608Y-52029186D01*
X126328209Y-52160289D01*
X126328212Y-52160293D01*
X126439706Y-52271787D01*
X126439710Y-52271790D01*
X126570813Y-52359391D01*
X126570826Y-52359398D01*
X126716497Y-52419736D01*
X126716502Y-52419738D01*
X126871152Y-52450500D01*
X126871155Y-52450501D01*
X126871157Y-52450501D01*
X127028843Y-52450501D01*
X127028844Y-52450500D01*
X127183496Y-52419738D01*
X127279012Y-52380173D01*
X127348482Y-52372705D01*
X127410961Y-52403980D01*
X127446613Y-52464069D01*
X127448165Y-52472896D01*
X127448311Y-52472868D01*
X127480261Y-52633489D01*
X127480264Y-52633501D01*
X127540602Y-52779172D01*
X127540609Y-52779185D01*
X127628210Y-52910288D01*
X127628213Y-52910292D01*
X127739707Y-53021786D01*
X127739711Y-53021789D01*
X127870814Y-53109390D01*
X127870827Y-53109397D01*
X128016498Y-53169735D01*
X128016503Y-53169737D01*
X128171153Y-53200499D01*
X128171156Y-53200500D01*
X128171158Y-53200500D01*
X128328844Y-53200500D01*
X128328845Y-53200499D01*
X128483497Y-53169737D01*
X128629179Y-53109394D01*
X128760289Y-53021789D01*
X128760292Y-53021786D01*
X128788319Y-52993760D01*
X128849642Y-52960275D01*
X128919334Y-52965259D01*
X128975267Y-53007131D01*
X128999684Y-53072595D01*
X129000000Y-53081441D01*
X129000000Y-54270500D01*
X128980315Y-54337539D01*
X128927511Y-54383294D01*
X128876000Y-54394500D01*
X122124000Y-54394500D01*
X122123991Y-54394500D01*
X122123990Y-54394501D01*
X122079457Y-54399289D01*
X122066202Y-54400000D01*
X120124000Y-54400000D01*
X120056961Y-54380315D01*
X120011206Y-54327511D01*
X120000000Y-54276000D01*
X120000000Y-52580513D01*
X120019685Y-52513474D01*
X120020898Y-52511622D01*
X120061738Y-52450501D01*
X120109394Y-52379179D01*
X120117588Y-52359398D01*
X120153567Y-52272535D01*
X120169737Y-52233497D01*
X120200500Y-52078842D01*
X120200500Y-51921158D01*
X120200500Y-51921155D01*
X120200499Y-51921153D01*
X120193007Y-51883490D01*
X120169737Y-51766503D01*
X120169735Y-51766498D01*
X120109397Y-51620827D01*
X120109390Y-51620814D01*
X120020898Y-51488377D01*
X120000020Y-51421700D01*
X120000000Y-51419486D01*
X120000000Y-50121153D01*
X120299500Y-50121153D01*
X120299500Y-50278846D01*
X120330261Y-50433489D01*
X120330264Y-50433501D01*
X120390602Y-50579172D01*
X120390609Y-50579185D01*
X120478210Y-50710288D01*
X120478213Y-50710292D01*
X120589707Y-50821786D01*
X120589711Y-50821789D01*
X120720814Y-50909390D01*
X120720827Y-50909397D01*
X120866498Y-50969735D01*
X120866503Y-50969737D01*
X121021153Y-51000499D01*
X121021156Y-51000500D01*
X121021158Y-51000500D01*
X121178844Y-51000500D01*
X121178845Y-51000499D01*
X121333497Y-50969737D01*
X121479179Y-50909394D01*
X121610289Y-50821789D01*
X121721789Y-50710289D01*
X121809394Y-50579179D01*
X121869737Y-50433497D01*
X121900500Y-50278842D01*
X121900500Y-50121158D01*
X121900500Y-50121155D01*
X121900499Y-50121153D01*
X121869738Y-49966510D01*
X121869737Y-49966503D01*
X121869735Y-49966498D01*
X121809397Y-49820827D01*
X121809390Y-49820814D01*
X121721789Y-49689711D01*
X121721786Y-49689707D01*
X121610292Y-49578213D01*
X121610288Y-49578210D01*
X121479185Y-49490609D01*
X121479172Y-49490602D01*
X121333501Y-49430264D01*
X121333489Y-49430261D01*
X121178845Y-49399500D01*
X121178842Y-49399500D01*
X121021158Y-49399500D01*
X121021155Y-49399500D01*
X120866510Y-49430261D01*
X120866498Y-49430264D01*
X120720827Y-49490602D01*
X120720814Y-49490609D01*
X120589711Y-49578210D01*
X120589707Y-49578213D01*
X120478213Y-49689707D01*
X120478210Y-49689711D01*
X120390609Y-49820814D01*
X120390602Y-49820827D01*
X120330264Y-49966498D01*
X120330261Y-49966510D01*
X120299500Y-50121153D01*
X120000000Y-50121153D01*
X120000000Y-45167948D01*
X120019685Y-45100909D01*
X120072489Y-45055154D01*
X120099809Y-45046331D01*
X120168435Y-45032679D01*
X120233497Y-45019738D01*
X120379179Y-44959395D01*
X120510289Y-44871790D01*
X120621789Y-44760290D01*
X120709394Y-44629180D01*
X120769737Y-44483498D01*
X120800500Y-44328843D01*
X120800500Y-44171159D01*
X120800500Y-44171156D01*
X120800499Y-44171154D01*
X120770788Y-44021789D01*
X120769737Y-44016504D01*
X120760973Y-43995346D01*
X120709397Y-43870828D01*
X120709390Y-43870815D01*
X120621789Y-43739712D01*
X120621786Y-43739708D01*
X120510292Y-43628214D01*
X120510288Y-43628211D01*
X120379185Y-43540610D01*
X120379172Y-43540603D01*
X120233501Y-43480265D01*
X120233491Y-43480262D01*
X120099808Y-43453670D01*
X120071677Y-43438955D01*
X120042797Y-43425766D01*
X120040940Y-43422876D01*
X120037897Y-43421285D01*
X120022184Y-43393692D01*
X120005023Y-43366988D01*
X120004362Y-43362394D01*
X120003323Y-43360569D01*
X120000000Y-43332053D01*
X120000000Y-43321153D01*
X126176978Y-43321153D01*
X126176978Y-43478846D01*
X126207739Y-43633489D01*
X126207742Y-43633501D01*
X126268080Y-43779172D01*
X126268087Y-43779185D01*
X126355688Y-43910288D01*
X126355691Y-43910292D01*
X126467185Y-44021786D01*
X126467189Y-44021789D01*
X126598292Y-44109390D01*
X126598305Y-44109397D01*
X126740222Y-44168180D01*
X126743981Y-44169737D01*
X126898631Y-44200499D01*
X126898634Y-44200500D01*
X126898636Y-44200500D01*
X127056322Y-44200500D01*
X127056323Y-44200499D01*
X127203851Y-44171154D01*
X130199500Y-44171154D01*
X130199500Y-44328847D01*
X130230261Y-44483490D01*
X130230264Y-44483502D01*
X130290602Y-44629173D01*
X130290609Y-44629186D01*
X130378210Y-44760289D01*
X130378213Y-44760293D01*
X130489707Y-44871787D01*
X130489711Y-44871790D01*
X130620814Y-44959391D01*
X130620827Y-44959398D01*
X130741530Y-45009394D01*
X130766503Y-45019738D01*
X130900194Y-45046331D01*
X130921153Y-45050500D01*
X130921156Y-45050501D01*
X130921158Y-45050501D01*
X131078844Y-45050501D01*
X131078845Y-45050500D01*
X131233497Y-45019738D01*
X131379179Y-44959395D01*
X131510289Y-44871790D01*
X131621789Y-44760290D01*
X131709394Y-44629180D01*
X131769737Y-44483498D01*
X131800500Y-44328843D01*
X131800500Y-44221153D01*
X133499500Y-44221153D01*
X133499500Y-44378846D01*
X133530261Y-44533489D01*
X133530264Y-44533501D01*
X133590602Y-44679172D01*
X133590609Y-44679185D01*
X133678210Y-44810288D01*
X133678213Y-44810292D01*
X133789707Y-44921786D01*
X133789711Y-44921789D01*
X133920814Y-45009390D01*
X133920827Y-45009397D01*
X134031296Y-45055154D01*
X134066503Y-45069737D01*
X134213255Y-45098928D01*
X134221153Y-45100499D01*
X134221156Y-45100500D01*
X134221158Y-45100500D01*
X134378844Y-45100500D01*
X134378845Y-45100499D01*
X134533497Y-45069737D01*
X134679179Y-45009394D01*
X134810289Y-44921789D01*
X134921789Y-44810289D01*
X135009394Y-44679179D01*
X135069737Y-44533497D01*
X135100500Y-44378842D01*
X135100500Y-44221158D01*
X135100500Y-44221155D01*
X135100499Y-44221153D01*
X135096391Y-44200499D01*
X135069737Y-44066503D01*
X135040263Y-43995346D01*
X135009397Y-43920827D01*
X135009390Y-43920814D01*
X134921789Y-43789711D01*
X134921786Y-43789707D01*
X134810292Y-43678213D01*
X134810288Y-43678210D01*
X134679185Y-43590609D01*
X134679172Y-43590602D01*
X134533501Y-43530264D01*
X134533489Y-43530261D01*
X134378845Y-43499500D01*
X134378842Y-43499500D01*
X134221158Y-43499500D01*
X134221155Y-43499500D01*
X134066510Y-43530261D01*
X134066498Y-43530264D01*
X133920827Y-43590602D01*
X133920814Y-43590609D01*
X133789711Y-43678210D01*
X133789707Y-43678213D01*
X133678213Y-43789707D01*
X133678210Y-43789711D01*
X133590609Y-43920814D01*
X133590602Y-43920827D01*
X133530264Y-44066498D01*
X133530261Y-44066510D01*
X133499500Y-44221153D01*
X131800500Y-44221153D01*
X131800500Y-44171159D01*
X131800500Y-44171156D01*
X131800499Y-44171154D01*
X131770788Y-44021789D01*
X131769737Y-44016504D01*
X131760973Y-43995346D01*
X131709397Y-43870828D01*
X131709390Y-43870815D01*
X131621789Y-43739712D01*
X131621786Y-43739708D01*
X131510292Y-43628214D01*
X131510288Y-43628211D01*
X131379185Y-43540610D01*
X131379172Y-43540603D01*
X131233501Y-43480265D01*
X131233489Y-43480262D01*
X131078845Y-43449501D01*
X131078842Y-43449501D01*
X130921158Y-43449501D01*
X130921155Y-43449501D01*
X130766510Y-43480262D01*
X130766498Y-43480265D01*
X130620827Y-43540603D01*
X130620814Y-43540610D01*
X130489711Y-43628211D01*
X130489707Y-43628214D01*
X130378213Y-43739708D01*
X130378210Y-43739712D01*
X130290609Y-43870815D01*
X130290602Y-43870828D01*
X130230264Y-44016499D01*
X130230261Y-44016511D01*
X130199500Y-44171154D01*
X127203851Y-44171154D01*
X127210975Y-44169737D01*
X127356657Y-44109394D01*
X127386121Y-44089707D01*
X127427640Y-44061965D01*
X127449354Y-44047455D01*
X127487767Y-44021789D01*
X127599267Y-43910289D01*
X127686872Y-43779179D01*
X127747215Y-43633497D01*
X127777978Y-43478842D01*
X127777978Y-43321158D01*
X127777978Y-43321155D01*
X127777977Y-43321153D01*
X127747216Y-43166510D01*
X127747215Y-43166503D01*
X127727916Y-43119910D01*
X127686875Y-43020827D01*
X127686868Y-43020814D01*
X127599267Y-42889711D01*
X127599264Y-42889707D01*
X127487770Y-42778213D01*
X127487766Y-42778210D01*
X127356663Y-42690609D01*
X127356650Y-42690602D01*
X127210979Y-42630264D01*
X127210967Y-42630261D01*
X127056323Y-42599500D01*
X127056320Y-42599500D01*
X126898636Y-42599500D01*
X126898633Y-42599500D01*
X126743988Y-42630261D01*
X126743976Y-42630264D01*
X126598305Y-42690602D01*
X126598292Y-42690609D01*
X126467189Y-42778210D01*
X126467185Y-42778213D01*
X126355691Y-42889707D01*
X126355688Y-42889711D01*
X126268087Y-43020814D01*
X126268080Y-43020827D01*
X126207742Y-43166498D01*
X126207739Y-43166510D01*
X126176978Y-43321153D01*
X120000000Y-43321153D01*
X120000000Y-40571153D01*
X126176978Y-40571153D01*
X126176978Y-40728846D01*
X126207739Y-40883489D01*
X126207742Y-40883501D01*
X126268080Y-41029172D01*
X126268087Y-41029185D01*
X126355688Y-41160288D01*
X126355691Y-41160292D01*
X126467185Y-41271786D01*
X126467189Y-41271789D01*
X126598292Y-41359390D01*
X126598305Y-41359397D01*
X126743976Y-41419735D01*
X126743981Y-41419737D01*
X126898631Y-41450499D01*
X126898634Y-41450500D01*
X126898636Y-41450500D01*
X127056322Y-41450500D01*
X127056323Y-41450499D01*
X127210975Y-41419737D01*
X127356657Y-41359394D01*
X127487767Y-41271789D01*
X127599267Y-41160289D01*
X127686872Y-41029179D01*
X127747215Y-40883497D01*
X127777978Y-40728842D01*
X127777978Y-40571158D01*
X127777978Y-40571155D01*
X127777977Y-40571153D01*
X127747216Y-40416510D01*
X127747215Y-40416503D01*
X127747213Y-40416498D01*
X127686875Y-40270827D01*
X127686868Y-40270814D01*
X127599267Y-40139711D01*
X127599264Y-40139707D01*
X127487770Y-40028213D01*
X127487766Y-40028210D01*
X127356663Y-39940609D01*
X127356650Y-39940602D01*
X127210979Y-39880264D01*
X127210967Y-39880261D01*
X127056323Y-39849500D01*
X127056320Y-39849500D01*
X126898636Y-39849500D01*
X126898633Y-39849500D01*
X126743988Y-39880261D01*
X126743976Y-39880264D01*
X126598305Y-39940602D01*
X126598292Y-39940609D01*
X126467189Y-40028210D01*
X126467185Y-40028213D01*
X126355691Y-40139707D01*
X126355688Y-40139711D01*
X126268087Y-40270814D01*
X126268080Y-40270827D01*
X126207742Y-40416498D01*
X126207739Y-40416510D01*
X126176978Y-40571153D01*
X120000000Y-40571153D01*
X120000000Y-38425044D01*
X120019685Y-38358005D01*
X120072489Y-38312250D01*
X120076500Y-38310503D01*
X120079179Y-38309394D01*
X120210289Y-38221789D01*
X120321789Y-38110289D01*
X120409394Y-37979179D01*
X120469737Y-37833497D01*
X120500500Y-37678842D01*
X120500500Y-37521158D01*
X120500500Y-37521155D01*
X120500499Y-37521153D01*
X120498154Y-37509366D01*
X120469737Y-37366503D01*
X120428316Y-37266502D01*
X120409397Y-37220827D01*
X120409389Y-37220812D01*
X120391067Y-37193392D01*
X120370188Y-37126715D01*
X120388672Y-37059334D01*
X120440650Y-37012644D01*
X120494168Y-37000500D01*
X129905832Y-37000500D01*
X129972871Y-37020185D01*
G37*
%TD.AperFunction*%
%TD*%
M02*
